<svg id="Livello_1" data-name="Livello 1" xmlns="http://www.w3.org/2000/svg" viewBox="0 0 99.5 24.95"><defs><style>.cls-1,.cls-2{fill:#fff;}.cls-2{font-size:12.5px;font-family:Mada-Regular, Mada;letter-spacing:0.2em;}.cls-3{letter-spacing:0.2em;}</style></defs><title>IO_chiara</title><rect class="cls-1" y="0.22" width="2.77" height="24.74"/><path class="cls-1" d="M29.16,17.36a13.48,13.48,0,0,0,0-9.58,12.7,12.7,0,0,0-2.38-3.92,11.15,11.15,0,0,0-3.59-2.68,10.56,10.56,0,0,0-8.93,0A11.14,11.14,0,0,0,10.7,3.86,12.7,12.7,0,0,0,8.32,7.78a13.48,13.48,0,0,0,0,9.58,12.87,12.87,0,0,0,2.38,3.93A11.26,11.26,0,0,0,14.26,24a10.56,10.56,0,0,0,8.93,0,11.27,11.27,0,0,0,3.59-2.67A12.87,12.87,0,0,0,29.16,17.36Zm-4.43,2.07a8.66,8.66,0,0,1-2.72,2,7.71,7.71,0,0,1-6.54,0,8.68,8.68,0,0,1-2.71-2,10,10,0,0,1-1.87-3.08,10.57,10.57,0,0,1-.68-3.79,10.37,10.37,0,0,1,.68-3.76,10.11,10.11,0,0,1,1.87-3.07,8.84,8.84,0,0,1,2.71-2,7.64,7.64,0,0,1,6.54,0,8.36,8.36,0,0,1,2.72,2,10.55,10.55,0,0,1,1.85,10.62A10,10,0,0,1,24.73,19.43Z"/><text class="cls-2" transform="translate(32.34 8.43)">CHIA<tspan class="cls-3" x="35.38" y="0">R</tspan><tspan x="44.94" y="0">A</tspan><tspan x="0" y="15">BONALDO </tspan></text></svg>