<svg id="Livello_1" data-name="Livello 1" xmlns="http://www.w3.org/2000/svg" viewBox="0 0 139.91 99.13"><defs><style>.cls-1{fill:#fff;}</style></defs><title>IOIO_CF_light</title><rect class="cls-1" x="51.43" y="52.47" width="37.03" height="0.67" transform="translate(-6.24 96.13) rotate(-66.67)"/><path class="cls-1" d="M4.66,20.3a2.26,2.26,0,0,1-1.05.24,2.22,2.22,0,0,1-1.85-.9,4,4,0,0,1-.69-2.46,3.81,3.81,0,0,1,.71-2.42,2.27,2.27,0,0,1,1.87-.89,2.06,2.06,0,0,1,.94.21,2.83,2.83,0,0,1,.74.56L5.89,14A3.62,3.62,0,0,0,5,13.26,2.79,2.79,0,0,0,3.64,13,3.39,3.39,0,0,0,1,14.09a4.47,4.47,0,0,0-1,3.12,4.48,4.48,0,0,0,1,3.12,3.3,3.3,0,0,0,2.55,1.13A3.06,3.06,0,0,0,5,21.14a3.62,3.62,0,0,0,1.1-.87l-.58-.65A3,3,0,0,1,4.66,20.3Z"/><polygon class="cls-1" points="14.96 21.31 16.01 21.31 16.01 13.11 14.96 13.11 14.96 16.54 11.15 16.54 11.15 13.11 10.11 13.11 10.11 21.31 11.15 21.31 11.15 17.44 14.96 17.44 14.96 21.31"/><rect class="cls-1" x="20.76" y="13.11" width="1.04" height="8.2"/><path class="cls-1" d="M27.31,18.81h3l.77,2.5h1.12l-2.78-8.2H28.24l-2.78,8.2h1.06ZM28,16.72c.15-.46.29-.91.43-1.37s.26-.92.38-1.39h.05c.14.47.27.94.4,1.39s.28.91.43,1.37L30,18H27.57Z"/><path class="cls-1" d="M36.89,17.84h1.48l2,3.47h1.18l-2.09-3.58a2.53,2.53,0,0,0,1.34-.79,2.21,2.21,0,0,0,.51-1.53,2,2,0,0,0-.81-1.79,3.83,3.83,0,0,0-2.07-.51H35.85v8.2h1Zm0-3.9h1.37a2.77,2.77,0,0,1,1.48.33,1.26,1.26,0,0,1,.51,1.14c0,1.06-.66,1.58-2,1.58H36.89Z"/><path class="cls-1" d="M46.17,18.81h3l.78,2.5h1.11l-2.77-8.2H47.1l-2.78,8.2h1.07Zm.65-2.09c.15-.46.3-.91.43-1.37s.26-.92.39-1.39h0c.13.47.26.94.4,1.39s.27.91.42,1.37L48.9,18H46.44Z"/><polygon class="cls-1" points="89.15 21.31 90.19 21.31 90.19 17.63 93.31 17.63 93.31 16.76 90.19 16.76 90.19 13.98 93.87 13.98 93.87 13.11 89.15 13.11 89.15 21.31"/><rect class="cls-1" x="97.2" y="13.11" width="1.04" height="8.2"/><polygon class="cls-1" points="106.99 20.42 103.4 20.42 103.4 13.11 102.36 13.11 102.36 21.31 106.99 21.31 106.99 20.42"/><rect class="cls-1" x="110.31" y="13.11" width="1.04" height="8.2"/><path class="cls-1" d="M116.51,18.06h1.35a3.56,3.56,0,0,0,2.19-.63,2.22,2.22,0,0,0,.83-1.91,2,2,0,0,0-.84-1.88,4.11,4.11,0,0,0-2.23-.53h-2.34v8.2h1Zm0-4.12h1.18a3,3,0,0,1,1.61.35,1.33,1.33,0,0,1,.55,1.23c0,1.12-.71,1.69-2.11,1.69h-1.23Z"/><path class="cls-1" d="M125.46,18.06h1.35a3.56,3.56,0,0,0,2.19-.63,2.23,2.23,0,0,0,.84-1.91,2,2,0,0,0-.86-1.88,4.06,4.06,0,0,0-2.22-.53h-2.34v8.2h1Zm0-4.12h1.17a3,3,0,0,1,1.62.35,1.33,1.33,0,0,1,.55,1.23c0,1.12-.71,1.69-2.11,1.69h-1.23Z"/><path class="cls-1" d="M136.4,21.46a3.17,3.17,0,0,0,2.53-1.16,4.69,4.69,0,0,0,1-3.13,4.56,4.56,0,0,0-1-3.09,3.42,3.42,0,0,0-5.06,0,4.56,4.56,0,0,0-1,3.09,4.69,4.69,0,0,0,1,3.13A3.17,3.17,0,0,0,136.4,21.46Zm-1.77-6.7a2.2,2.2,0,0,1,3.53,0,3.94,3.94,0,0,1,.66,2.41,4.16,4.16,0,0,1-.66,2.46,2.17,2.17,0,0,1-3.53,0,4.16,4.16,0,0,1-.66-2.46A3.94,3.94,0,0,1,134.63,14.76Z"/><path class="cls-1" d="M67,86.85a6.55,6.55,0,0,0-2-1.53,6,6,0,0,0-5.1,0,6.44,6.44,0,0,0-2,1.52,7.57,7.57,0,0,0,0,9.94,6.44,6.44,0,0,0,2,1.52,6,6,0,0,0,5.09,0,6.41,6.41,0,0,0,2-1.52,7.57,7.57,0,0,0,0-9.94ZM66.88,94a5.86,5.86,0,0,1-1.06,1.76,4.78,4.78,0,0,1-1.55,1.16,4.42,4.42,0,0,1-3.73,0A4.85,4.85,0,0,1,59,95.72,5.52,5.52,0,0,1,57.93,94a6.15,6.15,0,0,1,0-4.31A5.64,5.64,0,0,1,59,87.91a5.12,5.12,0,0,1,1.54-1.16,4.21,4.21,0,0,1,1.85-.42,4.42,4.42,0,0,1,1.88.42,4.68,4.68,0,0,1,1.55,1.16,5.69,5.69,0,0,1,1.06,1.75,6.15,6.15,0,0,1,0,4.31Z"/><path class="cls-1" d="M72.86,97.15a4.65,4.65,0,0,1,.6-1,9.32,9.32,0,0,1,.91-1c.36-.34.74-.68,1.14-1q.85-.7,1.71-1.32a14.51,14.51,0,0,0,1.56-1.31l.54-.55A3.2,3.2,0,0,0,80,90a2.91,2.91,0,0,0,.23-1.12,3.6,3.6,0,0,0-.37-1.62,4.05,4.05,0,0,0-1-1.3,4.71,4.71,0,0,0-1.44-.86A5.12,5.12,0,0,0,74.2,85a4.9,4.9,0,0,0-1.3.63,4.16,4.16,0,0,0-1,1,3.8,3.8,0,0,0-.64,1.27l-.17.57,1.34.49.22-.58a3,3,0,0,1,.5-.88,3.71,3.71,0,0,1,.72-.66,3.35,3.35,0,0,1,.88-.4,3.61,3.61,0,0,1,2.23.07,3.28,3.28,0,0,1,1,.6,2.69,2.69,0,0,1,.63.84,2.17,2.17,0,0,1,.22,1,1.38,1.38,0,0,1-.09.52,1.77,1.77,0,0,1-.37.53,8.43,8.43,0,0,1-1.09,1c-.46.38-1,.76-1.47,1.16s-1.05.82-1.58,1.25a14.22,14.22,0,0,0-1.47,1.42,7.66,7.66,0,0,0-1.11,1.6,4.18,4.18,0,0,0-.46,1.89v.64h9.65v-1.5h-8Z"/><path class="cls-1" d="M45.84,97.15a5.11,5.11,0,0,1,.6-1,8.5,8.5,0,0,1,.92-1c.35-.34.73-.68,1.13-1q.85-.7,1.71-1.32a13.59,13.59,0,0,0,1.56-1.31l.55-.55a3.33,3.33,0,0,0,.7-1,2.74,2.74,0,0,0,.23-1.12,3.6,3.6,0,0,0-.37-1.62,4.05,4.05,0,0,0-1-1.3,4.6,4.6,0,0,0-1.44-.86A5.09,5.09,0,0,0,47.19,85a4.81,4.81,0,0,0-1.31.63,4.34,4.34,0,0,0-1,1,3.8,3.8,0,0,0-.64,1.27L44,88.4l1.34.49.22-.58a2.86,2.86,0,0,1,.51-.88,3.4,3.4,0,0,1,.71-.66,3.35,3.35,0,0,1,.88-.4,3.61,3.61,0,0,1,2.23.07,3.28,3.28,0,0,1,1,.6,2.54,2.54,0,0,1,.63.84,2.17,2.17,0,0,1,.22,1,1.38,1.38,0,0,1-.09.52,1.91,1.91,0,0,1-.36.53,8.56,8.56,0,0,1-1.1,1c-.46.38-1,.76-1.47,1.16s-1,.82-1.57,1.25a13.4,13.4,0,0,0-1.48,1.42,7.66,7.66,0,0,0-1.11,1.6,4.18,4.18,0,0,0-.46,1.89v.64h9.65v-1.5h-8C45.78,97.31,45.81,97.23,45.84,97.15Z"/><path class="cls-1" d="M94,86.85A6.59,6.59,0,0,0,92,85.32a6,6,0,0,0-5.09,0,6.33,6.33,0,0,0-2,1.52,7.34,7.34,0,0,0-1.36,2.24,7.7,7.7,0,0,0,0,5.46,7.34,7.34,0,0,0,1.36,2.24,6.44,6.44,0,0,0,2,1.52,6,6,0,0,0,5.09,0A6.52,6.52,0,0,0,94,96.79a7.52,7.52,0,0,0,1.35-2.24A7.57,7.57,0,0,0,94,86.85ZM93.89,94a5.64,5.64,0,0,1-1,1.76,4.89,4.89,0,0,1-1.55,1.16,4.42,4.42,0,0,1-3.73,0A5,5,0,0,1,86,95.72,5.5,5.5,0,0,1,85,94a6.15,6.15,0,0,1,0-4.31A5.81,5.81,0,0,1,86,87.91a5.17,5.17,0,0,1,1.55-1.16,4.18,4.18,0,0,1,1.85-.42,4.49,4.49,0,0,1,1.88.42,4.89,4.89,0,0,1,1.55,1.16,5.48,5.48,0,0,1,1,1.75,6,6,0,0,1,0,4.31Z"/><rect class="cls-1" x="0.25" y="32.08" width="4.64" height="41.45"/><path class="cls-1" d="M49.11,60.81a22.13,22.13,0,0,0-4-22.63,18.8,18.8,0,0,0-6-4.49A17.42,17.42,0,0,0,31.62,32a17.12,17.12,0,0,0-7.47,1.67,18.76,18.76,0,0,0-6,4.48,21.45,21.45,0,0,0-4,6.57,22.67,22.67,0,0,0,0,16.06,21.53,21.53,0,0,0,4,6.57,18.79,18.79,0,0,0,6,4.49,17.71,17.71,0,0,0,15,0,18.8,18.8,0,0,0,6-4.49A21.53,21.53,0,0,0,49.11,60.81Zm-7.42,3.46a14.22,14.22,0,0,1-4.55,3.4,13,13,0,0,1-11,0,14.73,14.73,0,0,1-4.55-3.42A16.73,16.73,0,0,1,18.5,59.1a17.59,17.59,0,0,1-1.15-6.35,17.33,17.33,0,0,1,1.15-6.31,16.87,16.87,0,0,1,3.13-5.14,14.55,14.55,0,0,1,4.55-3.41,12.43,12.43,0,0,1,5.44-1.23,12.9,12.9,0,0,1,5.52,1.23,14.37,14.37,0,0,1,4.55,3.4,17.07,17.07,0,0,1,3.11,5.15A17.33,17.33,0,0,1,46,52.75,17.59,17.59,0,0,1,44.8,59.1,17,17,0,0,1,41.69,64.27Z"/><rect class="cls-1" x="89.31" y="32.08" width="4.64" height="41.45"/><path class="cls-1" d="M134.19,38.18a18.84,18.84,0,0,0-6-4.49A17.41,17.41,0,0,0,120.69,32a17.16,17.16,0,0,0-7.48,1.67,18.87,18.87,0,0,0-6,4.48,21.65,21.65,0,0,0-4,6.57,22.67,22.67,0,0,0,0,16.06,21.53,21.53,0,0,0,4,6.57,18.79,18.79,0,0,0,6,4.49,17.71,17.71,0,0,0,15,0,18.84,18.84,0,0,0,6-4.49,21.31,21.31,0,0,0,4-6.57,22.52,22.52,0,0,0,0-16.06A21.55,21.55,0,0,0,134.19,38.18Zm-.33,20.92a17,17,0,0,1-3.11,5.17,14.22,14.22,0,0,1-4.55,3.4,13,13,0,0,1-11,0,14.73,14.73,0,0,1-4.55-3.42,16.52,16.52,0,0,1-3.12-5.16,18.07,18.07,0,0,1,0-12.66,16.87,16.87,0,0,1,3.13-5.14,14.55,14.55,0,0,1,4.55-3.41,12.44,12.44,0,0,1,5.45-1.23,12.86,12.86,0,0,1,5.51,1.23,14.37,14.37,0,0,1,4.55,3.4,16.87,16.87,0,0,1,3.11,5.15A17.33,17.33,0,0,1,135,52.75,17.59,17.59,0,0,1,133.86,59.1Z"/><path class="cls-1" d="M83.17,17.39a.15.15,0,0,0-.19.09q-.39.81-.93,1.74a11.23,11.23,0,0,1-1.2,1.7,7.49,7.49,0,0,1-1.4,1.27,2.65,2.65,0,0,1-1.54.51.83.83,0,0,1-.74-.33,1.46,1.46,0,0,1-.22-.84,6.8,6.8,0,0,1,.51-2.05A30.53,30.53,0,0,1,79,16.1q1-2,2.53-4.48t3.53-5.39a16.23,16.23,0,0,1,1.78-2.16,10.93,10.93,0,0,1,1.82-1.53,3.23,3.23,0,0,1,.93-.4,4,4,0,0,1,1-.14,2.51,2.51,0,0,1,.55,0,1.87,1.87,0,0,1,.33.1l.23.11a.39.39,0,0,0,.18,0q.15,0,.21-.21a.94.94,0,0,1,.24-.51.52.52,0,0,0,.18-.36c0-.1-.08-.18-.23-.24a1.57,1.57,0,0,0-.58-.09,4.29,4.29,0,0,0-1.77.48,9.78,9.78,0,0,0-2.63,1.86,29.4,29.4,0,0,0-2.56,2.85A48.13,48.13,0,0,0,81.87,10q-1.32,2-2.76,4.53A7.13,7.13,0,0,0,75.73,16,12,12,0,0,0,73.26,19a3.58,3.58,0,0,0-.18.32c-.19.18-.39.35-.59.51a10.9,10.9,0,0,1-1.42,1,2.53,2.53,0,0,1-1.2.39.71.71,0,0,1-.48-.13.66.66,0,0,1-.15-.5,3.2,3.2,0,0,1,.3-1.14,15.81,15.81,0,0,1,.73-1.51c.29-.53.6-1.05.92-1.55s.59-.91.81-1.23a.8.8,0,0,0,.15-.36A.42.42,0,0,0,72,14.5a.29.29,0,0,0-.22-.14,1.57,1.57,0,0,0-.65.32c-.31.21-.67.47-1.08.79s-.84.67-1.29,1-.86.74-1.24,1.08A14.38,14.38,0,0,1,68.41,16a3.43,3.43,0,0,0,.44-.83.52.52,0,0,0-.48-.48.29.29,0,0,0-.27.15c-.24.56-.53,1.2-.87,1.91-.12.25-.24.47-.35.72-.36.42-.72.85-1.11,1.24a19.65,19.65,0,0,1-1.54,1.43,8.42,8.42,0,0,1-1.41,1,2.54,2.54,0,0,1-1.14.34.68.68,0,0,1-.56-.18.73.73,0,0,1-.13-.45,5.83,5.83,0,0,1,.64-2.11c.43-1,1.11-2.24,2-3.86l.54,0a2.48,2.48,0,0,1,.54.09.08.08,0,0,0,.09-.09q0-.09-.15-.15l-.45-.06-.45,0,.28-.46a2,2,0,0,1,.29-.38l-.06,0-.84.24a.94.94,0,0,0-.24.18,1.69,1.69,0,0,0-.27.42,4.65,4.65,0,0,0-2.43.71A9.76,9.76,0,0,0,58.42,17,8.91,8.91,0,0,0,57,19a4,4,0,0,0-.54,1.74.56.56,0,0,0,.63.63A2,2,0,0,0,58,21a7.3,7.3,0,0,0,1.08-.78,11.42,11.42,0,0,0,1-1q.51-.57.9-1.08a8.06,8.06,0,0,0-.77,1.52A3.47,3.47,0,0,0,60,20.78a1.16,1.16,0,0,0,.24.75,1,1,0,0,0,.84.3,3.36,3.36,0,0,0,1.51-.42,9.3,9.3,0,0,0,1.67-1.11A19.55,19.55,0,0,0,66,18.76c.21-.21.4-.42.59-.63l-.3.61-.83,1a1.33,1.33,0,0,0-.37.73,1.83,1.83,0,0,0,.1.42c.07.22.16.33.26.33s.1-.06.18-.18c.34-.52.62-1,.85-1.41s.51-.88.83-1.38a8.83,8.83,0,0,1,.7-.75c.29-.28.59-.55.9-.82s.62-.53.92-.77a9.2,9.2,0,0,1,.78-.57c.1-.06.16-.05.19,0a.31.31,0,0,1,0,.25A13.08,13.08,0,0,1,70,17l-.84,1.47c-.27.48-.5.94-.7,1.37a2.65,2.65,0,0,0-.3,1.06.49.49,0,0,0,.3.53,2,2,0,0,0,.66.1,3.72,3.72,0,0,0,1.6-.39,9.27,9.27,0,0,0,1.62-1,6.26,6.26,0,0,0,.49-.41.14.14,0,0,1,0,.07,2.26,2.26,0,0,0-.15.7,1.05,1.05,0,0,0,.15.59.64.64,0,0,0,.57.22,1.42,1.42,0,0,0,.61-.16,4.47,4.47,0,0,0,.83-.56A10.76,10.76,0,0,0,76,19.55q.63-.69,1.47-1.71a17.63,17.63,0,0,0-.89,2,4.7,4.7,0,0,0-.28,1.54,1.63,1.63,0,0,0,.39,1.13,1.53,1.53,0,0,0,1.2.43,2.9,2.9,0,0,0,1.45-.42,5.89,5.89,0,0,0,1.41-1.15A11.93,11.93,0,0,0,82,19.69c.41-.65.8-1.34,1.16-2.06C83.26,17.49,83.26,17.41,83.17,17.39ZM60.16,19a10.72,10.72,0,0,1-1,.95,8.19,8.19,0,0,1-.86.64,1.22,1.22,0,0,1-.55.24q-.18,0-.18-.24A3.92,3.92,0,0,1,58,19.13a10.73,10.73,0,0,1,1.16-1.93,8.59,8.59,0,0,1,1.65-1.7,3.14,3.14,0,0,1,1.95-.72l0,0L62,16.25q-.45.81-.93,1.53A9.68,9.68,0,0,1,60.16,19Zm16,0A10.54,10.54,0,0,1,75,20.15a1.71,1.71,0,0,1-.76.45.46.46,0,0,1-.18-.06.21.21,0,0,1-.12-.21,4,4,0,0,1,.48-1.48A13,13,0,0,1,76,16.43a4.69,4.69,0,0,1,1.09-1A3.37,3.37,0,0,1,78.87,15a14.51,14.51,0,0,1-1.26,2.16A21.19,21.19,0,0,1,76.21,18.94Z"/></svg>