<svg id="Livello_1" data-name="Livello 1" xmlns="http://www.w3.org/2000/svg" viewBox="0 0 287.97 147.34"><defs><style>.cls-1{fill:#d6c9c9;}.cls-2{fill:#20244d;}.cls-3{fill:#fff;}</style></defs><title>Annunciano con gioia il loro matrimonio</title><rect class="cls-1" x="14.6" width="258.77" height="147.67"/><rect class="cls-2" y="48.88" width="287.97" height="51.52"/><path class="cls-2" d="M29.09,22.63l-.78-2.5h-3l-.79,2.5H23.48l2.77-8.2h1.18l2.77,8.2ZM26,18l-.39,1.25h2.46L27.66,18c-.15-.45-.29-.91-.42-1.36s-.27-.92-.4-1.4h-.05c-.13.48-.26.94-.39,1.4S26.13,17.59,26,18Z"/><path class="cls-2" d="M33.86,22.63v-8.2h1.08l3,5.15.89,1.7h.05c0-.41-.05-.85-.08-1.29s0-.89,0-1.32V14.43h1v8.2H38.63l-3-5.16-.89-1.69h0c0,.42.07.84.1,1.27s0,.86,0,1.29v4.29Z"/><path class="cls-2" d="M44.45,22.63v-8.2h1.08l3,5.15.89,1.7h0c0-.41-.06-.85-.09-1.29s0-.89,0-1.32V14.43h1v8.2H49.21l-3-5.16-.89-1.69H45.3c0,.42.07.84.09,1.27s0,.86,0,1.29v4.29Z"/><path class="cls-2" d="M58,22.78A3,3,0,0,1,55.84,22,3.67,3.67,0,0,1,55,19.24V14.43h1v4.84a2.88,2.88,0,0,0,.55,2,1.85,1.85,0,0,0,1.36.56,1.91,1.91,0,0,0,1.38-.56,2.88,2.88,0,0,0,.56-2V14.43h1v4.81A3.67,3.67,0,0,1,60.05,22,3,3,0,0,1,58,22.78Z"/><path class="cls-2" d="M65.6,22.63v-8.2h1.08l3,5.15.89,1.7h0c0-.41-.06-.85-.09-1.29s0-.89,0-1.32V14.43h1v8.2H70.36l-3-5.16-.89-1.69h0c0,.42.07.84.09,1.27s0,.86,0,1.29v4.29Z"/><path class="cls-2" d="M79.29,22.78a3.3,3.3,0,0,1-2.56-1.12,4.49,4.49,0,0,1-1-3.13,4.44,4.44,0,0,1,1-3.11,3.37,3.37,0,0,1,2.6-1.14,2.68,2.68,0,0,1,1.32.31,3.43,3.43,0,0,1,.93.7L81,16a2.68,2.68,0,0,0-.74-.56,2,2,0,0,0-.94-.22,2.28,2.28,0,0,0-1.87.9,3.79,3.79,0,0,0-.7,2.42A3.94,3.94,0,0,0,77.48,21a2.17,2.17,0,0,0,1.85.91,2.26,2.26,0,0,0,1-.24,3.19,3.19,0,0,0,.85-.69l.57.65a3.53,3.53,0,0,1-1.1.88A3,3,0,0,1,79.29,22.78Z"/><path class="cls-2" d="M85.83,22.63v-8.2h1v8.2Z"/><path class="cls-2" d="M96.14,22.63l-.78-2.5h-3l-.79,2.5H90.53l2.77-8.2h1.18l2.77,8.2ZM93,18l-.39,1.25H95.1L94.71,18c-.15-.45-.29-.91-.42-1.36s-.27-.92-.4-1.4h0c-.13.48-.26.94-.39,1.4S93.18,17.59,93,18Z"/><path class="cls-2" d="M100.91,22.63v-8.2H102l3,5.15.89,1.7h0c0-.41,0-.85-.08-1.29s0-.89,0-1.32V14.43h1v8.2h-1.07l-3-5.16-.89-1.69h0c0,.42.07.84.1,1.27s0,.86,0,1.29v4.29Z"/><path class="cls-2" d="M114.53,22.78A3.15,3.15,0,0,1,112,21.63a4.72,4.72,0,0,1-1-3.14,4.55,4.55,0,0,1,1-3.08,3.4,3.4,0,0,1,5.06,0,4.55,4.55,0,0,1,1,3.08,4.72,4.72,0,0,1-1,3.14A3.17,3.17,0,0,1,114.53,22.78Zm0-.91a2.07,2.07,0,0,0,1.76-.92,4.12,4.12,0,0,0,.66-2.46,4,4,0,0,0-.66-2.41,2.2,2.2,0,0,0-3.53,0,4,4,0,0,0-.66,2.41,4.12,4.12,0,0,0,.66,2.46A2.08,2.08,0,0,0,114.53,21.87Z"/><path class="cls-2" d="M130.4,22.78a3.32,3.32,0,0,1-2.56-1.12,4.48,4.48,0,0,1-1-3.13,4.44,4.44,0,0,1,1-3.11,3.37,3.37,0,0,1,2.6-1.14,2.68,2.68,0,0,1,1.32.31,3.43,3.43,0,0,1,.93.7l-.56.68a2.68,2.68,0,0,0-.74-.56,2,2,0,0,0-.93-.22,2.25,2.25,0,0,0-1.87.9,3.79,3.79,0,0,0-.71,2.42,3.94,3.94,0,0,0,.69,2.45,2.19,2.19,0,0,0,1.85.91,2.26,2.26,0,0,0,1.05-.24,3,3,0,0,0,.85-.69l.57.65a3.53,3.53,0,0,1-1.1.88A3,3,0,0,1,130.4,22.78Z"/><path class="cls-2" d="M139.6,22.78a3.14,3.14,0,0,1-2.52-1.15,4.72,4.72,0,0,1-1-3.14,4.55,4.55,0,0,1,1-3.08,3.39,3.39,0,0,1,5,0,4.5,4.5,0,0,1,1,3.08,4.67,4.67,0,0,1-1,3.14A3.16,3.16,0,0,1,139.6,22.78Zm0-.91a2.07,2.07,0,0,0,1.76-.92,4.12,4.12,0,0,0,.67-2.46,4,4,0,0,0-.67-2.41,2.19,2.19,0,0,0-3.52,0,4,4,0,0,0-.66,2.41,4.12,4.12,0,0,0,.66,2.46A2.07,2.07,0,0,0,139.6,21.87Z"/><path class="cls-2" d="M147.38,22.63v-8.2h1.07l3,5.15.89,1.7h0c0-.41,0-.85-.08-1.29s0-.89,0-1.32V14.43h1v8.2h-1.07l-3-5.16-.88-1.69h-.05l.09,1.27c0,.43,0,.86,0,1.29v4.29Z"/><path class="cls-2" d="M166.19,22.78a3.47,3.47,0,0,1-2.67-1.12,4.44,4.44,0,0,1-1-3.13,4.36,4.36,0,0,1,1.06-3.11,3.53,3.53,0,0,1,2.7-1.14,3,3,0,0,1,1.43.32,3.52,3.52,0,0,1,.93.69L168,16a3.07,3.07,0,0,0-.73-.54,2.08,2.08,0,0,0-1-.24,2.42,2.42,0,0,0-2,.9,3.68,3.68,0,0,0-.74,2.42,3.88,3.88,0,0,0,.71,2.45,2.39,2.39,0,0,0,2,.91,2.06,2.06,0,0,0,1.47-.49V19.24H166v-.86h2.69v3.45a2.89,2.89,0,0,1-1.05.68A3.78,3.78,0,0,1,166.19,22.78Z"/><path class="cls-2" d="M173.17,22.63v-8.2h1v8.2Z"/><path class="cls-2" d="M182,22.78a3.15,3.15,0,0,1-2.53-1.15,4.72,4.72,0,0,1-1-3.14,4.55,4.55,0,0,1,1-3.08,3.4,3.4,0,0,1,5.06,0,4.55,4.55,0,0,1,1,3.08,4.72,4.72,0,0,1-1,3.14A3.17,3.17,0,0,1,182,22.78Zm0-.91a2.07,2.07,0,0,0,1.76-.92,4.12,4.12,0,0,0,.66-2.46,4,4,0,0,0-.66-2.41,2.19,2.19,0,0,0-3.52,0,3.9,3.9,0,0,0-.67,2.41,4.05,4.05,0,0,0,.67,2.46A2.06,2.06,0,0,0,182,21.87Z"/><path class="cls-2" d="M189.76,22.63v-8.2h1v8.2Z"/><path class="cls-2" d="M200.07,22.63l-.77-2.5h-3l-.79,2.5h-1.06l2.78-8.2h1.17l2.78,8.2ZM197,18l-.39,1.25H199L198.65,18c-.15-.45-.29-.91-.43-1.36s-.26-.92-.4-1.4h0c-.12.48-.25.94-.38,1.4S197.11,17.59,197,18Z"/><path class="cls-2" d="M24.56,37.63v-8.2h1v8.2Z"/><path class="cls-2" d="M30.35,37.63v-8.2h1v7.31H35v.89Z"/><path class="cls-2" d="M43.93,37.63v-8.2h1v7.31h3.59v.89Z"/><path class="cls-2" d="M55.2,37.78a3.14,3.14,0,0,1-2.52-1.15,4.72,4.72,0,0,1-1-3.14,4.55,4.55,0,0,1,1-3.08,3.39,3.39,0,0,1,5,0,4.5,4.5,0,0,1,1,3.08,4.67,4.67,0,0,1-1,3.14A3.16,3.16,0,0,1,55.2,37.78Zm0-.91A2.07,2.07,0,0,0,57,36a4.05,4.05,0,0,0,.67-2.46A3.9,3.9,0,0,0,57,31.08a2.19,2.19,0,0,0-3.52,0,4,4,0,0,0-.66,2.41A4.12,4.12,0,0,0,53.44,36,2.07,2.07,0,0,0,55.2,36.87Z"/><path class="cls-2" d="M64,37.63H63v-8.2h2.56a3.83,3.83,0,0,1,2.07.51,2,2,0,0,1,.8,1.79,2.28,2.28,0,0,1-.5,1.54,2.62,2.62,0,0,1-1.35.79l2.09,3.57H67.48l-2-3.46H64Zm0-4.31h1.38c1.32,0,2-.53,2-1.59a1.23,1.23,0,0,0-.52-1.13,2.71,2.71,0,0,0-1.47-.33H64Z"/><path class="cls-2" d="M75.61,37.78a3.14,3.14,0,0,1-2.52-1.15,4.72,4.72,0,0,1-1-3.14,4.55,4.55,0,0,1,1-3.08,3.39,3.39,0,0,1,5,0,4.51,4.51,0,0,1,1,3.08,4.67,4.67,0,0,1-1,3.14A3.15,3.15,0,0,1,75.61,37.78Zm0-.91A2.09,2.09,0,0,0,77.38,36,4.12,4.12,0,0,0,78,33.49a4,4,0,0,0-.66-2.41,2.2,2.2,0,0,0-3.53,0,4,4,0,0,0-.66,2.41A4.12,4.12,0,0,0,73.85,36,2.07,2.07,0,0,0,75.61,36.87Z"/><path class="cls-2" d="M88.39,37.63v-8.2h1.25l1.57,4.38.3.85c.09.29.19.58.29.86h0c.1-.28.19-.57.28-.86s.18-.57.28-.85L94,29.43h1.27v8.2h-1V33.12c0-.36,0-.76,0-1.21s.06-.86.09-1.22h0l-.65,1.87-1.55,4.25h-.69L89.9,32.56l-.65-1.87h0c0,.36,0,.77.08,1.22s0,.85,0,1.21v4.51Z"/><path class="cls-2" d="M104.5,37.63l-.77-2.5h-3l-.79,2.5H98.89l2.77-8.2h1.18l2.77,8.2ZM101.39,33,101,34.29h2.46L103.08,33c-.15-.45-.3-.91-.43-1.36s-.27-.92-.4-1.4h0c-.12.48-.25.94-.39,1.4S101.54,32.59,101.39,33Z"/><path class="cls-2" d="M110.29,37.63V30.31h-2.48v-.88h6v.88h-2.47v7.32Z"/><path class="cls-2" d="M118.83,37.63h-1v-8.2h2.56a3.83,3.83,0,0,1,2.07.51,2,2,0,0,1,.81,1.79,2.24,2.24,0,0,1-.51,1.54,2.63,2.63,0,0,1-1.34.79l2.08,3.57h-1.17l-2-3.46h-1.48Zm0-4.31h1.37c1.33,0,2-.53,2-1.59a1.25,1.25,0,0,0-.51-1.13,2.77,2.77,0,0,0-1.48-.33h-1.37Z"/><path class="cls-2" d="M127.4,37.63v-8.2h1v8.2Z"/><path class="cls-2" d="M133.19,37.63v-8.2h1.25L136,33.81l.3.85c.09.29.19.58.29.86h.05c.1-.28.19-.57.28-.86s.18-.57.28-.85l1.55-4.38H140v8.2h-1V33.12c0-.36,0-.76,0-1.21s.06-.86.09-1.22h-.05l-.65,1.87-1.55,4.25h-.69l-1.55-4.25-.65-1.87H134c0,.36.05.77.08,1.22s0,.85,0,1.21v4.51Z"/><path class="cls-2" d="M147.8,37.78a3.17,3.17,0,0,1-2.53-1.15,4.72,4.72,0,0,1-1-3.14,4.55,4.55,0,0,1,1-3.08,3.4,3.4,0,0,1,5.06,0,4.55,4.55,0,0,1,1,3.08,4.72,4.72,0,0,1-1,3.14A3.16,3.16,0,0,1,147.8,37.78Zm0-.91a2.07,2.07,0,0,0,1.76-.92,4.12,4.12,0,0,0,.67-2.46,4,4,0,0,0-.67-2.41,2.19,2.19,0,0,0-3.52,0,4,4,0,0,0-.66,2.41A4.12,4.12,0,0,0,146,36,2.07,2.07,0,0,0,147.8,36.87Z"/><path class="cls-2" d="M155.57,37.63v-8.2h1.08l3,5.15.89,1.7h.05c0-.41-.05-.85-.08-1.29s-.05-.89-.05-1.32V29.43h1v8.2h-1.07l-3-5.16-.88-1.69h-.06c0,.42.07.84.1,1.27s0,.86,0,1.29v4.29Z"/><path class="cls-2" d="M166.16,37.63v-8.2h1v8.2Z"/><path class="cls-2" d="M175,37.78a3.15,3.15,0,0,1-2.53-1.15,4.72,4.72,0,0,1-1-3.14,4.55,4.55,0,0,1,1-3.08,3.4,3.4,0,0,1,5.06,0,4.55,4.55,0,0,1,1,3.08,4.72,4.72,0,0,1-1,3.14A3.17,3.17,0,0,1,175,37.78Zm0-.91a2.07,2.07,0,0,0,1.76-.92,4.12,4.12,0,0,0,.66-2.46,4,4,0,0,0-.66-2.41,2.2,2.2,0,0,0-3.53,0,4,4,0,0,0-.66,2.41,4.12,4.12,0,0,0,.66,2.46A2.08,2.08,0,0,0,175,36.87Z"/><path class="cls-3" d="M27.12,73.39a10.46,10.46,0,0,1-3.68-.69,9.74,9.74,0,0,1-3.25-2l2.42-2.9a9.42,9.42,0,0,0,2.24,1.41,6,6,0,0,0,2.39.54c1.74,0,2.61-.6,2.61-1.81a1.4,1.4,0,0,0-.73-1.31,19.08,19.08,0,0,0-2-.93l-2.44-1a7.12,7.12,0,0,1-2.6-1.82,4.63,4.63,0,0,1-1.17-3.29,5.05,5.05,0,0,1,1.87-4A7.08,7.08,0,0,1,27.61,54a8.74,8.74,0,0,1,3.22.63,8.3,8.3,0,0,1,2.82,1.84l-2.16,2.68A8,8,0,0,0,29.65,58a5.15,5.15,0,0,0-2-.39,3,3,0,0,0-1.74.45,1.42,1.42,0,0,0-.64,1.25A1.39,1.39,0,0,0,26,60.6c.55.29,1.23.59,2,.92l2.42,1a6.77,6.77,0,0,1,2.7,1.89,4.85,4.85,0,0,1,1,3.2,5.38,5.38,0,0,1-1.86,4.06A7.31,7.31,0,0,1,27.12,73.39Z"/><path class="cls-3" d="M50.21,73.05l-1.15-4.46H43.34l-1.15,4.46H37.88L43.74,54.3h5.09l5.86,18.75Zm-5.55-9.49-.46,1.73h4l-.43-1.73c-.27-.94-.53-1.93-.78-3s-.5-2.07-.75-3h-.11c-.23,1-.47,2-.71,3.07S44.93,62.62,44.66,63.56Z"/><path class="cls-3" d="M59.61,73.05V54.3H66a11.08,11.08,0,0,1,4.9,1,3.7,3.7,0,0,1,2,3.68,5,5,0,0,1-.65,2.45A3.41,3.41,0,0,1,70.48,63v.11a4.79,4.79,0,0,1,2.38,1.45,4.19,4.19,0,0,1,1,3,4.59,4.59,0,0,1-2.11,4.2,9.56,9.56,0,0,1-5.16,1.32Zm4.23-11.24h2a3.39,3.39,0,0,0,2.26-.61,2,2,0,0,0,.7-1.61c0-1.34-1-2-2.93-2h-2Zm0,8h2.38q3.48,0,3.48-2.53c0-1.53-1.16-2.3-3.48-2.3H63.84Z"/><path class="cls-3" d="M89.83,73.05l-1.15-4.46H83l-1.15,4.46H77.49L83.36,54.3h5.09l5.86,18.75Zm-5.55-9.49-.46,1.73h4l-.43-1.73c-.27-.94-.52-1.93-.77-3s-.5-2.07-.75-3h-.12L85,60.59C84.8,61.63,84.55,62.62,84.28,63.56Z"/><path class="cls-3" d="M100.78,73.05V57.87H95.63V54.3h14.55v3.57H105V73.05Z"/><path class="cls-3" d="M122.8,73.39a7.89,7.89,0,0,1-6.15-2.6,10.32,10.32,0,0,1-2.36-7.2q0-4.61,2.36-7.12a8.78,8.78,0,0,1,12.31,0c1.57,1.69,2.35,4,2.35,7.1a10.32,10.32,0,0,1-2.35,7.2A7.92,7.92,0,0,1,122.8,73.39Zm0-3.65a3.49,3.49,0,0,0,3-1.66A7.94,7.94,0,0,0,127,63.59a7.47,7.47,0,0,0-1.12-4.38,3.7,3.7,0,0,0-6.09,0,7.47,7.47,0,0,0-1.13,4.38,7.94,7.94,0,0,0,1.13,4.49A3.47,3.47,0,0,0,122.8,69.74Z"/><path class="cls-3" d="M146.35,73.05V54.3h4.22V73.05Z"/><path class="cls-3" d="M165.5,73.39a7.91,7.91,0,0,1-6.16-2.6,10.32,10.32,0,0,1-2.35-7.2q0-4.61,2.35-7.12a8.78,8.78,0,0,1,12.31,0,10,10,0,0,1,2.36,7.1,10.32,10.32,0,0,1-2.36,7.2A7.89,7.89,0,0,1,165.5,73.39Zm0-3.65a3.47,3.47,0,0,0,3-1.66,7.94,7.94,0,0,0,1.12-4.49,7.47,7.47,0,0,0-1.12-4.38,3.7,3.7,0,0,0-6.09,0,7.47,7.47,0,0,0-1.12,4.38,7.94,7.94,0,0,0,1.12,4.49A3.49,3.49,0,0,0,165.5,69.74Z"/><path class="cls-3" d="M26.31,93.28a5.4,5.4,0,0,1-4.19-1.77,7,7,0,0,1-1.61-4.92,6.82,6.82,0,0,1,1.61-4.86A5.49,5.49,0,0,1,26.31,80a5.47,5.47,0,0,1,4.2,1.72,6.83,6.83,0,0,1,1.61,4.85,7,7,0,0,1-1.61,4.92A5.4,5.4,0,0,1,26.31,93.28Zm0-2.49a2.41,2.41,0,0,0,2.09-1.14,5.39,5.39,0,0,0,.76-3.06,5.13,5.13,0,0,0-.76-3,2.54,2.54,0,0,0-4.17,0,5.13,5.13,0,0,0-.76,3,5.39,5.39,0,0,0,.76,3.06A2.39,2.39,0,0,0,26.31,90.79Z"/><path class="cls-3" d="M38.44,93.05V82.69H34.93V80.25h9.93v2.44H41.35V93.05Z"/><path class="cls-3" d="M51.32,93.05V82.69H47.8V80.25h9.93v2.44H54.22V93.05Z"/><path class="cls-3" d="M66.35,93.28a5.4,5.4,0,0,1-4.2-1.77,7.08,7.08,0,0,1-1.61-4.92,6.87,6.87,0,0,1,1.61-4.86,6,6,0,0,1,8.4,0,6.87,6.87,0,0,1,1.61,4.85,7.08,7.08,0,0,1-1.61,4.92A5.4,5.4,0,0,1,66.35,93.28Zm0-2.49a2.38,2.38,0,0,0,2.08-1.14,5.39,5.39,0,0,0,.77-3.06,5.13,5.13,0,0,0-.77-3,2.53,2.53,0,0,0-4.16,0,5.13,5.13,0,0,0-.77,3,5.39,5.39,0,0,0,.77,3.06A2.38,2.38,0,0,0,66.35,90.79Z"/><path class="cls-3" d="M76.54,93.05V80.25h4.37a7.66,7.66,0,0,1,3.35.67,2.53,2.53,0,0,1,1.36,2.51,3.47,3.47,0,0,1-.44,1.67A2.27,2.27,0,0,1,84,86.2v.08a3.28,3.28,0,0,1,1.63,1,2.86,2.86,0,0,1,.67,2,3.15,3.15,0,0,1-1.44,2.87,6.54,6.54,0,0,1-3.53.9Zm2.88-7.67h1.35A2.31,2.31,0,0,0,82.31,85a1.35,1.35,0,0,0,.49-1.1c0-.91-.67-1.37-2-1.37H79.42Zm0,5.43h1.63c1.58,0,2.37-.57,2.37-1.73s-.79-1.57-2.37-1.57H79.42Z"/><path class="cls-3" d="M93.26,93.05H90.37V80.25H95a6.76,6.76,0,0,1,3.49.86,3.33,3.33,0,0,1,1.44,3.13,3.94,3.94,0,0,1-.63,2.31,4.11,4.11,0,0,1-1.65,1.38l2.91,5.12H97.3l-2.45-4.61H93.26Zm0-6.91h1.49c1.55,0,2.33-.63,2.33-1.9a1.43,1.43,0,0,0-.6-1.32,3.27,3.27,0,0,0-1.73-.37H93.26Z"/><path class="cls-3" d="M104.36,93.05V80.25h8v2.44h-5.12v2.57h4.35v2.41h-4.35v3h5.32v2.43Z"/><path class="cls-3" d="M122.18,93.05V91.4c1.59-1.5,2.88-2.81,3.9-3.91a4.76,4.76,0,0,0,1.52-3,1.91,1.91,0,0,0-.48-1.39,1.71,1.71,0,0,0-1.29-.49,2,2,0,0,0-1.21.39,8.38,8.38,0,0,0-1,.88L122,82.33a7.52,7.52,0,0,1,1.89-1.48,4.94,4.94,0,0,1,2.3-.5,4.13,4.13,0,0,1,3,1.09,3.81,3.81,0,0,1,1.14,2.88,5.4,5.4,0,0,1-1.24,3.21,35.28,35.28,0,0,1-2.75,3.24l1.06-.11c.39,0,.73,0,1,0H131v2.43Z"/><path class="cls-3" d="M140.49,93.28a5.42,5.42,0,0,1-4.2-1.77,7.08,7.08,0,0,1-1.61-4.92,6.87,6.87,0,0,1,1.61-4.86,6,6,0,0,1,8.4,0,6.87,6.87,0,0,1,1.61,4.85,7.08,7.08,0,0,1-1.61,4.92A5.4,5.4,0,0,1,140.49,93.28Zm0-2.49a2.38,2.38,0,0,0,2.08-1.14,5.39,5.39,0,0,0,.77-3.06,5.13,5.13,0,0,0-.77-3,2.53,2.53,0,0,0-4.16,0,5.13,5.13,0,0,0-.76,3,5.39,5.39,0,0,0,.76,3.06A2.39,2.39,0,0,0,140.49,90.79Z"/><path class="cls-3" d="M149.89,93.05V91.4c1.59-1.5,2.88-2.81,3.9-3.91a4.76,4.76,0,0,0,1.52-3,1.91,1.91,0,0,0-.48-1.39,1.71,1.71,0,0,0-1.29-.49,2,2,0,0,0-1.21.39,7.59,7.59,0,0,0-1,.88l-1.57-1.55a7.31,7.31,0,0,1,1.88-1.48,5,5,0,0,1,2.29-.5,4.14,4.14,0,0,1,3,1.09,3.81,3.81,0,0,1,1.14,2.88,5.4,5.4,0,0,1-1.24,3.21,35.28,35.28,0,0,1-2.75,3.24l1.06-.11c.39,0,.73,0,1,0h2.51v2.43Z"/><path class="cls-3" d="M168.2,93.28a5.43,5.43,0,0,1-4.2-1.77,7.08,7.08,0,0,1-1.61-4.92A6.87,6.87,0,0,1,164,81.73,5.52,5.52,0,0,1,168.2,80a5.47,5.47,0,0,1,4.2,1.72A6.83,6.83,0,0,1,174,86.59a7,7,0,0,1-1.61,4.92A5.4,5.4,0,0,1,168.2,93.28Zm0-2.49a2.38,2.38,0,0,0,2.08-1.14,5.39,5.39,0,0,0,.77-3.06,5.13,5.13,0,0,0-.77-3,2.53,2.53,0,0,0-4.16,0,5.13,5.13,0,0,0-.76,3,5.39,5.39,0,0,0,.76,3.06A2.39,2.39,0,0,0,168.2,90.79Z"/><path class="cls-3" d="M225.82,73.35a6.88,6.88,0,0,1-5.34-2.26,9,9,0,0,1-2-6.27,8.67,8.67,0,0,1,2-6.18,7.62,7.62,0,0,1,10.7,0,8.74,8.74,0,0,1,2,6.17,9,9,0,0,1-2,6.27A6.93,6.93,0,0,1,225.82,73.35Zm0-3.18a3.05,3.05,0,0,0,2.66-1.45,7,7,0,0,0,1-3.9,6.63,6.63,0,0,0-1-3.81,3.11,3.11,0,0,0-2.66-1.39A3.07,3.07,0,0,0,223.18,61a6.48,6.48,0,0,0-1,3.81,6.78,6.78,0,0,0,1,3.9A3,3,0,0,0,225.82,70.17Z"/><path class="cls-3" d="M242.47,73.05H238.8V56.75h5.87a8.5,8.5,0,0,1,4.44,1.09c1.23.72,1.84,2,1.84,4a4.81,4.81,0,0,1-2.9,4.7l3.7,6.53h-4.13l-3.12-5.88h-2Zm0-8.8h1.9c2,0,3-.81,3-2.43a1.8,1.8,0,0,0-.76-1.67,4.21,4.21,0,0,0-2.22-.48h-1.9Z"/><path class="cls-3" d="M256.62,73.05V56.75h10.2v3.1H260.3v3.27h5.55V66.2H260.3V70h6.77v3.1Z"/><path class="cls-3" d="M218.46,93.05V80.42h2.85V93.05Z"/><path class="cls-3" d="M226.23,93.05V80.42h2.85V93.05Z"/><path class="cls-3" d="M235.42,87a1.64,1.64,0,0,1-1.23-.51,1.77,1.77,0,0,1-.5-1.27,1.81,1.81,0,0,1,.5-1.29,1.74,1.74,0,0,1,2.46,0,1.81,1.81,0,0,1,.49,1.29,1.76,1.76,0,0,1-.49,1.27A1.64,1.64,0,0,1,235.42,87Zm0,6.28a1.64,1.64,0,0,1-1.23-.51,1.89,1.89,0,0,1,0-2.56,1.74,1.74,0,0,1,2.46,0,1.92,1.92,0,0,1,0,2.56A1.64,1.64,0,0,1,235.42,93.28Z"/><path class="cls-3" d="M246.89,93.28a5.33,5.33,0,0,1-4.15-1.75,7,7,0,0,1-1.59-4.86,6.74,6.74,0,0,1,1.59-4.79,5.89,5.89,0,0,1,8.29,0,6.75,6.75,0,0,1,1.59,4.78A7,7,0,0,1,251,91.53,5.32,5.32,0,0,1,246.89,93.28Zm0-2.46a2.34,2.34,0,0,0,2.05-1.12,5.39,5.39,0,0,0,.76-3,5.09,5.09,0,0,0-.76-3,2.5,2.5,0,0,0-4.11,0,5.09,5.09,0,0,0-.75,3,5.39,5.39,0,0,0,.75,3A2.36,2.36,0,0,0,246.89,90.82Z"/><path class="cls-3" d="M262.08,93.28a5.33,5.33,0,0,1-4.15-1.75,7,7,0,0,1-1.59-4.86,6.74,6.74,0,0,1,1.59-4.79,5.89,5.89,0,0,1,8.29,0,6.75,6.75,0,0,1,1.59,4.78,7,7,0,0,1-1.59,4.86A5.32,5.32,0,0,1,262.08,93.28Zm0-2.46a2.34,2.34,0,0,0,2.05-1.12,5.39,5.39,0,0,0,.76-3,5.09,5.09,0,0,0-.76-3,2.5,2.5,0,0,0-4.11,0,5.09,5.09,0,0,0-.75,3,5.39,5.39,0,0,0,.75,3A2.36,2.36,0,0,0,262.08,90.82Z"/><rect class="cls-3" x="160.93" y="53.69" width="86.07" height="0.63" transform="translate(73.52 219.84) rotate(-66.64)"/><path class="cls-2" d="M25,120.3a2.91,2.91,0,0,1-2.25-1,4.6,4.6,0,0,1,0-5.49,3,3,0,0,1,2.28-1,2.46,2.46,0,0,1,1.17.27,3.09,3.09,0,0,1,.81.62l-.49.6a2.4,2.4,0,0,0-.65-.5,1.83,1.83,0,0,0-.82-.18,2,2,0,0,0-1.65.78,3.39,3.39,0,0,0-.62,2.13,3.44,3.44,0,0,0,.61,2.16,1.93,1.93,0,0,0,1.62.8,1.88,1.88,0,0,0,.93-.22,2.57,2.57,0,0,0,.74-.59l.51.57a3.24,3.24,0,0,1-1,.77A2.73,2.73,0,0,1,25,120.3Z"/><path class="cls-2" d="M30.78,120.17V113h.92v3h3.35v-3H36v7.22h-.93v-3.4H31.7v3.4Z"/><path class="cls-2" d="M40.16,120.17V113h.91v7.22Z"/><path class="cls-2" d="M45.25,120.17V113h4.16v.77H46.16V116H48.9v.78H46.16v2.62h3.36v.78Z"/><path class="cls-2" d="M55.25,120.3a3.3,3.3,0,0,1-1.41-.29,3.42,3.42,0,0,1-1.12-.78l.55-.63a2.92,2.92,0,0,0,.9.65,2.45,2.45,0,0,0,1.09.25,1.71,1.71,0,0,0,1.11-.33,1,1,0,0,0,.39-.85.93.93,0,0,0-.34-.8,4.69,4.69,0,0,0-.85-.47l-1-.46a3.36,3.36,0,0,1-1-.63,1.6,1.6,0,0,1-.47-1.22,1.71,1.71,0,0,1,.64-1.37,2.39,2.39,0,0,1,1.62-.55,2.84,2.84,0,0,1,1.2.25,3,3,0,0,1,.94.64l-.5.6a2.38,2.38,0,0,0-.73-.5,2.21,2.21,0,0,0-.91-.18,1.55,1.55,0,0,0-1,.28.94.94,0,0,0-.37.77.85.85,0,0,0,.39.77,4.83,4.83,0,0,0,.81.43l1,.44a3.49,3.49,0,0,1,1.06.7,1.63,1.63,0,0,1,.43,1.23,1.91,1.91,0,0,1-.65,1.45A2.58,2.58,0,0,1,55.25,120.3Z"/><path class="cls-2" d="M65.3,120.17l-.68-2.2H62l-.69,2.2h-.94L62.8,113h1l2.44,7.22Zm-2.74-4-.34,1.1h2.17l-.34-1.1c-.14-.4-.26-.8-.38-1.2s-.23-.81-.35-1.23h0c-.11.42-.23.83-.34,1.23S62.69,115.73,62.56,116.13Z"/><path class="cls-2" d="M73.9,120.17V113h1.81a3.32,3.32,0,0,1,2.54.93,3.73,3.73,0,0,1,.87,2.65,3.84,3.84,0,0,1-.87,2.68,3.2,3.2,0,0,1-2.5,1Zm.92-.75h.82a2.32,2.32,0,0,0,1.9-.76,3.22,3.22,0,0,0,.63-2.13,3.14,3.14,0,0,0-.63-2.1,2.41,2.41,0,0,0-1.9-.73h-.82Z"/><path class="cls-2" d="M82.87,120.17V113H87v.77H83.78V116h2.74v.78H83.78v2.62h3.36v.78Z"/><path class="cls-2" d="M90.86,120.17V113h.92v7.22Z"/><path class="cls-2" d="M102.36,120.3A3.3,3.3,0,0,1,101,120a3.42,3.42,0,0,1-1.12-.78l.55-.63a3,3,0,0,0,.91.65,2.41,2.41,0,0,0,1.08.25,1.67,1.67,0,0,0,1.11-.33,1,1,0,0,0,.4-.85,1,1,0,0,0-.34-.8,5.19,5.19,0,0,0-.86-.47l-1-.46a3.36,3.36,0,0,1-1-.63,1.6,1.6,0,0,1-.47-1.22,1.74,1.74,0,0,1,.64-1.37,2.4,2.4,0,0,1,1.63-.55,2.82,2.82,0,0,1,1.19.25,3,3,0,0,1,.94.64l-.49.6a2.42,2.42,0,0,0-.74-.5,2.16,2.16,0,0,0-.9-.18,1.56,1.56,0,0,0-1,.28.94.94,0,0,0-.37.77.85.85,0,0,0,.39.77,5.25,5.25,0,0,0,.81.43l1,.44a3.33,3.33,0,0,1,1,.7,1.63,1.63,0,0,1,.43,1.23,1.91,1.91,0,0,1-.65,1.45A2.58,2.58,0,0,1,102.36,120.3Z"/><path class="cls-2" d="M112.41,120.17l-.68-2.2H109.1l-.69,2.2h-.94l2.45-7.22h1l2.44,7.22Zm-2.74-4-.34,1.1h2.17l-.34-1.1c-.13-.4-.26-.8-.37-1.2s-.24-.81-.36-1.23h0c-.11.42-.23.83-.34,1.23S109.81,115.73,109.67,116.13Z"/><path class="cls-2" d="M116.62,120.17V113h.94l2.61,4.54L121,119h0c0-.36,0-.74-.07-1.14s0-.78,0-1.16V113h.87v7.22h-.94l-2.62-4.54-.78-1.49h0l.09,1.12q0,.57,0,1.14v3.77Z"/><path class="cls-2" d="M127.43,120.17v-6.45h-2.18V113h5.28v.77h-2.18v6.45Z"/><path class="cls-2" d="M134,120.17V113h.91v7.22Z"/><path class="cls-2" d="M143.52,120.17V113h4.16v.77h-3.25v2.45h2.75v.77h-2.75v3.23Z"/><path class="cls-2" d="M151.15,120.17V113h.92v7.22Z"/><path class="cls-2" d="M156.25,120.17V113h.91v6.44h3.16v.78Z"/><path class="cls-2" d="M163.79,120.17V113h.92v7.22Z"/><path class="cls-2" d="M168.89,120.17V113h2.05a3.67,3.67,0,0,1,2,.47,1.8,1.8,0,0,1,.75,1.66,2,2,0,0,1-.74,1.68,3.1,3.1,0,0,1-1.92.55H169.8v2.86Zm.91-3.61h1.08c1.24,0,1.86-.49,1.86-1.48a1.2,1.2,0,0,0-.48-1.09,2.74,2.74,0,0,0-1.43-.3h-1Z"/><path class="cls-2" d="M177.31,120.17V113h2.06a3.67,3.67,0,0,1,2,.47,1.8,1.8,0,0,1,.74,1.66,2,2,0,0,1-.73,1.68,3.13,3.13,0,0,1-1.93.55h-1.18v2.86Zm.92-3.61h1.07c1.24,0,1.86-.49,1.86-1.48a1.2,1.2,0,0,0-.48-1.09,2.7,2.7,0,0,0-1.42-.3h-1Z"/><path class="cls-2" d="M188.4,120.3a2.76,2.76,0,0,1-2.22-1,4.12,4.12,0,0,1-.86-2.75,4,4,0,0,1,.86-2.72,2.8,2.8,0,0,1,2.22-1,2.83,2.83,0,0,1,2.23,1,4,4,0,0,1,.86,2.72,4.12,4.12,0,0,1-.86,2.75A2.79,2.79,0,0,1,188.4,120.3Zm0-.8a1.83,1.83,0,0,0,1.55-.81,3.61,3.61,0,0,0,.58-2.16,3.44,3.44,0,0,0-.58-2.12,1.93,1.93,0,0,0-3.1,0,3.44,3.44,0,0,0-.58,2.12,3.61,3.61,0,0,0,.58,2.16A1.81,1.81,0,0,0,188.4,119.5Z"/><path class="cls-2" d="M199.64,120.17V113h4.16v.77h-3.24V116h2.73v.78h-2.73v2.62h3.35v.78Z"/><path class="cls-2" d="M214.88,120.3a3.05,3.05,0,0,1-2.35-1,3.88,3.88,0,0,1-.91-2.75,3.83,3.83,0,0,1,.94-2.74,3.12,3.12,0,0,1,2.37-1,2.67,2.67,0,0,1,1.26.28,3.24,3.24,0,0,1,.82.61l-.51.6a2.39,2.39,0,0,0-.64-.48,1.83,1.83,0,0,0-.91-.2,2.13,2.13,0,0,0-1.73.78,3.23,3.23,0,0,0-.65,2.13,3.38,3.38,0,0,0,.62,2.16,2.11,2.11,0,0,0,1.77.8,1.82,1.82,0,0,0,1.3-.43v-1.88h-1.53v-.76h2.37v3a2.77,2.77,0,0,1-.93.6A3.49,3.49,0,0,1,214.88,120.3Z"/><path class="cls-2" d="M221,120.17V113h.91v7.22Z"/><path class="cls-2" d="M230.1,120.17l-.68-2.2h-2.63l-.69,2.2h-.94L227.6,113h1l2.44,7.22Zm-2.74-4-.34,1.1h2.17l-.34-1.1c-.14-.4-.26-.8-.38-1.2s-.23-.81-.35-1.23h0c-.11.42-.23.83-.34,1.23S227.49,115.73,227.36,116.13Z"/><path class="cls-2" d="M236.92,120.3a2.91,2.91,0,0,1-2.25-1,4.6,4.6,0,0,1,0-5.49,3,3,0,0,1,2.29-1,2.42,2.42,0,0,1,1.16.27,3.33,3.33,0,0,1,.82.62l-.5.6a2.4,2.4,0,0,0-.65-.5,1.83,1.83,0,0,0-.82-.18,2,2,0,0,0-1.65.78,3.39,3.39,0,0,0-.62,2.13,3.44,3.44,0,0,0,.61,2.16,1.93,1.93,0,0,0,1.62.8,1.88,1.88,0,0,0,.93-.22,2.75,2.75,0,0,0,.75-.59l.5.57a3.24,3.24,0,0,1-1,.77A2.73,2.73,0,0,1,236.92,120.3Z"/><path class="cls-2" d="M245,120.3a2.79,2.79,0,0,1-2.23-1,4.11,4.11,0,0,1-.85-2.75,4,4,0,0,1,.85-2.72,2.83,2.83,0,0,1,2.23-1,2.8,2.8,0,0,1,2.22,1,4,4,0,0,1,.87,2.72,4.07,4.07,0,0,1-.87,2.75A2.76,2.76,0,0,1,245,120.3Zm0-.8a1.83,1.83,0,0,0,1.55-.81,3.61,3.61,0,0,0,.58-2.16,3.44,3.44,0,0,0-.58-2.12,1.82,1.82,0,0,0-1.55-.78,1.8,1.8,0,0,0-1.55.78,3.44,3.44,0,0,0-.59,2.12,3.61,3.61,0,0,0,.59,2.16A1.8,1.8,0,0,0,245,119.5Z"/><path class="cls-2" d="M251.86,120.17V113H253l1.38,3.85c.09.25.18.5.26.76l.26.75h0c.08-.25.17-.5.24-.75s.16-.51.25-.76l1.37-3.85h1.11v7.22H257v-4c0-.32,0-.67,0-1.07s.06-.75.08-1.07h-.05l-.57,1.64-1.36,3.74h-.61l-1.36-3.74-.57-1.64h-.05c0,.32.05.68.07,1.07s0,.75,0,1.07v4Z"/><path class="cls-2" d="M264.72,120.3a2.79,2.79,0,0,1-2.23-1,4.11,4.11,0,0,1-.85-2.75,4,4,0,0,1,.85-2.72,2.83,2.83,0,0,1,2.23-1,2.8,2.8,0,0,1,2.22,1,4,4,0,0,1,.87,2.72,4.07,4.07,0,0,1-.87,2.75A2.76,2.76,0,0,1,264.72,120.3Zm0-.8a1.83,1.83,0,0,0,1.55-.81,3.61,3.61,0,0,0,.58-2.16,3.44,3.44,0,0,0-.58-2.12,1.82,1.82,0,0,0-1.55-.78,1.8,1.8,0,0,0-1.55.78,3.44,3.44,0,0,0-.59,2.12,3.61,3.61,0,0,0,.59,2.16A1.8,1.8,0,0,0,264.72,119.5Z"/><path class="cls-2" d="M22.3,133.37v-7.22h2.06a3.67,3.67,0,0,1,2,.47,1.8,1.8,0,0,1,.74,1.66,2,2,0,0,1-.73,1.68,3.13,3.13,0,0,1-1.93.55H23.21v2.86Zm.91-3.61h1.08c1.24,0,1.86-.49,1.86-1.48a1.2,1.2,0,0,0-.48-1.09,2.7,2.7,0,0,0-1.42-.3h-1Z"/><path class="cls-2" d="M30.73,133.37v-7.22h.91v7.22Z"/><path class="cls-2" d="M39.8,133.37l-.68-2.2H36.49l-.69,2.2h-.94l2.45-7.22h1l2.44,7.22Zm-2.74-4-.34,1.1h2.17l-.34-1.1c-.13-.4-.26-.8-.38-1.2s-.23-.81-.35-1.23h0c-.11.42-.23.83-.34,1.23S37.2,128.93,37.06,129.33Z"/><path class="cls-2" d="M43.42,133.37v-.55l3.8-5.9H43.76v-.77h4.6v.54l-3.81,5.9h3.84v.78Z"/><path class="cls-2" d="M51.37,133.37v-.55l3.8-5.9H51.72v-.77h4.59v.54l-3.8,5.9h3.84v.78Z"/><path class="cls-2" d="M63.91,133.37l-.68-2.2H60.6l-.69,2.2H59l2.44-7.22h1l2.44,7.22Zm-2.73-4-.35,1.1H63l-.34-1.1c-.13-.4-.26-.8-.37-1.2s-.24-.81-.36-1.23h0c-.11.42-.22.83-.34,1.23S61.31,128.93,61.18,129.33Z"/><path class="cls-2" d="M72.52,133.37v-7.22h4.15v.77H73.43v2.27h2.74V130H73.43v2.62h3.35v.78Z"/><path class="cls-2" d="M81.43,133.37h-.92v-7.22h2.26a3.26,3.26,0,0,1,1.82.46,1.72,1.72,0,0,1,.71,1.57,2,2,0,0,1-.45,1.35,2.19,2.19,0,0,1-1.18.69l1.84,3.15h-1l-1.73-3.05H81.43Zm0-3.79h1.21c1.16,0,1.75-.47,1.75-1.4a1.11,1.11,0,0,0-.46-1,2.42,2.42,0,0,0-1.29-.29H81.43Z"/><path class="cls-2" d="M89,133.37v-7.22h4.16v.77H89.89v2.27h2.73V130H89.89v2.62h3.35v.78Z"/><path class="cls-2" d="M97,133.37v-7.22h1.1L99.46,130c.08.25.17.5.25.76l.26.75h0c.08-.25.17-.5.24-.75s.16-.51.25-.76l1.36-3.85H103v7.22h-.86v-4c0-.32,0-.67,0-1.07s.06-.75.08-1.06h0l-.58,1.63-1.36,3.74h-.61L98.3,128.9l-.57-1.63h0c0,.31,0,.67.08,1.06s0,.75,0,1.07v4Z"/><path class="cls-2" d="M107.17,133.37v-7.22h.91v7.22Z"/><path class="cls-2" d="M113.75,133.37v-6.45h-2.17v-.77h5.28v.77h-2.18v6.45Z"/><path class="cls-2" d="M123.9,133.37l-.69-2.2h-2.62l-.7,2.2H119l2.44-7.22h1l2.45,7.22Zm-2.74-4-.34,1.1H123l-.34-1.1c-.13-.4-.25-.8-.37-1.2s-.24-.81-.35-1.23h0c-.11.42-.22.83-.34,1.23S121.29,128.93,121.16,129.33Z"/><path class="cls-2" d="M128.1,133.37v-7.22H129l2.61,4.54.78,1.49h0c0-.36,0-.74-.07-1.14s0-.78,0-1.16v-3.73h.87v7.22h-1l-2.62-4.54-.78-1.49h0c0,.37.05.74.08,1.12s0,.76,0,1.14v3.77Z"/><path class="cls-2" d="M137.42,133.37v-7.22h.91v7.22Z"/><path class="cls-2" d="M148.17,133.5a2.17,2.17,0,0,1-1-.21,2.37,2.37,0,0,1-.71-.52l.51-.58a1.43,1.43,0,0,0,1.15.56,1.62,1.62,0,0,0,1.28-.66,4,4,0,0,0,.58-2.35,2.06,2.06,0,0,1-1.65.9,2,2,0,0,1-1.45-.54,2.24,2.24,0,0,1-.54-1.63,2.22,2.22,0,0,1,.61-1.62,2,2,0,0,1,1.46-.63,2.13,2.13,0,0,1,1.72.84,3.89,3.89,0,0,1,.7,2.54,5.68,5.68,0,0,1-.38,2.26,2.79,2.79,0,0,1-1,1.25A2.39,2.39,0,0,1,148.17,133.5Zm.33-3.54a1.49,1.49,0,0,0,.74-.22A2.34,2.34,0,0,0,150,129c-.12-1.4-.64-2.09-1.55-2.09a1.11,1.11,0,0,0-.87.42,1.64,1.64,0,0,0-.35,1.11,1.67,1.67,0,0,0,.32,1.09A1.17,1.17,0,0,0,148.5,130Z"/><path class="cls-2" d="M154.32,135.24l-.22-.53a1.37,1.37,0,0,0,1-1.34H155a.65.65,0,0,1-.45-.16.56.56,0,0,1-.2-.47.58.58,0,0,1,.2-.46.67.67,0,0,1,.47-.17.65.65,0,0,1,.56.28,1.29,1.29,0,0,1,.2.78,2.06,2.06,0,0,1-.38,1.25A2.49,2.49,0,0,1,154.32,135.24Z"/><path class="cls-2" d="M163.91,133.37v-7.22H166a3.67,3.67,0,0,1,2,.47,1.8,1.8,0,0,1,.75,1.66,2,2,0,0,1-.74,1.68,3.1,3.1,0,0,1-1.92.55h-1.19v2.86Zm.92-3.61h1.08c1.23,0,1.85-.49,1.85-1.48a1.22,1.22,0,0,0-.47-1.09,2.74,2.74,0,0,0-1.43-.3h-1Z"/><path class="cls-2" d="M175.77,133.37l-.68-2.2h-2.63l-.69,2.2h-.94l2.44-7.22h1l2.44,7.22Zm-2.74-4-.34,1.1h2.17l-.34-1.1c-.13-.4-.26-.8-.38-1.2s-.23-.81-.35-1.23h0c-.11.42-.23.83-.34,1.23S173.17,128.93,173,129.33Z"/><path class="cls-2" d="M180,133.37v-7.22h1.81a3.32,3.32,0,0,1,2.54.93,3.73,3.73,0,0,1,.87,2.65,3.82,3.82,0,0,1-.87,2.68,3.2,3.2,0,0,1-2.5,1Zm.92-.75h.82a2.31,2.31,0,0,0,1.9-.76,3.22,3.22,0,0,0,.63-2.13,3.14,3.14,0,0,0-.63-2.1,2.39,2.39,0,0,0-1.9-.73h-.82Z"/><path class="cls-2" d="M191.6,133.5a2.76,2.76,0,0,1-2.22-1,4.12,4.12,0,0,1-.86-2.75,4,4,0,0,1,.86-2.72,2.8,2.8,0,0,1,2.22-1,2.83,2.83,0,0,1,2.23,1,4,4,0,0,1,.86,2.72,4.12,4.12,0,0,1-.86,2.75A2.79,2.79,0,0,1,191.6,133.5Zm0-.8a1.81,1.81,0,0,0,1.55-.81,3.61,3.61,0,0,0,.58-2.16,3.44,3.44,0,0,0-.58-2.12,1.93,1.93,0,0,0-3.1,0,3.44,3.44,0,0,0-.58,2.12,3.61,3.61,0,0,0,.58,2.16A1.83,1.83,0,0,0,191.6,132.7Z"/><path class="cls-2" d="M199.65,133.37l-2.31-7.22h1l1.16,3.9c.13.42.25.82.34,1.19s.22.77.36,1.2h0c.13-.43.24-.83.35-1.2s.21-.77.34-1.19l1.15-3.9H203l-2.29,7.22Z"/><path class="cls-2" d="M210,133.37l-.69-2.2h-2.62l-.7,2.2h-.93l2.44-7.22h1l2.45,7.22Zm-2.74-4-.34,1.1h2.16l-.34-1.1c-.13-.4-.25-.8-.37-1.2s-.24-.81-.35-1.23H208c-.11.42-.22.83-.34,1.23S207.42,128.93,207.29,129.33Z"/></svg>