<?xml version="1.0" standalone="no"?>
<!DOCTYPE svg PUBLIC "-//W3C//DTD SVG 1.1//EN" "http://www.w3.org/Graphics/SVG/1.1/DTD/svg11.dtd" >
<svg xmlns="http://www.w3.org/2000/svg" xmlns:xlink="http://www.w3.org/1999/xlink" version="1.1">
<metadata>
Created by FontForge 20170812 at Thu Nov 13 19:06:58 2003
 By www-data
Copyright (c) 2003 Linotype Library GmbH, www.linotype.com. All rights reserved. This software may not be reproduced, used, displayed, modified, disclosed or transferred without the express written approval of Linotype Library GmbH. Zapfino is a trademark of Heidelberger Druckmaschinen AG, exclusively licensed through Linotype Library GmbH, and may be registered in certain jurisdictions. The typeface is original artwork of Hermann Zapf. The design may be protected in certain jurisdictions.
</metadata>
<defs>
<font id="ZapfinoExtraLTPro" horiz-adv-x="242" >
  <font-face 
    font-family="Zapfino Extra LT Pro"
    font-weight="400"
    font-style="italic"
    font-stretch="normal"
    units-per-em="1000"
    panose-1="3 3 4 2 4 7 7 7 12 3"
    ascent="800"
    descent="-200"
    x-height="215"
    cap-height="446"
    bbox="-1467 -1254 2512.1 1104"
    underline-thickness="50"
    underline-position="-125"
    slope="-29"
    stemh="9"
    stemv="46"
    unicode-range="U+000D-FB03"
  />
<missing-glyph horiz-adv-x="312" 
d="M140 1v-1h-140v306h1c4 -41 26 -64 71 -64c34 0 64 27 64 64c0 16 -9 29 -20 37c-10 9 -17 18 -17 27c0 28 19 39 48 39c39 0 44 -33 44 -64c0 -18 -11 -50 -32 -73s-43 -39 -43 -67c0 -27 21 -58 24 -82c-29 -2 -55 -29 -55 -61c0 -31 24 -56 55 -61zM159 0v1
c33 5 58 30 58 61s-24 57 -53 62c0 48 23 76 69 96c49 21 74 52 78 97h1v-317h-153zM131 436v-1c-77 -2 -127 -41 -130 -96h-1v97h131zM312 340h-1c-5 68 -59 95 -130 95v1h131v-96z" />
    <glyph glyph-name="napostrophe" unicode="&#x22;n" horiz-adv-x="261" 
d="M363 129c-48 -67 -130 -142 -199 -142c-16 0 -32 3 -32 21c0 38 61 119 85 176c3 7 0 13 -6 9c-29 -19 -85 -68 -110 -97c-21 -33 -33 -58 -56 -93c-2 -3 -4 -6 -6 -6c-7 0 -12 21 -12 25c0 12 20 34 40 59c21 43 46 94 62 131c2 3 6 5 9 5c8 0 16 -8 16 -16
c0 -5 -25 -41 -43 -82c50 45 127 108 142 108c5 0 11 -8 11 -13c0 -4 -2 -7 -5 -12c-30 -43 -92 -144 -92 -181c0 -16 6 -21 21 -21c44 0 133 76 170 135c3 4 11 2 5 -6zM180 387c0 -54 -47 -98 -90 -139c-5 -4 -12 1 -7 6c31 30 68 56 68 106c0 40 -17 35 -17 44
c0 4 7 11 20 23c2 2 4 3 6 3c7 0 20 -21 20 -43z" />
    <glyph glyph-name="IJ" unicode="IJ" horiz-adv-x="501" 
d="M314 335c0 5 2 14 4 19c-55 -100 -132 -233 -196 -329c-10 -14 -25 -23 -37 -25c-15 -2 -34 -3 -47 -2c-2 1 -2 3 -2 5c10 1 22 9 28 17c49 60 207 305 233 384c1 3 2 7 2 11c0 9 -10 11 -27 11c-16 0 -38 -1 -55 -5l-3 1c1 5 3 9 6 12c56 2 114 6 152 12c3 -2 5 -5 5 -8
c0 -2 -2 -3 -6 -4c-10 -3 -16 -13 -23 -25c-6 -12 -19 -34 -26 -47c48 64 174 83 342 83c3 -1 4 -3 4 -5s-1 -4 -4 -4c-8 1 -14 1 -18 1c-11 0 -16 -1 -23 -9c-25 -32 -126 -229 -183 -318c-71 -117 -182 -224 -345 -224c-41 0 -94 15 -120 32c-7 4 -10 7 -9 16
c0 9 3 31 4 49l7 2c1 -56 51 -89 129 -89c97 0 190 38 325 278c44 78 104 186 133 251c1 3 3 10 -5 10c-91 0 -229 -39 -229 -120c0 -6 1 -11 2 -14c1 -2 -1 -3 -2 -3c-6 4 -16 20 -16 37z" />
    <glyph glyph-name="fi" unicode="fi" horiz-adv-x="366" 
d="M487 484c0 -11 -5 -23 -17 -36c-3 -4 -9 -11 -12 -16c-4 -7 -9 1 -6 4c5 6 9 13 9 19c0 9 -17 27 -48 27c-69 0 -131 -90 -164 -143c-27 -44 -53 -89 -77 -133c45 0 69 0 106 1c38 1 52 6 78 6c2 0 4 -1 4 -3c0 -5 -23 -33 -50 -76c-17 -27 -56 -88 -56 -121
c0 -14 7 -23 20 -23c4 0 9 0 14 2c69 24 132 77 180 140c2 4 10 5 5 -5c-50 -63 -107 -109 -173 -140c-25 -12 -45 -18 -60 -18c-18 0 -28 8 -28 25c0 39 58 125 98 186c3 4 8 11 8 14c0 2 -2 4 -6 4c-43 0 -93 0 -145 -1c-47 -86 -91 -172 -142 -258
c-52 -88 -100 -154 -152 -212c-43 -48 -91 -76 -133 -76c-75 0 -104 89 -104 151c0 19 3 25 13 42c10 18 20 32 36 47c6 5 8 -2 4 -5c-17 -13 -22 -31 -22 -64c0 -52 28 -155 93 -155c25 0 51 15 79 44c61 65 104 147 146 224c49 89 96 181 142 261c-43 -1 -55 -1 -70 -1
c-10 0 -19 3 -23 7c-1 1 -2 2 -2 3s2 2 7 2c0 0 61 -1 94 -1c20 34 39 66 58 95c54 80 113 144 184 187c22 13 48 23 70 23c16 0 42 -7 42 -27zM432 348c0 -16 -17 -36 -34 -36c-9 0 -12 4 -12 12c0 17 10 37 28 37c8 0 18 -5 18 -13z" />
    <glyph glyph-name="fl" unicode="fl" horiz-adv-x="394" 
d="M709 646c-12 -119 -193 -322 -346 -406c-40 -72 -94 -163 -94 -207c0 -20 10 -31 28 -31c59 0 128 76 172 130c8 8 8 3 5 -4c-49 -64 -128 -144 -203 -144c-27 0 -44 15 -44 43c0 46 48 113 100 198c-52 -17 -107 -24 -156 -27c-48 -90 -97 -182 -149 -270
c-54 -92 -106 -166 -152 -219c-71 -81 -183 -165 -293 -165c-90 0 -155 53 -155 148c0 22 3 45 10 67c4 7 6 4 5 -3c-3 -13 -5 -27 -5 -41c0 -100 96 -130 175 -130c110 0 202 64 269 147c40 50 72 111 132 231c32 63 83 162 122 233c-27 -1 -51 -1 -71 -1
c-15 0 -33 6 -33 10c0 1 2 2 5 2h106c38 73 84 151 136 209c76 84 128 137 180 137c17 0 34 -7 34 -27c0 -11 0 -16 7 -23c23 34 47 64 84 95c20 17 87 66 113 66c10 0 18 -6 18 -18zM488 493c-16 20 -34 28 -59 28c-65 0 -120 -73 -154 -127c-22 -35 -65 -119 -100 -186
c58 2 105 8 158 27c45 75 88 157 155 258zM666 619c0 10 -5 20 -12 20c-20 0 -83 -76 -92 -89c-28 -40 -131 -202 -191 -297c150 82 295 283 295 366z" />
    <glyph glyph-name="ij" unicode="ij" horiz-adv-x="335" 
d="M154 189c-34 -53 -72 -129 -72 -158c0 -16 10 -23 22 -23c28 0 74 38 104 74c15 30 27 57 42 90c2 5 3 11 3 15c0 5 -3 9 -8 9c-3 0 -21 -6 -35 -7c-5 0 -6 7 1 9c59 10 73 24 86 24c6 0 10 -4 10 -11c0 -4 -1 -8 -4 -14c-45 -84 -75 -150 -122 -232
c-23 -39 -67 -109 -111 -180c77 66 240 178 315 290c17 25 24 48 24 65c0 9 -2 17 -6 22c-4 8 0 7 5 4c9 -7 13 -24 13 -40c0 -41 -33 -82 -59 -106c-99 -92 -184 -154 -283 -242c-56 -49 -41 -64 -114 -130c-2 -2 -4 -2 -6 -2c-7 0 -10 18 -10 24s1 11 4 15
c45 63 72 50 116 128c42 75 84 154 130 249c-39 -44 -84 -67 -113 -67c-23 0 -39 8 -39 34c0 34 41 97 54 130c3 7 7 16 7 20c0 5 -2 10 -7 10c-6 0 -15 -2 -29 -6c-5 0 -6 7 1 9c30 10 67 22 75 22c6 0 10 -4 10 -11c0 -4 -1 -8 -4 -14zM360 350c0 -16 -17 -36 -34 -36
c-9 0 -12 4 -12 12c0 17 15 37 33 37c8 0 13 -5 13 -13zM233 354c0 -16 -17 -36 -34 -36c-9 0 -12 4 -12 12c0 17 15 37 33 37c8 0 13 -5 13 -13z" />
    <glyph glyph-name="f_f_i" unicode="ffi" horiz-adv-x="560" 
d="M732 468c0 -3 0 -7 -1 -10c0 -3 0 -6 -1 -9c0 -3 -1 -4 -3 -4l-1 1c-1 0 -1 1 -1 3v4c0 3 -2 6 -5 11c-5 6 -11 10 -20 13s-18 5 -27 6c-5 1 -10 1 -15 1c-5 1 -9 1 -14 1c-42 0 -79 -12 -111 -36c-13 -9 -26 -20 -37 -31s-22 -23 -32 -36c-9 -12 -20 -27 -32 -45
c-11 -18 -23 -38 -36 -61l-22 -40c-5 -9 -12 -22 -21 -40c39 1 94 6 166 16h2c6 0 10 -7 12 -20v-4c0 -3 -1 -7 -4 -10c-13 -13 -26 -29 -37 -48c-25 -40 -42 -74 -50 -101c-2 -7 -3 -12 -3 -16c0 -15 7 -23 21 -23c4 0 8 1 12 2c61 19 123 67 186 145c1 1 3 2 4 2
c2 0 3 -1 3 -3c0 -1 -1 -3 -2 -4c-59 -69 -118 -118 -178 -145c-27 -13 -47 -19 -61 -19c-18 0 -27 8 -27 25c0 13 7 33 20 58c22 41 47 84 76 128c7 11 7 17 0 17c-46 -5 -95 -8 -146 -10c-3 -7 -7 -15 -12 -24c-19 -35 -41 -76 -65 -123c-24 -45 -50 -89 -78 -131
c-25 -37 -52 -69 -81 -97c-29 -29 -60 -51 -92 -66c-18 -9 -35 -16 -50 -21c-16 -5 -31 -7 -46 -7c-9 0 -19 1 -28 3s-19 6 -29 13c-5 -5 -9 -10 -12 -13s-8 -7 -13 -12c-51 -45 -96 -67 -137 -67c-30 0 -55 12 -74 35c-6 7 -11 16 -14 25s-6 18 -8 27v3l-1 1c0 3 1 4 2 4
s3 -2 5 -7c5 -17 15 -31 28 -43c9 -8 19 -14 30 -17c11 -4 22 -6 35 -6c21 0 42 5 65 14c22 9 43 21 62 38c12 10 20 18 25 24c-4 8 -6 14 -6 18c0 13 6 24 19 35c2 2 4 3 6 3c3 0 5 -3 5 -8c0 -3 2 -9 6 -16c18 23 34 46 47 67s27 44 41 69c13 24 26 48 38 73
c13 24 24 48 35 71c11 24 22 47 32 68c11 21 21 41 30 59l-45 -1h-2c-6 0 -9 1 -9 3s1 4 3 6l4 3c5 4 11 6 20 6h1c5 0 11 0 17 -1h20c13 24 26 46 38 66c13 20 25 38 37 54c13 17 25 32 38 45s28 26 43 37c33 25 63 38 91 40h8c16 0 28 -3 37 -10c5 -4 7 -10 7 -17v-3
c-1 -2 -2 -4 -3 -7l-3 -6c-1 -1 -1 -2 -1 -3c-1 -3 -3 -5 -4 -5s-3 1 -5 3c-8 10 -20 16 -35 19c-3 1 -7 1 -11 1c-3 1 -7 1 -10 1c-23 0 -44 -7 -65 -21c-9 -7 -19 -17 -30 -31c-11 -13 -21 -28 -30 -43c-8 -13 -18 -30 -29 -51s-23 -44 -36 -70c12 -1 24 -1 37 -1h52
c9 1 17 1 24 1h20c7 0 14 0 21 1c9 16 18 32 27 47c9 16 18 31 27 45c28 42 54 76 79 101c25 26 53 49 82 70c27 19 51 33 72 42s40 14 57 16c3 1 8 1 15 1c28 0 47 -9 57 -26c3 -5 4 -13 4 -22zM307 185c-13 -1 -25 -1 -37 -2c-11 0 -22 0 -31 -1c-13 -1 -26 -1 -40 -2
c-13 0 -29 0 -48 -1l-11 -22c-23 -47 -46 -91 -68 -132c-21 -41 -45 -81 -72 -122c-13 -21 -28 -43 -45 -66s-37 -48 -60 -73c3 -4 7 -8 14 -11c14 -8 31 -12 50 -12c21 0 40 4 57 12c32 13 61 35 86 64s48 63 68 100c15 28 31 58 46 89c15 32 31 64 48 97c7 14 14 28 21 41
c7 14 15 28 22 41zM619 342c0 -8 -4 -16 -11 -24s-15 -12 -23 -12s-12 4 -12 12c0 9 3 17 10 25s14 12 23 12s13 -4 13 -13z" />
    <glyph glyph-name="f_f" unicode="ff" horiz-adv-x="370" 
d="M747 473c0 -5 -1 -13 -3 -21c-1 -1 -3 -1 -4 0c0 20 -22 40 -77 40c-71 0 -152 -27 -257 -216c-15 -27 -29 -53 -43 -79c27 1 67 3 88 5c9 0 5 -8 -1 -8c-25 -3 -64 -6 -92 -7c-55 -104 -100 -197 -156 -280c-49 -73 -110 -132 -173 -163c-37 -18 -65 -25 -94 -25
c-22 0 -49 7 -62 21c-46 -51 -108 -93 -168 -93c-52 0 -88 31 -98 80c0 7 5 8 6 1c6 -28 37 -68 93 -68c72 0 127 48 162 86c-2 4 -4 8 -4 12c0 10 17 36 24 35c1 -7 3 -13 6 -18c29 37 55 81 83 130c55 96 98 202 136 274l-55 -1c-7 0 -8 2 -8 3c0 4 15 11 23 11h46
c54 98 98 158 158 204c28 22 62 40 97 40c18 0 46 -3 46 -27c0 -9 -6 -15 -7 -19c0 -3 -2 -5 -4 -5c-6 0 -12 24 -61 24c-22 0 -44 -7 -65 -21c-19 -13 -42 -44 -60 -74c-16 -27 -41 -71 -67 -123c32 0 121 2 167 4c56 105 116 193 219 267c75 54 133 59 144 59
c31 0 61 -7 61 -48zM317 185c-47 -2 -113 -5 -166 -6c-47 -94 -94 -189 -151 -277c-27 -42 -63 -90 -101 -134c16 -20 41 -28 69 -28c19 0 40 4 58 12c64 26 114 90 154 164c48 88 89 181 137 269z" />
    <glyph glyph-name="g_g" unicode="gg" horiz-adv-x="463" 
d="M-193 -408c44 0 85 34 138 116c-16 20 -26 48 -26 84c0 4 2 7 4 7c1 0 2 -2 2 -6c0 -25 8 -54 26 -77c75 121 182 303 233 400c1 2 2 4 2 5v1c-1 0 -2 -1 -4 -4c-15 -20 -91 -124 -136 -124c-12 0 -20 8 -20 23c0 44 87 195 204 202c5 0 8 0 11 5c6 11 16 30 25 43
c1 2 3 3 4 3c3 0 8 -13 8 -31c0 -4 -2 -9 -6 -17c0 -1 1 -1 3 -1c75 2 137 4 201 8c24 48 32 63 44 71c15 0 18 -19 18 -39c0 -24 -3 -58 -28 -58h-37c-28 -63 -65 -142 -105 -224c-120 -247 -190 -325 -309 -325c-25 0 -63 8 -93 32c-54 -73 -120 -106 -184 -106
c-86 0 -101 85 -101 167c5 22 19 54 29 74c1 1 2 1 3 1c2 0 3 -2 3 -5c-7 -11 -9 -34 -9 -53c0 -96 40 -172 100 -172zM121 -37c-14 -25 -108 -202 -150 -268c18 -13 40 -22 69 -22c140 0 215 90 328 328c12 26 27 60 38 86c1 1 1 2 1 3h-1s-1 0 -1 -1
c-25 -36 -77 -95 -118 -95h-1c-12 0 -20 8 -20 23c0 35 62 142 142 185c2 1 3 2 3 3s-2 2 -4 2c-27 3 -71 5 -126 5h-3c-6 0 -12 -1 -18 -11c-39 -66 -92 -154 -139 -238zM463 203c-9 1 -15 1 -21 1c-12 0 -18 -2 -28 -8c-57 -40 -106 -139 -106 -163c0 -7 3 -11 8 -11
c14 0 57 31 89 79c16 23 44 73 58 102zM228 202c1 2 2 3 2 5c0 1 -1 3 -3 3c-89 0 -159 -146 -159 -177c0 -7 3 -11 8 -11c16 0 70 43 152 180zM532 260c0 13 -7 20 -18 20c-5 -1 -13 -14 -29 -50c38 2 47 12 47 30z" />
    <glyph glyph-name="l_l" unicode="ll" horiz-adv-x="464" 
d="M639 527c0 -64 -156 -280 -341 -436c-5 -18 -7 -35 -7 -52c0 -39 20 -56 53 -56c75 0 160 89 203 141c4 4 5 0 4 -6c-55 -71 -149 -153 -241 -153c-41 0 -62 19 -62 60c0 9 1 20 3 32c-32 -22 -92 -63 -151 -63c-31 0 -36 24 -36 46c0 89 149 334 244 426
c30 30 74 57 117 57c35 0 58 -14 58 -30c0 -4 -9 -32 -16 -47c40 47 98 112 143 112c19 0 29 -11 29 -31zM466 458c0 20 -16 50 -59 50c-29 0 -65 -9 -112 -69c-62 -78 -187 -301 -187 -386c0 -22 9 -34 31 -34c35 0 74 20 115 49c11 59 83 217 208 372c3 6 4 15 4 18z
M608 506c0 13 -3 29 -22 29c-57 0 -226 -210 -286 -433c104 85 308 314 308 404z" />
    <glyph glyph-name="p_f" unicode="pf" horiz-adv-x="433" 
d="M813 475c0 -4 0 -7 -4 -3c-17 17 -51 24 -75 24c-95 0 -163 -44 -255 -209c-15 -27 -29 -54 -43 -81c24 1 64 4 104 6c5 -1 3 -6 0 -6c-40 -3 -79 -6 -109 -9c-91 -169 -174 -311 -218 -360c-93 -102 -185 -144 -273 -144c-23 0 -47 4 -69 14c-10 -23 -21 -56 -21 -73
c0 -30 13 -47 34 -55c3 -1 4 -8 -1 -9c-12 6 -50 22 -71 27c-5 3 -9 7 -9 21s16 54 42 104c-25 20 -42 52 -42 100c0 21 3 41 9 62c1 3 5 2 5 -2c-3 -9 -6 -25 -6 -39c0 -36 12 -75 46 -100c82 142 179 305 208 351c23 36 32 58 32 67s-2 20 -14 20c-15 0 -31 -10 -45 -20
c-2 1 -4 2 -4 5c19 14 43 28 65 28s31 -8 31 -27c0 -15 -20 -44 -51 -81c0 -1 -1 -4 2 -1c42 44 104 95 148 122c13 8 31 11 47 14c2 -3 0 -6 -5 -12c-10 -11 -23 -29 -36 -47c-29 -41 -63 -97 -63 -126c0 -18 6 -24 23 -24c47 0 166 93 166 138c0 31 -27 40 -50 40
c-4 3 2 12 8 14l75 1c12 21 29 53 48 81c55 83 108 137 166 178c69 49 115 59 142 59c53 0 63 -28 63 -48zM338 97c-40 -49 -121 -103 -175 -103c-25 0 -33 13 -33 29c0 15 7 34 21 56c25 38 47 70 64 99c4 6 -1 7 -5 4c-68 -43 -131 -103 -172 -165
c-49 -74 -116 -203 -158 -288c21 -10 46 -15 78 -15c108 0 192 48 254 153c44 74 102 182 126 230zM389 196l-60 -4c17 -3 37 -14 41 -33c7 14 12 25 19 37z" />
    <glyph glyph-name="p_p" unicode="pp" horiz-adv-x="476" 
d="M585 154c4 2 7 -3 4 -6c-85 -53 -188 -100 -289 -141c-124 -252 -168 -353 -168 -419c0 -13 8 -30 31 -30c12 0 22 5 31 13c3 3 8 -2 5 -6c-6 -6 -19 -16 -39 -16c-15 0 -33 9 -46 20c-16 13 -19 25 -19 44c0 47 33 136 183 384c-25 -12 -50 -25 -66 -34
c-4 -2 -7 -3 -10 -3c-6 4 -22 18 -22 21c0 5 3 7 12 9c29 6 73 16 98 26c40 66 87 148 119 205c3 5 -2 4 -3 3c-163 -118 -333 -204 -361 -220c-74 -145 -138 -274 -153 -366c0 -3 0 -7 2 -10c1 -5 -2 -9 -8 -4c-26 29 -32 38 -32 50c0 11 23 62 173 326c-4 3 -12 18 -13 23
c0 4 3 5 8 5s16 1 22 2c108 198 139 265 150 292c7 16 21 19 37 19c7 0 13 -4 5 -12c-43 -62 -97 -135 -178 -297c68 9 140 81 140 136c0 17 -6 27 -13 32c0 2 0 4 2 6c9 5 31 13 35 13c6 -1 18 -14 18 -36c0 -15 -3 -26 -28 -51c-15 -16 -34 -34 -52 -52c-4 -4 -3 -5 1 -3
c115 65 204 122 265 176c16 27 59 106 65 113c7 9 37 22 43 22c4 0 5 -2 5 -7c0 -16 -52 -83 -93 -127c-39 -57 -99 -161 -138 -232c81 20 150 85 150 141c0 15 -6 31 -15 39c-1 2 -1 4 1 5c6 5 25 11 28 11c11 0 25 -24 25 -47c0 -13 -6 -32 -13 -39
c-15 -15 -49 -44 -69 -62c-4 -4 -6 -7 -1 -5c59 26 119 57 171 89z" />
    <glyph glyph-name=".notdef" horiz-adv-x="312" 
d="M140 1v-1h-140v306h1c4 -41 26 -64 71 -64c34 0 64 27 64 64c0 16 -9 29 -20 37c-10 9 -17 18 -17 27c0 28 19 39 48 39c39 0 44 -33 44 -64c0 -18 -11 -50 -32 -73s-43 -39 -43 -67c0 -27 21 -58 24 -82c-29 -2 -55 -29 -55 -61c0 -31 24 -56 55 -61zM159 0v1
c33 5 58 30 58 61s-24 57 -53 62c0 48 23 76 69 96c49 21 74 52 78 97h1v-317h-153zM131 436v-1c-77 -2 -127 -41 -130 -96h-1v97h131zM312 340h-1c-5 68 -59 95 -130 95v1h131v-96z" />
    <glyph glyph-name=".null" horiz-adv-x="0" 
 />
    <glyph glyph-name=".null" horiz-adv-x="0" 
 />
    <glyph glyph-name="CR" unicode="&#xd;" horiz-adv-x="0" 
 />
    <glyph glyph-name="space" unicode=" " horiz-adv-x="200" 
 />
    <glyph glyph-name="exclam" unicode="!" horiz-adv-x="220" 
d="M340 401c5 -2 3 -8 -1 -8c-7 0 -17 -3 -23 -8c-60 -49 -116 -171 -167 -287c-2 -5 -8 -3 -8 2c40 114 78 207 114 276c11 22 26 31 48 31c11 0 29 -3 37 -6zM152 29c0 -18 -16 -35 -33 -35c-11 0 -19 7 -19 19c0 19 9 40 30 40c14 0 22 -11 22 -24z" />
    <glyph glyph-name="quotedbl" unicode="&#x22;" horiz-adv-x="327" 
d="M426 460c0 -2 -1 -5 -3 -7c-52 -79 -113 -145 -171 -233c-5 -7 -16 -2 -9 5c53 87 87 153 149 238c4 6 11 8 17 8s17 -4 17 -11zM353 465c0 -2 -1 -5 -3 -7c-54 -79 -109 -141 -174 -235c-3 -5 -15 -4 -9 8c67 95 101 168 152 239c5 6 10 9 16 9c8 0 18 -5 18 -14z" />
    <glyph glyph-name="numbersign" unicode="#" horiz-adv-x="329" 
d="M409 413c-3 -4 -38 -52 -70 -100c19 1 36 2 48 3c3 0 4 -1 4 -3c-7 -6 -21 -17 -27 -24c-5 -5 -8 -7 -13 -7c-9 0 -20 0 -31 -1c-23 -35 -43 -69 -64 -104c32 0 54 -1 54 -15c0 -6 -12 -19 -18 -30c-7 6 -20 8 -58 8c-24 -42 -47 -85 -63 -117c-3 -6 -4 -8 -8 -8
s-8 7 -8 11c0 3 1 6 4 10c21 33 42 67 64 104c-19 0 -40 -1 -62 -4c-28 -48 -49 -86 -66 -121c-3 -7 -8 -12 -12 -12c-5 0 -6 8 -6 13c0 3 1 6 3 9c21 34 42 68 68 109c-27 -4 -34 -6 -39 -6c-3 0 -4 1 -4 3c8 4 20 16 22 23c3 9 6 12 11 13c8 1 24 3 33 4
c21 35 44 69 65 104c-14 -1 -31 -3 -43 -5c-3 0 -4 1 -4 3c0 3 13 23 18 30c3 4 8 6 14 6c11 0 23 1 36 1c18 29 35 58 49 80c16 24 26 10 19 3c-19 -26 -38 -54 -57 -83c20 1 41 2 62 3c29 46 60 93 67 105c8 14 24 11 12 -5zM309 281c-21 -1 -47 -3 -61 -4
c-21 -32 -44 -68 -65 -104c20 2 41 3 62 4c22 34 42 70 64 104z" />
    <glyph glyph-name="dollar" unicode="$" horiz-adv-x="372" 
d="M433 498c-20 -31 -39 -62 -56 -90c7 -11 9 -25 9 -39c0 -10 -3 -13 -10 -23c-4 -6 -6 -13 -10 -13c-2 0 -5 2 -5 6c0 12 -2 22 -6 32c-26 -43 -50 -82 -72 -119c54 -17 92 -32 92 -87c0 -87 -123 -199 -252 -199c-26 -53 -46 -106 -65 -159c-3 -10 -10 -2 -10 7
c0 26 29 90 62 154c-39 5 -71 21 -75 56c0 9 -1 33 -2 41c0 8 6 7 7 2c4 -39 46 -67 85 -72c32 59 79 141 129 227c-19 7 -45 15 -65 21c-17 5 -28 15 -28 32c0 33 69 167 158 167c21 0 39 -8 51 -23c38 64 45 77 54 83c5 4 9 3 9 -4zM329 143c0 44 -27 63 -66 76
c-44 -75 -97 -170 -126 -226c7 -1 23 -2 33 -2c88 0 159 58 159 152zM348 383c-13 21 -32 34 -57 34c-48 0 -92 -55 -92 -99c0 -35 34 -50 74 -63c24 41 49 84 75 128z" />
    <glyph glyph-name="percent" unicode="%" horiz-adv-x="619" 
d="M618 184c-20 -2 -47 -4 -66 -6c-7 -1 -9 -3 -7 -7c2 -3 3 -11 3 -18c0 -66 -66 -154 -130 -154c-23 0 -37 12 -37 39c0 46 33 89 62 117c-95 -52 -244 -156 -346 -247c-2 0 -2 0 -2 2c0 12 -4 16 -7 19c0 4 3 6 6 10c317 293 396 413 396 452c0 24 -16 29 -43 29
c-40 0 -99 -14 -129 -17c-6 0 -12 2 -15 5c-24 -12 -78 -73 -78 -140c0 -17 8 -28 20 -28c41 0 92 60 92 136c0 9 -2 17 -6 20c0 2 2 5 4 5c3 -2 14 -5 19 -6c3 -1 12 -9 12 -27c0 -43 -65 -139 -133 -139c-18 0 -40 6 -40 37c0 40 31 119 108 145c-1 7 -1 21 -1 31
c0 4 6 4 7 0c5 -7 6 -8 18 -8c15 0 87 12 121 12c37 0 60 -8 60 -40c0 -39 -41 -115 -340 -426c122 88 242 169 317 205c3 0 5 -5 2 -6c-43 -18 -72 -96 -72 -135c0 -20 9 -33 23 -33c29 0 82 49 82 133c0 18 -2 33 -21 40c-2 1 -4 4 -4 5c0 2 2 4 4 5c7 3 16 8 19 10
c0 1 2 1 3 1c2 0 5 -1 7 -3c10 -7 21 -13 92 -13c1 0 2 -2 0 -5z" />
    <glyph glyph-name="ampersand" unicode="&#x26;" horiz-adv-x="830" 
d="M786 174c0 -88 -94 -162 -189 -162c-27 0 -53 7 -75 21c-43 -22 -91 -33 -140 -33c-69 0 -134 28 -134 105c0 47 32 92 65 122c41 37 100 70 142 101c8 31 24 71 41 101c-225 0 -413 -161 -413 -356c0 -136 110 -197 256 -197c89 0 171 24 239 80c6 5 11 5 6 -3
c-23 -36 -123 -84 -250 -84c-143 0 -285 64 -285 220c0 196 224 346 450 346c9 15 31 51 52 51c12 0 15 -9 15 -16c0 -11 -5 -27 -11 -40c81 -14 138 -59 138 -144c0 -89 -67 -184 -139 -233c18 -14 49 -24 74 -24c59 0 132 36 132 126c0 50 -34 80 -61 83c-3 0 -4 3 0 4
c10 0 26 5 34 5c32 0 53 -30 53 -73zM674 276c0 73 -48 133 -122 148c-15 -31 -51 -77 -95 -118c-3 -13 -4 -24 -4 -41c0 -88 39 -167 95 -208c83 58 126 143 126 219zM515 39c-50 35 -72 112 -72 186c0 26 1 49 6 75c-31 -28 -70 -61 -95 -87c-31 -33 -76 -85 -76 -134
c0 -58 54 -72 104 -72c45 0 95 11 133 32zM547 425c-13 3 -32 4 -46 4c-16 -29 -30 -64 -37 -94c32 22 70 61 83 90zM556 460c0 8 -3 13 -11 13c-17 0 -35 -27 -41 -38c12 0 29 -1 46 -4c4 9 6 21 6 29z" />
    <glyph glyph-name="quotesingle" unicode="'" horiz-adv-x="218" 
d="M328 462c0 -8 -48 -75 -67 -100c-17 -23 -51 -73 -69 -105c-5 -8 -16 -3 -11 6c20 37 38 71 56 104s36 65 58 98c4 5 10 9 16 9c5 0 17 -6 17 -12z" />
    <glyph glyph-name="parenleft" unicode="(" horiz-adv-x="366" 
d="M456 503c-128 -54 -254 -265 -296 -367c-18 -43 -30 -83 -30 -116c0 -28 9 -50 31 -68c5 -3 0 -10 -4 -6c-36 23 -57 57 -57 102c0 18 4 38 11 60c51 157 192 330 342 402c6 0 8 -5 3 -7z" />
    <glyph glyph-name="parenright" unicode=")" horiz-adv-x="406" 
d="M474 398c0 -38 -17 -86 -35 -124c-58 -123 -177 -289 -311 -327c-8 0 -11 5 -3 7c122 35 245 258 282 338c20 43 43 103 43 149c0 24 -6 43 -22 58c-4 4 0 9 4 6c31 -27 42 -61 42 -107z" />
    <glyph glyph-name="asterisk" unicode="*" horiz-adv-x="254" 
d="M348 330c0 -5 -4 -13 -14 -12c-17 1 -42 1 -60 1c-6 0 -7 -1 -2 -6c12 -14 35 -40 38 -50c5 -15 -13 -19 -17 -8c-2 5 -20 38 -30 55c-2 4 -4 3 -7 -3c-8 -15 -21 -43 -26 -56c-3 -7 -6 -12 -10 -12c-7 0 -14 2 -14 7c0 4 2 7 6 13s33 47 36 51c4 5 3 7 -3 6
c-4 -1 -50 -11 -66 -15c-6 0 -9 6 -9 10c0 3 6 10 9 11c10 1 50 2 66 2c5 0 6 2 4 5c-6 9 -27 34 -38 47c-4 5 3 14 10 14c4 0 8 -2 11 -8c6 -12 21 -41 24 -47s4 -4 6 0c5 9 20 41 28 59c5 10 8 12 15 12s12 -10 6 -16c-13 -15 -34 -46 -41 -57c-3 -5 -2 -8 6 -6
c14 3 44 8 55 10s17 -2 17 -7z" />
    <glyph glyph-name="plus" unicode="+" horiz-adv-x="400" 
d="M351 112c-30 7 -65 9 -104 9c-21 -37 -40 -77 -52 -109l-23 17c12 21 35 62 53 93c-27 0 -73 -1 -91 -2l-8 25c6 -1 56 -2 109 -3c17 31 36 64 51 90l29 -6c-18 -23 -41 -54 -57 -84c39 0 74 -3 92 -9z" />
    <glyph glyph-name="comma" unicode="," horiz-adv-x="210" 
d="M174 69c0 -7 -3 -13 -8 -18c-71 -71 -110 -110 -169 -177c-3 -3 -13 -7 -13 2c0 2 1 6 3 8c58 66 113 138 166 209c3 5 7 7 11 7s10 -4 10 -31z" />
    <glyph glyph-name="hyphen" unicode="-" horiz-adv-x="316" 
d="M316 136c0 -4 -4 -8 -13 -8c-31 0 -101 -1 -153 -1c-7 0 -10 3 -10 6c0 4 4 9 12 9c15 0 38 -1 60 -1c38 0 75 2 93 2c7 0 11 -3 11 -7z" />
    <glyph glyph-name="period" unicode="." horiz-adv-x="230" 
d="M155 44c0 -14 -24 -49 -45 -49c-9 0 -18 5 -18 16c0 26 22 50 44 50c7 0 19 -4 19 -17z" />
    <glyph glyph-name="slash" unicode="/" horiz-adv-x="368" 
d="M440 548c0 -3 -324 -704 -324 -704c-4 -9 -20 -12 -20 -1c0 15 323 700 324 702c3 9 20 15 20 3z" />
    <glyph glyph-name="zero" unicode="0" horiz-adv-x="439" 
d="M486 354c0 -133 -143 -366 -294 -366c-38 0 -97 12 -97 86c0 72 52 169 125 250c17 19 51 49 84 62c40 16 105 44 130 57c19 -3 52 -22 52 -89zM442 330c0 41 -10 80 -46 80c-20 0 -82 -18 -136 -78c-92 -102 -113 -199 -113 -247c0 -51 26 -81 66 -81
c108 0 229 153 229 326z" />
    <glyph glyph-name="one" unicode="1" horiz-adv-x="270" 
d="M383 442l2 -3c-91 -124 -170 -257 -228 -369c-12 -23 -15 -41 -15 -57c0 -12 3 -23 11 -33c7 -4 0 -13 -4 -8c-22 29 -41 46 -41 68c0 15 3 28 11 44c37 77 132 223 200 316c1 1 1 3 1 3c0 1 -1 2 -1 2c-2 0 -3 0 -4 -2c-50 -29 -133 -82 -201 -124c-2 4 -4 9 -4 17
c61 31 168 94 230 137c13 2 30 5 43 9z" />
    <glyph glyph-name="two" unicode="2" horiz-adv-x="417" 
d="M382 0l-2 -1c-27 23 -107 44 -205 53c-34 -26 -90 -59 -129 -59c-23 0 -43 3 -43 21c0 34 62 70 136 70c24 0 47 0 61 -1c86 69 212 182 212 259c0 42 -21 67 -62 67c-65 0 -99 -38 -131 -77c-4 -5 -10 0 -7 5c41 49 100 108 174 108c28 0 71 -9 71 -67
c0 -77 -152 -220 -245 -295c66 -5 136 -12 169 -22c7 -2 12 -9 12 -16c-2 -13 -7 -35 -11 -45zM161 53c-8 1 -28 2 -43 2c-63 0 -99 -4 -99 -27c0 -9 10 -17 33 -17c54 0 90 26 109 42z" />
    <glyph glyph-name="three" unicode="3" horiz-adv-x="350" 
d="M317 438c52 -2 92 -24 92 -63c0 -22 -17 -46 -65 -76c-47 -29 -58 -38 -58 -56c0 -13 12 -28 30 -49c13 -16 25 -27 25 -52c0 -69 -116 -173 -237 -173c-46 0 -88 14 -88 68c0 14 3 27 8 38l4 1v-14c4 -40 30 -68 102 -68c87 0 169 45 169 119c0 23 -13 44 -36 72
c-16 19 -24 29 -24 41c0 23 14 25 104 81c21 13 31 25 31 42c0 23 -23 55 -93 60c-3 0 -5 1 -4 5c11 9 31 20 40 24z" />
    <glyph glyph-name="four" unicode="4" horiz-adv-x="422" 
d="M440 97c-2 -3 -6 0 -6 2c3 4 6 10 6 16c0 5 -3 8 -9 10c-27 9 -87 16 -127 16c-26 -50 -56 -115 -56 -140c0 -4 0 -9 2 -13c0 -3 -3 -4 -6 -4c-5 10 -13 23 -21 33c-5 6 -7 11 -7 18c0 6 2 12 5 18c18 35 39 73 48 88c-33 0 -124 -4 -199 -20c-2 0 -3 0 -3 4
c2 9 3 18 3 23c0 6 4 8 10 9s12 3 30 13c102 59 169 105 216 155c15 16 21 36 21 55c0 10 -3 24 -7 33c0 8 31 24 37 24c6 -2 12 -13 12 -28c0 -28 -19 -59 -51 -89c-41 -39 -136 -105 -211 -155c-5 -3 -4 -6 2 -6c59 2 118 3 153 3c56 94 95 153 135 188c17 15 38 30 63 45
c5 1 7 -2 6 -6c-40 -24 -60 -44 -87 -85c-22 -33 -49 -78 -84 -142c42 0 120 -4 137 -7c5 -1 7 -4 7 -11c0 -12 -10 -37 -19 -47z" />
    <glyph glyph-name="five" unicode="5" horiz-adv-x="297" 
d="M-18 -5c3 -24 23 -30 53 -30c79 0 208 91 208 203c0 19 -5 38 -28 57c-34 28 -56 32 -56 57c11 46 48 97 90 150c3 4 6 6 9 6s20 -8 63 -8c93 0 136 39 136 82c0 7 -2 14 -5 20c2 1 4 1 8 -1c2 -6 3 -14 3 -20c0 -61 -65 -123 -161 -123c-19 0 -45 2 -66 7
c-34 -33 -47 -67 -47 -78c0 -19 14 -32 55 -56c22 -13 47 -33 47 -67c0 -100 -178 -252 -266 -252c-30 0 -48 9 -48 39c0 8 1 12 5 14z" />
    <glyph glyph-name="six" unicode="6" horiz-adv-x="344" 
d="M537 418l-4 -1c1 4 1 9 1 11c0 14 -12 31 -60 31c-131 0 -283 -186 -320 -304c18 22 72 71 124 71c32 0 55 -13 55 -50c0 -72 -92 -186 -180 -186c-52 0 -67 25 -67 68c0 40 17 100 82 187c135 177 263 235 318 235c29 0 54 -9 54 -45c0 -6 -1 -11 -3 -17zM265 212
c-42 0 -134 -55 -134 -161c0 -31 16 -49 41 -49c46 0 134 86 134 165c0 31 -15 45 -41 45z" />
    <glyph glyph-name="seven" unicode="7" horiz-adv-x="343" 
d="M178 -2l-2 -5c-16 -3 -36 -11 -44 -16c-7 0 -19 19 -19 40c0 37 8 63 149 200c59 58 125 126 176 181c-16 -5 -45 -9 -65 -9c-32 0 -92 11 -129 11c-30 0 -50 -10 -65 -32c-14 -20 -31 -52 -42 -94l-8 7c13 45 33 88 65 125c19 23 47 37 76 37c23 0 138 -30 169 -30
c16 0 34 24 43 46c16 0 30 -9 30 -12c0 -2 -1 -4 -3 -6c-15 -14 -32 -27 -51 -36c-82 -87 -149 -156 -201 -209c-32 -32 -101 -114 -101 -161c0 -20 9 -32 22 -37z" />
    <glyph glyph-name="eight" unicode="8" horiz-adv-x="336" 
d="M426 407c0 -25 0 -59 -133 -140c21 -36 44 -45 44 -91c0 -15 -3 -29 -11 -45c-37 -74 -124 -138 -182 -138c-41 0 -79 25 -79 70c0 81 103 142 182 187c-10 19 -16 36 -16 52c0 53 75 142 151 142c29 0 44 -13 44 -37zM301 138c0 41 -20 59 -49 105
c-77 -44 -150 -91 -150 -158c0 -41 33 -68 70 -68c35 0 85 32 113 72c11 16 16 32 16 49zM391 397c0 18 -11 30 -30 30c-41 0 -99 -52 -99 -95c0 -18 8 -33 26 -58c76 48 103 87 103 123z" />
    <glyph glyph-name="nine" unicode="9" horiz-adv-x="344" 
d="M-24 24l3 4c16 -21 45 -28 69 -28c136 0 247 159 295 275c-31 -33 -76 -67 -128 -67c-33 0 -63 17 -63 54c0 68 109 180 203 180c52 0 63 -33 63 -60c0 -69 -70 -219 -212 -328c-56 -43 -119 -70 -167 -70c-27 0 -53 12 -63 40zM376 390c0 21 -11 39 -33 39
c-77 0 -168 -113 -168 -172c0 -24 17 -37 44 -37c76 0 157 94 157 170z" />
    <glyph glyph-name="colon" unicode=":" horiz-adv-x="239" 
d="M239 209c0 -14 -24 -49 -45 -49c-9 0 -18 5 -18 16c0 26 22 50 44 50c7 0 19 -4 19 -17zM151 44c0 -14 -24 -49 -45 -49c-9 0 -18 5 -18 16c0 26 22 50 44 50c7 0 19 -4 19 -17z" />
    <glyph glyph-name="semicolon" unicode=";" horiz-adv-x="231" 
d="M167 69c0 -7 -3 -13 -8 -18c-71 -71 -110 -110 -169 -177c-3 -3 -13 -7 -13 2c0 2 1 6 3 8c58 66 113 138 166 209c3 5 7 7 11 7s10 -4 10 -31zM237 210c0 -14 -24 -49 -45 -49c-9 0 -18 5 -18 16c0 26 22 50 44 50c7 0 19 -4 19 -17z" />
    <glyph glyph-name="less" unicode="&#x3c;" horiz-adv-x="400" 
d="M406 222c-46 -14 -181 -55 -244 -73c50 -17 140 -55 172 -73l-13 -24c-42 27 -150 75 -201 92l3 13c24 4 205 64 280 93z" />
    <glyph glyph-name="equal" unicode="=" horiz-adv-x="400" 
d="M355 126l-9 -23c-30 3 -168 5 -214 3l14 24c32 -2 172 -6 209 -4zM381 193l-9 -23c-26 3 -158 5 -203 3l9 24c32 -1 171 -6 203 -4z" />
    <glyph glyph-name="greater" unicode="&#x3e;" horiz-adv-x="400" 
d="M402 157l-4 -13c-24 -4 -205 -64 -283 -94l-4 28c51 16 185 56 249 74c-47 11 -150 48 -177 59l18 18c43 -19 142 -56 201 -72z" />
    <glyph glyph-name="question" unicode="?" horiz-adv-x="272" 
d="M413 375c0 -25 -8 -68 -93 -131c-71 -53 -117 -70 -117 -100c0 -19 7 -31 22 -44c5 -4 4 -7 -1 -7c-7 1 -13 2 -30 0c-16 10 -18 27 -18 44c0 10 8 20 14 25c11 10 27 23 54 41c75 50 133 87 133 150c0 36 -16 54 -66 69c-46 14 -47 21 -39 32c10 14 28 35 33 31
c-9 -15 -12 -25 43 -41c40 -12 65 -31 65 -69zM163 25c0 -9 -26 -25 -38 -25c-5 0 -21 12 -21 21c0 14 6 28 39 43c3 0 7 -3 7 -7c0 -17 13 -24 13 -32z" />
    <glyph glyph-name="at" unicode="@" horiz-adv-x="582" 
d="M658 335c0 -95 -100 -231 -220 -231c-39 0 -54 16 -54 44c0 24 14 60 31 96c-73 -87 -117 -132 -149 -132c-11 0 -17 8 -17 22c0 39 54 129 112 172c31 23 61 34 97 34c13 0 27 -2 37 -5c5 -2 5 -5 -1 -9s-13 -13 -19 -24c-31 -58 -57 -113 -57 -146c0 -28 17 -39 45 -39
c76 0 164 100 164 216c0 74 -55 119 -139 119c-173 0 -361 -169 -361 -343c0 -90 60 -148 151 -148c122 0 223 90 234 133c2 5 6 5 6 -2c-12 -59 -143 -148 -255 -148c-91 0 -176 52 -176 153c0 157 213 364 410 364c88 0 161 -38 161 -126zM460 330c-4 1 -11 1 -15 1
c-15 0 -33 -7 -51 -22c-53 -46 -109 -137 -109 -166c0 -6 2 -9 7 -9c31 0 153 159 168 196z" />
    <glyph glyph-name="A" unicode="A" horiz-adv-x="486" 
d="M6 -85l-11 52c1 24 14 41 39 70c185 211 370 367 431 409c10 7 40 11 48 19s8 -2 5 -7c-13 -20 -21 -50 -24 -67c-4 -17 -53 -279 -55 -324c-1 -45 23 -47 30 -47s16 3 27 5s12 -4 1 -6s-62 -19 -89 -24c-11 0 -16 5 -20 20c3 15 19 119 20 134c0 15 -15 33 -41 39
c-9 2 -38 4 -75 4c-39 0 -75 1 -93 3c-91 -90 -153 -174 -177 -225c-9 -19 -9 -32 -10 -52c0 -4 -3 -5 -6 -3zM446 416c-64 -51 -175 -144 -226 -202c4 -15 70 -13 103 -13c43 0 70 -1 80 -4c13 -4 12 -4 15 5c11 54 36 201 38 211c3 10 1 11 -10 3z" />
    <glyph glyph-name="B" unicode="B" horiz-adv-x="487" 
d="M347 445c121 0 182 -10 182 -82c0 -37 -36 -107 -140 -131c-2 0 -2 -2 -2 -3s0 -2 2 -2c37 -7 99 -17 99 -77c0 -74 -82 -160 -214 -160c-38 0 -86 6 -123 25c-9 5 -18 9 -23 9c-11 0 -38 -13 -56 -27l-6 5c17 19 21 26 25 32c43 73 91 160 122 217c25 47 68 127 91 177
c1 3 3 8 -5 8c-37 0 -95 -13 -116 -13c-11 0 -16 2 -16 10c0 7 3 14 6 17c1 0 2 -1 3 -3c3 -4 7 -5 40 -5c43 0 75 3 131 3zM481 372c0 51 -48 63 -90 63c-14 0 -28 -2 -37 -14c-15 -19 -31 -47 -44 -70c-44 -78 -97 -181 -147 -280c-3 -6 -5 -11 -6 -18
c0 -15 25 -54 96 -53c91 3 188 70 188 162c0 39 -31 59 -84 62c-19 0 -44 -7 -61 -7c-4 1 -6 2 -6 10c0 6 5 12 11 12c14 0 28 -6 42 -6c12 0 30 2 40 6c47 20 98 68 98 133z" />
    <glyph glyph-name="C" unicode="C" horiz-adv-x="516" 
d="M558 317l-9 -3c2 7 5 24 5 34c0 41 -23 89 -118 89c-38 0 -72 -18 -101 -39c-68 -49 -181 -196 -181 -318c0 -66 51 -82 105 -82c111 0 202 61 284 174c2 3 4 4 5 4c3 0 4 -5 4 -14c0 -10 -4 -17 -8 -24c-61 -92 -168 -148 -287 -148c-77 0 -147 26 -147 117
c0 102 84 218 161 278c48 37 108 61 172 61c48 0 100 -9 143 -34c6 -3 8 -6 8 -12c-9 -16 -27 -56 -36 -83z" />
    <glyph glyph-name="D" unicode="D" horiz-adv-x="573" 
d="M71 -3l-6 5c17 19 33 43 41 58c23 40 177 304 204 365c0 4 -5 5 -8 5c-42 0 -83 -12 -126 -13c-12 0 -18 4 -18 16c0 3 1 14 5 14c2 0 24 -12 43 -12c24 0 69 3 97 5c33 1 65 3 98 3c103 0 216 -19 216 -140c0 -112 -89 -234 -190 -279c-51 -22 -106 -32 -161 -32
c-45 0 -86 4 -126 25c-6 3 -11 5 -17 5c-11 0 -34 -11 -52 -25zM565 309c0 59 -34 124 -172 124c-14 0 -24 1 -32 -12c-66 -103 -155 -262 -204 -361c-2 -4 -4 -9 -4 -12c0 -4 2 -8 6 -12c23 -24 66 -36 107 -36c162 0 299 135 299 309z" />
    <glyph glyph-name="E" unicode="E" horiz-adv-x="475" 
d="M487 67c2 1 4 -1 4 -4c-8 -7 -16 -18 -21 -26c-5 -10 -14 -15 -28 -18c-66 -15 -159 -27 -227 -27c-101 0 -123 14 -123 41c0 11 4 25 11 38c10 18 86 149 86 152c0 4 -3 5 -17 5c-4 0 -5 1 -5 3c0 3 5 8 12 9c15 2 26 9 34 24c10 18 83 149 83 159c0 4 -3 4 -6 4
c-40 0 -82 -2 -113 -10l-2 1c1 11 4 19 8 23c41 -2 90 -4 131 -4c28 0 161 6 224 6c4 0 6 -2 6 -5c-3 -6 -13 -22 -19 -37l-4 1c0 8 -4 16 -8 17c-41 7 -91 9 -139 9c-11 0 -18 -2 -24 -10c-36 -48 -74 -113 -106 -170c-3 -6 0 -9 6 -9c18 -1 37 -1 57 -1c61 0 104 3 150 13
l3 -3c-3 -5 -8 -15 -10 -21c-1 -3 -4 -4 -8 -4c-35 1 -77 2 -118 2c-30 0 -60 0 -85 -1c-5 0 -9 -2 -11 -6c-23 -40 -48 -86 -65 -127c-7 -16 -10 -29 -10 -41c0 -30 24 -47 71 -47c67 0 209 23 263 64z" />
    <glyph glyph-name="F" unicode="F" horiz-adv-x="350" 
d="M437 233l2 -2c0 -3 -5 -16 -11 -20c-29 -1 -93 -2 -130 -2c-21 0 -49 1 -64 3c-6 0 -10 -3 -13 -8c-45 -77 -74 -134 -85 -162c-2 -6 -3 -12 -3 -16c0 -12 6 -22 45 -22c4 0 6 -2 6 -4s-1 -3 -5 -4c-8 -1 -15 -1 -23 -1c-84 0 -93 4 -93 17c0 4 2 9 5 15
c27 50 71 112 99 161c42 73 90 158 122 230c3 7 2 10 -5 11c-9 1 -29 2 -40 2c-6 0 -6 1 -6 3c0 4 2 6 5 6c23 -1 65 -1 97 -1c59 0 148 7 197 29c2 1 3 1 4 1c2 0 5 -1 5 -3c-5 -6 -11 -16 -14 -23s-5 -10 -12 -10c-47 -2 -119 -2 -160 -5c-10 -1 -14 -5 -19 -13
c-23 -35 -83 -141 -103 -181c0 -8 24 -16 66 -16c46 0 94 5 133 15z" />
    <glyph glyph-name="G" unicode="G" horiz-adv-x="569" 
d="M111 -254l-1 7l3 2c16 -8 38 -12 56 -12c138 0 261 241 313 337c0 4 -2 6 -6 2c-25 -21 -113 -95 -217 -95c-97 0 -148 44 -148 114c0 55 60 240 238 314c53 21 108 28 152 28s113 -10 136 -40c-5 -23 -19 -60 -29 -84l-7 -2l-1 3c2 8 4 16 4 25c0 49 -60 87 -132 87
c-68 0 -127 -31 -175 -79c-58 -57 -143 -189 -143 -276c0 -53 37 -82 105 -82c118 0 241 109 270 189c5 13 7 20 -8 20c-23 -1 -54 -4 -90 -7l-3 1l3 11c54 0 134 4 181 16c3 -2 2 -6 0 -9c-21 -5 -26 -11 -35 -29c-50 -99 -136 -268 -199 -340c-28 -32 -96 -111 -209 -111
c-19 0 -37 2 -58 10z" />
    <glyph glyph-name="H" unicode="H" horiz-adv-x="572" 
d="M62 -11l-3 2c16 25 47 67 141 214c-9 13 -13 20 -15 27c1 4 5 5 10 5h17c5 0 8 3 10 8c13 24 77 139 77 161c0 16 -8 18 -25 18c-15 0 -37 -1 -51 -3c-4 0 -6 3 -6 6s3 6 8 6c33 0 98 4 141 8c5 0 8 -4 3 -13c-13 -18 -30 -45 -43 -67c-20 -35 -47 -83 -65 -119
c-4 -7 -6 -11 2 -11c30 -1 57 -2 78 -2c24 0 126 5 160 9c7 1 12 6 15 11c40 77 73 140 109 198c3 4 9 9 13 11c27 15 118 53 141 53c3 0 12 -1 12 -5c0 -3 -7 -4 -10 -4c-9 0 -51 -8 -75 -29c-15 -12 -32 -30 -45 -48c-38 -53 -81 -127 -108 -183
c-48 -100 -68 -160 -68 -188c0 -26 14 -39 40 -39c19 0 51 11 67 22c4 0 6 -4 1 -9c-26 -12 -67 -29 -127 -32c-23 1 -33 16 -33 37c0 11 2 23 6 36c13 38 32 81 46 111c2 4 4 11 4 17c0 19 -25 24 -44 24c-63 0 -150 -7 -196 -14c-8 -1 -13 -7 -18 -15
c-31 -53 -72 -117 -96 -176c-3 -8 -4 -10 -14 -10c-25 0 -33 -2 -59 -17z" />
    <glyph glyph-name="I" unicode="I" horiz-adv-x="245" 
d="M36 3c10 1 22 9 28 17c49 60 207 305 233 384c1 3 2 7 2 11c0 9 -10 11 -27 11c-16 0 -38 -1 -55 -5l-3 1c1 5 3 9 6 12c56 2 114 6 152 12c3 -2 5 -5 5 -8c0 -2 -2 -3 -6 -4c-10 -3 -16 -13 -23 -25c-55 -103 -148 -267 -226 -384c-10 -14 -25 -23 -37 -25
c-15 -2 -34 -3 -47 -2c-2 1 -2 3 -2 5z" />
    <glyph glyph-name="J" unicode="J" horiz-adv-x="325" 
d="M508 445c3 -1 4 -3 4 -5s-1 -4 -4 -4c-8 1 -14 1 -18 1c-11 0 -16 -1 -23 -9c-28 -36 -61 -102 -92 -159c-31 -55 -61 -109 -93 -159c-21 -35 -55 -79 -81 -104c-60 -56 -130 -114 -241 -114c-29 0 -55 4 -77 13c-7 3 -10 5 -9 14c0 9 1 28 2 46l7 2c5 -35 32 -63 95 -63
c55 0 100 16 152 68c47 46 94 117 144 202c46 77 105 186 134 251c1 3 3 10 -5 10c-56 0 -134 -14 -178 -38c-22 -12 -44 -39 -44 -70c0 -6 1 -11 2 -14c1 -2 -1 -3 -2 -3c-6 4 -16 15 -16 40c0 21 18 53 74 71c39 12 101 24 269 24z" />
    <glyph glyph-name="K" unicode="K" horiz-adv-x="502" 
d="M60 -20c-3 0 -6 1 -6 3c20 24 50 66 83 119c61 99 131 224 178 322c0 1 1 2 1 3c0 2 -2 3 -5 3c-36 0 -76 -6 -106 -6c-8 0 -11 1 -11 6c0 3 12 26 17 26c0 -5 3 -9 10 -11c11 -3 36 -5 52 -6c7 0 16 -1 26 -1c41 0 72 1 125 5c1 -2 2 -6 -1 -9c-6 0 -27 -1 -39 -2
c-5 0 -9 -3 -12 -8c-34 -54 -73 -119 -122 -201c-5 -9 -1 -11 6 -6c69 41 139 85 194 122c27 17 156 106 166 109h4c6 -4 16 -7 25 -9c1 -2 0 -4 -1 -5c-18 -6 -71 -32 -217 -123c-40 -25 -86 -54 -128 -85c-3 -2 -4 -4 -4 -6c55 -73 123 -164 236 -269
c83 -76 129 -99 200 -99c54 0 110 16 142 38c5 3 8 1 8 -2c0 -2 -1 -3 -4 -5c-37 -24 -102 -41 -165 -41c-80 0 -183 31 -300 162c-54 61 -115 134 -164 200c-4 6 -5 6 -11 -3c-38 -63 -69 -121 -101 -178c-5 -8 -9 -20 -10 -25c-7 1 -15 2 -20 2c-18 0 -38 -12 -46 -20z
" />
    <glyph glyph-name="L" unicode="L" horiz-adv-x="440" 
d="M448 436c-8 2 -18 4 -32 4c-25 0 -36 -19 -50 -38c-17 -24 -37 -55 -52 -81c-27 -46 -74 -130 -112 -195c-32 -53 -64 -80 -100 -100c-8 -4 -11 -9 1 -9c75 7 222 18 253 18c13 0 50 -1 60 -3c11 -3 16 -6 16 -14c0 -6 -8 -32 -13 -42c-2 0 -2 1 -2 4c0 6 -1 14 -9 17
c-41 15 -104 16 -148 16c-155 0 -204 -11 -238 -21c-5 1 -10 7 -10 11c0 5 2 6 8 6c24 0 43 2 56 10c21 13 38 34 66 80c57 92 128 235 180 321c3 6 10 10 16 12c28 11 76 18 109 18c6 -3 5 -12 1 -14z" />
    <glyph glyph-name="M" unicode="M" horiz-adv-x="750" 
d="M12 -12c11 44 266 360 351 461c28 9 43 13 52 17c4 -1 5 -3 2 -6c-8 -5 -13 -12 -15 -23c-17 -91 -31 -308 -31 -377c0 -27 9 -16 17 -5c43 57 277 332 329 382c21 10 57 19 76 31c4 0 8 -4 5 -8c-23 -9 -31 -12 -37 -31c-32 -102 -72 -282 -72 -384c0 -19 10 -25 22 -25
s28 3 40 8c3 0 4 -4 1 -7c-28 -8 -75 -22 -95 -28c-16 0 -27 5 -29 21c3 55 79 358 84 378s-2 16 -12 7c-76 -68 -237 -260 -317 -376c-3 -5 -7 -13 -10 -22c-25 -1 -35 -7 -48 -19c-3 -1 -6 -1 -7 2c11 83 31 364 34 416c0 12 -6 12 -16 0c-78 -88 -224 -283 -280 -383
c-24 -44 -25 -64 -24 -78s-4 -10 -8 -2s-6 23 -12 51z" />
    <glyph glyph-name="N" unicode="N" horiz-adv-x="549" 
d="M105 -15h-3c-5 4 -22 33 -22 44c0 13 11 32 20 47c16 28 45 77 101 170c31 51 62 108 74 139c2 5 4 12 4 17c0 14 -10 21 -24 21c-16 0 -39 -1 -53 -2c-5 0 -9 8 -9 14c0 3 1 4 3 4c13 -4 35 -6 53 -6c25 0 53 5 69 10c5 0 7 -3 8 -9c2 -11 8 -35 12 -50
c21 -79 73 -210 103 -295c3 -10 4 -18 11 -18c4 0 9 9 13 17c62 126 130 266 198 370c17 27 46 62 80 62c9 0 27 -10 31 -21c0 -2 -1 -2 -3 -2c-31 0 -64 -13 -109 -75c-63 -87 -127 -210 -179 -325c-15 -34 -31 -73 -45 -102c-2 -4 -4 -7 -6 -7c-3 0 -6 3 -9 7
c-31 111 -95 282 -123 352c-4 9 -7 13 -11 13s-8 -4 -13 -12c-67 -103 -112 -180 -150 -266c-10 -23 -21 -70 -21 -97z" />
    <glyph glyph-name="O" unicode="O" horiz-adv-x="589" 
d="M637 319c-3 -166 -159 -328 -333 -328c-103 0 -184 28 -184 130c0 85 67 197 127 251c57 52 132 75 208 75c82 0 184 -27 182 -128zM587 326c0 82 -55 114 -131 114c-70 0 -125 -28 -172 -81c-51 -57 -116 -167 -116 -248c0 -85 54 -111 128 -111c156 0 291 183 291 326z
" />
    <glyph glyph-name="P" unicode="P" horiz-adv-x="421" 
d="M547 359c0 -68 -84 -168 -225 -168c-15 0 -33 3 -44 7c-2 1 -3 2 -3 4c0 3 2 4 4 4c7 -2 28 -6 44 -6c101 0 177 89 177 168c0 56 -39 72 -87 72c-16 0 -33 -2 -45 -5c-10 -3 -15 -8 -20 -17c-52 -86 -148 -251 -193 -339c-7 -14 -11 -26 -11 -36c0 -25 21 -34 64 -34
c9 0 11 -1 11 -3s-1 -3 -5 -4c-24 -4 -56 -7 -85 -7c-12 0 -49 3 -49 24c0 5 2 11 5 18c18 41 53 97 81 144c33 55 76 132 105 186c5 9 24 48 24 57c0 3 -1 4 -5 4c-42 -1 -83 -9 -125 -9c-11 0 -19 4 -19 11c0 3 6 19 10 19c1 0 2 -1 3 -4c1 -4 6 -6 12 -7
c12 -2 31 -3 47 -3c81 0 171 14 202 14c59 0 127 -20 127 -90z" />
    <glyph glyph-name="Q" unicode="Q" horiz-adv-x="547" 
d="M648 -41c-29 -49 -79 -111 -140 -111c-17 0 -34 5 -51 15c-47 27 -77 115 -96 148c-30 -10 -60 -16 -91 -16c-44 0 -92 9 -124 39c-25 -17 -52 -45 -71 -70c-2 0 -5 3 -5 7c22 27 46 49 71 68c-21 23 -32 52 -32 87c0 84 74 191 132 247c48 47 112 72 175 72
c6 0 8 -4 8 -6s0 -3 -2 -3c-6 1 -12 1 -16 1c-65 0 -129 -71 -160 -112c-37 -52 -88 -133 -88 -216c0 -19 4 -36 10 -51c45 30 89 38 116 38c29 0 68 -3 109 -62c96 48 163 178 163 271c0 42 -10 81 -30 105c-10 12 -26 21 -38 24c-3 1 -5 2 -5 3s2 2 5 2c11 0 27 -1 39 -1
c8 0 19 -1 27 -8c20 -16 43 -45 43 -102c0 -81 -56 -228 -199 -300c15 -24 43 -80 79 -120c19 -22 39 -33 60 -33c16 0 60 4 103 89c3 4 8 0 8 -5zM357 18c-19 29 -37 65 -93 65c-33 0 -64 -12 -93 -31c22 -37 69 -48 109 -48c26 0 52 5 77 14z" />
    <glyph glyph-name="R" unicode="R" horiz-adv-x="512" 
d="M155 328c-2 -1 -6 0 -6 2c4 11 9 28 11 40c0 7 5 13 12 17c34 19 81 36 123 45c39 8 82 12 123 12c105 0 166 -21 166 -80s-80 -131 -201 -143c-7 -1 -8 -3 -6 -8c25 -46 72 -121 128 -199c59 -80 148 -155 253 -155c40 0 81 11 119 31c3 2 6 2 6 -2c0 -2 -1 -4 -4 -5
c-42 -22 -89 -38 -142 -38c-151 0 -222 58 -315 201c-26 42 -80 135 -104 175c0 3 1 4 3 4c119 0 206 43 206 134c0 33 -22 74 -99 74c-13 0 -27 -3 -36 -13c-45 -52 -208 -340 -243 -418c-1 -2 -2 -2 -4 -2c-6 1 -14 2 -20 2c-7 0 -16 0 -27 -2c-7 -4 -15 -10 -23 -19
c-2 0 -7 2 -5 4c123 179 202 315 264 431c4 10 1 12 -5 12c-40 -2 -81 -17 -116 -36c-23 -13 -44 -38 -58 -64z" />
    <glyph glyph-name="S" unicode="S" horiz-adv-x="359" 
d="M443 420c-5 -13 -14 -39 -19 -54c-2 -1 -6 1 -7 3c2 4 3 10 3 15c0 25 -23 52 -75 52c-55 0 -104 -37 -104 -91c0 -47 23 -77 48 -106c38 -44 52 -62 52 -94c0 -109 -116 -152 -214 -152c-33 0 -69 5 -95 18c-7 4 -13 7 -14 11c5 23 14 57 20 77c0 2 2 2 3 2s3 -2 3 -6
c-2 -6 -3 -12 -3 -18c0 -38 41 -74 106 -74c58 0 148 26 148 113c0 32 -13 57 -48 96c-30 33 -43 57 -43 92c0 37 18 70 42 98c16 19 66 56 132 56c22 0 43 -5 60 -23c3 -4 5 -9 5 -15z" />
    <glyph glyph-name="T" unicode="T" horiz-adv-x="398" 
d="M398 431h-33c-145 0 -214 -18 -271 -154c-2 -5 -7 -3 -9 5c23 71 64 143 125 155c33 6 77 4 118 4c39 0 77 -1 116 -1c77 0 130 5 171 27c20 11 45 33 45 58c0 4 -1 9 -2 11c0 2 1 4 3 4c6 -1 24 -36 24 -40c0 -47 -84 -65 -136 -67c-22 -1 -50 -1 -70 -2
c-10 0 -17 -4 -21 -10c-74 -112 -138 -224 -190 -318c-12 -22 -20 -42 -21 -58c0 -21 8 -41 67 -41c7 0 18 0 24 1c2 -3 0 -6 -3 -8c-23 -2 -53 -3 -77 -3c-40 0 -76 1 -76 35c0 11 6 24 15 39c72 117 149 248 206 354c3 6 3 9 -5 9z" />
    <glyph glyph-name="U" unicode="U" horiz-adv-x="617" 
d="M746 438c-6 -1 -15 -5 -21 -12c-56 -69 -114 -163 -152 -239c-18 -36 -49 -99 -49 -141c0 -28 13 -46 43 -46c36 0 81 26 85 27c7 0 8 -8 2 -10c-38 -17 -80 -32 -122 -32c-43 0 -66 18 -66 51c0 43 40 96 40 102c0 3 -2 3 -3 1c-104 -117 -219 -150 -280 -150
c-51 0 -107 23 -107 83c0 20 7 43 20 67c41 75 116 184 159 262c2 4 4 9 4 12c0 5 -4 9 -15 9c-13 0 -55 0 -73 -1c-6 3 -8 13 2 13c13 0 47 -3 80 -3c64 0 80 8 100 8c7 0 7 -7 -1 -9c-11 -2 -24 -4 -34 -16c-53 -66 -114 -167 -160 -249c-17 -30 -25 -58 -25 -82
c0 -42 27 -70 80 -70c112 0 223 94 286 191c36 56 87 158 110 198c9 15 18 25 35 31c9 3 52 15 60 15c7 0 8 -10 2 -10z" />
    <glyph glyph-name="V" unicode="V" horiz-adv-x="441" 
d="M244 55c141 141 306 328 359 414c10 15 16 29 16 40c0 4 -2 8 -2 11c0 5 4 5 7 1c6 -7 19 -23 19 -31c0 -28 -25 -57 -277 -326c-39 -40 -115 -117 -134 -155c-4 -7 -12 -13 -20 -13c-25 -1 -36 -12 -44 -12c-3 0 -4 1 -4 4c0 4 7 15 12 30c35 104 59 269 59 304
c0 49 -6 97 -73 97c-26 0 -64 -10 -83 -29c-10 -10 -16 1 -7 7c39 27 97 46 144 46c49 0 64 -30 64 -73c0 -91 -43 -249 -43 -312c0 -6 5 -6 7 -3z" />
    <glyph glyph-name="W" unicode="W" horiz-adv-x="754" 
d="M1067 490c2 -2 2 -6 -2 -7c-4 1 -9 1 -13 1c-28 0 -95 -14 -304 -246c-54 -60 -151 -179 -181 -229c-3 -5 -9 -11 -15 -12c-17 -2 -36 -9 -46 -19c-7 0 -6 4 -2 10c13 14 17 242 17 342c0 9 -2 14 -7 14c-3 0 -6 -2 -10 -5c-30 -28 -232 -211 -342 -336
c-4 -4 -8 -9 -12 -9c-20 0 -35 -5 -48 -12c-5 0 -5 4 -3 9c11 16 22 43 36 77c19 48 109 304 109 331c0 8 -6 14 -15 14c-19 0 -40 -8 -52 -8c-6 0 -8 8 0 9c127 23 128 29 134 29c7 0 6 -7 2 -10c-8 -7 -23 -44 -34 -74c-34 -91 -68 -201 -96 -299c-4 -15 1 -13 5 -9
c114 107 280 271 391 372c4 1 8 -4 6 -7c-6 -3 -13 -12 -14 -21c-6 -46 -10 -143 -10 -222c0 -61 2 -102 2 -127c0 -9 4 -8 8 -3c49 58 118 142 170 201c62 70 149 159 205 211c25 23 52 47 86 47c6 0 31 -9 35 -12z" />
    <glyph glyph-name="X" unicode="X" horiz-adv-x="536" 
d="M669 437c0 -5 -2 -9 -7 -12c-74 -44 -187 -114 -281 -176c8 -53 17 -107 27 -154c11 -51 33 -78 64 -78c23 0 52 14 83 38c5 5 10 -4 4 -7c-31 -24 -90 -59 -133 -59c-44 0 -54 37 -62 101c-5 38 -12 88 -19 134c-82 -54 -163 -110 -237 -173c-19 -16 -79 -79 -79 -109
c0 -3 0 -6 -3 -7c-7 7 -17 20 -17 29c0 33 54 76 110 116c73 52 147 104 224 155c-7 44 -14 87 -24 130c-11 45 -37 57 -70 57c-27 0 -62 -9 -89 -27c-11 -5 -10 3 -4 7c43 23 92 40 143 40c46 0 63 -24 70 -83c3 -28 7 -69 11 -100c90 61 176 123 261 188c4 3 6 7 6 9
s0 5 -1 8c-1 2 1 3 4 3c7 0 19 -21 19 -30z" />
    <glyph glyph-name="Y" unicode="Y" horiz-adv-x="401" 
d="M744 445c0 -2 -1 -4 -3 -3c-6 2 -9 2 -22 2c-79 0 -274 -140 -384 -246c-16 -16 -30 -30 -40 -47c-33 -58 -63 -111 -72 -143c-1 -5 -2 -9 -13 -8c-39 4 -37 2 -61 -14c-4 -1 -5 6 -1 10c27 21 79 102 105 158c15 32 29 85 29 122c0 70 -28 135 -111 135
c-48 0 -77 -14 -101 -47c-4 -5 -15 -6 -8 5c40 50 91 72 152 72c78 0 109 -66 109 -139c0 -32 -10 -82 -10 -87c-1 -7 3 -11 8 -6c95 73 192 154 285 219c28 20 66 43 101 43c16 0 32 -17 37 -26z" />
    <glyph glyph-name="Z" unicode="Z" horiz-adv-x="437" 
d="M658 5c0 -10 -10 -27 -31 -46c-30 -27 -53 -42 -93 -42c-132 0 -321 78 -506 84c-7 1 -11 10 0 10c16 0 32 5 46 17c63 53 328 274 414 378c5 6 8 11 8 14c0 5 -7 8 -20 8c-67 0 -149 -4 -203 -10c-37 -4 -68 -13 -84 -28c-5 -5 -9 -7 -9 2c10 23 16 35 33 37
c45 4 110 6 171 7c72 1 190 4 206 4c13 0 11 -10 2 -11c-7 -1 -15 -9 -22 -15c-90 -77 -306 -273 -422 -392c-3 -4 -5 -7 -5 -10c0 -4 3 -7 9 -9c58 -17 238 -57 363 -57c100 0 123 22 135 58c3 8 8 12 8 1z" />
    <glyph glyph-name="bracketleft" unicode="[" horiz-adv-x="338" 
d="M454 498c0 -3 -4 -4 -6 -4h-35c-53 0 -54 -1 -60 -11c-105 -182 -180 -324 -275 -512c-2 -4 -3 -7 -3 -10c0 -6 4 -10 14 -10c66 0 80 1 94 1c10 0 12 -11 0 -11c-24 0 -52 1 -79 1c-29 0 -58 -1 -87 -1c-4 0 -7 2 -7 5c0 4 12 18 19 29c114 198 203 362 275 506
c5 9 0 21 10 21c19 0 38 -2 57 -2c22 0 58 2 77 2c4 0 6 -2 6 -4z" />
    <glyph glyph-name="backslash" unicode="\" horiz-adv-x="368" 
d="M414 -157c0 -12 -15 -6 -19 1c0 0 -215 701 -215 704c0 11 16 7 20 -3c1 -2 214 -687 214 -702z" />
    <glyph glyph-name="bracketright" unicode="]" horiz-adv-x="352" 
d="M521 497c0 -4 -7 -7 -19 -29c-106 -190 -194 -360 -265 -506c-4 -9 0 -21 -10 -21c-17 0 -39 2 -62 2c-31 0 -64 -2 -85 -2c-4 0 -6 2 -6 5s3 6 6 6h58c39 0 41 1 47 11c105 182 179 322 274 510c2 4 3 7 3 10c0 6 -4 10 -14 10c-43 0 -65 -3 -82 -3c-9 0 -10 10 1 10
c67 0 110 2 146 2c3 0 8 -1 8 -5z" />
    <glyph glyph-name="asciicircum" unicode="^" horiz-adv-x="400" 
d="M397 390c-6 -40 -13 -142 -10 -176l-20 -5c0 44 5 110 9 152c-32 -34 -89 -90 -148 -144l-24 6c74 62 145 128 181 169z" />
    <glyph glyph-name="underscore" unicode="_" horiz-adv-x="500" 
d="M500 -50h-500v17h500v-17z" />
    <glyph glyph-name="grave" unicode="`" horiz-adv-x="230" 
d="M151 279c0 -3 -3 -4 -5 -1c-17 31 -36 67 -49 93c-2 4 -3 8 -3 11c0 5 8 15 10 15s3 -1 4 -4c11 -28 35 -82 43 -114z" />
    <glyph glyph-name="a" unicode="a" horiz-adv-x="285" 
d="M393 137c-61 -76 -151 -159 -212 -159c-27 0 -36 15 -36 35c0 18 12 52 34 88c-35 -46 -95 -107 -133 -107c-15 0 -21 6 -21 21c0 61 105 205 217 205c7 13 12 18 17 20l28 8l2 -1c-6 -7 -12 -17 -19 -28c7 0 24 -2 30 -3c7 -3 6 -8 2 -8c-8 2 -28 4 -36 4
c-61 -108 -89 -168 -89 -199c0 -12 5 -21 23 -21c42 0 122 67 187 148c3 4 6 1 6 -3zM238 212l-1 1c-90 0 -173 -151 -173 -192c0 -6 2 -8 6 -8c15 0 73 45 110 100c21 32 42 71 58 99z" />
    <glyph glyph-name="b" unicode="b" horiz-adv-x="255" 
d="M590 643c0 -20 -1 -26 -5 -22c-6 7 -15 18 -43 18c-47 0 -78 -8 -134 -55c-79 -66 -196 -278 -259 -403c-22 -43 -52 -123 -52 -148c0 -17 7 -27 18 -27c28 0 83 57 83 153c0 16 -2 25 -5 32c0 5 3 9 6 12c5 5 15 14 21 18c2 0 3 0 4 -2c0 -53 45 -72 77 -72
c23 0 50 7 78 24c7 4 10 -4 3 -6c-43 -23 -77 -33 -108 -33c-25 0 -47 14 -58 28c-1 -102 -74 -167 -120 -167c-21 0 -37 13 -37 41c0 43 44 129 64 165c73 132 163 284 278 391c32 30 105 86 152 86c24 0 37 -14 37 -33z" />
    <glyph glyph-name="c" unicode="c" horiz-adv-x="214" 
d="M310 134c-41 -50 -103 -109 -154 -129c-20 -8 -36 -11 -51 -11c-35 0 -55 15 -55 46c0 11 2 23 8 38c25 62 75 114 128 137c7 3 14 5 20 5c24 0 37 -11 37 -29c0 -9 -2 -17 -7 -23c-4 -4 -11 -10 -20 -17l-3 1c2 5 3 11 3 17c0 13 -10 28 -31 28c-50 0 -97 -72 -97 -147
c0 -28 17 -42 40 -42c37 0 106 43 177 131c7 7 11 1 5 -5z" />
    <glyph glyph-name="d" unicode="d" horiz-adv-x="271" 
d="M682 665c0 -8 -11 -15 -14 -29c-1 -4 -4 -7 -7 -7c-9 0 -12 10 -43 10c-22 0 -46 -6 -65 -18c-37 -24 -84 -71 -120 -123c-179 -257 -270 -451 -270 -510c0 -23 9 -39 32 -39c72 0 133 101 169 174c3 5 12 4 6 -5c-47 -97 -112 -178 -177 -178c-36 0 -53 21 -53 52
c0 32 13 66 39 119c-76 -92 -109 -117 -134 -117c-19 0 -24 11 -24 27c0 12 7 33 19 52c49 80 106 132 195 148c64 112 119 196 188 282c57 71 114 129 173 157c21 10 41 16 59 16c16 0 27 -5 27 -11zM227 206c-50 -1 -74 -21 -95 -48c-50 -62 -70 -109 -70 -130
c0 -6 7 -9 10 -9c19 0 107 86 155 187z" />
    <glyph glyph-name="e" unicode="e" horiz-adv-x="205" 
d="M301 119c-45 -57 -131 -126 -207 -126c-30 0 -47 13 -47 42c0 74 87 185 155 185c18 0 25 -8 25 -18c0 -31 -39 -82 -123 -82c-7 -12 -17 -41 -17 -68c0 -26 11 -41 37 -41c62 0 135 66 170 111c2 3 7 1 7 -3zM196 197c0 7 -5 13 -13 13c-27 0 -58 -46 -75 -80
c3 -1 11 -2 15 -2c38 0 73 32 73 69z" />
    <glyph glyph-name="f" unicode="f" horiz-adv-x="217" 
d="M674 715c0 -10 -9 -61 -9 -78c-2 -3 -7 -3 -9 0c3 11 3 18 3 26c0 26 -23 42 -63 42c-56 0 -119 -34 -191 -156c-41 -70 -123 -228 -180 -340c25 1 123 1 138 1c4 -2 4 -7 3 -10c-11 0 -95 -1 -146 -2c-87 -171 -200 -352 -280 -455c-200 -255 -360 -349 -487 -349
c-37 0 -93 13 -108 84c0 11 4 8 6 1c3 -19 36 -68 110 -67c120 2 281 74 461 341c95 141 194 334 257 444c-114 -7 -123 -11 -151 -69l-3 1c18 44 38 65 54 70c20 6 78 9 107 10c67 123 126 224 193 324c73 110 168 212 245 212c26 0 50 -14 50 -30z" />
    <glyph glyph-name="g" unicode="g" horiz-adv-x="240" 
d="M290 267c0 -6 -1 -11 -5 -18c-133 -249 -206 -364 -311 -534c-84 -137 -199 -242 -369 -242c-125 0 -157 73 -157 150c0 16 3 36 7 47c1 5 7 5 7 -1c-3 -9 -6 -22 -6 -37c0 -92 86 -136 196 -136c116 0 233 71 339 273c69 128 163 303 191 352
c-54 -73 -100 -132 -133 -132c-12 0 -21 8 -21 25c0 40 74 162 145 197c16 8 33 12 48 12c4 0 7 0 11 -1c11 18 22 37 34 58c4 8 9 13 13 13c5 0 11 -16 11 -26zM226 208c-4 1 -11 1 -15 1c-18 0 -36 -3 -48 -13c-67 -55 -96 -149 -96 -173c0 -7 1 -11 6 -11
c17 0 104 100 153 196z" />
    <glyph glyph-name="h" unicode="h" horiz-adv-x="266" 
d="M701 659c0 -43 -9 -39 -9 -33c0 19 -16 71 -96 71c-103 0 -225 -74 -465 -546c19 17 88 72 119 72c6 0 9 -2 9 -7c0 -4 -3 -10 -9 -18c-22 -31 -77 -124 -77 -162c0 -21 12 -32 30 -32c30 0 89 36 161 132c2 3 6 3 6 -2c-52 -72 -139 -152 -198 -152c-22 0 -37 13 -37 36
c0 42 71 145 71 169c0 2 -1 5 -3 5c-12 0 -44 -18 -91 -81c-19 -33 -41 -72 -55 -100c-6 -12 -10 -16 -15 -16c-6 0 -21 3 -21 12c0 3 1 7 3 11c55 101 109 190 163 276c127 200 277 440 426 440c36 0 88 -15 88 -75z" />
    <glyph glyph-name="i" unicode="i" horiz-adv-x="181" 
d="M281 131c-32 -41 -77 -81 -112 -104c-26 -17 -56 -27 -79 -27c-17 0 -44 5 -44 34c0 35 61 131 82 161c7 10 29 19 34 19c4 0 5 -1 5 -3c0 -3 -3 -9 -5 -12c-36 -54 -75 -133 -75 -162c0 -16 10 -23 24 -23c53 0 136 81 166 122c7 7 7 2 4 -5zM236 354
c0 -16 -17 -36 -34 -36c-9 0 -12 4 -12 12c0 17 15 37 33 37c8 0 13 -5 13 -13z" />
    <glyph glyph-name="j" unicode="j" horiz-adv-x="195" 
d="M283 126c0 -41 -33 -82 -59 -106c-99 -92 -184 -154 -283 -242c-56 -49 -59 -81 -132 -147c-2 -2 -4 -2 -6 -2c-7 0 -10 18 -10 24s1 11 4 15c45 63 90 67 134 145c57 102 112 213 180 360c2 5 4 10 4 14c0 5 -3 9 -8 9c-3 0 -21 -6 -35 -7c-5 0 -6 7 1 9
c59 10 73 24 86 24c6 0 10 -4 10 -11c0 -4 -1 -8 -4 -14c-45 -84 -75 -150 -122 -232c-23 -39 -67 -109 -111 -180c77 66 240 178 315 290c17 25 24 48 24 65c0 9 -2 17 -6 22c-4 8 0 7 5 4c9 -7 13 -24 13 -40zM222 350c0 -16 -17 -36 -34 -36c-9 0 -12 4 -12 12
c0 17 15 37 33 37c8 0 13 -5 13 -13z" />
    <glyph glyph-name="k" unicode="k" horiz-adv-x="300" 
d="M596 596c0 -15 -10 -28 -13 -47c0 -6 -7 -7 -7 -1c0 4 2 7 2 11c0 33 -36 46 -63 46c-31 0 -79 -10 -132 -65c-49 -51 -98 -120 -140 -189c-53 -87 -143 -245 -157 -273c-5 -11 -3 -10 5 -2c23 23 46 43 74 68c-1 4 -1 8 -1 13c0 11 23 22 32 25c3 0 2 -6 3 -9
c13 11 112 95 122 95c4 0 7 -2 11 -13c0 -4 -4 -7 -10 -9c-31 -10 -97 -61 -124 -85c3 -35 15 -87 32 -120c7 -14 21 -21 34 -21c40 0 104 73 138 123c4 7 11 0 7 -4c-39 -53 -94 -112 -132 -132c-16 -8 -30 -12 -41 -12c-36 0 -48 27 -69 139c-42 -41 -89 -84 -118 -136
c-2 -4 -5 -5 -8 -5c-9 0 -15 15 -15 24c0 2 0 6 1 8c26 38 55 103 148 252c43 69 112 168 171 236c42 48 100 101 158 115c13 3 26 6 38 6c22 0 54 -12 54 -38z" />
    <glyph glyph-name="l" unicode="l" horiz-adv-x="203" 
d="M523 652c0 -55 -133 -290 -338 -401c-25 -43 -95 -155 -95 -208c0 -21 10 -32 29 -32c67 0 147 84 186 131c9 9 10 1 5 -4c-48 -60 -133 -142 -212 -142c-35 0 -49 19 -49 43c0 48 98 197 125 242c45 78 100 171 137 228c22 34 44 64 81 95c51 43 98 66 113 66
c10 0 18 -6 18 -18zM478 626c0 11 -6 16 -13 16c-14 0 -29 -13 -84 -86c-22 -29 -73 -107 -188 -292c161 90 285 275 285 362z" />
    <glyph glyph-name="m" unicode="m" horiz-adv-x="352" 
d="M427 86c-38 -43 -107 -116 -166 -116c-26 0 -36 10 -36 33c0 30 74 147 74 174c0 4 -2 6 -5 6c-35 -18 -94 -80 -112 -106s-38 -82 -52 -82c-7 0 -13 8 -13 15c0 4 4 15 14 29c35 48 57 112 57 118c0 4 -2 8 -4 8c-17 0 -85 -75 -113 -117c-18 -28 -32 -53 -39 -53
c-10 0 -11 12 -11 21c0 4 1 9 4 13c36 57 71 119 105 177c3 6 7 9 11 9c6 0 13 -10 13 -16c-9 -26 -37 -70 -54 -102c53 61 88 93 111 93c8 0 11 -6 11 -15c0 -13 -16 -47 -25 -64c-3 -5 1 -3 3 -1c32 38 87 85 128 104c9 0 15 -4 15 -14c0 -4 -2 -8 -4 -13
c-14 -29 -81 -147 -81 -185c0 -15 7 -20 19 -20c47 0 113 72 144 109c5 8 14 7 6 -5z" />
    <glyph glyph-name="n" unicode="n" horiz-adv-x="261" 
d="M363 129c-48 -67 -130 -142 -199 -142c-16 0 -32 3 -32 21c0 38 61 119 85 176c3 7 0 13 -6 9c-29 -19 -85 -68 -110 -97c-21 -33 -33 -58 -56 -93c-2 -3 -4 -6 -6 -6c-7 0 -12 21 -12 25c0 12 20 34 40 59c21 43 46 94 62 131c2 3 6 5 9 5c8 0 16 -8 16 -16
c0 -5 -25 -41 -43 -82c50 45 127 108 142 108c5 0 11 -8 11 -13c0 -4 -2 -7 -5 -12c-30 -43 -92 -144 -92 -181c0 -16 6 -21 21 -21c44 0 133 76 170 135c3 4 11 2 5 -6z" />
    <glyph glyph-name="o" unicode="o" horiz-adv-x="250" 
d="M381 170c-23 -31 -56 -60 -97 -60c-23 0 -47 12 -60 34c-18 -44 -61 -115 -117 -143c-11 -5 -22 -8 -30 -8c-23 0 -36 10 -36 32c0 47 40 106 66 134c28 30 65 54 106 58c2 11 7 29 20 31c6 1 14 2 19 5c4 3 10 0 7 -5c-9 -15 -14 -39 -14 -65c0 -37 13 -64 47 -64
c35 0 63 27 82 54c3 6 12 2 7 -3zM216 163c-3 12 -4 29 -4 44c0 3 0 5 -4 5c-29 0 -66 -44 -93 -89c-17 -29 -34 -65 -33 -96c0 -9 2 -19 14 -19c45 0 115 117 120 155z" />
    <glyph glyph-name="p" unicode="p" horiz-adv-x="220" 
d="M340 157c-70 -89 -153 -127 -240 -147c-31 -7 -51 -10 -74 -14c-38 -65 -73 -131 -107 -194c-51 -94 -88 -177 -136 -259c-19 -32 -63 -31 -130 -54c-8 -4 -10 5 -2 8c70 27 90 46 134 118c45 74 136 228 226 381c-5 2 -6 6 -6 11c0 8 12 8 17 9l46 75
c42 69 85 150 130 208c3 3 7 5 11 6c6 2 34 6 37 6c2 0 3 -1 3 -2c0 -2 -2 -5 -4 -7c-55 -52 -85 -89 -119 -141c26 29 66 68 92 68c13 0 23 -7 23 -26c0 -27 -42 -120 -177 -184c73 8 184 29 270 142c1 3 6 2 6 -4zM200 183c0 5 0 16 -12 16c-13 0 -55 -30 -86 -75
c-22 -32 -44 -70 -65 -108c87 24 163 123 163 167z" />
    <glyph glyph-name="q" unicode="q" horiz-adv-x="257" 
d="M371 143c-79 -105 -131 -183 -201 -283c-66 -95 -146 -215 -223 -302c-42 -48 -84 -72 -108 -72c-14 0 -21 9 -21 23c0 15 8 39 26 69c104 178 190 310 291 470c-19 -23 -49 -51 -80 -51c-16 0 -25 10 -25 27c0 53 92 163 165 183c14 4 27 5 41 5c56 94 74 127 86 127
c5 0 9 -4 9 -9c0 -2 -1 -3 -2 -5c-23 -42 -46 -78 -71 -115c17 -2 30 -8 37 -21c4 -8 -1 -14 -9 -3c-9 10 -23 15 -34 16c-57 -81 -111 -164 -160 -243c-65 -104 -151 -249 -211 -382c-9 -20 -13 -36 -13 -46s4 -15 11 -15c10 0 29 13 50 37c83 94 163 212 233 313
c69 99 122 177 203 284c6 6 10 0 6 -7zM232 204c-14 0 -30 -3 -41 -8c-47 -20 -129 -145 -129 -176c0 -5 2 -9 7 -9c12 0 35 15 59 43c27 32 61 83 104 150z" />
    <glyph glyph-name="r" unicode="r" horiz-adv-x="195" 
d="M271 204c-8 -9 -18 -25 -21 -32c-1 -2 -3 -3 -4 -3c-4 0 -7 19 -35 19c-17 0 -41 -15 -57 -29c-50 -44 -75 -101 -112 -160c-1 -2 -4 -3 -6 -3c-3 0 -15 11 -15 15c0 5 3 11 7 18c43 75 92 158 104 181c3 6 5 9 7 9s18 -7 18 -19c0 -8 -22 -40 -26 -49c-4 -7 0 -6 4 -2
c26 27 82 69 114 69c12 0 22 -7 22 -14z" />
    <glyph glyph-name="s" unicode="s" horiz-adv-x="179" 
d="M193 183c-2 -3 -4 -3 -5 -1c-4 9 -12 13 -25 13c-19 0 -42 -11 -42 -32c0 -11 7 -20 19 -37c11 -16 22 -32 22 -49c0 -69 -75 -86 -101 -86c-41 0 -63 14 -67 41c6 4 17 11 21 16c3 0 2 -1 3 -4c7 -24 27 -44 52 -44c21 0 63 5 63 51c0 17 -8 32 -16 44
c-8 13 -18 26 -18 42c0 32 50 79 89 79c11 0 16 -2 16 -10c-4 -6 -9 -16 -11 -23z" />
    <glyph glyph-name="t" unicode="t" horiz-adv-x="198" 
d="M282 365c-10 -3 -26 -11 -33 -21c-30 -42 -60 -90 -86 -137h124c4 -2 4 -6 1 -7c-22 0 -92 -3 -133 -6c-37 -66 -58 -112 -58 -146c0 -23 12 -36 33 -36s50 12 80 31c4 4 11 -3 4 -6c-45 -29 -82 -42 -122 -42c-21 0 -40 11 -40 42c0 27 25 79 71 155
c-16 -1 -46 -4 -50 -4s-5 1 -5 4c3 5 8 10 13 14l51 1c24 41 60 100 85 139c15 7 45 19 65 26c3 0 5 -5 0 -7z" />
    <glyph glyph-name="u" unicode="u" horiz-adv-x="257" 
d="M355 120c-45 -65 -127 -150 -188 -150c-26 0 -36 15 -36 35c0 12 3 30 11 48c-16 -20 -40 -54 -77 -54c-14 0 -25 8 -25 27c0 20 16 60 85 179c3 6 7 10 9 10c9 0 22 -16 22 -20c0 -2 -2 -6 -6 -12c-42 -64 -78 -131 -78 -156c0 -10 3 -15 11 -15c13 0 37 19 69 68
c23 42 54 97 66 117c3 4 5 7 8 7c5 0 14 -13 14 -29c0 -5 -1 -9 -4 -14c-46 -71 -78 -118 -78 -159c0 -12 4 -22 21 -22c36 0 110 59 170 145c3 1 6 -1 6 -5z" />
    <glyph glyph-name="v" unicode="v" horiz-adv-x="216" 
d="M257 200c-6 -76 -172 -204 -216 -206l-16 16c0 2 1 4 4 3c30 3 50 18 61 79c5 30 11 75 17 87c5 16 4 17 -7 17l-29 -5c-5 2 -5 5 1 7c26 4 69 10 90 16c2 -1 2 -3 1 -4c-5 -4 -13 -9 -17 -18c-13 -30 -20 -90 -25 -103c-8 -23 -30 -46 -48 -60c-2 -3 -1 -5 1 -4
c76 26 146 90 154 177c2 25 -3 44 -12 51c-3 1 -2 3 6 2c24 -2 39 -25 35 -55z" />
    <glyph glyph-name="w" unicode="w" horiz-adv-x="377" 
d="M511 209c-36 -10 -111 -20 -141 -22c-7 -1 -8 -8 -8 -14c0 -73 -44 -156 -80 -188c-22 -20 -42 -31 -73 -31c-34 0 -56 24 -56 58c0 9 1 16 2 21c-25 -15 -58 -33 -87 -33c-16 0 -27 10 -27 30c0 47 66 135 85 160c4 5 10 13 18 15c10 2 26 7 34 8c2 0 4 -1 4 -3
c0 -3 -8 -3 -20 -15c-40 -44 -82 -131 -82 -164c0 -8 6 -16 15 -16c7 0 28 5 62 27c12 52 39 104 72 144c7 8 24 28 45 28c10 0 11 -10 11 -14c0 -14 -15 -77 -99 -145c0 -37 9 -78 52 -78c64 0 95 97 95 170c0 32 0 54 -21 56c-2 2 -1 5 1 6c8 0 23 9 28 9
c6 0 5 -15 69 -15c39 0 85 8 101 13c5 1 9 -5 0 -7zM260 180c0 3 -1 14 -9 14c-13 0 -52 -42 -65 -130c53 43 74 88 74 116z" />
    <glyph glyph-name="x" unicode="x" horiz-adv-x="250" 
d="M304 78c-68 -72 -120 -94 -158 -94c-27 0 -37 14 -37 43c0 13 8 46 13 69c-111 -68 -151 -124 -151 -202c0 -73 50 -130 132 -130c44 0 90 22 123 56c4 5 12 0 6 -6c-49 -42 -98 -65 -159 -65c-69 0 -128 39 -128 136c0 79 63 152 179 220c8 27 17 68 17 79
c0 10 -4 14 -11 14c-10 0 -20 -3 -31 -7c-3 1 -1 5 0 7c22 8 63 22 75 22c9 0 11 -4 11 -9c0 -7 -7 -20 -30 -91c58 35 104 61 104 92c0 2 0 4 -1 6l2 2c7 -1 23 -7 23 -18c0 -25 -75 -60 -130 -91c-7 -27 -9 -58 -9 -70c0 -27 9 -38 38 -38c17 0 52 10 115 77c2 2 8 2 7 -2
z" />
    <glyph glyph-name="y" unicode="y" horiz-adv-x="227" 
d="M64 11c-18 0 -30 8 -30 24c0 27 38 82 84 153c5 6 8 10 12 12c7 1 22 4 24 4s4 -1 4 -3c-48 -84 -85 -135 -85 -164c0 -8 3 -12 11 -12c13 0 47 19 59 32c12 12 36 62 69 121c16 29 31 52 40 52c5 -3 11 -16 11 -26s-55 -85 -94 -135c-145 -222 -286 -492 -482 -492
c-39 0 -75 16 -75 63c0 11 3 24 5 30c1 4 5 6 5 1c0 -36 23 -71 91 -71c165 0 321 265 423 440c3 5 -2 2 -3 1c-15 -12 -42 -30 -69 -30z" />
    <glyph glyph-name="z" unicode="z" horiz-adv-x="223" 
d="M563 -42c-11 -52 -79 -104 -168 -104c-116 0 -225 69 -355 160c-5 3 -6 4 -13 0c-10 -6 -18 -11 -30 -19c-10 -7 -16 6 -6 11c122 59 225 146 225 151c0 3 -2 4 -4 4c-12 -4 -45 -13 -59 -13c-17 0 -42 11 -42 43c3 11 19 27 40 40c3 0 4 -2 4 -4c-5 -5 -9 -15 -9 -28
c0 -22 17 -36 41 -36c31 0 64 23 94 52c6 6 16 -2 10 -10c-23 -16 -51 -39 -66 -52c-32 -28 -87 -69 -150 -111c-5 -3 -8 -6 0 -11c132 -88 268 -166 340 -166c59 0 109 34 142 95c3 2 5 1 6 -2z" />
    <glyph glyph-name="braceleft" unicode="{" horiz-adv-x="265" 
d="M445 489c-4 0 -7 3 -16 3c-24 0 -41 -11 -70 -44c-81 -92 -109 -177 -192 -207c-3 -1 -4 -2 -4 -4c0 -1 1 -2 2 -3c16 -8 23 -22 23 -38c0 -54 -99 -179 -99 -246c0 -24 9 -43 36 -43c8 0 9 -8 -1 -8c-37 0 -72 25 -72 64c0 64 124 191 124 241c0 19 -21 28 -37 28
c-11 0 -23 -6 -36 -6c-5 0 -12 1 -12 8c0 6 10 12 16 12c9 0 17 -4 27 -4c15 0 31 5 43 14c68 51 80 125 146 202c23 26 47 34 78 38c14 2 25 3 43 3c9 0 9 -10 1 -10z" />
    <glyph glyph-name="bar" unicode="|" horiz-adv-x="222" 
d="M168 -250h-20v1000h20v-1000z" />
    <glyph glyph-name="braceright" unicode="}" horiz-adv-x="265" 
d="M409 429c0 -59 -94 -153 -94 -189c0 -6 3 -10 10 -10c12 0 29 7 43 7c5 0 7 -4 7 -8c0 -8 -5 -15 -13 -15c-19 0 -27 -1 -42 -10c-60 -37 -79 -145 -145 -222c-31 -36 -95 -84 -145 -84c-7 0 -7 6 1 7c40 7 71 32 101 70c68 85 79 170 186 238c3 2 4 3 4 5
c0 5 -26 8 -26 40c0 57 91 141 91 200c0 17 -8 27 -26 30c-11 2 -7 10 -1 10c29 0 49 -43 49 -69z" />
    <glyph glyph-name="asciitilde" unicode="~" horiz-adv-x="400" 
d="M365 174l18 -17c-17 -23 -35 -47 -69 -47c-45 0 -71 38 -119 38c-24 0 -38 -21 -46 -41l-18 17c12 23 32 47 69 47c42 0 89 -37 117 -37c22 0 35 20 48 40z" />
    <glyph glyph-name="uni00A0" unicode="&#xa0;" horiz-adv-x="200" 
 />
    <glyph glyph-name="Agrave" unicode="&#xc0;" horiz-adv-x="486" 
d="M6 -85l-11 52c1 24 14 41 39 70c185 211 370 367 431 409c10 7 40 11 48 19s8 -2 5 -7c-13 -20 -21 -50 -24 -67c-4 -17 -53 -279 -55 -324c-1 -45 23 -47 30 -47s16 3 27 5s12 -4 1 -6s-62 -19 -89 -24c-11 0 -16 5 -20 20c3 15 19 119 20 134c0 15 -15 33 -41 39
c-9 2 -38 4 -75 4c-39 0 -75 1 -93 3c-91 -90 -153 -174 -177 -225c-9 -19 -9 -32 -10 -52c0 -4 -3 -5 -6 -3zM446 416c-64 -51 -175 -144 -226 -202c4 -15 70 -13 103 -13c43 0 70 -1 80 -4c13 -4 12 -4 15 5c11 54 36 201 38 211c3 10 1 11 -10 3zM496 489
c0 -3 -3 -4 -5 -1c-17 31 -36 67 -49 93c-2 4 -3 8 -3 11c0 5 8 15 10 15s3 -1 4 -4c11 -28 35 -82 43 -114z" />
    <glyph glyph-name="Aacute" unicode="&#xc1;" horiz-adv-x="486" 
d="M6 -85l-11 52c1 24 14 41 39 70c185 211 370 367 431 409c10 7 40 11 48 19s8 -2 5 -7c-13 -20 -21 -50 -24 -67c-4 -17 -53 -279 -55 -324c-1 -45 23 -47 30 -47s16 3 27 5s12 -4 1 -6s-62 -19 -89 -24c-11 0 -16 5 -20 20c3 15 19 119 20 134c0 15 -15 33 -41 39
c-9 2 -38 4 -75 4c-39 0 -75 1 -93 3c-91 -90 -153 -174 -177 -225c-9 -19 -9 -32 -10 -52c0 -4 -3 -5 -6 -3zM446 416c-64 -51 -175 -144 -226 -202c4 -15 70 -13 103 -13c43 0 70 -1 80 -4c13 -4 12 -4 15 5c11 54 36 201 38 211c3 10 1 11 -10 3zM651 603
c0 -2 -1 -3 -3 -5c-47 -36 -105 -78 -160 -115c-6 -4 -9 0 -6 2c49 40 106 86 156 126c2 1 4 2 5 2c3 0 8 -6 8 -10z" />
    <glyph glyph-name="Acircumflex" unicode="&#xc2;" horiz-adv-x="486" 
d="M6 -85l-11 52c1 24 14 41 39 70c185 211 370 367 431 409c10 7 40 11 48 19s8 -2 5 -7c-13 -20 -21 -50 -24 -67c-4 -17 -53 -279 -55 -324c-1 -45 23 -47 30 -47s16 3 27 5s12 -4 1 -6s-62 -19 -89 -24c-11 0 -16 5 -20 20c3 15 19 119 20 134c0 15 -15 33 -41 39
c-9 2 -38 4 -75 4c-39 0 -75 1 -93 3c-91 -90 -153 -174 -177 -225c-9 -19 -9 -32 -10 -52c0 -4 -3 -5 -6 -3zM446 416c-64 -51 -175 -144 -226 -202c4 -15 70 -13 103 -13c43 0 70 -1 80 -4c13 -4 12 -4 15 5c11 54 36 201 38 211c3 10 1 11 -10 3zM565 505
c0 -9 0 -12 -4 -15s-12 -12 -16 -12c-2 0 -3 2 -3 7c0 27 -2 63 -3 90c0 4 -2 6 -4 6c-1 0 -3 -1 -5 -3c-25 -22 -55 -53 -77 -78c-6 -7 -10 -11 -13 -11c-2 0 -4 3 -4 5c0 4 3 8 9 13c23 20 52 48 74 70c10 10 21 21 32 28c2 1 4 2 5 2c2 0 4 -2 4 -5c1 -37 5 -74 5 -97z
" />
    <glyph glyph-name="Atilde" unicode="&#xc3;" horiz-adv-x="486" 
d="M6 -85l-11 52c1 24 14 41 39 70c185 211 370 367 431 409c10 7 40 11 48 19s8 -2 5 -7c-13 -20 -21 -50 -24 -67c-4 -17 -53 -279 -55 -324c-1 -45 23 -47 30 -47s16 3 27 5s12 -4 1 -6s-62 -19 -89 -24c-11 0 -16 5 -20 20c3 15 19 119 20 134c0 15 -15 33 -41 39
c-9 2 -38 4 -75 4c-39 0 -75 1 -93 3c-91 -90 -153 -174 -177 -225c-9 -19 -9 -32 -10 -52c0 -4 -3 -5 -6 -3zM446 416c-64 -51 -175 -144 -226 -202c4 -15 70 -13 103 -13c43 0 70 -1 80 -4c13 -4 12 -4 15 5c11 54 36 201 38 211c3 10 1 11 -10 3zM621 557
c-4 -30 -29 -62 -60 -62c-38 0 -61 55 -90 55c-21 0 -47 -31 -58 -46c-6 -9 -15 -6 -6 6c11 14 33 36 52 50c9 7 18 10 26 10c30 0 53 -57 89 -57c23 0 38 23 38 44c0 6 9 13 9 0z" />
    <glyph glyph-name="Adieresis" unicode="&#xc4;" horiz-adv-x="486" 
d="M6 -85l-11 52c1 24 14 41 39 70c185 211 370 367 431 409c10 7 40 11 48 19s8 -2 5 -7c-13 -20 -21 -50 -24 -67c-4 -17 -53 -279 -55 -324c-1 -45 23 -47 30 -47s16 3 27 5s12 -4 1 -6s-62 -19 -89 -24c-11 0 -16 5 -20 20c3 15 19 119 20 134c0 15 -15 33 -41 39
c-9 2 -38 4 -75 4c-39 0 -75 1 -93 3c-91 -90 -153 -174 -177 -225c-9 -19 -9 -32 -10 -52c0 -4 -3 -5 -6 -3zM446 416c-64 -51 -175 -144 -226 -202c4 -15 70 -13 103 -13c43 0 70 -1 80 -4c13 -4 12 -4 15 5c11 54 36 201 38 211c3 10 1 11 -10 3zM565 548
c0 -16 -17 -36 -34 -36c-9 0 -12 4 -12 12c0 17 15 37 33 37c8 0 13 -5 13 -13zM493 554c0 -16 -17 -36 -34 -36c-9 0 -12 4 -12 12c0 17 15 37 33 37c8 0 13 -5 13 -13z" />
    <glyph glyph-name="Amacron" unicode="&#x100;" horiz-adv-x="486" 
d="M6 -85l-11 52c1 24 14 41 39 70c185 211 370 367 431 409c10 7 40 11 48 19s8 -2 5 -7c-13 -20 -21 -50 -24 -67c-4 -17 -53 -279 -55 -324c-1 -45 23 -47 30 -47s16 3 27 5s12 -4 1 -6s-62 -19 -89 -24c-11 0 -16 5 -20 20c3 15 19 119 20 134c0 15 -15 33 -41 39
c-9 2 -38 4 -75 4c-39 0 -75 1 -93 3c-91 -90 -153 -174 -177 -225c-9 -19 -9 -32 -10 -52c0 -4 -3 -5 -6 -3zM446 416c-64 -51 -175 -144 -226 -202c4 -15 70 -13 103 -13c43 0 70 -1 80 -4c13 -4 12 -4 15 5c11 54 36 201 38 211c3 10 1 11 -10 3zM555 535l-3 -15l-88 -2
l5 15z" />
    <glyph glyph-name="Abreve" unicode="&#x102;" horiz-adv-x="486" 
d="M6 -85l-11 52c1 24 14 41 39 70c185 211 370 367 431 409c10 7 40 11 48 19s8 -2 5 -7c-13 -20 -21 -50 -24 -67c-4 -17 -53 -279 -55 -324c-1 -45 23 -47 30 -47s16 3 27 5s12 -4 1 -6s-62 -19 -89 -24c-11 0 -16 5 -20 20c3 15 19 119 20 134c0 15 -15 33 -41 39
c-9 2 -38 4 -75 4c-39 0 -75 1 -93 3c-91 -90 -153 -174 -177 -225c-9 -19 -9 -32 -10 -52c0 -4 -3 -5 -6 -3zM446 416c-64 -51 -175 -144 -226 -202c4 -15 70 -13 103 -13c43 0 70 -1 80 -4c13 -4 12 -4 15 5c11 54 36 201 38 211c3 10 1 11 -10 3zM588 565
c0 -4 -4 -7 -8 -13c-23 -29 -51 -42 -75 -42c-28 0 -49 18 -49 50c0 9 10 14 18 14c3 0 4 -1 4 -6c0 -25 12 -44 39 -44c19 0 41 12 55 35c4 6 8 12 11 12c2 0 5 -4 5 -6z" />
    <glyph glyph-name="Aring" unicode="&#xc5;" horiz-adv-x="486" 
d="M6 -85l-11 52c1 24 14 41 39 70c185 211 370 367 431 409c10 7 40 11 48 19s8 -2 5 -7c-13 -20 -21 -50 -24 -67c-4 -17 -53 -279 -55 -324c-1 -45 23 -47 30 -47s16 3 27 5s12 -4 1 -6s-62 -19 -89 -24c-11 0 -16 5 -20 20c3 15 19 119 20 134c0 15 -15 33 -41 39
c-9 2 -38 4 -75 4c-39 0 -75 1 -93 3c-91 -90 -153 -174 -177 -225c-9 -19 -9 -32 -10 -52c0 -4 -3 -5 -6 -3zM446 416c-64 -51 -175 -144 -226 -202c4 -15 70 -13 103 -13c43 0 70 -1 80 -4c13 -4 12 -4 15 5c11 54 36 201 38 211c3 10 1 11 -10 3zM586 562
c0 -33 -25 -68 -72 -68c-28 0 -48 15 -48 43c0 26 21 68 71 68c33 0 49 -15 49 -43zM572 560c0 23 -10 39 -36 39c-39 0 -56 -30 -56 -60c0 -24 17 -39 38 -39c36 0 54 34 54 60z" />
    <glyph glyph-name="Aogonek" unicode="&#x104;" horiz-adv-x="486" 
d="M6 -85l-11 52c1 24 14 41 39 70c185 211 370 367 431 409c10 7 40 11 48 19s8 -2 5 -7c-13 -20 -21 -50 -24 -67c-4 -17 -53 -279 -55 -324c-1 -45 23 -47 30 -47s16 3 27 5s12 -4 1 -6s-62 -19 -89 -24c-11 0 -16 5 -20 20c3 15 19 119 20 134c0 15 -15 33 -41 39
c-9 2 -38 4 -75 4c-39 0 -75 1 -93 3c-91 -90 -153 -174 -177 -225c-9 -19 -9 -32 -10 -52c0 -4 -3 -5 -6 -3zM446 416c-64 -51 -175 -144 -226 -202c4 -15 70 -13 103 -13c43 0 70 -1 80 -4c13 -4 12 -4 15 5c11 54 36 201 38 211c3 10 1 11 -10 3zM439 10
c0 -1 -1 -2 -4 -3c-41 -15 -70 -44 -70 -68c0 -18 16 -30 34 -30c4 0 8 2 12 2s2 -5 -2 -6c-10 -3 -18 -5 -33 -5c-26 0 -43 12 -43 29c0 10 6 22 20 35c21 19 73 48 83 48c2 0 3 -1 3 -2z" />
    <glyph glyph-name="AE" unicode="&#xc6;" horiz-adv-x="777" 
d="M846 431c0 -2 -1 -5 -3 -8c-4 -5 -7 -12 -10 -19c-2 -5 -6 -7 -9 1c-1 3 -5 6 -9 7c-41 7 -92 9 -139 9c-11 0 -18 -2 -24 -10c-32 -42 -78 -123 -110 -180c62 0 173 5 219 9c-4 -5 -7 -11 -8 -16c-1 -4 -4 -6 -9 -6h-1c-34 1 -67 2 -101 2c-36 0 -71 -1 -107 -1
c-24 -43 -48 -87 -68 -133c-7 -15 -10 -28 -10 -40c0 -30 23 -47 70 -47c45 0 190 12 274 67c3 1 12 2 3 -7c-8 -7 -16 -16 -21 -24c-5 -10 -15 -15 -29 -18c-67 -15 -142 -25 -210 -28c-123 0 -148 6 -148 40c0 11 5 25 12 38c27 50 57 101 86 151c-70 0 -166 -1 -224 -6
c-59 -38 -186 -127 -253 -203c-5 -6 -17 -24 -20 -35c-3 -7 -9 -7 -9 2s4 26 4 35c0 8 0 11 7 19c12 12 65 58 253 183c-2 3 -3 7 -3 13s6 9 37 9c109 72 254 160 278 176c4 3 5 8 -3 8c-37 0 -98 -1 -133 -7c-6 -1 -11 -3 -13 -6c-4 -4 -7 -4 -6 0c2 6 4 15 5 20
c1 4 5 6 11 6h12c40 0 93 -2 177 -2c45 0 113 4 152 5c17 1 38 1 56 1c13 0 24 -1 24 -5zM603 416c-118 -65 -226 -132 -300 -182c46 -3 123 -3 198 -3c36 64 69 118 102 185z" />
    <glyph glyph-name="Cacute" unicode="&#x106;" horiz-adv-x="516" 
d="M558 317l-9 -3c2 7 5 24 5 34c0 41 -23 89 -118 89c-38 0 -72 -18 -101 -39c-68 -49 -181 -196 -181 -318c0 -66 51 -82 105 -82c111 0 202 61 284 174c2 3 4 4 5 4c3 0 4 -5 4 -14c0 -10 -4 -17 -8 -24c-61 -92 -168 -148 -287 -148c-77 0 -147 26 -147 117
c0 102 84 218 161 278c48 37 108 61 172 61c48 0 100 -9 143 -34c6 -3 8 -6 8 -12c-9 -16 -27 -56 -36 -83zM617 603c0 -2 -1 -3 -3 -5c-47 -36 -105 -78 -160 -115c-6 -4 -9 0 -6 2c49 40 106 86 156 126c2 1 4 2 5 2c3 0 8 -6 8 -10z" />
    <glyph glyph-name="Ccircumflex" unicode="&#x108;" horiz-adv-x="516" 
d="M558 317l-9 -3c2 7 5 24 5 34c0 41 -23 89 -118 89c-38 0 -72 -18 -101 -39c-68 -49 -181 -196 -181 -318c0 -66 51 -82 105 -82c111 0 202 61 284 174c2 3 4 4 5 4c3 0 4 -5 4 -14c0 -10 -4 -17 -8 -24c-61 -92 -168 -148 -287 -148c-77 0 -147 26 -147 117
c0 102 84 218 161 278c48 37 108 61 172 61c48 0 100 -9 143 -34c6 -3 8 -6 8 -12c-9 -16 -27 -56 -36 -83zM553 515c0 -9 0 -12 -4 -15s-12 -12 -16 -12c-2 0 -3 2 -3 7c0 27 -2 63 -3 90c0 4 -2 6 -4 6c-1 0 -3 -1 -5 -3c-25 -22 -55 -53 -77 -78c-6 -7 -10 -11 -13 -11
c-2 0 -4 3 -4 5c0 4 3 8 9 13c23 20 52 48 74 70c10 10 21 21 32 28c2 1 4 2 5 2c2 0 4 -2 4 -5c1 -37 5 -74 5 -97z" />
    <glyph glyph-name="Ccaron" unicode="&#x10c;" horiz-adv-x="516" 
d="M558 317l-9 -3c2 7 5 24 5 34c0 41 -23 89 -118 89c-38 0 -72 -18 -101 -39c-68 -49 -181 -196 -181 -318c0 -66 51 -82 105 -82c111 0 202 61 284 174c2 3 4 4 5 4c3 0 4 -5 4 -14c0 -10 -4 -17 -8 -24c-61 -92 -168 -148 -287 -148c-77 0 -147 26 -147 117
c0 102 84 218 161 278c48 37 108 61 172 61c48 0 100 -9 143 -34c6 -3 8 -6 8 -12c-9 -16 -27 -56 -36 -83zM577 606c0 -4 -3 -8 -8 -12c-25 -21 -53 -48 -75 -70c-13 -13 -32 -29 -36 -29c-3 0 -5 2 -5 5c0 16 -7 79 -7 99c0 7 1 9 5 12c3 2 15 12 18 12c2 0 3 -2 3 -7
c0 -32 2 -79 2 -90c0 -4 2 -6 4 -6c1 0 3 1 5 3c25 21 57 55 76 78c5 7 10 12 13 12c2 0 5 -5 5 -7z" />
    <glyph glyph-name="Cdotaccent" unicode="&#x10a;" horiz-adv-x="516" 
d="M558 317l-9 -3c2 7 5 24 5 34c0 41 -23 89 -118 89c-38 0 -72 -18 -101 -39c-68 -49 -181 -196 -181 -318c0 -66 51 -82 105 -82c111 0 202 61 284 174c2 3 4 4 5 4c3 0 4 -5 4 -14c0 -10 -4 -17 -8 -24c-61 -92 -168 -148 -287 -148c-77 0 -147 26 -147 117
c0 102 84 218 161 278c48 37 108 61 172 61c48 0 100 -9 143 -34c6 -3 8 -6 8 -12c-9 -16 -27 -56 -36 -83zM497 524c0 -15 -16 -30 -31 -30c-11 0 -16 7 -16 18c0 15 11 28 28 28c11 0 19 -3 19 -16z" />
    <glyph glyph-name="Ccedilla" unicode="&#xc7;" horiz-adv-x="516" 
d="M558 317l-9 -3c2 7 5 24 5 34c0 41 -23 89 -118 89c-38 0 -72 -18 -101 -39c-68 -49 -181 -196 -181 -318c0 -66 51 -82 105 -82c111 0 202 61 284 174c2 3 4 4 5 4c3 0 4 -5 4 -14c0 -10 -4 -17 -8 -24c-61 -92 -168 -148 -287 -148c-77 0 -147 26 -147 117
c0 102 84 218 161 278c48 37 108 61 172 61c48 0 100 -9 143 -34c6 -3 8 -6 8 -12c-9 -16 -27 -56 -36 -83zM285 -17c-10 -3 -37 -16 -37 -28c0 -13 32 -13 32 -33c0 -7 -4 -14 -13 -21c-20 -17 -52 -39 -74 -50c-2 -1 -5 -2 -7 -2s-8 3 -8 6c0 2 2 3 5 4c14 4 67 25 67 44
c0 17 -32 18 -32 35c0 19 50 44 64 50c4 0 10 -1 3 -5z" />
    <glyph glyph-name="Dcaron" unicode="&#x10e;" horiz-adv-x="573" 
d="M71 -3l-6 5c17 19 33 43 41 58c23 40 177 304 204 365c0 4 -5 5 -8 5c-42 0 -83 -12 -126 -13c-12 0 -18 4 -18 16c0 3 1 14 5 14c2 0 24 -12 43 -12c24 0 69 3 97 5c33 1 65 3 98 3c103 0 216 -19 216 -140c0 -112 -89 -234 -190 -279c-51 -22 -106 -32 -161 -32
c-45 0 -86 4 -126 25c-6 3 -11 5 -17 5c-11 0 -34 -11 -52 -25zM565 309c0 59 -34 124 -172 124c-14 0 -24 1 -32 -12c-66 -103 -155 -262 -204 -361c-2 -4 -4 -9 -4 -12c0 -4 2 -8 6 -12c23 -24 66 -36 107 -36c162 0 299 135 299 309zM562 595c0 -4 -3 -8 -8 -12
c-25 -21 -53 -48 -75 -70c-13 -13 -32 -29 -36 -29c-3 0 -5 2 -5 5c0 16 -7 79 -7 99c0 7 1 9 5 12c3 2 15 12 18 12c2 0 3 -2 3 -7c0 -32 2 -79 2 -90c0 -4 2 -6 4 -6c1 0 3 1 5 3c25 21 57 55 76 78c5 7 10 12 13 12c2 0 5 -5 5 -7z" />
    <glyph glyph-name="Dcroat" unicode="&#x110;" horiz-adv-x="573" 
d="M71 -3l-6 5c17 19 33 43 41 58c10 18 49 83 89 155c-17 0 -41 -4 -56 -4c-11 0 -16 6 -16 17c0 1 1 2 2 2c3 0 19 -4 73 -2h5c46 80 93 165 107 197c0 4 -5 5 -8 5c-42 0 -83 -12 -126 -13c-12 0 -18 4 -18 16c0 3 1 14 5 14c2 0 24 -12 43 -12c24 0 69 3 97 5
c33 1 65 3 98 3c103 0 216 -19 216 -140c0 -112 -89 -234 -190 -279c-51 -22 -106 -32 -161 -32c-45 0 -86 4 -126 25c-6 3 -11 5 -17 5c-11 0 -34 -11 -52 -25zM565 309c0 59 -34 124 -172 124c-14 0 -24 1 -32 -12c-35 -54 -76 -123 -114 -191c45 1 75 2 104 2
c17 0 21 0 21 -9c0 -6 -1 -9 -4 -9c-4 3 -14 4 -30 4c-33 0 -70 -1 -98 -2c-32 -57 -62 -113 -83 -156c-2 -4 -4 -9 -4 -12c0 -4 2 -8 6 -12c23 -24 66 -36 107 -36c162 0 299 135 299 309z" />
    <glyph glyph-name="Eth" unicode="&#xd0;" horiz-adv-x="563" 
d="M607 298c0 -110 -88 -231 -187 -275c-50 -22 -105 -31 -159 -31c-105 0 -120 30 -140 30c-18 0 -44 -22 -52 -22h-1c-2 0 -3 1 -3 3c0 8 20 21 39 56c9 17 49 84 90 156c-10 0 -46 -4 -55 -4c-11 0 -16 6 -16 17c0 1 1 2 2 2c3 -1 26 -3 37 -3c10 0 30 1 39 1
c52 90 104 183 104 191c0 4 -5 5 -8 5c-42 0 -90 -13 -125 -13c-11 0 -17 4 -17 16c0 3 1 13 5 13c2 0 23 -11 42 -11c46 0 110 7 192 7c96 0 213 -17 213 -138zM559 304c0 96 -93 123 -173 123c-19 0 -24 -1 -31 -12c-34 -53 -73 -119 -110 -185c39 1 72 2 97 2
c14 0 22 0 25 -1c7 0 6 -17 1 -17c-4 3 -15 4 -31 4c-24 0 -59 0 -100 -2c-32 -57 -62 -113 -83 -157c-2 -4 -4 -10 -4 -13c0 -11 38 -46 110 -46c48 0 95 12 133 30c95 46 166 170 166 274z" />
    <glyph glyph-name="Egrave" unicode="&#xc8;" horiz-adv-x="475" 
d="M487 67c2 1 4 -1 4 -4c-8 -7 -16 -18 -21 -26c-5 -10 -14 -15 -28 -18c-66 -15 -159 -27 -227 -27c-101 0 -123 14 -123 41c0 11 4 25 11 38c10 18 86 149 86 152c0 4 -3 5 -17 5c-4 0 -5 1 -5 3c0 3 5 8 12 9c15 2 26 9 34 24c10 18 83 149 83 159c0 4 -3 4 -6 4
c-40 0 -82 -2 -113 -10l-2 1c1 11 4 19 8 23c41 -2 90 -4 131 -4c28 0 161 6 224 6c4 0 6 -2 6 -5c-3 -6 -13 -22 -19 -37l-4 1c0 8 -4 16 -8 17c-41 7 -91 9 -139 9c-11 0 -18 -2 -24 -10c-36 -48 -74 -113 -106 -170c-3 -6 0 -9 6 -9c18 -1 37 -1 57 -1c61 0 104 3 150 13
l3 -3c-3 -5 -8 -15 -10 -21c-1 -3 -4 -4 -8 -4c-35 1 -77 2 -118 2c-30 0 -60 0 -85 -1c-5 0 -9 -2 -11 -6c-23 -40 -48 -86 -65 -127c-7 -16 -10 -29 -10 -41c0 -30 24 -47 71 -47c67 0 209 23 263 64zM441 479c0 -3 -3 -4 -5 -1c-17 31 -36 67 -49 93c-2 4 -3 8 -3 11
c0 5 8 15 10 15s3 -1 4 -4c11 -28 35 -82 43 -114z" />
    <glyph glyph-name="Eacute" unicode="&#xc9;" horiz-adv-x="475" 
d="M487 67c2 1 4 -1 4 -4c-8 -7 -16 -18 -21 -26c-5 -10 -14 -15 -28 -18c-66 -15 -159 -27 -227 -27c-101 0 -123 14 -123 41c0 11 4 25 11 38c10 18 86 149 86 152c0 4 -3 5 -17 5c-4 0 -5 1 -5 3c0 3 5 8 12 9c15 2 26 9 34 24c10 18 83 149 83 159c0 4 -3 4 -6 4
c-40 0 -82 -2 -113 -10l-2 1c1 11 4 19 8 23c41 -2 90 -4 131 -4c28 0 161 6 224 6c4 0 6 -2 6 -5c-3 -6 -13 -22 -19 -37l-4 1c0 8 -4 16 -8 17c-41 7 -91 9 -139 9c-11 0 -18 -2 -24 -10c-36 -48 -74 -113 -106 -170c-3 -6 0 -9 6 -9c18 -1 37 -1 57 -1c61 0 104 3 150 13
l3 -3c-3 -5 -8 -15 -10 -21c-1 -3 -4 -4 -8 -4c-35 1 -77 2 -118 2c-30 0 -60 0 -85 -1c-5 0 -9 -2 -11 -6c-23 -40 -48 -86 -65 -127c-7 -16 -10 -29 -10 -41c0 -30 24 -47 71 -47c67 0 209 23 263 64zM554 603c0 -2 -1 -3 -3 -5c-47 -36 -105 -78 -160 -115
c-6 -4 -9 0 -6 2c49 40 106 86 156 126c2 1 4 2 5 2c3 0 8 -6 8 -10z" />
    <glyph glyph-name="Ecircumflex" unicode="&#xca;" horiz-adv-x="475" 
d="M487 67c2 1 4 -1 4 -4c-8 -7 -16 -18 -21 -26c-5 -10 -14 -15 -28 -18c-66 -15 -159 -27 -227 -27c-101 0 -123 14 -123 41c0 11 4 25 11 38c10 18 86 149 86 152c0 4 -3 5 -17 5c-4 0 -5 1 -5 3c0 3 5 8 12 9c15 2 26 9 34 24c10 18 83 149 83 159c0 4 -3 4 -6 4
c-40 0 -82 -2 -113 -10l-2 1c1 11 4 19 8 23c41 -2 90 -4 131 -4c28 0 161 6 224 6c4 0 6 -2 6 -5c-3 -6 -13 -22 -19 -37l-4 1c0 8 -4 16 -8 17c-41 7 -91 9 -139 9c-11 0 -18 -2 -24 -10c-36 -48 -74 -113 -106 -170c-3 -6 0 -9 6 -9c18 -1 37 -1 57 -1c61 0 104 3 150 13
l3 -3c-3 -5 -8 -15 -10 -21c-1 -3 -4 -4 -8 -4c-35 1 -77 2 -118 2c-30 0 -60 0 -85 -1c-5 0 -9 -2 -11 -6c-23 -40 -48 -86 -65 -127c-7 -16 -10 -29 -10 -41c0 -30 24 -47 71 -47c67 0 209 23 263 64zM496 505c0 -9 0 -12 -4 -15s-12 -12 -16 -12c-2 0 -3 2 -3 7
c0 27 -2 63 -3 90c0 4 -2 6 -4 6c-1 0 -3 -1 -5 -3c-25 -22 -55 -53 -77 -78c-6 -7 -10 -11 -13 -11c-2 0 -4 3 -4 5c0 4 3 8 9 13c23 20 52 48 74 70c10 10 21 21 32 28c2 1 4 2 5 2c2 0 4 -2 4 -5c1 -37 5 -74 5 -97z" />
    <glyph glyph-name="Ecaron" unicode="&#x11a;" horiz-adv-x="475" 
d="M487 67c2 1 4 -1 4 -4c-8 -7 -16 -18 -21 -26c-5 -10 -14 -15 -28 -18c-66 -15 -159 -27 -227 -27c-101 0 -123 14 -123 41c0 11 4 25 11 38c10 18 86 149 86 152c0 4 -3 5 -17 5c-4 0 -5 1 -5 3c0 3 5 8 12 9c15 2 26 9 34 24c10 18 83 149 83 159c0 4 -3 4 -6 4
c-40 0 -82 -2 -113 -10l-2 1c1 11 4 19 8 23c41 -2 90 -4 131 -4c28 0 161 6 224 6c4 0 6 -2 6 -5c-3 -6 -13 -22 -19 -37l-4 1c0 8 -4 16 -8 17c-41 7 -91 9 -139 9c-11 0 -18 -2 -24 -10c-36 -48 -74 -113 -106 -170c-3 -6 0 -9 6 -9c18 -1 37 -1 57 -1c61 0 104 3 150 13
l3 -3c-3 -5 -8 -15 -10 -21c-1 -3 -4 -4 -8 -4c-35 1 -77 2 -118 2c-30 0 -60 0 -85 -1c-5 0 -9 -2 -11 -6c-23 -40 -48 -86 -65 -127c-7 -16 -10 -29 -10 -41c0 -30 24 -47 71 -47c67 0 209 23 263 64zM499 591c0 -4 -3 -8 -8 -12c-25 -21 -53 -48 -75 -70
c-13 -13 -32 -29 -36 -29c-3 0 -5 2 -5 5c0 16 -7 79 -7 99c0 7 1 9 5 12c3 2 15 12 18 12c2 0 3 -2 3 -7c0 -32 2 -79 2 -90c0 -4 2 -6 4 -6c1 0 3 1 5 3c25 21 57 55 76 78c5 7 10 12 13 12c2 0 5 -5 5 -7z" />
    <glyph glyph-name="Edieresis" unicode="&#xcb;" horiz-adv-x="475" 
d="M487 67c2 1 4 -1 4 -4c-8 -7 -16 -18 -21 -26c-5 -10 -14 -15 -28 -18c-66 -15 -159 -27 -227 -27c-101 0 -123 14 -123 41c0 11 4 25 11 38c10 18 86 149 86 152c0 4 -3 5 -17 5c-4 0 -5 1 -5 3c0 3 5 8 12 9c15 2 26 9 34 24c10 18 83 149 83 159c0 4 -3 4 -6 4
c-40 0 -82 -2 -113 -10l-2 1c1 11 4 19 8 23c41 -2 90 -4 131 -4c28 0 161 6 224 6c4 0 6 -2 6 -5c-3 -6 -13 -22 -19 -37l-4 1c0 8 -4 16 -8 17c-41 7 -91 9 -139 9c-11 0 -18 -2 -24 -10c-36 -48 -74 -113 -106 -170c-3 -6 0 -9 6 -9c18 -1 37 -1 57 -1c61 0 104 3 150 13
l3 -3c-3 -5 -8 -15 -10 -21c-1 -3 -4 -4 -8 -4c-35 1 -77 2 -118 2c-30 0 -60 0 -85 -1c-5 0 -9 -2 -11 -6c-23 -40 -48 -86 -65 -127c-7 -16 -10 -29 -10 -41c0 -30 24 -47 71 -47c67 0 209 23 263 64zM485 548c0 -16 -17 -36 -34 -36c-9 0 -12 4 -12 12c0 17 15 37 33 37
c8 0 13 -5 13 -13zM413 554c0 -16 -17 -36 -34 -36c-9 0 -12 4 -12 12c0 17 15 37 33 37c8 0 13 -5 13 -13z" />
    <glyph glyph-name="Emacron" unicode="&#x112;" horiz-adv-x="475" 
d="M487 67c2 1 4 -1 4 -4c-8 -7 -16 -18 -21 -26c-5 -10 -14 -15 -28 -18c-66 -15 -159 -27 -227 -27c-101 0 -123 14 -123 41c0 11 4 25 11 38c10 18 86 149 86 152c0 4 -3 5 -17 5c-4 0 -5 1 -5 3c0 3 5 8 12 9c15 2 26 9 34 24c10 18 83 149 83 159c0 4 -3 4 -6 4
c-40 0 -82 -2 -113 -10l-2 1c1 11 4 19 8 23c41 -2 90 -4 131 -4c28 0 161 6 224 6c4 0 6 -2 6 -5c-3 -6 -13 -22 -19 -37l-4 1c0 8 -4 16 -8 17c-41 7 -91 9 -139 9c-11 0 -18 -2 -24 -10c-36 -48 -74 -113 -106 -170c-3 -6 0 -9 6 -9c18 -1 37 -1 57 -1c61 0 104 3 150 13
l3 -3c-3 -5 -8 -15 -10 -21c-1 -3 -4 -4 -8 -4c-35 1 -77 2 -118 2c-30 0 -60 0 -85 -1c-5 0 -9 -2 -11 -6c-23 -40 -48 -86 -65 -127c-7 -16 -10 -29 -10 -41c0 -30 24 -47 71 -47c67 0 209 23 263 64zM460 525l-3 -15l-88 -2l5 15z" />
    <glyph glyph-name="Ebreve" unicode="&#x114;" horiz-adv-x="475" 
d="M487 67c2 1 4 -1 4 -4c-8 -7 -16 -18 -21 -26c-5 -10 -14 -15 -28 -18c-66 -15 -159 -27 -227 -27c-101 0 -123 14 -123 41c0 11 4 25 11 38c10 18 86 149 86 152c0 4 -3 5 -17 5c-4 0 -5 1 -5 3c0 3 5 8 12 9c15 2 26 9 34 24c10 18 83 149 83 159c0 4 -3 4 -6 4
c-40 0 -82 -2 -113 -10l-2 1c1 11 4 19 8 23c41 -2 90 -4 131 -4c28 0 161 6 224 6c4 0 6 -2 6 -5c-3 -6 -13 -22 -19 -37l-4 1c0 8 -4 16 -8 17c-41 7 -91 9 -139 9c-11 0 -18 -2 -24 -10c-36 -48 -74 -113 -106 -170c-3 -6 0 -9 6 -9c18 -1 37 -1 57 -1c61 0 104 3 150 13
l3 -3c-3 -5 -8 -15 -10 -21c-1 -3 -4 -4 -8 -4c-35 1 -77 2 -118 2c-30 0 -60 0 -85 -1c-5 0 -9 -2 -11 -6c-23 -40 -48 -86 -65 -127c-7 -16 -10 -29 -10 -41c0 -30 24 -47 71 -47c67 0 209 23 263 64zM501 555c0 -4 -4 -7 -8 -13c-23 -29 -51 -42 -75 -42
c-28 0 -49 18 -49 50c0 9 10 14 18 14c3 0 4 -1 4 -6c0 -25 12 -44 39 -44c19 0 41 12 55 35c4 6 8 12 11 12c2 0 5 -4 5 -6z" />
    <glyph glyph-name="Edotaccent" unicode="&#x116;" horiz-adv-x="475" 
d="M487 67c2 1 4 -1 4 -4c-8 -7 -16 -18 -21 -26c-5 -10 -14 -15 -28 -18c-66 -15 -159 -27 -227 -27c-101 0 -123 14 -123 41c0 11 4 25 11 38c10 18 86 149 86 152c0 4 -3 5 -17 5c-4 0 -5 1 -5 3c0 3 5 8 12 9c15 2 26 9 34 24c10 18 83 149 83 159c0 4 -3 4 -6 4
c-40 0 -82 -2 -113 -10l-2 1c1 11 4 19 8 23c41 -2 90 -4 131 -4c28 0 161 6 224 6c4 0 6 -2 6 -5c-3 -6 -13 -22 -19 -37l-4 1c0 8 -4 16 -8 17c-41 7 -91 9 -139 9c-11 0 -18 -2 -24 -10c-36 -48 -74 -113 -106 -170c-3 -6 0 -9 6 -9c18 -1 37 -1 57 -1c61 0 104 3 150 13
l3 -3c-3 -5 -8 -15 -10 -21c-1 -3 -4 -4 -8 -4c-35 1 -77 2 -118 2c-30 0 -60 0 -85 -1c-5 0 -9 -2 -11 -6c-23 -40 -48 -86 -65 -127c-7 -16 -10 -29 -10 -41c0 -30 24 -47 71 -47c67 0 209 23 263 64zM451 534c0 -15 -16 -30 -31 -30c-11 0 -16 7 -16 18c0 15 11 28 28 28
c11 0 19 -3 19 -16z" />
    <glyph glyph-name="Eogonek" unicode="&#x118;" horiz-adv-x="475" 
d="M487 67c2 1 4 -1 4 -4c-8 -7 -16 -18 -21 -26c-5 -10 -14 -15 -28 -18c-66 -15 -159 -27 -227 -27c-101 0 -123 14 -123 41c0 11 4 25 11 38c10 18 86 149 86 152c0 4 -3 5 -17 5c-4 0 -5 1 -5 3c0 3 5 8 12 9c15 2 26 9 34 24c10 18 83 149 83 159c0 4 -3 4 -6 4
c-40 0 -82 -2 -113 -10l-2 1c1 11 4 19 8 23c41 -2 90 -4 131 -4c28 0 161 6 224 6c4 0 6 -2 6 -5c-3 -6 -13 -22 -19 -37l-4 1c0 8 -4 16 -8 17c-41 7 -91 9 -139 9c-11 0 -18 -2 -24 -10c-36 -48 -74 -113 -106 -170c-3 -6 0 -9 6 -9c18 -1 37 -1 57 -1c61 0 104 3 150 13
l3 -3c-3 -5 -8 -15 -10 -21c-1 -3 -4 -4 -8 -4c-35 1 -77 2 -118 2c-30 0 -60 0 -85 -1c-5 0 -9 -2 -11 -6c-23 -40 -48 -86 -65 -127c-7 -16 -10 -29 -10 -41c0 -30 24 -47 71 -47c67 0 209 23 263 64zM424 17c0 -1 -1 -2 -4 -3c-41 -15 -70 -44 -70 -68
c0 -18 16 -30 34 -30c4 0 8 2 12 2s2 -5 -2 -6c-10 -3 -18 -5 -33 -5c-26 0 -43 12 -43 29c0 10 6 22 20 35c21 19 73 48 83 48c2 0 3 -1 3 -2z" />
    <glyph glyph-name="Gcircumflex" unicode="&#x11c;" horiz-adv-x="569" 
d="M111 -254l-1 7l3 2c16 -8 38 -12 56 -12c138 0 261 241 313 337c0 4 -2 6 -6 2c-25 -21 -113 -95 -217 -95c-97 0 -148 44 -148 114c0 55 60 240 238 314c53 21 108 28 152 28s113 -10 136 -40c-5 -23 -19 -60 -29 -84l-7 -2l-1 3c2 8 4 16 4 25c0 49 -60 87 -132 87
c-68 0 -127 -31 -175 -79c-58 -57 -143 -189 -143 -276c0 -53 37 -82 105 -82c118 0 241 109 270 189c5 13 7 20 -8 20c-23 -1 -54 -4 -90 -7l-3 1l3 11c54 0 134 4 181 16c3 -2 2 -6 0 -9c-21 -5 -26 -11 -35 -29c-50 -99 -136 -268 -199 -340c-28 -32 -96 -111 -209 -111
c-19 0 -37 2 -58 10zM576 505c0 -9 0 -12 -4 -15s-12 -12 -16 -12c-2 0 -3 2 -3 7c0 27 -2 63 -3 90c0 4 -2 6 -4 6c-1 0 -3 -1 -5 -3c-25 -22 -55 -53 -77 -78c-6 -7 -10 -11 -13 -11c-2 0 -4 3 -4 5c0 4 3 8 9 13c23 20 52 48 74 70c10 10 21 21 32 28c2 1 4 2 5 2
c2 0 4 -2 4 -5c1 -37 5 -74 5 -97z" />
    <glyph glyph-name="Gbreve" unicode="&#x11e;" horiz-adv-x="569" 
d="M111 -254l-1 7l3 2c16 -8 38 -12 56 -12c138 0 261 241 313 337c0 4 -2 6 -6 2c-25 -21 -113 -95 -217 -95c-97 0 -148 44 -148 114c0 55 60 240 238 314c53 21 108 28 152 28s113 -10 136 -40c-5 -23 -19 -60 -29 -84l-7 -2l-1 3c2 8 4 16 4 25c0 49 -60 87 -132 87
c-68 0 -127 -31 -175 -79c-58 -57 -143 -189 -143 -276c0 -53 37 -82 105 -82c118 0 241 109 270 189c5 13 7 20 -8 20c-23 -1 -54 -4 -90 -7l-3 1l3 11c54 0 134 4 181 16c3 -2 2 -6 0 -9c-21 -5 -26 -11 -35 -29c-50 -99 -136 -268 -199 -340c-28 -32 -96 -111 -209 -111
c-19 0 -37 2 -58 10zM585 545c0 -4 -4 -7 -8 -13c-23 -29 -51 -42 -75 -42c-28 0 -49 18 -49 50c0 9 10 14 18 14c3 0 4 -1 4 -6c0 -25 12 -44 39 -44c19 0 41 12 55 35c4 6 8 12 11 12c2 0 5 -4 5 -6z" />
    <glyph glyph-name="Gdotaccent" unicode="&#x120;" horiz-adv-x="569" 
d="M111 -254l-1 7l3 2c16 -8 38 -12 56 -12c138 0 261 241 313 337c0 4 -2 6 -6 2c-25 -21 -113 -95 -217 -95c-97 0 -148 44 -148 114c0 55 60 240 238 314c53 21 108 28 152 28s113 -10 136 -40c-5 -23 -19 -60 -29 -84l-7 -2l-1 3c2 8 4 16 4 25c0 49 -60 87 -132 87
c-68 0 -127 -31 -175 -79c-58 -57 -143 -189 -143 -276c0 -53 37 -82 105 -82c118 0 241 109 270 189c5 13 7 20 -8 20c-23 -1 -54 -4 -90 -7l-3 1l3 11c54 0 134 4 181 16c3 -2 2 -6 0 -9c-21 -5 -26 -11 -35 -29c-50 -99 -136 -268 -199 -340c-28 -32 -96 -111 -209 -111
c-19 0 -37 2 -58 10zM526 534c0 -15 -16 -30 -31 -30c-11 0 -16 7 -16 18c0 15 11 28 28 28c11 0 19 -3 19 -16z" />
    <glyph glyph-name="Gcommaaccent" unicode="&#x122;" horiz-adv-x="569" 
d="M482 479c-6 0 -17 13 -17 35c0 26 10 47 29 68s37 37 57 48c2 1 3 1 4 1c2 -1 3 -3 3 -6c-27 -17 -62 -49 -62 -86c0 -22 12 -30 12 -36c0 -3 -7 -9 -15 -16c-7 -6 -9 -8 -11 -8zM111 -254l-1 7l3 2c16 -8 38 -12 56 -12c138 0 261 241 313 337c0 4 -2 6 -6 2
c-25 -21 -113 -95 -217 -95c-97 0 -148 44 -148 114c0 55 60 240 238 314c53 21 108 28 152 28s113 -10 136 -40c-5 -23 -19 -60 -29 -84l-7 -2l-1 3c2 8 4 16 4 25c0 49 -60 87 -132 87c-68 0 -127 -31 -175 -79c-58 -57 -143 -189 -143 -276c0 -53 37 -82 105 -82
c118 0 241 109 270 189c5 13 7 20 -8 20c-23 -1 -54 -4 -90 -7l-3 1l3 11c54 0 134 4 181 16c3 -2 2 -6 0 -9c-21 -5 -26 -11 -35 -29c-50 -99 -136 -268 -199 -340c-28 -32 -96 -111 -209 -111c-19 0 -37 2 -58 10z" />
    <glyph glyph-name="Hcircumflex" unicode="&#x124;" horiz-adv-x="572" 
d="M62 -11l-3 2c16 25 47 67 141 214c-9 13 -13 20 -15 27c1 4 5 5 10 5h17c5 0 8 3 10 8c13 24 77 139 77 161c0 16 -8 18 -25 18c-15 0 -37 -1 -51 -3c-4 0 -6 3 -6 6s3 6 8 6c33 0 98 4 141 8c5 0 8 -4 3 -13c-13 -18 -30 -45 -43 -67c-20 -35 -47 -83 -65 -119
c-4 -7 -6 -11 2 -11c30 -1 57 -2 78 -2c24 0 126 5 160 9c7 1 12 6 15 11c40 77 73 140 109 198c3 4 9 9 13 11c27 15 118 53 141 53c3 0 12 -1 12 -5c0 -3 -7 -4 -10 -4c-9 0 -51 -8 -75 -29c-15 -12 -32 -30 -45 -48c-38 -53 -81 -127 -108 -183
c-48 -100 -68 -160 -68 -188c0 -26 14 -39 40 -39c19 0 51 11 67 22c4 0 6 -4 1 -9c-26 -12 -67 -29 -127 -32c-23 1 -33 16 -33 37c0 11 2 23 6 36c13 38 32 81 46 111c2 4 4 11 4 17c0 19 -25 24 -44 24c-63 0 -150 -7 -196 -14c-8 -1 -13 -7 -18 -15
c-31 -53 -72 -117 -96 -176c-3 -8 -4 -10 -14 -10c-25 0 -33 -2 -59 -17zM566 495c0 -9 0 -12 -4 -15s-12 -12 -16 -12c-2 0 -3 2 -3 7c0 27 -2 63 -3 90c0 4 -2 6 -4 6c-1 0 -3 -1 -5 -3c-25 -22 -55 -53 -77 -78c-6 -7 -10 -11 -13 -11c-2 0 -4 3 -4 5c0 4 3 8 9 13
c23 20 52 48 74 70c10 10 21 21 32 28c2 1 4 2 5 2c2 0 4 -2 4 -5c1 -37 5 -74 5 -97z" />
    <glyph glyph-name="Hbar" unicode="&#x126;" horiz-adv-x="572" 
d="M62 -11l-3 2c16 25 42 59 136 206c-9 13 -13 20 -15 27c1 4 5 5 10 5h17c5 0 8 3 10 8c5 10 20 36 36 66c0 4 -5 7 -15 8c-9 2 -14 4 -14 7c0 5 3 7 9 7h28c2 0 4 1 7 7c17 33 31 64 31 74c0 16 -8 18 -25 18c-15 0 -37 -1 -51 -3c-4 0 -6 3 -6 6s3 6 8 6
c33 0 98 4 141 8c5 0 8 -4 3 -13c-13 -18 -30 -45 -43 -67c-7 -11 -14 -24 -22 -38l36 -1c50 1 128 4 218 8c23 43 45 82 67 117c3 4 9 9 13 11c27 15 118 53 141 53c3 0 12 -1 12 -5c0 -3 -7 -4 -10 -4c-9 0 -51 -8 -75 -29c-15 -12 -32 -30 -45 -48
c-19 -26 -39 -59 -59 -92c8 1 18 2 25 3c8 0 7 -8 1 -10c-10 -1 -22 -2 -32 -3c-18 -31 -36 -63 -48 -89c-48 -100 -63 -152 -63 -180c0 -26 14 -39 40 -39c19 0 51 11 67 22c4 0 6 -4 1 -9c-26 -12 -67 -29 -127 -32c-23 1 -33 16 -33 37c0 38 31 97 47 139c2 4 4 11 4 17
c0 19 -25 24 -44 24c-63 0 -150 -7 -196 -14c-8 -1 -13 -7 -18 -15c-31 -53 -67 -109 -91 -168c-3 -8 -4 -10 -14 -10c-25 0 -33 -2 -59 -17zM553 320c-59 -3 -168 -8 -259 -14c-14 -26 -28 -52 -38 -72c-4 -7 -6 -11 2 -11c30 -1 57 -2 78 -2c24 0 126 5 160 9
c7 1 12 6 15 11c14 27 28 54 42 79z" />
    <glyph glyph-name="Igrave" unicode="&#xcc;" horiz-adv-x="245" 
d="M36 3c10 1 22 9 28 17c49 60 207 305 233 384c1 3 2 7 2 11c0 9 -10 11 -27 11c-16 0 -38 -1 -55 -5l-3 1c1 5 3 9 6 12c56 2 114 6 152 12c3 -2 5 -5 5 -8c0 -2 -2 -3 -6 -4c-10 -3 -16 -13 -23 -25c-55 -103 -148 -267 -226 -384c-10 -14 -25 -23 -37 -25
c-15 -2 -34 -3 -47 -2c-2 1 -2 3 -2 5zM348 489c0 -3 -3 -4 -5 -1c-17 31 -36 67 -49 93c-2 4 -3 8 -3 11c0 5 8 15 10 15s3 -1 4 -4c11 -28 35 -82 43 -114z" />
    <glyph glyph-name="Iacute" unicode="&#xcd;" horiz-adv-x="245" 
d="M36 3c10 1 22 9 28 17c49 60 207 305 233 384c1 3 2 7 2 11c0 9 -10 11 -27 11c-16 0 -38 -1 -55 -5l-3 1c1 5 3 9 6 12c56 2 114 6 152 12c3 -2 5 -5 5 -8c0 -2 -2 -3 -6 -4c-10 -3 -16 -13 -23 -25c-55 -103 -148 -267 -226 -384c-10 -14 -25 -23 -37 -25
c-15 -2 -34 -3 -47 -2c-2 1 -2 3 -2 5zM473 603c0 -2 -1 -3 -3 -5c-47 -36 -105 -78 -160 -115c-6 -4 -9 0 -6 2c49 40 106 86 156 126c2 1 4 2 5 2c3 0 8 -6 8 -10z" />
    <glyph glyph-name="Icircumflex" unicode="&#xce;" horiz-adv-x="245" 
d="M36 3c10 1 22 9 28 17c49 60 207 305 233 384c1 3 2 7 2 11c0 9 -10 11 -27 11c-16 0 -38 -1 -55 -5l-3 1c1 5 3 9 6 12c56 2 114 6 152 12c3 -2 5 -5 5 -8c0 -2 -2 -3 -6 -4c-10 -3 -16 -13 -23 -25c-55 -103 -148 -267 -226 -384c-10 -14 -25 -23 -37 -25
c-15 -2 -34 -3 -47 -2c-2 1 -2 3 -2 5zM416 505c0 -9 0 -12 -4 -15s-12 -12 -16 -12c-2 0 -3 2 -3 7c0 27 -2 63 -3 90c0 4 -2 6 -4 6c-1 0 -3 -1 -5 -3c-25 -22 -55 -53 -77 -78c-6 -7 -10 -11 -13 -11c-2 0 -4 3 -4 5c0 4 3 8 9 13c23 20 52 48 74 70c10 10 21 21 32 28
c2 1 4 2 5 2c2 0 4 -2 4 -5c1 -37 5 -74 5 -97z" />
    <glyph glyph-name="Itilde" unicode="&#x128;" horiz-adv-x="245" 
d="M36 3c10 1 22 9 28 17c49 60 207 305 233 384c1 3 2 7 2 11c0 9 -10 11 -27 11c-16 0 -38 -1 -55 -5l-3 1c1 5 3 9 6 12c56 2 114 6 152 12c3 -2 5 -5 5 -8c0 -2 -2 -3 -6 -4c-10 -3 -16 -13 -23 -25c-55 -103 -148 -267 -226 -384c-10 -14 -25 -23 -37 -25
c-15 -2 -34 -3 -47 -2c-2 1 -2 3 -2 5zM446 557c-4 -30 -29 -62 -60 -62c-38 0 -61 55 -90 55c-21 0 -47 -31 -58 -46c-6 -9 -15 -6 -6 6c11 14 33 36 52 50c9 7 18 10 26 10c30 0 53 -57 89 -57c23 0 38 23 38 44c0 6 9 13 9 0z" />
    <glyph glyph-name="Idieresis" unicode="&#xcf;" horiz-adv-x="245" 
d="M36 3c10 1 22 9 28 17c49 60 207 305 233 384c1 3 2 7 2 11c0 9 -10 11 -27 11c-16 0 -38 -1 -55 -5l-3 1c1 5 3 9 6 12c56 2 114 6 152 12c3 -2 5 -5 5 -8c0 -2 -2 -3 -6 -4c-10 -3 -16 -13 -23 -25c-55 -103 -148 -267 -226 -384c-10 -14 -25 -23 -37 -25
c-15 -2 -34 -3 -47 -2c-2 1 -2 3 -2 5zM427 548c0 -16 -17 -36 -34 -36c-9 0 -12 4 -12 12c0 17 15 37 33 37c8 0 13 -5 13 -13zM355 554c0 -16 -17 -36 -34 -36c-9 0 -12 4 -12 12c0 17 15 37 33 37c8 0 13 -5 13 -13z" />
    <glyph glyph-name="Imacron" unicode="&#x12a;" horiz-adv-x="245" 
d="M36 3c10 1 22 9 28 17c49 60 207 305 233 384c1 3 2 7 2 11c0 9 -10 11 -27 11c-16 0 -38 -1 -55 -5l-3 1c1 5 3 9 6 12c56 2 114 6 152 12c3 -2 5 -5 5 -8c0 -2 -2 -3 -6 -4c-10 -3 -16 -13 -23 -25c-55 -103 -148 -267 -226 -384c-10 -14 -25 -23 -37 -25
c-15 -2 -34 -3 -47 -2c-2 1 -2 3 -2 5zM404 535l-3 -15l-88 -2l5 15z" />
    <glyph glyph-name="Idotaccent" unicode="&#x130;" horiz-adv-x="245" 
d="M36 3c10 1 22 9 28 17c49 60 207 305 233 384c1 3 2 7 2 11c0 9 -10 11 -27 11c-16 0 -38 -1 -55 -5l-3 1c1 5 3 9 6 12c56 2 114 6 152 12c3 -2 5 -5 5 -8c0 -2 -2 -3 -6 -4c-10 -3 -16 -13 -23 -25c-55 -103 -148 -267 -226 -384c-10 -14 -25 -23 -37 -25
c-15 -2 -34 -3 -47 -2c-2 1 -2 3 -2 5zM393 534c0 -15 -16 -30 -31 -30c-11 0 -16 7 -16 18c0 15 11 28 28 28c11 0 19 -3 19 -16z" />
    <glyph glyph-name="Iogonek" unicode="&#x12e;" horiz-adv-x="245" 
d="M36 3c10 1 22 9 28 17c49 60 207 305 233 384c1 3 2 7 2 11c0 9 -10 11 -27 11c-16 0 -38 -1 -55 -5l-3 1c1 5 3 9 6 12c56 2 114 6 152 12c3 -2 5 -5 5 -8c0 -2 -2 -3 -6 -4c-10 -3 -16 -13 -23 -25c-55 -103 -148 -267 -226 -384c-10 -14 -25 -23 -37 -25
c-15 -2 -34 -3 -47 -2c-2 1 -2 3 -2 5zM109 10c0 -1 -1 -2 -4 -3c-41 -15 -70 -44 -70 -68c0 -18 16 -30 34 -30c4 0 8 2 12 2s2 -5 -2 -6c-10 -3 -18 -5 -33 -5c-26 0 -43 12 -43 29c0 10 6 22 20 35c21 19 73 48 83 48c2 0 3 -1 3 -2z" />
    <glyph glyph-name="Jcircumflex" unicode="&#x134;" horiz-adv-x="325" 
d="M508 445c3 -1 4 -3 4 -5s-1 -4 -4 -4c-8 1 -14 1 -18 1c-11 0 -16 -1 -23 -9c-28 -36 -61 -102 -92 -159c-31 -55 -61 -109 -93 -159c-21 -35 -55 -79 -81 -104c-60 -56 -130 -114 -241 -114c-29 0 -55 4 -77 13c-7 3 -10 5 -9 14c0 9 1 28 2 46l7 2c5 -35 32 -63 95 -63
c55 0 100 16 152 68c47 46 94 117 144 202c46 77 105 186 134 251c1 3 3 10 -5 10c-56 0 -134 -14 -178 -38c-22 -12 -44 -39 -44 -70c0 -6 1 -11 2 -14c1 -2 -1 -3 -2 -3c-6 4 -16 15 -16 40c0 21 18 53 74 71c39 12 101 24 269 24zM444 515c0 -9 0 -12 -4 -15
s-12 -12 -16 -12c-2 0 -3 2 -3 7c0 27 -2 63 -3 90c0 4 -2 6 -4 6c-1 0 -3 -1 -5 -3c-25 -22 -55 -53 -77 -78c-6 -7 -10 -11 -13 -11c-2 0 -4 3 -4 5c0 4 3 8 9 13c23 20 52 48 74 70c10 10 21 21 32 28c2 1 4 2 5 2c2 0 4 -2 4 -5c1 -37 5 -74 5 -97z" />
    <glyph glyph-name="Kcommaaccent" unicode="&#x136;" horiz-adv-x="502" 
d="M60 -20c-3 0 -6 1 -6 3c20 24 50 66 83 119c61 99 131 224 178 322c0 1 1 2 1 3c0 2 -2 3 -5 3c-36 0 -76 -6 -106 -6c-8 0 -11 1 -11 6c0 3 12 26 17 26c0 -5 3 -9 10 -11c11 -3 36 -5 52 -6c7 0 16 -1 26 -1c41 0 72 1 125 5c1 -2 2 -6 -1 -9c-6 0 -27 -1 -39 -2
c-5 0 -9 -3 -12 -8c-34 -54 -73 -119 -122 -201c-5 -9 -1 -11 6 -6c69 41 139 85 194 122c27 17 156 106 166 109h4c6 -4 16 -7 25 -9c1 -2 0 -4 -1 -5c-18 -6 -71 -32 -217 -123c-40 -25 -86 -54 -128 -85c-3 -2 -4 -4 -4 -6c55 -73 123 -164 236 -269
c83 -76 129 -99 200 -99c54 0 110 16 142 38c5 3 8 1 8 -2c0 -2 -1 -3 -4 -5c-37 -24 -102 -41 -165 -41c-80 0 -183 31 -300 162c-54 61 -115 134 -164 200c-4 6 -5 6 -11 -3c-38 -63 -69 -121 -101 -178c-5 -8 -9 -20 -10 -25c-7 1 -15 2 -20 2c-18 0 -38 -12 -46 -20z
M269 -78c0 -46 -51 -91 -86 -112c-6 -2 -10 3 -5 7c30 18 60 50 60 84c0 22 -12 28 -12 36c0 3 3 6 10 12c6 5 13 12 16 12c8 0 17 -16 17 -39z" />
    <glyph glyph-name="Lacute" unicode="&#x139;" horiz-adv-x="440" 
d="M448 436c-8 2 -18 4 -32 4c-25 0 -36 -19 -50 -38c-17 -24 -37 -55 -52 -81c-27 -46 -74 -130 -112 -195c-32 -53 -64 -80 -100 -100c-8 -4 -11 -9 1 -9c75 7 222 18 253 18c13 0 50 -1 60 -3c11 -3 16 -6 16 -14c0 -6 -8 -32 -13 -42c-2 0 -2 1 -2 4c0 6 -1 14 -9 17
c-41 15 -104 16 -148 16c-155 0 -204 -11 -238 -21c-5 1 -10 7 -10 11c0 5 2 6 8 6c24 0 43 2 56 10c21 13 38 34 66 80c57 92 128 235 180 321c3 6 10 10 16 12c28 11 76 18 109 18c6 -3 5 -12 1 -14zM547 593c0 -2 -1 -3 -3 -5c-47 -36 -105 -78 -160 -115
c-6 -4 -9 0 -6 2c49 40 106 86 156 126c2 1 4 2 5 2c3 0 8 -6 8 -10z" />
    <glyph glyph-name="Lcaron" unicode="&#x13d;" horiz-adv-x="440" 
d="M448 436c-8 2 -18 4 -32 4c-25 0 -36 -19 -50 -38c-17 -24 -37 -55 -52 -81c-27 -46 -74 -130 -112 -195c-32 -53 -64 -80 -100 -100c-8 -4 -11 -9 1 -9c75 7 222 18 253 18c13 0 50 -1 60 -3c11 -3 16 -6 16 -14c0 -6 -8 -32 -13 -42c-2 0 -2 1 -2 4c0 6 -1 14 -9 17
c-41 15 -104 16 -148 16c-155 0 -204 -11 -238 -21c-5 1 -10 7 -10 11c0 5 2 6 8 6c24 0 43 2 56 10c21 13 38 34 66 80c57 92 128 235 180 321c3 6 10 10 16 12c28 11 76 18 109 18c6 -3 5 -12 1 -14zM436 370c0 -46 -51 -91 -86 -112c-6 -2 -10 3 -5 7c30 18 60 50 60 84
c0 22 -12 28 -12 36c0 3 3 6 10 12c6 5 13 12 16 12c8 0 17 -16 17 -39z" />
    <glyph glyph-name="Lcommaaccent" unicode="&#x13b;" horiz-adv-x="440" 
d="M448 436c-8 2 -18 4 -32 4c-25 0 -36 -19 -50 -38c-17 -24 -37 -55 -52 -81c-27 -46 -74 -130 -112 -195c-32 -53 -64 -80 -100 -100c-8 -4 -11 -9 1 -9c75 7 222 18 253 18c13 0 50 -1 60 -3c11 -3 16 -6 16 -14c0 -6 -8 -32 -13 -42c-2 0 -2 1 -2 4c0 6 -1 14 -9 17
c-41 15 -104 16 -148 16c-155 0 -204 -11 -238 -21c-5 1 -10 7 -10 11c0 5 2 6 8 6c24 0 43 2 56 10c21 13 38 34 66 80c57 92 128 235 180 321c3 6 10 10 16 12c28 11 76 18 109 18c6 -3 5 -12 1 -14zM263 -78c0 -46 -51 -91 -86 -112c-6 -2 -10 3 -5 7c30 18 60 50 60 84
c0 22 -12 28 -12 36c0 3 3 6 10 12c6 5 13 12 16 12c8 0 17 -16 17 -39z" />
    <glyph glyph-name="Lslash" unicode="&#x141;" horiz-adv-x="440" 
d="M448 436c-8 2 -18 4 -32 4c-25 0 -36 -19 -50 -38c-17 -24 -37 -55 -52 -81c-14 -24 -34 -58 -54 -94c33 9 76 21 123 34c9 0 10 -16 6 -16c-1 0 -2 0 -4 1c-1 1 -48 -12 -134 -35c-17 -29 -34 -59 -49 -85c-32 -53 -64 -80 -100 -100c-8 -4 -11 -9 1 -9
c75 7 222 18 253 18c13 0 50 -1 60 -3c11 -3 16 -6 16 -14c0 -6 -8 -32 -13 -42c-2 0 -2 1 -2 4c0 6 -1 14 -9 17c-41 15 -104 16 -148 16c-155 0 -204 -11 -238 -21c-5 1 -10 7 -10 11c0 5 2 6 8 6c24 0 43 2 56 10c21 13 38 34 66 80c17 28 37 62 56 97
c-38 -13 -61 -22 -60 -22c-9 0 -15 11 -15 14c1 1 2 2 3 2c11 0 25 5 79 22c40 74 83 152 117 208c3 6 10 10 16 12c28 11 76 18 109 18c6 -3 5 -12 1 -14z" />
    <glyph glyph-name="Ldot" unicode="&#x13f;" horiz-adv-x="440" 
d="M448 436c-8 2 -18 4 -32 4c-25 0 -36 -19 -50 -38c-17 -24 -37 -55 -52 -81c-27 -46 -74 -130 -112 -195c-32 -53 -64 -80 -100 -100c-8 -4 -11 -9 1 -9c75 7 222 18 253 18c13 0 50 -1 60 -3c11 -3 16 -6 16 -14c0 -6 -8 -32 -13 -42c-2 0 -2 1 -2 4c0 6 -1 14 -9 17
c-41 15 -104 16 -148 16c-155 0 -204 -11 -238 -21c-5 1 -10 7 -10 11c0 5 2 6 8 6c24 0 43 2 56 10c21 13 38 34 66 80c57 92 128 235 180 321c3 6 10 10 16 12c28 11 76 18 109 18c6 -3 5 -12 1 -14zM409 247c0 -15 -16 -30 -31 -30c-11 0 -16 7 -16 18c0 15 11 28 28 28
c11 0 19 -3 19 -16z" />
    <glyph glyph-name="Nacute" unicode="&#x143;" horiz-adv-x="549" 
d="M105 -15h-3c-5 4 -22 33 -22 44c0 13 11 32 20 47c16 28 45 77 101 170c31 51 62 108 74 139c2 5 4 12 4 17c0 14 -10 21 -24 21c-16 0 -39 -1 -53 -2c-5 0 -9 8 -9 14c0 3 1 4 3 4c13 -4 35 -6 53 -6c25 0 53 5 69 10c5 0 7 -3 8 -9c2 -11 8 -35 12 -50
c21 -79 73 -210 103 -295c3 -10 4 -18 11 -18c4 0 9 9 13 17c62 126 130 266 198 370c17 27 46 62 80 62c9 0 27 -10 31 -21c0 -2 -1 -2 -3 -2c-31 0 -64 -13 -109 -75c-63 -87 -127 -210 -179 -325c-15 -34 -31 -73 -45 -102c-2 -4 -4 -7 -6 -7c-3 0 -6 3 -9 7
c-31 111 -95 282 -123 352c-4 9 -7 13 -11 13s-8 -4 -13 -12c-67 -103 -112 -180 -150 -266c-10 -23 -21 -70 -21 -97zM642 593c0 -2 -1 -3 -3 -5c-47 -36 -105 -78 -160 -115c-6 -4 -9 0 -6 2c49 40 106 86 156 126c2 1 4 2 5 2c3 0 8 -6 8 -10z" />
    <glyph glyph-name="Ncaron" unicode="&#x147;" horiz-adv-x="549" 
d="M105 -15h-3c-5 4 -22 33 -22 44c0 13 11 32 20 47c16 28 45 77 101 170c31 51 62 108 74 139c2 5 4 12 4 17c0 14 -10 21 -24 21c-16 0 -39 -1 -53 -2c-5 0 -9 8 -9 14c0 3 1 4 3 4c13 -4 35 -6 53 -6c25 0 53 5 69 10c5 0 7 -3 8 -9c2 -11 8 -35 12 -50
c21 -79 73 -210 103 -295c3 -10 4 -18 11 -18c4 0 9 9 13 17c62 126 130 266 198 370c17 27 46 62 80 62c9 0 27 -10 31 -21c0 -2 -1 -2 -3 -2c-31 0 -64 -13 -109 -75c-63 -87 -127 -210 -179 -325c-15 -34 -31 -73 -45 -102c-2 -4 -4 -7 -6 -7c-3 0 -6 3 -9 7
c-31 111 -95 282 -123 352c-4 9 -7 13 -11 13s-8 -4 -13 -12c-67 -103 -112 -180 -150 -266c-10 -23 -21 -70 -21 -97zM616 586c0 -4 -3 -8 -8 -12c-25 -21 -53 -48 -75 -70c-13 -13 -32 -29 -36 -29c-3 0 -5 2 -5 5c0 16 -7 79 -7 99c0 7 1 9 5 12c3 2 15 12 18 12
c2 0 3 -2 3 -7c0 -32 2 -79 2 -90c0 -4 2 -6 4 -6c1 0 3 1 5 3c25 21 57 55 76 78c5 7 10 12 13 12c2 0 5 -5 5 -7z" />
    <glyph glyph-name="Ntilde" unicode="&#xd1;" horiz-adv-x="549" 
d="M105 -15h-3c-5 4 -22 33 -22 44c0 13 11 32 20 47c16 28 45 77 101 170c31 51 62 108 74 139c2 5 4 12 4 17c0 14 -10 21 -24 21c-16 0 -39 -1 -53 -2c-5 0 -9 8 -9 14c0 3 1 4 3 4c13 -4 35 -6 53 -6c25 0 53 5 69 10c5 0 7 -3 8 -9c2 -11 8 -35 12 -50
c21 -79 73 -210 103 -295c3 -10 4 -18 11 -18c4 0 9 9 13 17c62 126 130 266 198 370c17 27 46 62 80 62c9 0 27 -10 31 -21c0 -2 -1 -2 -3 -2c-31 0 -64 -13 -109 -75c-63 -87 -127 -210 -179 -325c-15 -34 -31 -73 -45 -102c-2 -4 -4 -7 -6 -7c-3 0 -6 3 -9 7
c-31 111 -95 282 -123 352c-4 9 -7 13 -11 13s-8 -4 -13 -12c-67 -103 -112 -180 -150 -266c-10 -23 -21 -70 -21 -97zM610 557c-4 -30 -29 -62 -60 -62c-38 0 -61 55 -90 55c-21 0 -47 -31 -58 -46c-6 -9 -15 -6 -6 6c11 14 33 36 52 50c9 7 18 10 26 10
c30 0 53 -57 89 -57c23 0 38 23 38 44c0 6 9 13 9 0z" />
    <glyph glyph-name="Ncommaaccent" unicode="&#x145;" horiz-adv-x="549" 
d="M105 -15h-3c-5 4 -22 33 -22 44c0 13 11 32 20 47c16 28 45 77 101 170c31 51 62 108 74 139c2 5 4 12 4 17c0 14 -10 21 -24 21c-16 0 -39 -1 -53 -2c-5 0 -9 8 -9 14c0 3 1 4 3 4c13 -4 35 -6 53 -6c25 0 53 5 69 10c5 0 7 -3 8 -9c2 -11 8 -35 12 -50
c21 -79 73 -210 103 -295c3 -10 4 -18 11 -18c4 0 9 9 13 17c62 126 130 266 198 370c17 27 46 62 80 62c9 0 27 -10 31 -21c0 -2 -1 -2 -3 -2c-31 0 -64 -13 -109 -75c-63 -87 -127 -210 -179 -325c-15 -34 -31 -73 -45 -102c-2 -4 -4 -7 -6 -7c-3 0 -6 3 -9 7
c-31 111 -95 282 -123 352c-4 9 -7 13 -11 13s-8 -4 -13 -12c-67 -103 -112 -180 -150 -266c-10 -23 -21 -70 -21 -97zM279 -78c0 -46 -51 -91 -86 -112c-6 -2 -10 3 -5 7c30 18 60 50 60 84c0 22 -12 28 -12 36c0 3 3 6 10 12c6 5 13 12 16 12c8 0 17 -16 17 -39z" />
    <glyph glyph-name="Ograve" unicode="&#xd2;" horiz-adv-x="589" 
d="M637 319c-3 -166 -159 -328 -333 -328c-103 0 -184 28 -184 130c0 85 67 197 127 251c57 52 132 75 208 75c82 0 184 -27 182 -128zM587 326c0 82 -55 114 -131 114c-70 0 -125 -28 -172 -81c-51 -57 -116 -167 -116 -248c0 -85 54 -111 128 -111c156 0 291 183 291 326z
M488 499c0 -3 -3 -4 -5 -1c-17 31 -36 67 -49 93c-2 4 -3 8 -3 11c0 5 8 15 10 15s3 -1 4 -4c11 -28 35 -82 43 -114z" />
    <glyph glyph-name="Oacute" unicode="&#xd3;" horiz-adv-x="589" 
d="M637 319c-3 -166 -159 -328 -333 -328c-103 0 -184 28 -184 130c0 85 67 197 127 251c57 52 132 75 208 75c82 0 184 -27 182 -128zM587 326c0 82 -55 114 -131 114c-70 0 -125 -28 -172 -81c-51 -57 -116 -167 -116 -248c0 -85 54 -111 128 -111c156 0 291 183 291 326z
M620 613c0 -2 -1 -3 -3 -5c-47 -36 -105 -78 -160 -115c-6 -4 -9 0 -6 2c49 40 106 86 156 126c2 1 4 2 5 2c3 0 8 -6 8 -10z" />
    <glyph glyph-name="Ocircumflex" unicode="&#xd4;" horiz-adv-x="589" 
d="M637 319c-3 -166 -159 -328 -333 -328c-103 0 -184 28 -184 130c0 85 67 197 127 251c57 52 132 75 208 75c82 0 184 -27 182 -128zM587 326c0 82 -55 114 -131 114c-70 0 -125 -28 -172 -81c-51 -57 -116 -167 -116 -248c0 -85 54 -111 128 -111c156 0 291 183 291 326z
M567 515c0 -9 0 -12 -4 -15s-12 -12 -16 -12c-2 0 -3 2 -3 7c0 27 -2 63 -3 90c0 4 -2 6 -4 6c-1 0 -3 -1 -5 -3c-25 -22 -55 -53 -77 -78c-6 -7 -10 -11 -13 -11c-2 0 -4 3 -4 5c0 4 3 8 9 13c23 20 52 48 74 70c10 10 21 21 32 28c2 1 4 2 5 2c2 0 4 -2 4 -5
c1 -37 5 -74 5 -97z" />
    <glyph glyph-name="Otilde" unicode="&#xd5;" horiz-adv-x="589" 
d="M637 319c-3 -166 -159 -328 -333 -328c-103 0 -184 28 -184 130c0 85 67 197 127 251c57 52 132 75 208 75c82 0 184 -27 182 -128zM587 326c0 82 -55 114 -131 114c-70 0 -125 -28 -172 -81c-51 -57 -116 -167 -116 -248c0 -85 54 -111 128 -111c156 0 291 183 291 326z
M616 557c-4 -30 -29 -62 -60 -62c-38 0 -61 55 -90 55c-21 0 -47 -31 -58 -46c-6 -9 -15 -6 -6 6c11 14 33 36 52 50c9 7 18 10 26 10c30 0 53 -57 89 -57c23 0 38 23 38 44c0 6 9 13 9 0z" />
    <glyph glyph-name="Odieresis" unicode="&#xd6;" horiz-adv-x="589" 
d="M637 319c-3 -166 -159 -328 -333 -328c-103 0 -184 28 -184 130c0 85 67 197 127 251c57 52 132 75 208 75c82 0 184 -27 182 -128zM587 326c0 82 -55 114 -131 114c-70 0 -125 -28 -172 -81c-51 -57 -116 -167 -116 -248c0 -85 54 -111 128 -111c156 0 291 183 291 326z
M577 548c0 -16 -17 -36 -34 -36c-9 0 -12 4 -12 12c0 17 15 37 33 37c8 0 13 -5 13 -13zM505 554c0 -16 -17 -36 -34 -36c-9 0 -12 4 -12 12c0 17 15 37 33 37c8 0 13 -5 13 -13z" />
    <glyph glyph-name="Omacron" unicode="&#x14c;" horiz-adv-x="589" 
d="M637 319c-3 -166 -159 -328 -333 -328c-103 0 -184 28 -184 130c0 85 67 197 127 251c57 52 132 75 208 75c82 0 184 -27 182 -128zM587 326c0 82 -55 114 -131 114c-70 0 -125 -28 -172 -81c-51 -57 -116 -167 -116 -248c0 -85 54 -111 128 -111c156 0 291 183 291 326z
M539 535l-3 -15l-88 -2l5 15z" />
    <glyph glyph-name="Obreve" unicode="&#x14e;" horiz-adv-x="589" 
d="M637 319c-3 -166 -159 -328 -333 -328c-103 0 -184 28 -184 130c0 85 67 197 127 251c57 52 132 75 208 75c82 0 184 -27 182 -128zM587 326c0 82 -55 114 -131 114c-70 0 -125 -28 -172 -81c-51 -57 -116 -167 -116 -248c0 -85 54 -111 128 -111c156 0 291 183 291 326z
M585 565c0 -4 -4 -7 -8 -13c-23 -29 -51 -42 -75 -42c-28 0 -49 18 -49 50c0 9 10 14 18 14c3 0 4 -1 4 -6c0 -25 12 -44 39 -44c19 0 41 12 55 35c4 6 8 12 11 12c2 0 5 -4 5 -6z" />
    <glyph glyph-name="Ohungarumlaut" unicode="&#x150;" horiz-adv-x="589" 
d="M637 319c-3 -166 -159 -328 -333 -328c-103 0 -184 28 -184 130c0 85 67 197 127 251c57 52 132 75 208 75c82 0 184 -27 182 -128zM587 326c0 82 -55 114 -131 114c-70 0 -125 -28 -172 -81c-51 -57 -116 -167 -116 -248c0 -85 54 -111 128 -111c156 0 291 183 291 326z
M621 586c0 -4 -2 -6 -6 -11c-20 -21 -48 -50 -74 -73c-6 -5 -4 2 -3 3c11 18 47 64 68 92c2 2 4 3 6 3c7 0 9 -8 9 -14zM560 588c0 -5 -2 -8 -7 -13c-20 -21 -49 -50 -74 -75c-3 -3 -6 0 -3 3c21 34 48 64 72 96c1 2 3 3 5 3c6 0 7 -10 7 -14z" />
    <glyph glyph-name="Oslash" unicode="&#xd8;" horiz-adv-x="589" 
d="M171 20c-14 -14 -28 -27 -42 -41c-17 -17 -34 -6 -10 15l39 34c-24 20 -38 50 -38 93c0 85 67 197 127 251c57 52 132 75 208 75c42 0 89 -7 125 -27l41 40c12 11 33 11 13 -9l-42 -39c28 -20 46 -50 45 -93c-3 -166 -159 -328 -333 -328c-52 0 -99 7 -133 29zM189 38
c22 -28 60 -38 107 -38c156 0 291 183 291 326c0 27 -6 48 -17 65c-158 -142 -267 -242 -381 -353zM182 50c108 100 225 207 380 352c-23 27 -61 38 -106 38c-70 0 -125 -28 -172 -81c-51 -57 -116 -167 -116 -248c0 -25 5 -46 14 -61z" />
    <glyph glyph-name="OE" unicode="&#x152;" horiz-adv-x="842" 
d="M612 236c19 -2 47 -2 67 -2c45 0 116 4 144 10c4 1 6 -1 5 -4c-3 -4 -6 -12 -7 -16s-3 -4 -8 -4h-1c-34 1 -76 2 -117 2c-30 0 -60 0 -84 -1c-5 0 -9 -2 -11 -6c-8 -13 -71 -130 -71 -169c0 -30 20 -45 67 -45c55 0 127 13 179 27c29 8 70 24 93 39c3 1 14 3 5 -6
c-8 -7 -16 -16 -21 -24c-5 -10 -15 -15 -29 -18c-67 -15 -142 -25 -210 -28c-91 0 -141 3 -141 37c0 12 5 26 17 48c-59 -57 -129 -91 -206 -91c-103 0 -163 28 -163 131c0 98 122 328 323 328c137 0 164 -60 164 -128c0 -7 0 -13 -1 -20c22 44 54 101 59 119c1 3 1 9 -2 13
c0 3 3 5 10 5c67 1 151 5 214 5c13 0 24 -1 24 -5c0 -2 -1 -5 -3 -8c-4 -5 -7 -12 -10 -19c-2 -5 -6 -7 -9 1c-1 3 -5 6 -9 7c-41 7 -111 9 -158 9c-38 -55 -79 -130 -110 -187zM570 311c0 57 -11 126 -128 126c-153 0 -271 -231 -271 -335c0 -61 37 -105 124 -105
c85 0 204 59 259 220c10 30 16 63 16 94z" />
    <glyph glyph-name="Racute" unicode="&#x154;" horiz-adv-x="512" 
d="M155 328c-2 -1 -6 0 -6 2c4 11 9 28 11 40c0 7 5 13 12 17c34 19 81 36 123 45c39 8 82 12 123 12c105 0 166 -21 166 -80s-80 -131 -201 -143c-7 -1 -8 -3 -6 -8c25 -46 72 -121 128 -199c59 -80 148 -155 253 -155c40 0 81 11 119 31c3 2 6 2 6 -2c0 -2 -1 -4 -4 -5
c-42 -22 -89 -38 -142 -38c-151 0 -222 58 -315 201c-26 42 -80 135 -104 175c0 3 1 4 3 4c119 0 206 43 206 134c0 33 -22 74 -99 74c-13 0 -27 -3 -36 -13c-45 -52 -208 -340 -243 -418c-1 -2 -2 -2 -4 -2c-6 1 -14 2 -20 2c-7 0 -16 0 -27 -2c-7 -4 -15 -10 -23 -19
c-2 0 -7 2 -5 4c123 179 202 315 264 431c4 10 1 12 -5 12c-40 -2 -81 -17 -116 -36c-23 -13 -44 -38 -58 -64zM567 603c0 -2 -1 -3 -3 -5c-47 -36 -105 -78 -160 -115c-6 -4 -9 0 -6 2c49 40 106 86 156 126c2 1 4 2 5 2c3 0 8 -6 8 -10z" />
    <glyph glyph-name="Rcaron" unicode="&#x158;" horiz-adv-x="512" 
d="M155 328c-2 -1 -6 0 -6 2c4 11 9 28 11 40c0 7 5 13 12 17c34 19 81 36 123 45c39 8 82 12 123 12c105 0 166 -21 166 -80s-80 -131 -201 -143c-7 -1 -8 -3 -6 -8c25 -46 72 -121 128 -199c59 -80 148 -155 253 -155c40 0 81 11 119 31c3 2 6 2 6 -2c0 -2 -1 -4 -4 -5
c-42 -22 -89 -38 -142 -38c-151 0 -222 58 -315 201c-26 42 -80 135 -104 175c0 3 1 4 3 4c119 0 206 43 206 134c0 33 -22 74 -99 74c-13 0 -27 -3 -36 -13c-45 -52 -208 -340 -243 -418c-1 -2 -2 -2 -4 -2c-6 1 -14 2 -20 2c-7 0 -16 0 -27 -2c-7 -4 -15 -10 -23 -19
c-2 0 -7 2 -5 4c123 179 202 315 264 431c4 10 1 12 -5 12c-40 -2 -81 -17 -116 -36c-23 -13 -44 -38 -58 -64zM563 596c0 -4 -3 -8 -8 -12c-25 -21 -53 -48 -75 -70c-13 -13 -32 -29 -36 -29c-3 0 -5 2 -5 5c0 16 -7 79 -7 99c0 7 1 9 5 12c3 2 15 12 18 12c2 0 3 -2 3 -7
c0 -32 2 -79 2 -90c0 -4 2 -6 4 -6c1 0 3 1 5 3c25 21 57 55 76 78c5 7 10 12 13 12c2 0 5 -5 5 -7z" />
    <glyph glyph-name="Rcommaaccent" unicode="&#x156;" horiz-adv-x="512" 
d="M155 328c-2 -1 -6 0 -6 2c4 11 9 28 11 40c0 7 5 13 12 17c34 19 81 36 123 45c39 8 82 12 123 12c105 0 166 -21 166 -80s-80 -131 -201 -143c-7 -1 -8 -3 -6 -8c25 -46 72 -121 128 -199c59 -80 148 -155 253 -155c40 0 81 11 119 31c3 2 6 2 6 -2c0 -2 -1 -4 -4 -5
c-42 -22 -89 -38 -142 -38c-151 0 -222 58 -315 201c-26 42 -80 135 -104 175c0 3 1 4 3 4c119 0 206 43 206 134c0 33 -22 74 -99 74c-13 0 -27 -3 -36 -13c-45 -52 -208 -340 -243 -418c-1 -2 -2 -2 -4 -2c-6 1 -14 2 -20 2c-7 0 -16 0 -27 -2c-7 -4 -15 -10 -23 -19
c-2 0 -7 2 -5 4c123 179 202 315 264 431c4 10 1 12 -5 12c-40 -2 -81 -17 -116 -36c-23 -13 -44 -38 -58 -64zM296 -78c0 -46 -51 -91 -86 -112c-6 -2 -10 3 -5 7c30 18 60 50 60 84c0 22 -12 28 -12 36c0 3 3 6 10 12c6 5 13 12 16 12c8 0 17 -16 17 -39z" />
    <glyph glyph-name="Sacute" unicode="&#x15a;" horiz-adv-x="359" 
d="M443 420c-5 -13 -14 -39 -19 -54c-2 -1 -6 1 -7 3c2 4 3 10 3 15c0 25 -23 52 -75 52c-55 0 -104 -37 -104 -91c0 -47 23 -77 48 -106c38 -44 52 -62 52 -94c0 -109 -116 -152 -214 -152c-33 0 -69 5 -95 18c-7 4 -13 7 -14 11c5 23 14 57 20 77c0 2 2 2 3 2s3 -2 3 -6
c-2 -6 -3 -12 -3 -18c0 -38 41 -74 106 -74c58 0 148 26 148 113c0 32 -13 57 -48 96c-30 33 -43 57 -43 92c0 37 18 70 42 98c16 19 66 56 132 56c22 0 43 -5 60 -23c3 -4 5 -9 5 -15zM527 603c0 -2 -1 -3 -3 -5c-47 -36 -105 -78 -160 -115c-6 -4 -9 0 -6 2
c49 40 106 86 156 126c2 1 4 2 5 2c3 0 8 -6 8 -10z" />
    <glyph glyph-name="Scircumflex" unicode="&#x15c;" horiz-adv-x="359" 
d="M443 420c-5 -13 -14 -39 -19 -54c-2 -1 -6 1 -7 3c2 4 3 10 3 15c0 25 -23 52 -75 52c-55 0 -104 -37 -104 -91c0 -47 23 -77 48 -106c38 -44 52 -62 52 -94c0 -109 -116 -152 -214 -152c-33 0 -69 5 -95 18c-7 4 -13 7 -14 11c5 23 14 57 20 77c0 2 2 2 3 2s3 -2 3 -6
c-2 -6 -3 -12 -3 -18c0 -38 41 -74 106 -74c58 0 148 26 148 113c0 32 -13 57 -48 96c-30 33 -43 57 -43 92c0 37 18 70 42 98c16 19 66 56 132 56c22 0 43 -5 60 -23c3 -4 5 -9 5 -15zM458 525c0 -9 0 -12 -4 -15s-12 -12 -16 -12c-2 0 -3 2 -3 7c0 27 -2 63 -3 90
c0 4 -2 6 -4 6c-1 0 -3 -1 -5 -3c-25 -22 -55 -53 -77 -78c-6 -7 -10 -11 -13 -11c-2 0 -4 3 -4 5c0 4 3 8 9 13c23 20 52 48 74 70c10 10 21 21 32 28c2 1 4 2 5 2c2 0 4 -2 4 -5c1 -37 5 -74 5 -97z" />
    <glyph glyph-name="Scaron" unicode="&#x160;" horiz-adv-x="359" 
d="M443 420c-5 -13 -14 -39 -19 -54c-2 -1 -6 1 -7 3c2 4 3 10 3 15c0 25 -23 52 -75 52c-55 0 -104 -37 -104 -91c0 -47 23 -77 48 -106c38 -44 52 -62 52 -94c0 -109 -116 -152 -214 -152c-33 0 -69 5 -95 18c-7 4 -13 7 -14 11c5 23 14 57 20 77c0 2 2 2 3 2s3 -2 3 -6
c-2 -6 -3 -12 -3 -18c0 -38 41 -74 106 -74c58 0 148 26 148 113c0 32 -13 57 -48 96c-30 33 -43 57 -43 92c0 37 18 70 42 98c16 19 66 56 132 56c22 0 43 -5 60 -23c3 -4 5 -9 5 -15zM490 606c0 -4 -3 -8 -8 -12c-25 -21 -53 -48 -75 -70c-13 -13 -32 -29 -36 -29
c-3 0 -5 2 -5 5c0 16 -7 79 -7 99c0 7 1 9 5 12c3 2 15 12 18 12c2 0 3 -2 3 -7c0 -32 2 -79 2 -90c0 -4 2 -6 4 -6c1 0 3 1 5 3c25 21 57 55 76 78c5 7 10 12 13 12c2 0 5 -5 5 -7z" />
    <glyph glyph-name="Scedilla" unicode="&#x15e;" horiz-adv-x="359" 
d="M443 420c-5 -13 -14 -39 -19 -54c-2 -1 -6 1 -7 3c2 4 3 10 3 15c0 25 -23 52 -75 52c-55 0 -104 -37 -104 -91c0 -47 23 -77 48 -106c38 -44 52 -62 52 -94c0 -109 -116 -152 -214 -152c-33 0 -69 5 -95 18c-7 4 -13 7 -14 11c5 23 14 57 20 77c0 2 2 2 3 2s3 -2 3 -6
c-2 -6 -3 -12 -3 -18c0 -38 41 -74 106 -74c58 0 148 26 148 113c0 32 -13 57 -48 96c-30 33 -43 57 -43 92c0 37 18 70 42 98c16 19 66 56 132 56c22 0 43 -5 60 -23c3 -4 5 -9 5 -15zM177 -3c-10 -3 -37 -16 -37 -28c0 -13 32 -13 32 -33c0 -7 -4 -14 -13 -21
c-20 -17 -52 -39 -74 -50c-2 -1 -5 -2 -7 -2s-8 3 -8 6c0 2 2 3 5 4c14 4 67 25 67 44c0 17 -32 18 -32 35c0 19 50 44 64 50c4 0 10 -1 3 -5z" />
    <glyph glyph-name="Scommaaccent" unicode="&#x218;" horiz-adv-x="359" 
d="M443 420c-5 -13 -14 -39 -19 -54c-2 -1 -6 1 -7 3c2 4 3 10 3 15c0 25 -23 52 -75 52c-55 0 -104 -37 -104 -91c0 -47 23 -77 48 -106c38 -44 52 -62 52 -94c0 -109 -116 -152 -214 -152c-33 0 -69 5 -95 18c-7 4 -13 7 -14 11c5 23 14 57 20 77c0 2 2 2 3 2s3 -2 3 -6
c-2 -6 -3 -12 -3 -18c0 -38 41 -74 106 -74c58 0 148 26 148 113c0 32 -13 57 -48 96c-30 33 -43 57 -43 92c0 37 18 70 42 98c16 19 66 56 132 56c22 0 43 -5 60 -23c3 -4 5 -9 5 -15zM159 -78c0 -46 -51 -91 -86 -112c-6 -2 -10 3 -5 7c30 18 60 50 60 84
c0 22 -12 28 -12 36c0 3 3 6 10 12c6 5 13 12 16 12c8 0 17 -16 17 -39z" />
    <glyph glyph-name="Tcaron" unicode="&#x164;" horiz-adv-x="398" 
d="M398 431h-33c-145 0 -214 -18 -271 -154c-2 -5 -7 -3 -9 5c23 71 64 143 125 155c33 6 77 4 118 4c39 0 77 -1 116 -1c77 0 130 5 171 27c20 11 45 33 45 58c0 4 -1 9 -2 11c0 2 1 4 3 4c6 -1 24 -36 24 -40c0 -47 -84 -65 -136 -67c-22 -1 -50 -1 -70 -2
c-10 0 -17 -4 -21 -10c-74 -112 -138 -224 -190 -318c-12 -22 -20 -42 -21 -58c0 -21 8 -41 67 -41c7 0 18 0 24 1c2 -3 0 -6 -3 -8c-23 -2 -53 -3 -77 -3c-40 0 -76 1 -76 35c0 11 6 24 15 39c72 117 149 248 206 354c3 6 3 9 -5 9zM583 596c0 -4 -3 -8 -8 -12
c-25 -21 -53 -48 -75 -70c-13 -13 -32 -29 -36 -29c-3 0 -5 2 -5 5c0 16 -7 79 -7 99c0 7 1 9 5 12c3 2 15 12 18 12c2 0 3 -2 3 -7c0 -32 2 -79 2 -90c0 -4 2 -6 4 -6c1 0 3 1 5 3c25 21 57 55 76 78c5 7 10 12 13 12c2 0 5 -5 5 -7z" />
    <glyph glyph-name="Tcommaaccent" unicode="&#x162;" horiz-adv-x="398" 
d="M398 431h-33c-145 0 -214 -18 -271 -154c-2 -5 -7 -3 -9 5c23 71 64 143 125 155c33 6 77 4 118 4c39 0 77 -1 116 -1c77 0 130 5 171 27c20 11 45 33 45 58c0 4 -1 9 -2 11c0 2 1 4 3 4c6 -1 24 -36 24 -40c0 -47 -84 -65 -136 -67c-22 -1 -50 -1 -70 -2
c-10 0 -17 -4 -21 -10c-74 -112 -138 -224 -190 -318c-12 -22 -20 -42 -21 -58c0 -21 8 -41 67 -41c7 0 18 0 24 1c2 -3 0 -6 -3 -8c-23 -2 -53 -3 -77 -3c-40 0 -76 1 -76 35c0 11 6 24 15 39c72 117 149 248 206 354c3 6 3 9 -5 9zM255 -78c0 -46 -51 -91 -86 -112
c-6 -2 -10 3 -5 7c30 18 60 50 60 84c0 22 -12 28 -12 36c0 3 3 6 10 12c6 5 13 12 16 12c8 0 17 -16 17 -39z" />
    <glyph glyph-name="uni021A" unicode="&#x21a;" horiz-adv-x="398" 
d="M398 431h-33c-145 0 -214 -18 -271 -154c-2 -5 -7 -3 -9 5c23 71 64 143 125 155c33 6 77 4 118 4c39 0 77 -1 116 -1c77 0 130 5 171 27c20 11 45 33 45 58c0 4 -1 9 -2 11c0 2 1 4 3 4c6 -1 24 -36 24 -40c0 -47 -84 -65 -136 -67c-22 -1 -50 -1 -70 -2
c-10 0 -17 -4 -21 -10c-74 -112 -138 -224 -190 -318c-12 -22 -20 -42 -21 -58c0 -21 8 -41 67 -41c7 0 18 0 24 1c2 -3 0 -6 -3 -8c-23 -2 -53 -3 -77 -3c-40 0 -76 1 -76 35c0 11 6 24 15 39c72 117 149 248 206 354c3 6 3 9 -5 9zM255 -78c0 -46 -51 -91 -86 -112
c-6 -2 -10 3 -5 7c30 18 60 50 60 84c0 22 -12 28 -12 36c0 3 3 6 10 12c6 5 13 12 16 12c8 0 17 -16 17 -39z" />
    <glyph glyph-name="Tbar" unicode="&#x166;" horiz-adv-x="398" 
d="M398 431h-33c-145 0 -214 -18 -271 -154c-2 -5 -7 -3 -9 5c23 71 64 143 125 155c33 6 77 4 118 4c39 0 77 -1 116 -1h43c55 1 96 10 128 27c20 11 45 34 45 59c0 3 0 5 -1 7c-1 1 -1 2 -1 3c0 2 1 4 3 4c1 0 2 -1 3 -2c7 -8 14 -18 18 -26c2 -3 3 -8 3 -12
c0 -5 -2 -10 -4 -14c-22 -37 -69 -52 -132 -54c-22 -1 -50 0 -70 -1c-10 0 -17 -4 -21 -10c-47 -71 -90 -141 -128 -207h69c12 0 27 0 46 -1c6 0 4 -9 -10 -9c-42 0 -61 -1 -111 -1c-20 -35 -39 -69 -56 -100c-12 -22 -20 -42 -21 -58c0 -21 8 -41 67 -41c7 0 18 0 24 1
c2 -3 0 -6 -3 -8c-23 -2 -53 -3 -77 -3c-40 0 -76 1 -76 35c0 11 6 24 15 39c27 43 54 89 81 135c-74 0 -94 -4 -96 -4c-4 0 -5 3 1 8c9 7 31 7 102 7c43 72 84 145 118 208c3 6 3 9 -5 9z" />
    <glyph glyph-name="Thorn" unicode="&#xde;" horiz-adv-x="417" 
d="M479 251c0 -98 -122 -151 -210 -149c-20 0 -30 1 -42 7c-4 2 -5 10 3 7c7 -3 16 -6 36 -6c84 0 165 62 165 149c0 48 -25 72 -76 72c-26 0 -62 -6 -74 -30c-89 -173 -130 -249 -130 -274c0 -11 8 -18 23 -22c7 -1 15 -2 24 -2c5 -5 5 -7 0 -7c-53 0 -75 1 -88 2
c-12 1 -18 6 -18 16c0 11 27 58 84 164c62 115 109 211 109 227c0 9 -7 14 -20 14c-10 0 -50 -2 -58 -2c-9 0 -10 11 0 11c17 0 39 1 66 4l66 6c5 0 8 -2 8 -5c0 -1 -4 -9 -12 -25c-25 -50 -38 -76 -38 -75c0 -1 1 -2 3 -2c7 0 15 9 55 9c61 0 124 -22 124 -89z" />
    <glyph glyph-name="Ugrave" unicode="&#xd9;" horiz-adv-x="617" 
d="M746 438c-6 -1 -15 -5 -21 -12c-56 -69 -114 -163 -152 -239c-18 -36 -49 -99 -49 -141c0 -28 13 -46 43 -46c36 0 81 26 85 27c7 0 8 -8 2 -10c-38 -17 -80 -32 -122 -32c-43 0 -66 18 -66 51c0 43 40 96 40 102c0 3 -2 3 -3 1c-104 -117 -219 -150 -280 -150
c-51 0 -107 23 -107 83c0 20 7 43 20 67c41 75 116 184 159 262c2 4 4 9 4 12c0 5 -4 9 -15 9c-13 0 -55 0 -73 -1c-6 3 -8 13 2 13c13 0 47 -3 80 -3c64 0 80 8 100 8c7 0 7 -7 -1 -9c-11 -2 -24 -4 -34 -16c-53 -66 -114 -167 -160 -249c-17 -30 -25 -58 -25 -82
c0 -42 27 -70 80 -70c112 0 223 94 286 191c36 56 87 158 110 198c9 15 18 25 35 31c9 3 52 15 60 15c7 0 8 -10 2 -10zM551 489c0 -3 -3 -4 -5 -1c-17 31 -36 67 -49 93c-2 4 -3 8 -3 11c0 5 8 15 10 15s3 -1 4 -4c11 -28 35 -82 43 -114z" />
    <glyph glyph-name="Uacute" unicode="&#xda;" horiz-adv-x="617" 
d="M746 438c-6 -1 -15 -5 -21 -12c-56 -69 -114 -163 -152 -239c-18 -36 -49 -99 -49 -141c0 -28 13 -46 43 -46c36 0 81 26 85 27c7 0 8 -8 2 -10c-38 -17 -80 -32 -122 -32c-43 0 -66 18 -66 51c0 43 40 96 40 102c0 3 -2 3 -3 1c-104 -117 -219 -150 -280 -150
c-51 0 -107 23 -107 83c0 20 7 43 20 67c41 75 116 184 159 262c2 4 4 9 4 12c0 5 -4 9 -15 9c-13 0 -55 0 -73 -1c-6 3 -8 13 2 13c13 0 47 -3 80 -3c64 0 80 8 100 8c7 0 7 -7 -1 -9c-11 -2 -24 -4 -34 -16c-53 -66 -114 -167 -160 -249c-17 -30 -25 -58 -25 -82
c0 -42 27 -70 80 -70c112 0 223 94 286 191c36 56 87 158 110 198c9 15 18 25 35 31c9 3 52 15 60 15c7 0 8 -10 2 -10zM686 603c0 -2 -1 -3 -3 -5c-47 -36 -105 -78 -160 -115c-6 -4 -9 0 -6 2c49 40 106 86 156 126c2 1 4 2 5 2c3 0 8 -6 8 -10z" />
    <glyph glyph-name="Ucircumflex" unicode="&#xdb;" horiz-adv-x="617" 
d="M746 438c-6 -1 -15 -5 -21 -12c-56 -69 -114 -163 -152 -239c-18 -36 -49 -99 -49 -141c0 -28 13 -46 43 -46c36 0 81 26 85 27c7 0 8 -8 2 -10c-38 -17 -80 -32 -122 -32c-43 0 -66 18 -66 51c0 43 40 96 40 102c0 3 -2 3 -3 1c-104 -117 -219 -150 -280 -150
c-51 0 -107 23 -107 83c0 20 7 43 20 67c41 75 116 184 159 262c2 4 4 9 4 12c0 5 -4 9 -15 9c-13 0 -55 0 -73 -1c-6 3 -8 13 2 13c13 0 47 -3 80 -3c64 0 80 8 100 8c7 0 7 -7 -1 -9c-11 -2 -24 -4 -34 -16c-53 -66 -114 -167 -160 -249c-17 -30 -25 -58 -25 -82
c0 -42 27 -70 80 -70c112 0 223 94 286 191c36 56 87 158 110 198c9 15 18 25 35 31c9 3 52 15 60 15c7 0 8 -10 2 -10zM605 505c0 -9 0 -12 -4 -15s-12 -12 -16 -12c-2 0 -3 2 -3 7c0 27 -2 63 -3 90c0 4 -2 6 -4 6c-1 0 -3 -1 -5 -3c-25 -22 -55 -53 -77 -78
c-6 -7 -10 -11 -13 -11c-2 0 -4 3 -4 5c0 4 3 8 9 13c23 20 52 48 74 70c10 10 21 21 32 28c2 1 4 2 5 2c2 0 4 -2 4 -5c1 -37 5 -74 5 -97z" />
    <glyph glyph-name="Utilde" unicode="&#x168;" horiz-adv-x="617" 
d="M746 438c-6 -1 -15 -5 -21 -12c-56 -69 -114 -163 -152 -239c-18 -36 -49 -99 -49 -141c0 -28 13 -46 43 -46c36 0 81 26 85 27c7 0 8 -8 2 -10c-38 -17 -80 -32 -122 -32c-43 0 -66 18 -66 51c0 43 40 96 40 102c0 3 -2 3 -3 1c-104 -117 -219 -150 -280 -150
c-51 0 -107 23 -107 83c0 20 7 43 20 67c41 75 116 184 159 262c2 4 4 9 4 12c0 5 -4 9 -15 9c-13 0 -55 0 -73 -1c-6 3 -8 13 2 13c13 0 47 -3 80 -3c64 0 80 8 100 8c7 0 7 -7 -1 -9c-11 -2 -24 -4 -34 -16c-53 -66 -114 -167 -160 -249c-17 -30 -25 -58 -25 -82
c0 -42 27 -70 80 -70c112 0 223 94 286 191c36 56 87 158 110 198c9 15 18 25 35 31c9 3 52 15 60 15c7 0 8 -10 2 -10zM660 557c-4 -30 -29 -62 -60 -62c-38 0 -61 55 -90 55c-21 0 -47 -31 -58 -46c-6 -9 -15 -6 -6 6c11 14 33 36 52 50c9 7 18 10 26 10
c30 0 53 -57 89 -57c23 0 38 23 38 44c0 6 9 13 9 0z" />
    <glyph glyph-name="Udieresis" unicode="&#xdc;" horiz-adv-x="617" 
d="M746 438c-6 -1 -15 -5 -21 -12c-56 -69 -114 -163 -152 -239c-18 -36 -49 -99 -49 -141c0 -28 13 -46 43 -46c36 0 81 26 85 27c7 0 8 -8 2 -10c-38 -17 -80 -32 -122 -32c-43 0 -66 18 -66 51c0 43 40 96 40 102c0 3 -2 3 -3 1c-104 -117 -219 -150 -280 -150
c-51 0 -107 23 -107 83c0 20 7 43 20 67c41 75 116 184 159 262c2 4 4 9 4 12c0 5 -4 9 -15 9c-13 0 -55 0 -73 -1c-6 3 -8 13 2 13c13 0 47 -3 80 -3c64 0 80 8 100 8c7 0 7 -7 -1 -9c-11 -2 -24 -4 -34 -16c-53 -66 -114 -167 -160 -249c-17 -30 -25 -58 -25 -82
c0 -42 27 -70 80 -70c112 0 223 94 286 191c36 56 87 158 110 198c9 15 18 25 35 31c9 3 52 15 60 15c7 0 8 -10 2 -10zM606 538c0 -16 -17 -36 -34 -36c-9 0 -12 4 -12 12c0 17 15 37 33 37c8 0 13 -5 13 -13zM534 544c0 -16 -17 -36 -34 -36c-9 0 -12 4 -12 12
c0 17 15 37 33 37c8 0 13 -5 13 -13z" />
    <glyph glyph-name="Umacron" unicode="&#x16a;" horiz-adv-x="617" 
d="M746 438c-6 -1 -15 -5 -21 -12c-56 -69 -114 -163 -152 -239c-18 -36 -49 -99 -49 -141c0 -28 13 -46 43 -46c36 0 81 26 85 27c7 0 8 -8 2 -10c-38 -17 -80 -32 -122 -32c-43 0 -66 18 -66 51c0 43 40 96 40 102c0 3 -2 3 -3 1c-104 -117 -219 -150 -280 -150
c-51 0 -107 23 -107 83c0 20 7 43 20 67c41 75 116 184 159 262c2 4 4 9 4 12c0 5 -4 9 -15 9c-13 0 -55 0 -73 -1c-6 3 -8 13 2 13c13 0 47 -3 80 -3c64 0 80 8 100 8c7 0 7 -7 -1 -9c-11 -2 -24 -4 -34 -16c-53 -66 -114 -167 -160 -249c-17 -30 -25 -58 -25 -82
c0 -42 27 -70 80 -70c112 0 223 94 286 191c36 56 87 158 110 198c9 15 18 25 35 31c9 3 52 15 60 15c7 0 8 -10 2 -10zM582 535l-3 -15l-88 -2l5 15z" />
    <glyph glyph-name="Ubreve" unicode="&#x16c;" horiz-adv-x="617" 
d="M746 438c-6 -1 -15 -5 -21 -12c-56 -69 -114 -163 -152 -239c-18 -36 -49 -99 -49 -141c0 -28 13 -46 43 -46c36 0 81 26 85 27c7 0 8 -8 2 -10c-38 -17 -80 -32 -122 -32c-43 0 -66 18 -66 51c0 43 40 96 40 102c0 3 -2 3 -3 1c-104 -117 -219 -150 -280 -150
c-51 0 -107 23 -107 83c0 20 7 43 20 67c41 75 116 184 159 262c2 4 4 9 4 12c0 5 -4 9 -15 9c-13 0 -55 0 -73 -1c-6 3 -8 13 2 13c13 0 47 -3 80 -3c64 0 80 8 100 8c7 0 7 -7 -1 -9c-11 -2 -24 -4 -34 -16c-53 -66 -114 -167 -160 -249c-17 -30 -25 -58 -25 -82
c0 -42 27 -70 80 -70c112 0 223 94 286 191c36 56 87 158 110 198c9 15 18 25 35 31c9 3 52 15 60 15c7 0 8 -10 2 -10zM615 545c0 -4 -4 -7 -8 -13c-23 -29 -51 -42 -75 -42c-28 0 -49 18 -49 50c0 9 10 14 18 14c3 0 4 -1 4 -6c0 -25 12 -44 39 -44c19 0 41 12 55 35
c4 6 8 12 11 12c2 0 5 -4 5 -6z" />
    <glyph glyph-name="Uring" unicode="&#x16e;" horiz-adv-x="617" 
d="M746 438c-6 -1 -15 -5 -21 -12c-56 -69 -114 -163 -152 -239c-18 -36 -49 -99 -49 -141c0 -28 13 -46 43 -46c36 0 81 26 85 27c7 0 8 -8 2 -10c-38 -17 -80 -32 -122 -32c-43 0 -66 18 -66 51c0 43 40 96 40 102c0 3 -2 3 -3 1c-104 -117 -219 -150 -280 -150
c-51 0 -107 23 -107 83c0 20 7 43 20 67c41 75 116 184 159 262c2 4 4 9 4 12c0 5 -4 9 -15 9c-13 0 -55 0 -73 -1c-6 3 -8 13 2 13c13 0 47 -3 80 -3c64 0 80 8 100 8c7 0 7 -7 -1 -9c-11 -2 -24 -4 -34 -16c-53 -66 -114 -167 -160 -249c-17 -30 -25 -58 -25 -82
c0 -42 27 -70 80 -70c112 0 223 94 286 191c36 56 87 158 110 198c9 15 18 25 35 31c9 3 52 15 60 15c7 0 8 -10 2 -10zM607 562c0 -33 -25 -68 -72 -68c-28 0 -48 15 -48 43c0 26 21 68 71 68c33 0 49 -15 49 -43zM593 560c0 23 -10 39 -36 39c-39 0 -56 -30 -56 -60
c0 -24 17 -39 38 -39c36 0 54 34 54 60z" />
    <glyph glyph-name="Uhungarumlaut" unicode="&#x170;" horiz-adv-x="617" 
d="M746 438c-6 -1 -15 -5 -21 -12c-56 -69 -114 -163 -152 -239c-18 -36 -49 -99 -49 -141c0 -28 13 -46 43 -46c36 0 81 26 85 27c7 0 8 -8 2 -10c-38 -17 -80 -32 -122 -32c-43 0 -66 18 -66 51c0 43 40 96 40 102c0 3 -2 3 -3 1c-104 -117 -219 -150 -280 -150
c-51 0 -107 23 -107 83c0 20 7 43 20 67c41 75 116 184 159 262c2 4 4 9 4 12c0 5 -4 9 -15 9c-13 0 -55 0 -73 -1c-6 3 -8 13 2 13c13 0 47 -3 80 -3c64 0 80 8 100 8c7 0 7 -7 -1 -9c-11 -2 -24 -4 -34 -16c-53 -66 -114 -167 -160 -249c-17 -30 -25 -58 -25 -82
c0 -42 27 -70 80 -70c112 0 223 94 286 191c36 56 87 158 110 198c9 15 18 25 35 31c9 3 52 15 60 15c7 0 8 -10 2 -10zM636 566c0 -4 -2 -6 -6 -11c-20 -21 -48 -50 -74 -73c-6 -5 -4 2 -3 3c11 18 47 64 68 92c2 2 4 3 6 3c7 0 9 -8 9 -14zM575 568c0 -5 -2 -8 -7 -13
c-20 -21 -49 -50 -74 -75c-3 -3 -6 0 -3 3c21 34 48 64 72 96c1 2 3 3 5 3c6 0 7 -10 7 -14z" />
    <glyph glyph-name="Uogonek" unicode="&#x172;" horiz-adv-x="617" 
d="M746 438c-6 -1 -15 -5 -21 -12c-56 -69 -114 -163 -152 -239c-18 -36 -49 -99 -49 -141c0 -28 13 -46 43 -46c36 0 81 26 85 27c7 0 8 -8 2 -10c-38 -17 -80 -32 -122 -32c-43 0 -66 18 -66 51c0 43 40 96 40 102c0 3 -2 3 -3 1c-104 -117 -219 -150 -280 -150
c-51 0 -107 23 -107 83c0 20 7 43 20 67c41 75 116 184 159 262c2 4 4 9 4 12c0 5 -4 9 -15 9c-13 0 -55 0 -73 -1c-6 3 -8 13 2 13c13 0 47 -3 80 -3c64 0 80 8 100 8c7 0 7 -7 -1 -9c-11 -2 -24 -4 -34 -16c-53 -66 -114 -167 -160 -249c-17 -30 -25 -58 -25 -82
c0 -42 27 -70 80 -70c112 0 223 94 286 191c36 56 87 158 110 198c9 15 18 25 35 31c9 3 52 15 60 15c7 0 8 -10 2 -10zM562 -10c0 -1 -1 -2 -4 -3c-41 -15 -70 -44 -70 -68c0 -18 16 -30 34 -30c4 0 8 2 12 2s2 -5 -2 -6c-10 -3 -18 -5 -33 -5c-26 0 -43 12 -43 29
c0 10 6 22 20 35c21 19 73 48 83 48c2 0 3 -1 3 -2z" />
    <glyph glyph-name="Wcircumflex" unicode="&#x174;" horiz-adv-x="754" 
d="M1067 490c2 -2 2 -6 -2 -7c-4 1 -9 1 -13 1c-28 0 -95 -14 -304 -246c-54 -60 -151 -179 -181 -229c-3 -5 -9 -11 -15 -12c-17 -2 -36 -9 -46 -19c-7 0 -6 4 -2 10c13 14 17 242 17 342c0 9 -2 14 -7 14c-3 0 -6 -2 -10 -5c-30 -28 -232 -211 -342 -336
c-4 -4 -8 -9 -12 -9c-20 0 -35 -5 -48 -12c-5 0 -5 4 -3 9c11 16 22 43 36 77c19 48 109 304 109 331c0 8 -6 14 -15 14c-19 0 -40 -8 -52 -8c-6 0 -8 8 0 9c127 23 128 29 134 29c7 0 6 -7 2 -10c-8 -7 -23 -44 -34 -74c-34 -91 -68 -201 -96 -299c-4 -15 1 -13 5 -9
c114 107 280 271 391 372c4 1 8 -4 6 -7c-6 -3 -13 -12 -14 -21c-6 -46 -10 -143 -10 -222c0 -61 2 -102 2 -127c0 -9 4 -8 8 -3c49 58 118 142 170 201c62 70 149 159 205 211c25 23 52 47 86 47c6 0 31 -9 35 -12zM646 495c0 -9 0 -12 -4 -15s-12 -12 -16 -12
c-2 0 -3 2 -3 7c0 27 -2 63 -3 90c0 4 -2 6 -4 6c-1 0 -3 -1 -5 -3c-25 -22 -55 -53 -77 -78c-6 -7 -10 -11 -13 -11c-2 0 -4 3 -4 5c0 4 3 8 9 13c23 20 52 48 74 70c10 10 21 21 32 28c2 1 4 2 5 2c2 0 4 -2 4 -5c1 -37 5 -74 5 -97z" />
    <glyph glyph-name="Yacute" unicode="&#xdd;" horiz-adv-x="401" 
d="M744 445c0 -2 -1 -4 -3 -3c-6 2 -9 2 -22 2c-79 0 -274 -140 -384 -246c-16 -16 -30 -30 -40 -47c-33 -58 -63 -111 -72 -143c-1 -5 -2 -9 -13 -8c-39 4 -37 2 -61 -14c-4 -1 -5 6 -1 10c27 21 79 102 105 158c15 32 29 85 29 122c0 70 -28 135 -111 135
c-48 0 -77 -14 -101 -47c-4 -5 -15 -6 -8 5c40 50 91 72 152 72c78 0 109 -66 109 -139c0 -32 -10 -82 -10 -87c-1 -7 3 -11 8 -6c95 73 192 154 285 219c28 20 66 43 101 43c16 0 32 -17 37 -26zM597 593c0 -2 -1 -3 -3 -5c-47 -36 -105 -78 -160 -115c-6 -4 -9 0 -6 2
c49 40 106 86 156 126c2 1 4 2 5 2c3 0 8 -6 8 -10z" />
    <glyph glyph-name="Ycircumflex" unicode="&#x176;" horiz-adv-x="401" 
d="M744 445c0 -2 -1 -4 -3 -3c-6 2 -9 2 -22 2c-79 0 -274 -140 -384 -246c-16 -16 -30 -30 -40 -47c-33 -58 -63 -111 -72 -143c-1 -5 -2 -9 -13 -8c-39 4 -37 2 -61 -14c-4 -1 -5 6 -1 10c27 21 79 102 105 158c15 32 29 85 29 122c0 70 -28 135 -111 135
c-48 0 -77 -14 -101 -47c-4 -5 -15 -6 -8 5c40 50 91 72 152 72c78 0 109 -66 109 -139c0 -32 -10 -82 -10 -87c-1 -7 3 -11 8 -6c95 73 192 154 285 219c28 20 66 43 101 43c16 0 32 -17 37 -26zM511 495c0 -9 0 -12 -4 -15s-12 -12 -16 -12c-2 0 -3 2 -3 7
c0 27 -2 63 -3 90c0 4 -2 6 -4 6c-1 0 -3 -1 -5 -3c-25 -22 -55 -53 -77 -78c-6 -7 -10 -11 -13 -11c-2 0 -4 3 -4 5c0 4 3 8 9 13c23 20 52 48 74 70c10 10 21 21 32 28c2 1 4 2 5 2c2 0 4 -2 4 -5c1 -37 5 -74 5 -97z" />
    <glyph glyph-name="Ydieresis" unicode="&#x178;" horiz-adv-x="401" 
d="M744 445c0 -2 -1 -4 -3 -3c-6 2 -9 2 -22 2c-79 0 -274 -140 -384 -246c-16 -16 -30 -30 -40 -47c-33 -58 -63 -111 -72 -143c-1 -5 -2 -9 -13 -8c-39 4 -37 2 -61 -14c-4 -1 -5 6 -1 10c27 21 79 102 105 158c15 32 29 85 29 122c0 70 -28 135 -111 135
c-48 0 -77 -14 -101 -47c-4 -5 -15 -6 -8 5c40 50 91 72 152 72c78 0 109 -66 109 -139c0 -32 -10 -82 -10 -87c-1 -7 3 -11 8 -6c95 73 192 154 285 219c28 20 66 43 101 43c16 0 32 -17 37 -26zM521 538c0 -16 -17 -36 -34 -36c-9 0 -12 4 -12 12c0 17 15 37 33 37
c8 0 13 -5 13 -13zM449 544c0 -16 -17 -36 -34 -36c-9 0 -12 4 -12 12c0 17 15 37 33 37c8 0 13 -5 13 -13z" />
    <glyph glyph-name="Zacute" unicode="&#x179;" horiz-adv-x="437" 
d="M658 5c0 -10 -10 -27 -31 -46c-30 -27 -53 -42 -93 -42c-132 0 -321 78 -506 84c-7 1 -11 10 0 10c16 0 32 5 46 17c63 53 328 274 414 378c5 6 8 11 8 14c0 5 -7 8 -20 8c-67 0 -149 -4 -203 -10c-37 -4 -68 -13 -84 -28c-5 -5 -9 -7 -9 2c10 23 16 35 33 37
c45 4 110 6 171 7c72 1 190 4 206 4c13 0 11 -10 2 -11c-7 -1 -15 -9 -22 -15c-90 -77 -306 -273 -422 -392c-3 -4 -5 -7 -5 -10c0 -4 3 -7 9 -9c58 -17 238 -57 363 -57c100 0 123 22 135 58c3 8 8 12 8 1zM572 593c0 -2 -1 -3 -3 -5c-47 -36 -105 -78 -160 -115
c-6 -4 -9 0 -6 2c49 40 106 86 156 126c2 1 4 2 5 2c3 0 8 -6 8 -10z" />
    <glyph glyph-name="Zcaron" unicode="&#x17d;" horiz-adv-x="437" 
d="M658 5c0 -10 -10 -27 -31 -46c-30 -27 -53 -42 -93 -42c-132 0 -321 78 -506 84c-7 1 -11 10 0 10c16 0 32 5 46 17c63 53 328 274 414 378c5 6 8 11 8 14c0 5 -7 8 -20 8c-67 0 -149 -4 -203 -10c-37 -4 -68 -13 -84 -28c-5 -5 -9 -7 -9 2c10 23 16 35 33 37
c45 4 110 6 171 7c72 1 190 4 206 4c13 0 11 -10 2 -11c-7 -1 -15 -9 -22 -15c-90 -77 -306 -273 -422 -392c-3 -4 -5 -7 -5 -10c0 -4 3 -7 9 -9c58 -17 238 -57 363 -57c100 0 123 22 135 58c3 8 8 12 8 1zM538 586c0 -4 -3 -8 -8 -12c-25 -21 -53 -48 -75 -70
c-13 -13 -32 -29 -36 -29c-3 0 -5 2 -5 5c0 16 -7 79 -7 99c0 7 1 9 5 12c3 2 15 12 18 12c2 0 3 -2 3 -7c0 -32 2 -79 2 -90c0 -4 2 -6 4 -6c1 0 3 1 5 3c25 21 57 55 76 78c5 7 10 12 13 12c2 0 5 -5 5 -7z" />
    <glyph glyph-name="Zdotaccent" unicode="&#x17b;" horiz-adv-x="437" 
d="M658 5c0 -10 -10 -27 -31 -46c-30 -27 -53 -42 -93 -42c-132 0 -321 78 -506 84c-7 1 -11 10 0 10c16 0 32 5 46 17c63 53 328 274 414 378c5 6 8 11 8 14c0 5 -7 8 -20 8c-67 0 -149 -4 -203 -10c-37 -4 -68 -13 -84 -28c-5 -5 -9 -7 -9 2c10 23 16 35 33 37
c45 4 110 6 171 7c72 1 190 4 206 4c13 0 11 -10 2 -11c-7 -1 -15 -9 -22 -15c-90 -77 -306 -273 -422 -392c-3 -4 -5 -7 -5 -10c0 -4 3 -7 9 -9c58 -17 238 -57 363 -57c100 0 123 22 135 58c3 8 8 12 8 1zM476 534c0 -15 -16 -30 -31 -30c-11 0 -16 7 -16 18
c0 15 11 28 28 28c11 0 19 -3 19 -16z" />
    <glyph glyph-name="agrave" unicode="&#xe0;" horiz-adv-x="285" 
d="M393 137c-61 -76 -151 -159 -212 -159c-27 0 -36 15 -36 35c0 18 12 52 34 88c-35 -46 -95 -107 -133 -107c-15 0 -21 6 -21 21c0 61 105 205 217 205c7 13 12 18 17 20l28 8l2 -1c-6 -7 -12 -17 -19 -28c7 0 24 -2 30 -3c7 -3 6 -8 2 -8c-8 2 -28 4 -36 4
c-61 -108 -89 -168 -89 -199c0 -12 5 -21 23 -21c42 0 122 67 187 148c3 4 6 1 6 -3zM238 212l-1 1c-90 0 -173 -151 -173 -192c0 -6 2 -8 6 -8c15 0 73 45 110 100c21 32 42 71 58 99zM241 279c0 -3 -3 -4 -5 -1c-17 31 -36 67 -49 93c-2 4 -3 8 -3 11c0 5 8 15 10 15
s3 -1 4 -4c11 -28 35 -82 43 -114z" />
    <glyph glyph-name="aacute" unicode="&#xe1;" horiz-adv-x="285" 
d="M393 137c-61 -76 -151 -159 -212 -159c-27 0 -36 15 -36 35c0 18 12 52 34 88c-35 -46 -95 -107 -133 -107c-15 0 -21 6 -21 21c0 61 105 205 217 205c7 13 12 18 17 20l28 8l2 -1c-6 -7 -12 -17 -19 -28c7 0 24 -2 30 -3c7 -3 6 -8 2 -8c-8 2 -28 4 -36 4
c-61 -108 -89 -168 -89 -199c0 -12 5 -21 23 -21c42 0 122 67 187 148c3 4 6 1 6 -3zM238 212l-1 1c-90 0 -173 -151 -173 -192c0 -6 2 -8 6 -8c15 0 73 45 110 100c21 32 42 71 58 99zM348 393c0 -2 -1 -3 -3 -5c-47 -36 -105 -78 -160 -115c-6 -4 -9 0 -6 2
c49 40 106 86 156 126c2 1 4 2 5 2c3 0 8 -6 8 -10z" />
    <glyph glyph-name="acircumflex" unicode="&#xe2;" horiz-adv-x="285" 
d="M393 137c-61 -76 -151 -159 -212 -159c-27 0 -36 15 -36 35c0 18 12 52 34 88c-35 -46 -95 -107 -133 -107c-15 0 -21 6 -21 21c0 61 105 205 217 205c7 13 12 18 17 20l28 8l2 -1c-6 -7 -12 -17 -19 -28c7 0 24 -2 30 -3c7 -3 6 -8 2 -8c-8 2 -28 4 -36 4
c-61 -108 -89 -168 -89 -199c0 -12 5 -21 23 -21c42 0 122 67 187 148c3 4 6 1 6 -3zM238 212l-1 1c-90 0 -173 -151 -173 -192c0 -6 2 -8 6 -8c15 0 73 45 110 100c21 32 42 71 58 99zM311 295c0 -9 0 -12 -4 -15s-12 -12 -16 -12c-2 0 -3 2 -3 7c0 27 -2 63 -3 90
c0 4 -2 6 -4 6c-1 0 -3 -1 -5 -3c-25 -22 -55 -53 -77 -78c-6 -7 -10 -11 -13 -11c-2 0 -4 3 -4 5c0 4 3 8 9 13c23 20 52 48 74 70c10 10 21 21 32 28c2 1 4 2 5 2c2 0 4 -2 4 -5c1 -37 5 -74 5 -97z" />
    <glyph glyph-name="atilde" unicode="&#xe3;" horiz-adv-x="285" 
d="M393 137c-61 -76 -151 -159 -212 -159c-27 0 -36 15 -36 35c0 18 12 52 34 88c-35 -46 -95 -107 -133 -107c-15 0 -21 6 -21 21c0 61 105 205 217 205c7 13 12 18 17 20l28 8l2 -1c-6 -7 -12 -17 -19 -28c7 0 24 -2 30 -3c7 -3 6 -8 2 -8c-8 2 -28 4 -36 4
c-61 -108 -89 -168 -89 -199c0 -12 5 -21 23 -21c42 0 122 67 187 148c3 4 6 1 6 -3zM238 212l-1 1c-90 0 -173 -151 -173 -192c0 -6 2 -8 6 -8c15 0 73 45 110 100c21 32 42 71 58 99zM356 357c-4 -30 -29 -62 -60 -62c-38 0 -61 55 -90 55c-21 0 -47 -31 -58 -46
c-6 -9 -15 -6 -6 6c11 14 33 36 52 50c9 7 18 10 26 10c30 0 53 -57 89 -57c23 0 38 23 38 44c0 6 9 13 9 0z" />
    <glyph glyph-name="adieresis" unicode="&#xe4;" horiz-adv-x="285" 
d="M393 137c-61 -76 -151 -159 -212 -159c-27 0 -36 15 -36 35c0 18 12 52 34 88c-35 -46 -95 -107 -133 -107c-15 0 -21 6 -21 21c0 61 105 205 217 205c7 13 12 18 17 20l28 8l2 -1c-6 -7 -12 -17 -19 -28c7 0 24 -2 30 -3c7 -3 6 -8 2 -8c-8 2 -28 4 -36 4
c-61 -108 -89 -168 -89 -199c0 -12 5 -21 23 -21c42 0 122 67 187 148c3 4 6 1 6 -3zM238 212l-1 1c-90 0 -173 -151 -173 -192c0 -6 2 -8 6 -8c15 0 73 45 110 100c21 32 42 71 58 99zM332 348c0 -16 -17 -36 -34 -36c-9 0 -12 4 -12 12c0 17 15 37 33 37c8 0 13 -5 13 -13
zM260 354c0 -16 -17 -36 -34 -36c-9 0 -12 4 -12 12c0 17 15 37 33 37c8 0 13 -5 13 -13z" />
    <glyph glyph-name="amacron" unicode="&#x101;" horiz-adv-x="285" 
d="M393 137c-61 -76 -151 -159 -212 -159c-27 0 -36 15 -36 35c0 18 12 52 34 88c-35 -46 -95 -107 -133 -107c-15 0 -21 6 -21 21c0 61 105 205 217 205c7 13 12 18 17 20l28 8l2 -1c-6 -7 -12 -17 -19 -28c7 0 24 -2 30 -3c7 -3 6 -8 2 -8c-8 2 -28 4 -36 4
c-61 -108 -89 -168 -89 -199c0 -12 5 -21 23 -21c42 0 122 67 187 148c3 4 6 1 6 -3zM238 212l-1 1c-90 0 -173 -151 -173 -192c0 -6 2 -8 6 -8c15 0 73 45 110 100c21 32 42 71 58 99zM289 335l-3 -15l-88 -2l5 15z" />
    <glyph glyph-name="abreve" unicode="&#x103;" horiz-adv-x="285" 
d="M393 137c-61 -76 -151 -159 -212 -159c-27 0 -36 15 -36 35c0 18 12 52 34 88c-35 -46 -95 -107 -133 -107c-15 0 -21 6 -21 21c0 61 105 205 217 205c7 13 12 18 17 20l28 8l2 -1c-6 -7 -12 -17 -19 -28c7 0 24 -2 30 -3c7 -3 6 -8 2 -8c-8 2 -28 4 -36 4
c-61 -108 -89 -168 -89 -199c0 -12 5 -21 23 -21c42 0 122 67 187 148c3 4 6 1 6 -3zM238 212l-1 1c-90 0 -173 -151 -173 -192c0 -6 2 -8 6 -8c15 0 73 45 110 100c21 32 42 71 58 99zM330 345c0 -4 -4 -7 -8 -13c-23 -29 -51 -42 -75 -42c-28 0 -49 18 -49 50
c0 9 10 14 18 14c3 0 4 -1 4 -6c0 -25 12 -44 39 -44c19 0 41 12 55 35c4 6 8 12 11 12c2 0 5 -4 5 -6z" />
    <glyph glyph-name="aring" unicode="&#xe5;" horiz-adv-x="285" 
d="M393 137c-61 -76 -151 -159 -212 -159c-27 0 -36 15 -36 35c0 18 12 52 34 88c-35 -46 -95 -107 -133 -107c-15 0 -21 6 -21 21c0 61 105 205 217 205c7 13 12 18 17 20l28 8l2 -1c-6 -7 -12 -17 -19 -28c7 0 24 -2 30 -3c7 -3 6 -8 2 -8c-8 2 -28 4 -36 4
c-61 -108 -89 -168 -89 -199c0 -12 5 -21 23 -21c42 0 122 67 187 148c3 4 6 1 6 -3zM238 212l-1 1c-90 0 -173 -151 -173 -192c0 -6 2 -8 6 -8c15 0 73 45 110 100c21 32 42 71 58 99zM333 362c0 -33 -25 -68 -72 -68c-28 0 -48 15 -48 43c0 26 21 68 71 68
c33 0 49 -15 49 -43zM319 360c0 23 -10 39 -36 39c-39 0 -56 -30 -56 -60c0 -24 17 -39 38 -39c36 0 54 34 54 60z" />
    <glyph glyph-name="aogonek" unicode="&#x105;" horiz-adv-x="285" 
d="M393 137c-61 -76 -151 -159 -212 -159c-27 0 -36 15 -36 35c0 18 12 52 34 88c-35 -46 -95 -107 -133 -107c-15 0 -21 6 -21 21c0 61 105 205 217 205c7 13 12 18 17 20l28 8l2 -1c-6 -7 -12 -17 -19 -28c7 0 24 -2 30 -3c7 -3 6 -8 2 -8c-8 2 -28 4 -36 4
c-61 -108 -89 -168 -89 -199c0 -12 5 -21 23 -21c42 0 122 67 187 148c3 4 6 1 6 -3zM238 212l-1 1c-90 0 -173 -151 -173 -192c0 -6 2 -8 6 -8c15 0 73 45 110 100c21 32 42 71 58 99zM207 -16c0 -1 -1 -2 -4 -3c-41 -15 -70 -44 -70 -68c0 -18 16 -30 34 -30c4 0 8 2 12 2
s2 -5 -2 -6c-10 -3 -18 -5 -33 -5c-26 0 -43 12 -43 29c0 10 6 22 20 35c21 19 73 48 83 48c2 0 3 -1 3 -2z" />
    <glyph glyph-name="ae" unicode="&#xe6;" horiz-adv-x="307" 
d="M189 143c-65 -96 -125 -147 -157 -148c-15 0 -22 8 -22 23c0 25 42 103 136 168c24 16 53 32 78 32c10 18 21 35 24 40c2 3 7 -4 7 -8c0 -2 -2 -8 -19 -54c23 23 46 34 68 36c18 0 25 -8 25 -19c0 -33 -39 -88 -123 -88c-7 -17 -17 -42 -17 -69c0 -26 6 -45 37 -45
c62 0 135 66 175 122c2 3 7 1 7 -3c-50 -68 -136 -137 -212 -137c-17 0 -33 10 -39 26c-1 4 -13 1 -23 -10c-4 -4 -7 -3 -5 -1c20 35 34 68 60 135zM220 210c-2 1 -5 1 -7 1c-53 0 -163 -130 -163 -183c0 -8 6 -11 11 -11c20 0 98 76 159 193zM298 208c0 7 -4 13 -12 13
c-24 0 -58 -40 -76 -87c3 -1 11 -2 15 -2c38 0 73 36 73 76z" />
    <glyph glyph-name="cacute" unicode="&#x107;" horiz-adv-x="214" 
d="M310 134c-41 -50 -103 -109 -154 -129c-20 -8 -36 -11 -51 -11c-35 0 -55 15 -55 46c0 11 2 23 8 38c25 62 75 114 128 137c7 3 14 5 20 5c24 0 37 -11 37 -29c0 -9 -2 -17 -7 -23c-4 -4 -11 -10 -20 -17l-3 1c2 5 3 11 3 17c0 13 -10 28 -31 28c-50 0 -97 -72 -97 -147
c0 -28 17 -42 40 -42c37 0 106 43 177 131c7 7 11 1 5 -5zM347 393c0 -2 -1 -3 -3 -5c-47 -36 -105 -78 -160 -115c-6 -4 -9 0 -6 2c49 40 106 86 156 126c2 1 4 2 5 2c3 0 8 -6 8 -10z" />
    <glyph glyph-name="ccircumflex" unicode="&#x109;" horiz-adv-x="214" 
d="M310 134c-41 -50 -103 -109 -154 -129c-20 -8 -36 -11 -51 -11c-35 0 -55 15 -55 46c0 11 2 23 8 38c25 62 75 114 128 137c7 3 14 5 20 5c24 0 37 -11 37 -29c0 -9 -2 -17 -7 -23c-4 -4 -11 -10 -20 -17l-3 1c2 5 3 11 3 17c0 13 -10 28 -31 28c-50 0 -97 -72 -97 -147
c0 -28 17 -42 40 -42c37 0 106 43 177 131c7 7 11 1 5 -5zM280 295c0 -9 0 -12 -4 -15s-12 -12 -16 -12c-2 0 -3 2 -3 7c0 27 -2 63 -3 90c0 4 -2 6 -4 6c-1 0 -3 -1 -5 -3c-25 -22 -55 -53 -77 -78c-6 -7 -10 -11 -13 -11c-2 0 -4 3 -4 5c0 4 3 8 9 13c23 20 52 48 74 70
c10 10 21 21 32 28c2 1 4 2 5 2c2 0 4 -2 4 -5c1 -37 5 -74 5 -97z" />
    <glyph glyph-name="ccaron" unicode="&#x10d;" horiz-adv-x="214" 
d="M310 134c-41 -50 -103 -109 -154 -129c-20 -8 -36 -11 -51 -11c-35 0 -55 15 -55 46c0 11 2 23 8 38c25 62 75 114 128 137c7 3 14 5 20 5c24 0 37 -11 37 -29c0 -9 -2 -17 -7 -23c-4 -4 -11 -10 -20 -17l-3 1c2 5 3 11 3 17c0 13 -10 28 -31 28c-50 0 -97 -72 -97 -147
c0 -28 17 -42 40 -42c37 0 106 43 177 131c7 7 11 1 5 -5zM322 386c0 -4 -3 -8 -8 -12c-25 -21 -53 -48 -75 -70c-13 -13 -32 -29 -36 -29c-3 0 -5 2 -5 5c0 16 -7 79 -7 99c0 7 1 9 5 12c3 2 15 12 18 12c2 0 3 -2 3 -7c0 -32 2 -79 2 -90c0 -4 2 -6 4 -6c1 0 3 1 5 3
c25 21 57 55 76 78c5 7 10 12 13 12c2 0 5 -5 5 -7z" />
    <glyph glyph-name="cdotaccent" unicode="&#x10b;" horiz-adv-x="214" 
d="M310 134c-41 -50 -103 -109 -154 -129c-20 -8 -36 -11 -51 -11c-35 0 -55 15 -55 46c0 11 2 23 8 38c25 62 75 114 128 137c7 3 14 5 20 5c24 0 37 -11 37 -29c0 -9 -2 -17 -7 -23c-4 -4 -11 -10 -20 -17l-3 1c2 5 3 11 3 17c0 13 -10 28 -31 28c-50 0 -97 -72 -97 -147
c0 -28 17 -42 40 -42c37 0 106 43 177 131c7 7 11 1 5 -5zM235 334c0 -15 -16 -30 -31 -30c-11 0 -16 7 -16 18c0 15 11 28 28 28c11 0 19 -3 19 -16z" />
    <glyph glyph-name="ccedilla" unicode="&#xe7;" horiz-adv-x="214" 
d="M310 134c-41 -50 -103 -109 -154 -129c-20 -8 -36 -11 -51 -11c-35 0 -55 15 -55 46c0 11 2 23 8 38c25 62 75 114 128 137c7 3 14 5 20 5c24 0 37 -11 37 -29c0 -9 -2 -17 -7 -23c-4 -4 -11 -10 -20 -17l-3 1c2 5 3 11 3 17c0 13 -10 28 -31 28c-50 0 -97 -72 -97 -147
c0 -28 17 -42 40 -42c37 0 106 43 177 131c7 7 11 1 5 -5zM127 -4c-10 -3 -37 -16 -37 -28c0 -13 32 -13 32 -33c0 -7 -4 -14 -13 -21c-20 -17 -52 -39 -74 -50c-2 -1 -5 -2 -7 -2s-8 3 -8 6c0 2 2 3 5 4c14 4 67 25 67 44c0 17 -32 18 -32 35c0 19 50 44 64 50
c4 0 10 -1 3 -5z" />
    <glyph glyph-name="dcaron" unicode="&#x10f;" horiz-adv-x="269" 
d="M682 665c0 -8 -11 -15 -14 -29c-1 -4 -4 -7 -7 -7c-9 0 -12 10 -43 10c-22 0 -46 -6 -65 -18c-37 -24 -84 -71 -120 -123c-179 -257 -270 -451 -270 -510c0 -23 9 -39 32 -39c72 0 133 101 169 174c3 5 12 4 6 -5c-47 -97 -112 -178 -177 -178c-36 0 -53 21 -53 52
c0 32 13 66 39 119c-76 -92 -109 -117 -134 -117c-19 0 -24 11 -24 27c0 12 7 33 19 52c49 80 106 132 195 148c64 112 119 196 188 282c57 71 114 129 173 157c21 10 41 16 59 16c16 0 27 -5 27 -11zM227 206c-50 -1 -74 -21 -95 -48c-50 -62 -70 -109 -70 -130
c0 -6 7 -9 10 -9c19 0 107 86 155 187zM582 561c0 -46 -51 -91 -86 -112c-6 -2 -7 1 -2 5c30 18 63 53 63 87c0 26 -18 37 -18 45c0 3 -1 4 8 8s15 6 18 6c8 0 17 -16 17 -39z" />
    <glyph glyph-name="dcroat" unicode="&#x111;" horiz-adv-x="280" 
d="M682 665c0 -8 -11 -15 -14 -29c-1 -4 -4 -7 -7 -7c-9 0 -12 10 -43 10c-22 0 -46 -6 -65 -18c-37 -24 -84 -71 -120 -123c-39 -56 -74 -110 -105 -159c24 1 64 3 71 3c9 0 5 -12 -2 -12c-46 0 -66 -1 -76 -2c-105 -172 -158 -299 -158 -344c0 -23 7 -38 32 -38
c75 0 141 104 179 177c3 5 12 4 6 -5c-49 -97 -119 -181 -187 -181c-37 0 -53 20 -53 51c0 32 13 70 39 123c-76 -92 -109 -117 -134 -117c-19 0 -24 11 -24 27c0 12 7 33 19 52c49 80 106 132 195 148c22 38 43 73 63 106c-45 -3 -83 -7 -113 -11c-8 -1 -7 7 -2 10
c3 3 9 4 18 5c27 2 59 4 104 7c37 59 75 111 118 165c57 71 114 129 173 157c21 10 41 16 59 16c16 0 27 -5 27 -11zM227 206c-50 -1 -74 -21 -95 -48c-50 -62 -70 -109 -70 -130c0 -6 7 -9 10 -9c19 0 107 86 155 187z" />
    <glyph glyph-name="eth" unicode="&#xf0;" horiz-adv-x="234" 
d="M129 443c-30 -7 -57 -14 -68 -19c-8 -3 -10 -3 -5 3l9 11l60 12c-24 40 -52 80 -80 113c-5 6 -11 10 -11 13c0 4 28 8 37 8c5 0 9 -1 11 -3c18 -28 47 -72 74 -125c31 7 59 14 78 21c5 2 8 1 8 -2c0 -4 -4 -11 -10 -12c-20 -3 -46 -8 -72 -14c39 -75 75 -166 75 -241
c0 -77 -38 -159 -89 -193c-23 -15 -38 -20 -61 -20c-26 0 -39 12 -39 37c0 59 72 171 162 203c5 2 5 5 5 9c0 30 -35 115 -84 199zM211 229c-72 -32 -131 -152 -131 -199c0 -17 7 -24 19 -24c56 0 117 129 117 210c0 8 -1 13 -5 13z" />
    <glyph glyph-name="egrave" unicode="&#xe8;" horiz-adv-x="205" 
d="M301 119c-45 -57 -131 -126 -207 -126c-30 0 -47 13 -47 42c0 74 87 185 155 185c18 0 25 -8 25 -18c0 -31 -39 -82 -123 -82c-7 -12 -17 -41 -17 -68c0 -26 11 -41 37 -41c62 0 135 66 170 111c2 3 7 1 7 -3zM196 197c0 7 -5 13 -13 13c-27 0 -58 -46 -75 -80
c3 -1 11 -2 15 -2c38 0 73 32 73 69zM244 279c0 -3 -3 -4 -5 -1c-17 31 -36 67 -49 93c-2 4 -3 8 -3 11c0 5 8 15 10 15s3 -1 4 -4c11 -28 35 -82 43 -114z" />
    <glyph glyph-name="eacute" unicode="&#xe9;" horiz-adv-x="205" 
d="M301 119c-45 -57 -131 -126 -207 -126c-30 0 -47 13 -47 42c0 74 87 185 155 185c18 0 25 -8 25 -18c0 -31 -39 -82 -123 -82c-7 -12 -17 -41 -17 -68c0 -26 11 -41 37 -41c62 0 135 66 170 111c2 3 7 1 7 -3zM196 197c0 7 -5 13 -13 13c-27 0 -58 -46 -75 -80
c3 -1 11 -2 15 -2c38 0 73 32 73 69zM357 393c0 -2 -1 -3 -3 -5c-47 -36 -105 -78 -160 -115c-6 -4 -9 0 -6 2c49 40 106 86 156 126c2 1 4 2 5 2c3 0 8 -6 8 -10z" />
    <glyph glyph-name="ecircumflex" unicode="&#xea;" horiz-adv-x="205" 
d="M301 119c-45 -57 -131 -126 -207 -126c-30 0 -47 13 -47 42c0 74 87 185 155 185c18 0 25 -8 25 -18c0 -31 -39 -82 -123 -82c-7 -12 -17 -41 -17 -68c0 -26 11 -41 37 -41c62 0 135 66 170 111c2 3 7 1 7 -3zM196 197c0 7 -5 13 -13 13c-27 0 -58 -46 -75 -80
c3 -1 11 -2 15 -2c38 0 73 32 73 69zM302 295c0 -9 0 -12 -4 -15s-12 -12 -16 -12c-2 0 -3 2 -3 7c0 27 -2 63 -3 90c0 4 -2 6 -4 6c-1 0 -3 -1 -5 -3c-25 -22 -55 -53 -77 -78c-6 -7 -10 -11 -13 -11c-2 0 -4 3 -4 5c0 4 3 8 9 13c23 20 52 48 74 70c10 10 21 21 32 28
c2 1 4 2 5 2c2 0 4 -2 4 -5c1 -37 5 -74 5 -97z" />
    <glyph glyph-name="ecaron" unicode="&#x11b;" horiz-adv-x="205" 
d="M301 119c-45 -57 -131 -126 -207 -126c-30 0 -47 13 -47 42c0 74 87 185 155 185c18 0 25 -8 25 -18c0 -31 -39 -82 -123 -82c-7 -12 -17 -41 -17 -68c0 -26 11 -41 37 -41c62 0 135 66 170 111c2 3 7 1 7 -3zM196 197c0 7 -5 13 -13 13c-27 0 -58 -46 -75 -80
c3 -1 11 -2 15 -2c38 0 73 32 73 69zM344 386c0 -4 -3 -8 -8 -12c-25 -21 -53 -48 -75 -70c-13 -13 -32 -29 -36 -29c-3 0 -5 2 -5 5c0 16 -7 79 -7 99c0 7 1 9 5 12c3 2 15 12 18 12c2 0 3 -2 3 -7c0 -32 2 -79 2 -90c0 -4 2 -6 4 -6c1 0 3 1 5 3c25 21 57 55 76 78
c5 7 10 12 13 12c2 0 5 -5 5 -7z" />
    <glyph glyph-name="edieresis" unicode="&#xeb;" horiz-adv-x="205" 
d="M301 119c-45 -57 -131 -126 -207 -126c-30 0 -47 13 -47 42c0 74 87 185 155 185c18 0 25 -8 25 -18c0 -31 -39 -82 -123 -82c-7 -12 -17 -41 -17 -68c0 -26 11 -41 37 -41c62 0 135 66 170 111c2 3 7 1 7 -3zM196 197c0 7 -5 13 -13 13c-27 0 -58 -46 -75 -80
c3 -1 11 -2 15 -2c38 0 73 32 73 69zM320 348c0 -16 -17 -36 -34 -36c-9 0 -12 4 -12 12c0 17 15 37 33 37c8 0 13 -5 13 -13zM248 354c0 -16 -17 -36 -34 -36c-9 0 -12 4 -12 12c0 17 15 37 33 37c8 0 13 -5 13 -13z" />
    <glyph glyph-name="emacron" unicode="&#x113;" horiz-adv-x="205" 
d="M301 119c-45 -57 -131 -126 -207 -126c-30 0 -47 13 -47 42c0 74 87 185 155 185c18 0 25 -8 25 -18c0 -31 -39 -82 -123 -82c-7 -12 -17 -41 -17 -68c0 -26 11 -41 37 -41c62 0 135 66 170 111c2 3 7 1 7 -3zM196 197c0 7 -5 13 -13 13c-27 0 -58 -46 -75 -80
c3 -1 11 -2 15 -2c38 0 73 32 73 69zM284 335l-3 -15l-88 -2l5 15z" />
    <glyph glyph-name="ebreve" unicode="&#x115;" horiz-adv-x="205" 
d="M301 119c-45 -57 -131 -126 -207 -126c-30 0 -47 13 -47 42c0 74 87 185 155 185c18 0 25 -8 25 -18c0 -31 -39 -82 -123 -82c-7 -12 -17 -41 -17 -68c0 -26 11 -41 37 -41c62 0 135 66 170 111c2 3 7 1 7 -3zM196 197c0 7 -5 13 -13 13c-27 0 -58 -46 -75 -80
c3 -1 11 -2 15 -2c38 0 73 32 73 69zM308 345c0 -4 -4 -7 -8 -13c-23 -29 -51 -42 -75 -42c-28 0 -49 18 -49 50c0 9 10 14 18 14c3 0 4 -1 4 -6c0 -25 12 -44 39 -44c19 0 41 12 55 35c4 6 8 12 11 12c2 0 5 -4 5 -6z" />
    <glyph glyph-name="edotaccent" unicode="&#x117;" horiz-adv-x="205" 
d="M301 119c-45 -57 -131 -126 -207 -126c-30 0 -47 13 -47 42c0 74 87 185 155 185c18 0 25 -8 25 -18c0 -31 -39 -82 -123 -82c-7 -12 -17 -41 -17 -68c0 -26 11 -41 37 -41c62 0 135 66 170 111c2 3 7 1 7 -3zM196 197c0 7 -5 13 -13 13c-27 0 -58 -46 -75 -80
c3 -1 11 -2 15 -2c38 0 73 32 73 69zM275 334c0 -15 -16 -30 -31 -30c-11 0 -16 7 -16 18c0 15 11 28 28 28c11 0 19 -3 19 -16z" />
    <glyph glyph-name="eogonek" unicode="&#x119;" horiz-adv-x="205" 
d="M301 119c-45 -57 -131 -126 -207 -126c-30 0 -47 13 -47 42c0 74 87 185 155 185c18 0 25 -8 25 -18c0 -31 -39 -82 -123 -82c-7 -12 -17 -41 -17 -68c0 -26 11 -41 37 -41c62 0 135 66 170 111c2 3 7 1 7 -3zM196 197c0 7 -5 13 -13 13c-27 0 -58 -46 -75 -80
c3 -1 11 -2 15 -2c38 0 73 32 73 69zM176 5c0 -1 -1 -2 -4 -3c-41 -15 -70 -44 -70 -68c0 -18 16 -30 34 -30c4 0 8 2 12 2s2 -5 -2 -6c-10 -3 -18 -5 -33 -5c-26 0 -43 12 -43 29c0 10 6 22 20 35c21 19 73 48 83 48c2 0 3 -1 3 -2z" />
    <glyph glyph-name="gcircumflex" unicode="&#x11d;" horiz-adv-x="240" 
d="M290 267c0 -6 -1 -11 -5 -18c-133 -249 -206 -364 -311 -534c-84 -137 -199 -242 -369 -242c-125 0 -157 73 -157 150c0 16 3 36 7 47c1 5 7 5 7 -1c-3 -9 -6 -22 -6 -37c0 -92 86 -136 196 -136c116 0 233 71 339 273c69 128 163 303 191 352
c-54 -73 -100 -132 -133 -132c-12 0 -21 8 -21 25c0 40 74 162 145 197c16 8 33 12 48 12c4 0 7 0 11 -1c11 18 22 37 34 58c4 8 9 13 13 13c5 0 11 -16 11 -26zM226 208c-4 1 -11 1 -15 1c-18 0 -36 -3 -48 -13c-67 -55 -96 -149 -96 -173c0 -7 1 -11 6 -11
c17 0 104 100 153 196zM297 345c0 -9 0 -12 -4 -15s-12 -12 -16 -12c-2 0 -3 2 -3 7c0 27 -2 63 -3 90c0 4 -2 6 -4 6c-1 0 -3 -1 -5 -3c-25 -22 -55 -53 -77 -78c-6 -7 -10 -11 -13 -11c-2 0 -4 3 -4 5c0 4 3 8 9 13c23 20 52 48 74 70c10 10 21 21 32 28c2 1 4 2 5 2
c2 0 4 -2 4 -5c1 -37 5 -74 5 -97z" />
    <glyph glyph-name="gbreve" unicode="&#x11f;" horiz-adv-x="240" 
d="M290 267c0 -6 -1 -11 -5 -18c-133 -249 -206 -364 -311 -534c-84 -137 -199 -242 -369 -242c-125 0 -157 73 -157 150c0 16 3 36 7 47c1 5 7 5 7 -1c-3 -9 -6 -22 -6 -37c0 -92 86 -136 196 -136c116 0 233 71 339 273c69 128 163 303 191 352
c-54 -73 -100 -132 -133 -132c-12 0 -21 8 -21 25c0 40 74 162 145 197c16 8 33 12 48 12c4 0 7 0 11 -1c11 18 22 37 34 58c4 8 9 13 13 13c5 0 11 -16 11 -26zM226 208c-4 1 -11 1 -15 1c-18 0 -36 -3 -48 -13c-67 -55 -96 -149 -96 -173c0 -7 1 -11 6 -11
c17 0 104 100 153 196zM316 375c0 -4 -4 -7 -8 -13c-23 -29 -51 -42 -75 -42c-28 0 -49 18 -49 50c0 9 10 14 18 14c3 0 4 -1 4 -6c0 -25 12 -44 39 -44c19 0 41 12 55 35c4 6 8 12 11 12c2 0 5 -4 5 -6z" />
    <glyph glyph-name="gdotaccent" unicode="&#x121;" horiz-adv-x="240" 
d="M290 267c0 -6 -1 -11 -5 -18c-133 -249 -206 -364 -311 -534c-84 -137 -199 -242 -369 -242c-125 0 -157 73 -157 150c0 16 3 36 7 47c1 5 7 5 7 -1c-3 -9 -6 -22 -6 -37c0 -92 86 -136 196 -136c116 0 233 71 339 273c69 128 163 303 191 352
c-54 -73 -100 -132 -133 -132c-12 0 -21 8 -21 25c0 40 74 162 145 197c16 8 33 12 48 12c4 0 7 0 11 -1c11 18 22 37 34 58c4 8 9 13 13 13c5 0 11 -16 11 -26zM226 208c-4 1 -11 1 -15 1c-18 0 -36 -3 -48 -13c-67 -55 -96 -149 -96 -173c0 -7 1 -11 6 -11
c17 0 104 100 153 196zM256 344c0 -15 -16 -30 -31 -30c-11 0 -16 7 -16 18c0 15 11 28 28 28c11 0 19 -3 19 -16z" />
    <glyph glyph-name="gcommaaccent" unicode="&#x123;" horiz-adv-x="240" 
d="M205 347c0 46 51 91 86 112c6 2 10 -3 5 -7c-30 -18 -60 -50 -60 -84c0 -22 12 -28 12 -36c0 -3 -3 -6 -10 -12c-6 -5 -13 -12 -16 -12c-8 0 -17 16 -17 39zM290 267c0 -6 -1 -11 -5 -18c-133 -249 -206 -364 -311 -534c-84 -137 -199 -242 -369 -242
c-125 0 -157 73 -157 150c0 16 3 36 7 47c1 5 7 5 7 -1c-3 -9 -6 -22 -6 -37c0 -92 86 -136 196 -136c116 0 233 71 339 273c69 128 163 303 191 352c-54 -73 -100 -132 -133 -132c-12 0 -21 8 -21 25c0 40 74 162 145 197c16 8 33 12 48 12c4 0 7 0 11 -1
c11 18 22 37 34 58c4 8 9 13 13 13c5 0 11 -16 11 -26zM226 208c-4 1 -11 1 -15 1c-18 0 -36 -3 -48 -13c-67 -55 -96 -149 -96 -173c0 -7 1 -11 6 -11c17 0 104 100 153 196z" />
    <glyph glyph-name="hcircumflex" unicode="&#x125;" horiz-adv-x="266" 
d="M475 608c0 -9 0 -12 -4 -15s-12 -12 -16 -12c-2 0 -3 2 -3 7c0 15 0 34 -1 52c-80 -71 -180 -213 -320 -489c19 17 88 72 119 72c6 0 9 -2 9 -7c0 -4 -3 -10 -9 -18c-22 -31 -77 -124 -77 -162c0 -21 12 -32 30 -32c30 0 89 36 161 132c2 3 6 3 6 -2
c-52 -72 -139 -152 -198 -152c-22 0 -37 13 -37 36c0 42 71 145 71 169c0 2 -1 5 -3 5c-12 0 -44 -18 -91 -81c-19 -33 -41 -72 -55 -100c-6 -12 -10 -16 -15 -16c-6 0 -21 3 -21 12c0 3 1 7 3 11c55 101 109 190 163 276c80 127 170 270 263 357c-1 10 -1 19 -1 27
c0 4 -2 6 -4 6c-1 0 -3 -1 -5 -3c-25 -22 -55 -53 -77 -78c-6 -7 -10 -11 -13 -11c-2 0 -4 3 -4 5c0 4 3 8 9 13c23 20 52 48 74 70c10 10 21 21 32 28c2 1 4 2 5 2c2 0 4 -2 4 -5c0 -12 1 -24 1 -35c47 40 94 64 142 64c36 0 88 -15 88 -75c0 -43 -9 -39 -9 -33
c0 19 -16 78 -96 78c-37 0 -77 -11 -124 -47c2 -19 3 -36 3 -49z" />
    <glyph glyph-name="hbar" unicode="&#x127;" horiz-adv-x="266" 
d="M701 659c0 -43 -9 -39 -9 -33c0 19 -16 71 -96 71c-88 0 -190 -55 -366 -362c20 1 95 5 114 5c10 0 6 -13 -2 -12c-39 0 -102 -3 -119 -4c-29 -51 -59 -108 -92 -173c19 17 88 72 119 72c6 0 9 -2 9 -7c0 -4 -3 -10 -9 -18c-22 -31 -77 -124 -77 -162
c0 -21 12 -32 30 -32c30 0 89 36 161 132c2 3 6 3 6 -2c-52 -72 -139 -152 -198 -152c-22 0 -37 13 -37 36c0 42 71 145 71 169c0 2 -1 5 -3 5c-12 0 -44 -18 -91 -81c-19 -33 -41 -72 -55 -100c-6 -12 -10 -16 -15 -16c-6 0 -21 3 -21 12c0 3 1 7 3 11
c55 101 109 190 163 276c6 9 11 18 17 28c-22 -1 -51 -5 -55 -5c-8 0 -7 7 -2 10c3 2 9 3 16 4c12 1 28 2 49 3c121 190 261 400 401 400c36 0 88 -15 88 -75z" />
    <glyph glyph-name="dotlessi" unicode="&#x131;" horiz-adv-x="181" 
d="M281 131c-32 -41 -77 -81 -112 -104c-26 -17 -56 -27 -79 -27c-17 0 -44 5 -44 34c0 35 61 131 82 161c7 10 29 19 34 19c4 0 5 -1 5 -3c0 -3 -3 -9 -5 -12c-36 -54 -75 -133 -75 -162c0 -16 10 -23 24 -23c53 0 136 81 166 122c7 7 7 2 4 -5z" />
    <glyph glyph-name="igrave" unicode="&#xec;" horiz-adv-x="181" 
d="M281 131c-32 -41 -77 -81 -112 -104c-26 -17 -56 -27 -79 -27c-17 0 -44 5 -44 34c0 35 61 131 82 161c7 10 29 19 34 19c4 0 5 -1 5 -3c0 -3 -3 -9 -5 -12c-36 -54 -75 -133 -75 -162c0 -16 10 -23 24 -23c53 0 136 81 166 122c7 7 7 2 4 -5zM187 279c0 -3 -3 -4 -5 -1
c-17 31 -36 67 -49 93c-2 4 -3 8 -3 11c0 5 8 15 10 15s3 -1 4 -4c11 -28 35 -82 43 -114z" />
    <glyph glyph-name="iacute" unicode="&#xed;" horiz-adv-x="181" 
d="M281 131c-32 -41 -77 -81 -112 -104c-26 -17 -56 -27 -79 -27c-17 0 -44 5 -44 34c0 35 61 131 82 161c7 10 29 19 34 19c4 0 5 -1 5 -3c0 -3 -3 -9 -5 -12c-36 -54 -75 -133 -75 -162c0 -16 10 -23 24 -23c53 0 136 81 166 122c7 7 7 2 4 -5zM304 393c0 -2 -1 -3 -3 -5
c-47 -36 -105 -78 -160 -115c-6 -4 -9 0 -6 2c49 40 106 86 156 126c2 1 4 2 5 2c3 0 8 -6 8 -10z" />
    <glyph glyph-name="icircumflex" unicode="&#xee;" horiz-adv-x="181" 
d="M281 131c-32 -41 -77 -81 -112 -104c-26 -17 -56 -27 -79 -27c-17 0 -44 5 -44 34c0 35 61 131 82 161c7 10 29 19 34 19c4 0 5 -1 5 -3c0 -3 -3 -9 -5 -12c-36 -54 -75 -133 -75 -162c0 -16 10 -23 24 -23c53 0 136 81 166 122c7 7 7 2 4 -5zM243 295c0 -9 0 -12 -4 -15
s-12 -12 -16 -12c-2 0 -3 2 -3 7c0 27 -2 63 -3 90c0 4 -2 6 -4 6c-1 0 -3 -1 -5 -3c-25 -22 -55 -53 -77 -78c-6 -7 -10 -11 -13 -11c-2 0 -4 3 -4 5c0 4 3 8 9 13c23 20 52 48 74 70c10 10 21 21 32 28c2 1 4 2 5 2c2 0 4 -2 4 -5c1 -37 5 -74 5 -97z" />
    <glyph glyph-name="itilde" unicode="&#x129;" horiz-adv-x="181" 
d="M281 131c-32 -41 -77 -81 -112 -104c-26 -17 -56 -27 -79 -27c-17 0 -44 5 -44 34c0 35 61 131 82 161c7 10 29 19 34 19c4 0 5 -1 5 -3c0 -3 -3 -9 -5 -12c-36 -54 -75 -133 -75 -162c0 -16 10 -23 24 -23c53 0 136 81 166 122c7 7 7 2 4 -5zM287 357
c-4 -30 -29 -62 -60 -62c-38 0 -61 55 -90 55c-21 0 -47 -31 -58 -46c-6 -9 -15 -6 -6 6c11 14 33 36 52 50c9 7 18 10 26 10c30 0 53 -57 89 -57c23 0 38 23 38 44c0 6 9 13 9 0z" />
    <glyph glyph-name="idieresis" unicode="&#xef;" horiz-adv-x="181" 
d="M281 131c-32 -41 -77 -81 -112 -104c-26 -17 -56 -27 -79 -27c-17 0 -44 5 -44 34c0 35 61 131 82 161c7 10 29 19 34 19c4 0 5 -1 5 -3c0 -3 -3 -9 -5 -12c-36 -54 -75 -133 -75 -162c0 -16 10 -23 24 -23c53 0 136 81 166 122c7 7 7 2 4 -5zM255 348
c0 -16 -17 -36 -34 -36c-9 0 -12 4 -12 12c0 17 15 37 33 37c8 0 13 -5 13 -13zM183 354c0 -16 -17 -36 -34 -36c-9 0 -12 4 -12 12c0 17 15 37 33 37c8 0 13 -5 13 -13z" />
    <glyph glyph-name="imacron" unicode="&#x12b;" horiz-adv-x="181" 
d="M281 131c-32 -41 -77 -81 -112 -104c-26 -17 -56 -27 -79 -27c-17 0 -44 5 -44 34c0 35 61 131 82 161c7 10 29 19 34 19c4 0 5 -1 5 -3c0 -3 -3 -9 -5 -12c-36 -54 -75 -133 -75 -162c0 -16 10 -23 24 -23c53 0 136 81 166 122c7 7 7 2 4 -5zM236 335l-3 -15l-88 -2
l5 15z" />
    <glyph glyph-name="iogonek" unicode="&#x12f;" horiz-adv-x="181" 
d="M281 131c-32 -41 -77 -81 -112 -104c-26 -17 -56 -27 -79 -27c-17 0 -44 5 -44 34c0 35 61 131 82 161c7 10 29 19 34 19c4 0 5 -1 5 -3c0 -3 -3 -9 -5 -12c-36 -54 -75 -133 -75 -162c0 -16 10 -23 24 -23c53 0 136 81 166 122c7 7 7 2 4 -5zM236 354
c0 -16 -17 -36 -34 -36c-9 0 -12 4 -12 12c0 17 15 37 33 37c8 0 13 -5 13 -13zM109 4c0 -1 -1 -2 -4 -3c-41 -15 -70 -44 -70 -68c0 -18 16 -30 34 -30c4 0 8 2 12 2s2 -5 -2 -6c-10 -3 -18 -5 -33 -5c-26 0 -43 12 -43 29c0 10 6 22 20 35c21 19 73 48 83 48
c2 0 3 -1 3 -2z" />
    <glyph glyph-name="dotlessj" horiz-adv-x="195" 
d="M283 126c0 -41 -33 -82 -59 -106c-99 -92 -184 -154 -283 -242c-56 -49 -59 -81 -132 -147c-2 -2 -4 -2 -6 -2c-7 0 -10 18 -10 24s1 11 4 15c45 63 90 67 134 145c57 102 112 213 180 360c2 5 4 10 4 14c0 5 -3 9 -8 9c-3 0 -21 -6 -35 -7c-5 0 -6 7 1 9
c59 10 73 24 86 24c6 0 10 -4 10 -11c0 -4 -1 -8 -4 -14c-45 -84 -75 -150 -122 -232c-23 -39 -67 -109 -111 -180c77 66 240 178 315 290c17 25 24 48 24 65c0 9 -2 17 -6 22c-4 8 0 7 5 4c9 -7 13 -24 13 -40z" />
    <glyph glyph-name="jcircumflex" unicode="&#x135;" horiz-adv-x="195" 
d="M283 126c0 -41 -33 -82 -59 -106c-99 -92 -184 -154 -283 -242c-56 -49 -59 -81 -132 -147c-2 -2 -4 -2 -6 -2c-7 0 -10 18 -10 24s1 11 4 15c45 63 90 67 134 145c57 102 112 213 180 360c2 5 4 10 4 14c0 5 -3 9 -8 9c-3 0 -21 -6 -35 -7c-5 0 -6 7 1 9
c59 10 73 24 86 24c6 0 10 -4 10 -11c0 -4 -1 -8 -4 -14c-45 -84 -75 -150 -122 -232c-23 -39 -67 -109 -111 -180c77 66 240 178 315 290c17 25 24 48 24 65c0 9 -2 17 -6 22c-4 8 0 7 5 4c9 -7 13 -24 13 -40zM232 295c0 -9 0 -12 -4 -15s-12 -12 -16 -12c-2 0 -3 2 -3 7
c0 27 -2 63 -3 90c0 4 -2 6 -4 6c-1 0 -3 -1 -5 -3c-25 -22 -55 -53 -77 -78c-6 -7 -10 -11 -13 -11c-2 0 -4 3 -4 5c0 4 3 8 9 13c23 20 52 48 74 70c10 10 21 21 32 28c2 1 4 2 5 2c2 0 4 -2 4 -5c1 -37 5 -74 5 -97z" />
    <glyph glyph-name="kcommaaccent" unicode="&#x137;" horiz-adv-x="300" 
d="M596 596c0 -15 -10 -28 -13 -47c0 -6 -7 -7 -7 -1c0 4 2 7 2 11c0 33 -36 46 -63 46c-31 0 -79 -10 -132 -65c-49 -51 -98 -120 -140 -189c-53 -87 -143 -245 -157 -273c-5 -11 -3 -10 5 -2c23 23 46 43 74 68c-1 4 -1 8 -1 13c0 11 23 22 32 25c3 0 2 -6 3 -9
c13 11 112 95 122 95c4 0 7 -2 11 -13c0 -4 -4 -7 -10 -9c-31 -10 -97 -61 -124 -85c3 -35 15 -87 32 -120c7 -14 21 -21 34 -21c40 0 104 73 138 123c4 7 11 0 7 -4c-39 -53 -94 -112 -132 -132c-16 -8 -30 -12 -41 -12c-36 0 -48 27 -69 139c-42 -41 -89 -84 -118 -136
c-2 -4 -5 -5 -8 -5c-9 0 -15 15 -15 24c0 2 0 6 1 8c26 38 55 103 148 252c43 69 112 168 171 236c42 48 100 101 158 115c13 3 26 6 38 6c22 0 54 -12 54 -38zM144 -78c0 -46 -51 -91 -86 -112c-6 -2 -10 3 -5 7c30 18 60 50 60 84c0 22 -12 28 -12 36c0 3 3 6 10 12
c6 5 13 12 16 12c8 0 17 -16 17 -39z" />
    <glyph glyph-name="lacute" unicode="&#x13a;" horiz-adv-x="203" 
d="M523 652c0 -55 -133 -290 -338 -401c-25 -43 -95 -155 -95 -208c0 -21 10 -32 29 -32c67 0 147 84 186 131c9 9 10 1 5 -4c-48 -60 -133 -142 -212 -142c-35 0 -49 19 -49 43c0 48 98 197 125 242c45 78 100 171 137 228c22 34 44 64 81 95c51 43 98 66 113 66
c10 0 18 -6 18 -18zM478 626c0 11 -6 16 -13 16c-14 0 -29 -13 -84 -86c-22 -29 -73 -107 -188 -292c161 90 285 275 285 362zM469 716c0 -2 -1 -3 -3 -5c-47 -36 -105 -78 -160 -115c-6 -4 -9 0 -6 2c49 40 106 86 156 126c2 1 4 2 5 2c3 0 8 -6 8 -10z" />
    <glyph glyph-name="lcaron" unicode="&#x13e;" horiz-adv-x="210" 
d="M469 604c-33 -1 -51 -2 -78 -32c-54 -58 -106 -150 -206 -321c-25 -43 -95 -155 -95 -208c0 -21 10 -32 29 -32c67 0 147 84 186 131c9 9 10 1 5 -4c-48 -60 -133 -142 -212 -142c-35 0 -49 19 -49 43c0 48 95 197 122 242c82 142 150 243 193 282c37 34 71 48 89 54
c5 2 14 -1 18 -6c3 -3 3 -7 -2 -7zM436 525c0 -46 -51 -91 -86 -112c-6 -2 -7 1 -2 5c30 18 63 53 63 87c0 26 -18 37 -18 45c0 3 -1 4 8 8s15 6 18 6c8 0 17 -16 17 -39z" />
    <glyph glyph-name="lcommaaccent" unicode="&#x13c;" horiz-adv-x="203" 
d="M523 652c0 -55 -133 -290 -338 -401c-25 -43 -95 -155 -95 -208c0 -21 10 -32 29 -32c67 0 147 84 186 131c9 9 10 1 5 -4c-48 -60 -133 -142 -212 -142c-35 0 -49 19 -49 43c0 48 98 197 125 242c45 78 100 171 137 228c22 34 44 64 81 95c51 43 98 66 113 66
c10 0 18 -6 18 -18zM478 626c0 11 -6 16 -13 16c-14 0 -29 -13 -84 -86c-22 -29 -73 -107 -188 -292c161 90 285 275 285 362zM115 -78c0 -46 -51 -91 -86 -112c-6 -2 -10 3 -5 7c30 18 60 50 60 84c0 22 -12 28 -12 36c0 3 3 6 10 12c6 5 13 12 16 12c8 0 17 -16 17 -39z
" />
    <glyph glyph-name="lslash" unicode="&#x142;" horiz-adv-x="217" 
d="M464 549c-32 4 -57 12 -81 20c-13 -16 -31 -41 -45 -60c-62 -87 -249 -388 -249 -457c0 -29 2 -42 30 -42c55 0 134 69 178 124c6 8 11 3 5 -6c-39 -46 -121 -133 -207 -133c-29 0 -50 13 -50 49c0 61 187 374 325 530c-36 12 -71 22 -121 17c-35 -4 -65 -19 -77 -54
c-2 -3 -5 -1 -4 4c12 50 57 71 103 73c81 5 156 -39 224 -49c48 -7 77 11 87 42c3 3 7 1 6 -2c-25 -54 -69 -64 -124 -56z" />
    <glyph glyph-name="ldot" unicode="&#x140;" horiz-adv-x="210" 
d="M469 604c-33 -1 -51 -2 -78 -32c-54 -58 -106 -150 -206 -321c-25 -43 -95 -155 -95 -208c0 -21 10 -32 29 -32c67 0 147 84 186 131c9 9 10 1 5 -4c-48 -60 -133 -142 -212 -142c-35 0 -49 19 -49 43c0 48 95 197 122 242c82 142 150 243 193 282c37 34 71 48 89 54
c5 2 14 -1 18 -6c3 -3 3 -7 -2 -7zM342 334c0 -15 -16 -30 -31 -30c-11 0 -16 7 -16 18c0 15 11 28 28 28c11 0 19 -3 19 -16z" />
    <glyph glyph-name="nacute" unicode="&#x144;" horiz-adv-x="261" 
d="M363 129c-48 -67 -130 -142 -199 -142c-16 0 -32 3 -32 21c0 38 61 119 85 176c3 7 0 13 -6 9c-29 -19 -85 -68 -110 -97c-21 -33 -33 -58 -56 -93c-2 -3 -4 -6 -6 -6c-7 0 -12 21 -12 25c0 12 20 34 40 59c21 43 46 94 62 131c2 3 6 5 9 5c8 0 16 -8 16 -16
c0 -5 -25 -41 -43 -82c50 45 127 108 142 108c5 0 11 -8 11 -13c0 -4 -2 -7 -5 -12c-30 -43 -92 -144 -92 -181c0 -16 6 -21 21 -21c44 0 133 76 170 135c3 4 11 2 5 -6zM369 393c0 -2 -1 -3 -3 -5c-47 -36 -105 -78 -160 -115c-6 -4 -9 0 -6 2c49 40 106 86 156 126
c2 1 4 2 5 2c3 0 8 -6 8 -10z" />
    <glyph glyph-name="ncaron" unicode="&#x148;" horiz-adv-x="261" 
d="M363 129c-48 -67 -130 -142 -199 -142c-16 0 -32 3 -32 21c0 38 61 119 85 176c3 7 0 13 -6 9c-29 -19 -85 -68 -110 -97c-21 -33 -33 -58 -56 -93c-2 -3 -4 -6 -6 -6c-7 0 -12 21 -12 25c0 12 20 34 40 59c21 43 46 94 62 131c2 3 6 5 9 5c8 0 16 -8 16 -16
c0 -5 -25 -41 -43 -82c50 45 127 108 142 108c5 0 11 -8 11 -13c0 -4 -2 -7 -5 -12c-30 -43 -92 -144 -92 -181c0 -16 6 -21 21 -21c44 0 133 76 170 135c3 4 11 2 5 -6zM332 386c0 -4 -3 -8 -8 -12c-25 -21 -53 -48 -75 -70c-13 -13 -32 -29 -36 -29c-3 0 -5 2 -5 5
c0 16 -7 79 -7 99c0 7 1 9 5 12c3 2 15 12 18 12c2 0 3 -2 3 -7c0 -32 2 -79 2 -90c0 -4 2 -6 4 -6c1 0 3 1 5 3c25 21 57 55 76 78c5 7 10 12 13 12c2 0 5 -5 5 -7z" />
    <glyph glyph-name="ntilde" unicode="&#xf1;" horiz-adv-x="261" 
d="M363 129c-48 -67 -130 -142 -199 -142c-16 0 -32 3 -32 21c0 38 61 119 85 176c3 7 0 13 -6 9c-29 -19 -85 -68 -110 -97c-21 -33 -33 -58 -56 -93c-2 -3 -4 -6 -6 -6c-7 0 -12 21 -12 25c0 12 20 34 40 59c21 43 46 94 62 131c2 3 6 5 9 5c8 0 16 -8 16 -16
c0 -5 -25 -41 -43 -82c50 45 127 108 142 108c5 0 11 -8 11 -13c0 -4 -2 -7 -5 -12c-30 -43 -92 -144 -92 -181c0 -16 6 -21 21 -21c44 0 133 76 170 135c3 4 11 2 5 -6zM341 357c-4 -30 -29 -62 -60 -62c-38 0 -61 55 -90 55c-21 0 -47 -31 -58 -46c-6 -9 -15 -6 -6 6
c11 14 33 36 52 50c9 7 18 10 26 10c30 0 53 -57 89 -57c23 0 38 23 38 44c0 6 9 13 9 0z" />
    <glyph glyph-name="ncommaaccent" unicode="&#x146;" horiz-adv-x="261" 
d="M363 129c-48 -67 -130 -142 -199 -142c-16 0 -32 3 -32 21c0 38 61 119 85 176c3 7 0 13 -6 9c-29 -19 -85 -68 -110 -97c-21 -33 -33 -58 -56 -93c-2 -3 -4 -6 -6 -6c-7 0 -12 21 -12 25c0 12 20 34 40 59c21 43 46 94 62 131c2 3 6 5 9 5c8 0 16 -8 16 -16
c0 -5 -25 -41 -43 -82c50 45 127 108 142 108c5 0 11 -8 11 -13c0 -4 -2 -7 -5 -12c-30 -43 -92 -144 -92 -181c0 -16 6 -21 21 -21c44 0 133 76 170 135c3 4 11 2 5 -6zM103 -78c0 -46 -51 -91 -86 -112c-6 -2 -10 3 -5 7c30 18 60 50 60 84c0 22 -12 28 -12 36
c0 3 3 6 10 12c6 5 13 12 16 12c8 0 17 -16 17 -39z" />
    <glyph glyph-name="ograve" unicode="&#xf2;" horiz-adv-x="250" 
d="M381 170c-23 -31 -56 -60 -97 -60c-23 0 -47 12 -60 34c-18 -44 -61 -115 -117 -143c-11 -5 -22 -8 -30 -8c-23 0 -36 10 -36 32c0 47 40 106 66 134c28 30 65 54 106 58c2 11 7 29 20 31c6 1 14 2 19 5c4 3 10 0 7 -5c-9 -15 -14 -39 -14 -65c0 -37 13 -64 47 -64
c35 0 63 27 82 54c3 6 12 2 7 -3zM216 163c-3 12 -4 29 -4 44c0 3 0 5 -4 5c-29 0 -66 -44 -93 -89c-17 -29 -34 -65 -33 -96c0 -9 2 -19 14 -19c45 0 115 117 120 155zM238 279c0 -3 -3 -4 -5 -1c-17 31 -36 67 -49 93c-2 4 -3 8 -3 11c0 5 8 15 10 15s3 -1 4 -4
c11 -28 35 -82 43 -114z" />
    <glyph glyph-name="oacute" unicode="&#xf3;" horiz-adv-x="250" 
d="M381 170c-23 -31 -56 -60 -97 -60c-23 0 -47 12 -60 34c-18 -44 -61 -115 -117 -143c-11 -5 -22 -8 -30 -8c-23 0 -36 10 -36 32c0 47 40 106 66 134c28 30 65 54 106 58c2 11 7 29 20 31c6 1 14 2 19 5c4 3 10 0 7 -5c-9 -15 -14 -39 -14 -65c0 -37 13 -64 47 -64
c35 0 63 27 82 54c3 6 12 2 7 -3zM216 163c-3 12 -4 29 -4 44c0 3 0 5 -4 5c-29 0 -66 -44 -93 -89c-17 -29 -34 -65 -33 -96c0 -9 2 -19 14 -19c45 0 115 117 120 155zM336 393c0 -2 -1 -3 -3 -5c-47 -36 -105 -78 -160 -115c-6 -4 -9 0 -6 2c49 40 106 86 156 126
c2 1 4 2 5 2c3 0 8 -6 8 -10z" />
    <glyph glyph-name="ocircumflex" unicode="&#xf4;" horiz-adv-x="250" 
d="M381 170c-23 -31 -56 -60 -97 -60c-23 0 -47 12 -60 34c-18 -44 -61 -115 -117 -143c-11 -5 -22 -8 -30 -8c-23 0 -36 10 -36 32c0 47 40 106 66 134c28 30 65 54 106 58c2 11 7 29 20 31c6 1 14 2 19 5c4 3 10 0 7 -5c-9 -15 -14 -39 -14 -65c0 -37 13 -64 47 -64
c35 0 63 27 82 54c3 6 12 2 7 -3zM216 163c-3 12 -4 29 -4 44c0 3 0 5 -4 5c-29 0 -66 -44 -93 -89c-17 -29 -34 -65 -33 -96c0 -9 2 -19 14 -19c45 0 115 117 120 155zM304 295c0 -9 0 -12 -4 -15s-12 -12 -16 -12c-2 0 -3 2 -3 7c0 27 -2 63 -3 90c0 4 -2 6 -4 6
c-1 0 -3 -1 -5 -3c-25 -22 -55 -53 -77 -78c-6 -7 -10 -11 -13 -11c-2 0 -4 3 -4 5c0 4 3 8 9 13c23 20 52 48 74 70c10 10 21 21 32 28c2 1 4 2 5 2c2 0 4 -2 4 -5c1 -37 5 -74 5 -97z" />
    <glyph glyph-name="otilde" unicode="&#xf5;" horiz-adv-x="250" 
d="M381 170c-23 -31 -56 -60 -97 -60c-23 0 -47 12 -60 34c-18 -44 -61 -115 -117 -143c-11 -5 -22 -8 -30 -8c-23 0 -36 10 -36 32c0 47 40 106 66 134c28 30 65 54 106 58c2 11 7 29 20 31c6 1 14 2 19 5c4 3 10 0 7 -5c-9 -15 -14 -39 -14 -65c0 -37 13 -64 47 -64
c35 0 63 27 82 54c3 6 12 2 7 -3zM216 163c-3 12 -4 29 -4 44c0 3 0 5 -4 5c-29 0 -66 -44 -93 -89c-17 -29 -34 -65 -33 -96c0 -9 2 -19 14 -19c45 0 115 117 120 155zM356 357c-4 -30 -29 -62 -60 -62c-38 0 -61 55 -90 55c-21 0 -47 -31 -58 -46c-6 -9 -15 -6 -6 6
c11 14 33 36 52 50c9 7 18 10 26 10c30 0 53 -57 89 -57c23 0 38 23 38 44c0 6 9 13 9 0z" />
    <glyph glyph-name="odieresis" unicode="&#xf6;" horiz-adv-x="250" 
d="M381 170c-23 -31 -56 -60 -97 -60c-23 0 -47 12 -60 34c-18 -44 -61 -115 -117 -143c-11 -5 -22 -8 -30 -8c-23 0 -36 10 -36 32c0 47 40 106 66 134c28 30 65 54 106 58c2 11 7 29 20 31c6 1 14 2 19 5c4 3 10 0 7 -5c-9 -15 -14 -39 -14 -65c0 -37 13 -64 47 -64
c35 0 63 27 82 54c3 6 12 2 7 -3zM216 163c-3 12 -4 29 -4 44c0 3 0 5 -4 5c-29 0 -66 -44 -93 -89c-17 -29 -34 -65 -33 -96c0 -9 2 -19 14 -19c45 0 115 117 120 155zM313 348c0 -16 -17 -36 -34 -36c-9 0 -12 4 -12 12c0 17 15 37 33 37c8 0 13 -5 13 -13zM241 354
c0 -16 -17 -36 -34 -36c-9 0 -12 4 -12 12c0 17 15 37 33 37c8 0 13 -5 13 -13z" />
    <glyph glyph-name="omacron" unicode="&#x14d;" horiz-adv-x="250" 
d="M381 170c-23 -31 -56 -60 -97 -60c-23 0 -47 12 -60 34c-18 -44 -61 -115 -117 -143c-11 -5 -22 -8 -30 -8c-23 0 -36 10 -36 32c0 47 40 106 66 134c28 30 65 54 106 58c2 11 7 29 20 31c6 1 14 2 19 5c4 3 10 0 7 -5c-9 -15 -14 -39 -14 -65c0 -37 13 -64 47 -64
c35 0 63 27 82 54c3 6 12 2 7 -3zM216 163c-3 12 -4 29 -4 44c0 3 0 5 -4 5c-29 0 -66 -44 -93 -89c-17 -29 -34 -65 -33 -96c0 -9 2 -19 14 -19c45 0 115 117 120 155zM295 335l-3 -15l-88 -2l5 15z" />
    <glyph glyph-name="obreve" unicode="&#x14f;" horiz-adv-x="250" 
d="M381 170c-23 -31 -56 -60 -97 -60c-23 0 -47 12 -60 34c-18 -44 -61 -115 -117 -143c-11 -5 -22 -8 -30 -8c-23 0 -36 10 -36 32c0 47 40 106 66 134c28 30 65 54 106 58c2 11 7 29 20 31c6 1 14 2 19 5c4 3 10 0 7 -5c-9 -15 -14 -39 -14 -65c0 -37 13 -64 47 -64
c35 0 63 27 82 54c3 6 12 2 7 -3zM216 163c-3 12 -4 29 -4 44c0 3 0 5 -4 5c-29 0 -66 -44 -93 -89c-17 -29 -34 -65 -33 -96c0 -9 2 -19 14 -19c45 0 115 117 120 155zM324 345c0 -4 -4 -7 -8 -13c-23 -29 -51 -42 -75 -42c-28 0 -49 18 -49 50c0 9 10 14 18 14
c3 0 4 -1 4 -6c0 -25 12 -44 39 -44c19 0 41 12 55 35c4 6 8 12 11 12c2 0 5 -4 5 -6z" />
    <glyph glyph-name="ohungarumlaut" unicode="&#x151;" horiz-adv-x="250" 
d="M381 170c-23 -31 -56 -60 -97 -60c-23 0 -47 12 -60 34c-18 -44 -61 -115 -117 -143c-11 -5 -22 -8 -30 -8c-23 0 -36 10 -36 32c0 47 40 106 66 134c28 30 65 54 106 58c2 11 7 29 20 31c6 1 14 2 19 5c4 3 10 0 7 -5c-9 -15 -14 -39 -14 -65c0 -37 13 -64 47 -64
c35 0 63 27 82 54c3 6 12 2 7 -3zM216 163c-3 12 -4 29 -4 44c0 3 0 5 -4 5c-29 0 -66 -44 -93 -89c-17 -29 -34 -65 -33 -96c0 -9 2 -19 14 -19c45 0 115 117 120 155zM346 366c0 -4 -2 -6 -6 -11c-20 -21 -48 -50 -74 -73c-6 -5 -4 2 -3 3c11 18 47 64 68 92c2 2 4 3 6 3
c7 0 9 -8 9 -14zM285 368c0 -5 -2 -8 -7 -13c-20 -21 -49 -50 -74 -75c-3 -3 -6 0 -3 3c21 34 48 64 72 96c1 2 3 3 5 3c6 0 7 -10 7 -14z" />
    <glyph glyph-name="oslash" unicode="&#xf8;" horiz-adv-x="235" 
d="M61 2c-13 -13 -23 -27 -31 -36c-6 -7 -12 -3 -5 7l31 37c-4 7 -6 16 -6 26c0 16 7 45 20 69c15 27 40 54 101 94c37 24 42 25 45 25s4 -2 5 -3c3 -6 6 -11 9 -14c10 13 27 32 34 40s12 4 5 -5c-8 -9 -23 -26 -34 -39c14 -12 35 -15 75 -15c19 0 46 4 65 9c5 0 6 -3 0 -5
c-21 -7 -58 -10 -77 -10c-18 0 -45 1 -64 3c-5 -61 -33 -112 -76 -154c-27 -25 -48 -36 -72 -36c-11 0 -19 3 -25 7zM75 30c38 43 96 111 135 155c-2 9 -6 15 -15 15c-28 0 -126 -67 -120 -170zM78 22c5 -11 15 -15 22 -15c56 0 111 111 111 166v4
c-40 -46 -95 -111 -133 -155z" />
    <glyph glyph-name="oe" unicode="&#x153;" horiz-adv-x="357" 
d="M179 55c-31 -40 -78 -62 -102 -62c-26 0 -36 19 -36 43s14 57 33 88c16 23 56 58 117 93c6 -1 4 -6 1 -8c-72 -36 -114 -112 -114 -171c0 -17 7 -32 17 -32c50 0 110 97 110 156c0 15 -2 28 -6 36c1 3 18 11 28 14c4 1 6 0 6 -2c3 -16 2 -43 -5 -65c40 55 86 75 109 75
c14 0 20 -4 20 -17c0 -42 -94 -112 -144 -133c-2 -7 -2 -14 -2 -19c0 -21 18 -42 57 -42c49 0 116 30 176 103c5 6 7 -2 3 -6c-62 -72 -133 -112 -202 -112c-40 0 -68 7 -68 46c0 4 1 11 2 15zM215 78c69 34 120 99 120 121c0 13 -11 16 -29 5c-38 -23 -77 -77 -91 -126z
" />
    <glyph glyph-name="racute" unicode="&#x155;" horiz-adv-x="195" 
d="M271 204c-8 -9 -18 -25 -21 -32c-1 -2 -3 -3 -4 -3c-4 0 -7 19 -35 19c-17 0 -41 -15 -57 -29c-50 -44 -75 -101 -112 -160c-1 -2 -4 -3 -6 -3c-3 0 -15 11 -15 15c0 5 3 11 7 18c43 75 92 158 104 181c3 6 5 9 7 9s18 -7 18 -19c0 -8 -22 -40 -26 -49c-4 -7 0 -6 4 -2
c26 27 82 69 114 69c12 0 22 -7 22 -14zM352 393c0 -2 -1 -3 -3 -5c-47 -36 -105 -78 -160 -115c-6 -4 -9 0 -6 2c49 40 106 86 156 126c2 1 4 2 5 2c3 0 8 -6 8 -10z" />
    <glyph glyph-name="rcommaaccent" unicode="&#x157;" horiz-adv-x="195" 
d="M271 204c-8 -9 -18 -25 -21 -32c-1 -2 -3 -3 -4 -3c-4 0 -7 19 -35 19c-17 0 -41 -15 -57 -29c-50 -44 -75 -101 -112 -160c-1 -2 -4 -3 -6 -3c-3 0 -15 11 -15 15c0 5 3 11 7 18c43 75 92 158 104 181c3 6 5 9 7 9s18 -7 18 -19c0 -8 -22 -40 -26 -49c-4 -7 0 -6 4 -2
c26 27 82 69 114 69c12 0 22 -7 22 -14zM70 -78c0 -46 -51 -91 -86 -112c-6 -2 -10 3 -5 7c30 18 60 50 60 84c0 22 -12 28 -12 36c0 3 3 6 10 12c6 5 13 12 16 12c8 0 17 -16 17 -39z" />
    <glyph glyph-name="rcaron" unicode="&#x159;" horiz-adv-x="195" 
d="M271 204c-8 -9 -18 -25 -21 -32c-1 -2 -3 -3 -4 -3c-4 0 -7 19 -35 19c-17 0 -41 -15 -57 -29c-50 -44 -75 -101 -112 -160c-1 -2 -4 -3 -6 -3c-3 0 -15 11 -15 15c0 5 3 11 7 18c43 75 92 158 104 181c3 6 5 9 7 9s18 -7 18 -19c0 -8 -22 -40 -26 -49c-4 -7 0 -6 4 -2
c26 27 82 69 114 69c12 0 22 -7 22 -14zM324 386c0 -4 -3 -8 -8 -12c-25 -21 -53 -48 -75 -70c-13 -13 -32 -29 -36 -29c-3 0 -5 2 -5 5c0 16 -7 79 -7 99c0 7 1 9 5 12c3 2 15 12 18 12c2 0 3 -2 3 -7c0 -32 2 -79 2 -90c0 -4 2 -6 4 -6c1 0 3 1 5 3c25 21 57 55 76 78
c5 7 10 12 13 12c2 0 5 -5 5 -7z" />
    <glyph glyph-name="sacute" unicode="&#x15b;" horiz-adv-x="179" 
d="M193 183c-2 -3 -4 -3 -5 -1c-4 9 -12 13 -25 13c-19 0 -42 -11 -42 -32c0 -11 7 -20 19 -37c11 -16 22 -32 22 -49c0 -69 -75 -86 -101 -86c-41 0 -63 14 -67 41c6 4 17 11 21 16c3 0 2 -1 3 -4c7 -24 27 -44 52 -44c21 0 63 5 63 51c0 17 -8 32 -16 44
c-8 13 -18 26 -18 42c0 32 50 79 89 79c11 0 16 -2 16 -10c-4 -6 -9 -16 -11 -23zM337 393c0 -2 -1 -3 -3 -5c-47 -36 -105 -78 -160 -115c-6 -4 -9 0 -6 2c49 40 106 86 156 126c2 1 4 2 5 2c3 0 8 -6 8 -10z" />
    <glyph glyph-name="scircumflex" unicode="&#x15d;" horiz-adv-x="179" 
d="M193 183c-2 -3 -4 -3 -5 -1c-4 9 -12 13 -25 13c-19 0 -42 -11 -42 -32c0 -11 7 -20 19 -37c11 -16 22 -32 22 -49c0 -69 -75 -86 -101 -86c-41 0 -63 14 -67 41c6 4 17 11 21 16c3 0 2 -1 3 -4c7 -24 27 -44 52 -44c21 0 63 5 63 51c0 17 -8 32 -16 44
c-8 13 -18 26 -18 42c0 32 50 79 89 79c11 0 16 -2 16 -10c-4 -6 -9 -16 -11 -23zM259 295c0 -9 0 -12 -4 -15s-12 -12 -16 -12c-2 0 -3 2 -3 7c0 27 -2 63 -3 90c0 4 -2 6 -4 6c-1 0 -3 -1 -5 -3c-25 -22 -55 -53 -77 -78c-6 -7 -10 -11 -13 -11c-2 0 -4 3 -4 5
c0 4 3 8 9 13c23 20 52 48 74 70c10 10 21 21 32 28c2 1 4 2 5 2c2 0 4 -2 4 -5c1 -37 5 -74 5 -97z" />
    <glyph glyph-name="scaron" unicode="&#x161;" horiz-adv-x="179" 
d="M193 183c-2 -3 -4 -3 -5 -1c-4 9 -12 13 -25 13c-19 0 -42 -11 -42 -32c0 -11 7 -20 19 -37c11 -16 22 -32 22 -49c0 -69 -75 -86 -101 -86c-41 0 -63 14 -67 41c6 4 17 11 21 16c3 0 2 -1 3 -4c7 -24 27 -44 52 -44c21 0 63 5 63 51c0 17 -8 32 -16 44
c-8 13 -18 26 -18 42c0 32 50 79 89 79c11 0 16 -2 16 -10c-4 -6 -9 -16 -11 -23zM300 386c0 -4 -3 -8 -8 -12c-25 -21 -53 -48 -75 -70c-13 -13 -32 -29 -36 -29c-3 0 -5 2 -5 5c0 16 -7 79 -7 99c0 7 1 9 5 12c3 2 15 12 18 12c2 0 3 -2 3 -7c0 -32 2 -79 2 -90
c0 -4 2 -6 4 -6c1 0 3 1 5 3c25 21 57 55 76 78c5 7 10 12 13 12c2 0 5 -5 5 -7z" />
    <glyph glyph-name="scedilla" unicode="&#x15f;" horiz-adv-x="179" 
d="M193 183c-2 -3 -4 -3 -5 -1c-4 9 -12 13 -25 13c-19 0 -42 -11 -42 -32c0 -11 7 -20 19 -37c11 -16 22 -32 22 -49c0 -69 -75 -86 -101 -86c-41 0 -63 14 -67 41c6 4 17 11 21 16c3 0 2 -1 3 -4c7 -24 27 -44 52 -44c21 0 63 5 63 51c0 17 -8 32 -16 44
c-8 13 -18 26 -18 42c0 32 50 79 89 79c11 0 16 -2 16 -10c-4 -6 -9 -16 -11 -23zM83 -7c-10 -3 -37 -16 -37 -28c0 -13 32 -13 32 -33c0 -7 -4 -14 -13 -21c-20 -17 -52 -39 -74 -50c-2 -1 -5 -2 -7 -2s-8 3 -8 6c0 2 2 3 5 4c14 4 67 25 67 44c0 17 -32 18 -32 35
c0 19 50 44 64 50c4 0 10 -1 3 -5z" />
    <glyph glyph-name="scommaaccent" unicode="&#x219;" horiz-adv-x="179" 
d="M193 183c-2 -3 -4 -3 -5 -1c-4 9 -12 13 -25 13c-19 0 -42 -11 -42 -32c0 -11 7 -20 19 -37c11 -16 22 -32 22 -49c0 -69 -75 -86 -101 -86c-41 0 -63 14 -67 41c6 4 17 11 21 16c3 0 2 -1 3 -4c7 -24 27 -44 52 -44c21 0 63 5 63 51c0 17 -8 32 -16 44
c-8 13 -18 26 -18 42c0 32 50 79 89 79c11 0 16 -2 16 -10c-4 -6 -9 -16 -11 -23zM102 -78c0 -46 -51 -91 -86 -112c-6 -2 -10 3 -5 7c30 18 60 50 60 84c0 22 -12 28 -12 36c0 3 3 6 10 12c6 5 13 12 16 12c8 0 17 -16 17 -39z" />
    <glyph glyph-name="germandbls" unicode="&#xdf;" horiz-adv-x="239" 
d="M455 535c0 -32 -12 -55 -166 -220c-42 -45 -66 -67 -66 -91c0 -48 13 -76 13 -120c0 -43 -67 -109 -137 -109c-18 0 -29 0 -46 3c-156 -283 -262 -441 -405 -441c-31 0 -63 12 -82 35c-1 4 1 8 5 5c15 -13 52 -22 78 -22c151 0 233 130 382 430c-19 13 -27 26 -27 42
c0 20 22 60 35 79c3 2 5 1 5 -2c-12 -19 -19 -43 -19 -60c0 -19 7 -34 16 -40c53 119 108 221 157 302c29 48 79 112 127 161c47 48 78 72 103 72c15 0 27 -9 27 -24zM413 505c0 11 -6 22 -20 22c-37 0 -94 -86 -110 -113c-120 -205 -155 -287 -222 -404c13 -6 25 -7 39 -7
c65 0 94 47 94 87c0 47 -7 56 -7 102c0 12 8 36 29 57c106 106 197 208 197 256z" />
    <glyph glyph-name="tcaron" unicode="&#x165;" horiz-adv-x="198" 
d="M248 338c-30 -38 -56 -77 -85 -131h124c4 -2 4 -6 1 -7c-22 0 -92 -3 -133 -6c-37 -66 -58 -112 -58 -146c0 -23 12 -36 33 -36s50 12 80 31c4 4 11 -3 4 -6c-45 -29 -82 -42 -122 -42c-21 0 -40 11 -40 42c0 27 25 79 71 155c-16 -1 -46 -4 -50 -4s-5 1 -5 4
c3 5 8 10 13 14l51 1c20 34 48 75 64 108c3 6 1 10 -4 10c-4 0 -6 1 -6 3c0 1 1 2 5 3c13 2 41 8 54 13c3 0 4 -3 3 -6zM320 373c0 -46 -51 -91 -86 -112c-6 -2 -10 3 -5 7c30 18 60 50 60 84c0 22 -12 28 -12 36c0 3 3 6 10 12c6 5 13 12 16 12c8 0 17 -16 17 -39z" />
    <glyph glyph-name="tcommaaccent" unicode="&#x163;" horiz-adv-x="198" 
d="M282 365c-10 -3 -26 -11 -33 -21c-30 -42 -60 -90 -86 -137h124c4 -2 4 -6 1 -7c-22 0 -92 -3 -133 -6c-37 -66 -58 -112 -58 -146c0 -23 12 -36 33 -36s50 12 80 31c4 4 11 -3 4 -6c-45 -29 -82 -42 -122 -42c-21 0 -40 11 -40 42c0 27 25 79 71 155
c-16 -1 -46 -4 -50 -4s-5 1 -5 4c3 5 8 10 13 14l51 1c24 41 60 100 85 139c15 7 45 19 65 26c3 0 5 -5 0 -7zM118 -78c0 -46 -51 -91 -86 -112c-6 -2 -10 3 -5 7c30 18 60 50 60 84c0 22 -12 28 -12 36c0 3 3 6 10 12c6 5 13 12 16 12c8 0 17 -16 17 -39z" />
    <glyph glyph-name="uni021B" unicode="&#x21b;" horiz-adv-x="198" 
d="M282 365c-10 -3 -26 -11 -33 -21c-30 -42 -60 -90 -86 -137h124c4 -2 4 -6 1 -7c-22 0 -92 -3 -133 -6c-37 -66 -58 -112 -58 -146c0 -23 12 -36 33 -36s50 12 80 31c4 4 11 -3 4 -6c-45 -29 -82 -42 -122 -42c-21 0 -40 11 -40 42c0 27 25 79 71 155
c-16 -1 -46 -4 -50 -4s-5 1 -5 4c3 5 8 10 13 14l51 1c24 41 60 100 85 139c15 7 45 19 65 26c3 0 5 -5 0 -7zM118 -78c0 -46 -51 -91 -86 -112c-6 -2 -10 3 -5 7c30 18 60 50 60 84c0 22 -12 28 -12 36c0 3 3 6 10 12c6 5 13 12 16 12c8 0 17 -16 17 -39z" />
    <glyph glyph-name="tbar" unicode="&#x167;" horiz-adv-x="198" 
d="M279 356c-10 -3 -26 -11 -33 -21c-30 -42 -54 -80 -80 -127h114c4 -2 4 -6 1 -7c-22 0 -82 -3 -123 -6c-9 -17 -18 -32 -26 -47h114c4 -2 4 -6 1 -7c-22 0 -80 -3 -121 -6c-20 -40 -32 -73 -32 -96s12 -36 33 -36s50 12 80 31c4 4 11 -3 4 -6c-45 -29 -82 -42 -122 -42
c-21 0 -40 11 -40 42c0 19 16 57 42 105c-16 -1 -45 -4 -49 -4s-5 1 -5 4c3 5 8 10 13 14l49 1c8 14 17 29 27 45c-16 -1 -52 -4 -56 -4s-5 1 -5 4c3 5 8 10 13 14l57 1c24 41 54 90 79 129c15 7 45 19 65 26c3 0 5 -5 0 -7z" />
    <glyph glyph-name="thorn" unicode="&#xfe;" horiz-adv-x="220" 
d="M336 157c-70 -89 -153 -127 -240 -147c-31 -7 -45 -9 -73 -14c-32 -55 -134 -234 -155 -273c-6 -11 -18 -18 -130 -43c-7 -1 -6 5 -2 7c41 13 69 24 101 58c39 42 120 166 171 250c-7 3 -7 7 -7 12c0 8 12 8 17 9l46 75c42 69 137 225 209 363c5 9 9 21 9 30
c0 15 -13 21 -37 21c-10 0 -19 -1 -33 -4c-6 -1 -6 6 0 7c21 5 70 14 89 14c9 0 23 -6 23 -22c0 -11 -7 -22 -10 -27c-38 -64 -158 -260 -185 -304c26 29 66 68 92 68c13 0 23 -7 23 -26c0 -27 -49 -128 -184 -192c73 8 184 29 270 142c1 3 6 2 6 -4zM203 191
c0 5 0 16 -12 16c-13 0 -62 -38 -93 -83c-22 -32 -44 -70 -65 -108c87 24 170 131 170 175z" />
    <glyph glyph-name="ugrave" unicode="&#xf9;" horiz-adv-x="257" 
d="M355 120c-45 -65 -127 -150 -188 -150c-26 0 -36 15 -36 35c0 12 3 30 11 48c-16 -20 -40 -54 -77 -54c-14 0 -25 8 -25 27c0 20 16 60 85 179c3 6 7 10 9 10c9 0 22 -16 22 -20c0 -2 -2 -6 -6 -12c-42 -64 -78 -131 -78 -156c0 -10 3 -15 11 -15c13 0 37 19 69 68
c23 42 54 97 66 117c3 4 5 7 8 7c5 0 14 -13 14 -29c0 -5 -1 -9 -4 -14c-46 -71 -78 -118 -78 -159c0 -12 4 -22 21 -22c36 0 110 59 170 145c3 1 6 -1 6 -5zM221 279c0 -3 -3 -4 -5 -1c-17 31 -36 67 -49 93c-2 4 -3 8 -3 11c0 5 8 15 10 15s3 -1 4 -4
c11 -28 35 -82 43 -114z" />
    <glyph glyph-name="uacute" unicode="&#xfa;" horiz-adv-x="257" 
d="M355 120c-45 -65 -127 -150 -188 -150c-26 0 -36 15 -36 35c0 12 3 30 11 48c-16 -20 -40 -54 -77 -54c-14 0 -25 8 -25 27c0 20 16 60 85 179c3 6 7 10 9 10c9 0 22 -16 22 -20c0 -2 -2 -6 -6 -12c-42 -64 -78 -131 -78 -156c0 -10 3 -15 11 -15c13 0 37 19 69 68
c23 42 54 97 66 117c3 4 5 7 8 7c5 0 14 -13 14 -29c0 -5 -1 -9 -4 -14c-46 -71 -78 -118 -78 -159c0 -12 4 -22 21 -22c36 0 110 59 170 145c3 1 6 -1 6 -5zM348 393c0 -2 -1 -3 -3 -5c-47 -36 -105 -78 -160 -115c-6 -4 -9 0 -6 2c49 40 106 86 156 126c2 1 4 2 5 2
c3 0 8 -6 8 -10z" />
    <glyph glyph-name="ucircumflex" unicode="&#xfb;" horiz-adv-x="257" 
d="M355 120c-45 -65 -127 -150 -188 -150c-26 0 -36 15 -36 35c0 12 3 30 11 48c-16 -20 -40 -54 -77 -54c-14 0 -25 8 -25 27c0 20 16 60 85 179c3 6 7 10 9 10c9 0 22 -16 22 -20c0 -2 -2 -6 -6 -12c-42 -64 -78 -131 -78 -156c0 -10 3 -15 11 -15c13 0 37 19 69 68
c23 42 54 97 66 117c3 4 5 7 8 7c5 0 14 -13 14 -29c0 -5 -1 -9 -4 -14c-46 -71 -78 -118 -78 -159c0 -12 4 -22 21 -22c36 0 110 59 170 145c3 1 6 -1 6 -5zM287 295c0 -9 0 -12 -4 -15s-12 -12 -16 -12c-2 0 -3 2 -3 7c0 27 -2 63 -3 90c0 4 -2 6 -4 6c-1 0 -3 -1 -5 -3
c-25 -22 -55 -53 -77 -78c-6 -7 -10 -11 -13 -11c-2 0 -4 3 -4 5c0 4 3 8 9 13c23 20 52 48 74 70c10 10 21 21 32 28c2 1 4 2 5 2c2 0 4 -2 4 -5c1 -37 5 -74 5 -97z" />
    <glyph glyph-name="utilde" unicode="&#x169;" horiz-adv-x="257" 
d="M355 120c-45 -65 -127 -150 -188 -150c-26 0 -36 15 -36 35c0 12 3 30 11 48c-16 -20 -40 -54 -77 -54c-14 0 -25 8 -25 27c0 20 16 60 85 179c3 6 7 10 9 10c9 0 22 -16 22 -20c0 -2 -2 -6 -6 -12c-42 -64 -78 -131 -78 -156c0 -10 3 -15 11 -15c13 0 37 19 69 68
c23 42 54 97 66 117c3 4 5 7 8 7c5 0 14 -13 14 -29c0 -5 -1 -9 -4 -14c-46 -71 -78 -118 -78 -159c0 -12 4 -22 21 -22c36 0 110 59 170 145c3 1 6 -1 6 -5zM325 357c-4 -30 -29 -62 -60 -62c-38 0 -61 55 -90 55c-21 0 -47 -31 -58 -46c-6 -9 -15 -6 -6 6
c11 14 33 36 52 50c9 7 18 10 26 10c30 0 53 -57 89 -57c23 0 38 23 38 44c0 6 9 13 9 0z" />
    <glyph glyph-name="udieresis" unicode="&#xfc;" horiz-adv-x="257" 
d="M355 120c-45 -65 -127 -150 -188 -150c-26 0 -36 15 -36 35c0 12 3 30 11 48c-16 -20 -40 -54 -77 -54c-14 0 -25 8 -25 27c0 20 16 60 85 179c3 6 7 10 9 10c9 0 22 -16 22 -20c0 -2 -2 -6 -6 -12c-42 -64 -78 -131 -78 -156c0 -10 3 -15 11 -15c13 0 37 19 69 68
c23 42 54 97 66 117c3 4 5 7 8 7c5 0 14 -13 14 -29c0 -5 -1 -9 -4 -14c-46 -71 -78 -118 -78 -159c0 -12 4 -22 21 -22c36 0 110 59 170 145c3 1 6 -1 6 -5zM305 348c0 -16 -17 -36 -34 -36c-9 0 -12 4 -12 12c0 17 15 37 33 37c8 0 13 -5 13 -13zM233 354
c0 -16 -17 -36 -34 -36c-9 0 -12 4 -12 12c0 17 15 37 33 37c8 0 13 -5 13 -13z" />
    <glyph glyph-name="umacron" unicode="&#x16b;" horiz-adv-x="257" 
d="M355 120c-45 -65 -127 -150 -188 -150c-26 0 -36 15 -36 35c0 12 3 30 11 48c-16 -20 -40 -54 -77 -54c-14 0 -25 8 -25 27c0 20 16 60 85 179c3 6 7 10 9 10c9 0 22 -16 22 -20c0 -2 -2 -6 -6 -12c-42 -64 -78 -131 -78 -156c0 -10 3 -15 11 -15c13 0 37 19 69 68
c23 42 54 97 66 117c3 4 5 7 8 7c5 0 14 -13 14 -29c0 -5 -1 -9 -4 -14c-46 -71 -78 -118 -78 -159c0 -12 4 -22 21 -22c36 0 110 59 170 145c3 1 6 -1 6 -5zM267 335l-3 -15l-88 -2l5 15z" />
    <glyph glyph-name="ubreve" unicode="&#x16d;" horiz-adv-x="257" 
d="M355 120c-45 -65 -127 -150 -188 -150c-26 0 -36 15 -36 35c0 12 3 30 11 48c-16 -20 -40 -54 -77 -54c-14 0 -25 8 -25 27c0 20 16 60 85 179c3 6 7 10 9 10c9 0 22 -16 22 -20c0 -2 -2 -6 -6 -12c-42 -64 -78 -131 -78 -156c0 -10 3 -15 11 -15c13 0 37 19 69 68
c23 42 54 97 66 117c3 4 5 7 8 7c5 0 14 -13 14 -29c0 -5 -1 -9 -4 -14c-46 -71 -78 -118 -78 -159c0 -12 4 -22 21 -22c36 0 110 59 170 145c3 1 6 -1 6 -5zM310 345c0 -4 -4 -7 -8 -13c-23 -29 -51 -42 -75 -42c-28 0 -49 18 -49 50c0 9 10 14 18 14c3 0 4 -1 4 -6
c0 -25 12 -44 39 -44c19 0 41 12 55 35c4 6 8 12 11 12c2 0 5 -4 5 -6z" />
    <glyph glyph-name="uring" unicode="&#x16f;" horiz-adv-x="257" 
d="M355 120c-45 -65 -127 -150 -188 -150c-26 0 -36 15 -36 35c0 12 3 30 11 48c-16 -20 -40 -54 -77 -54c-14 0 -25 8 -25 27c0 20 16 60 85 179c3 6 7 10 9 10c9 0 22 -16 22 -20c0 -2 -2 -6 -6 -12c-42 -64 -78 -131 -78 -156c0 -10 3 -15 11 -15c13 0 37 19 69 68
c23 42 54 97 66 117c3 4 5 7 8 7c5 0 14 -13 14 -29c0 -5 -1 -9 -4 -14c-46 -71 -78 -118 -78 -159c0 -12 4 -22 21 -22c36 0 110 59 170 145c3 1 6 -1 6 -5zM305 362c0 -33 -25 -68 -72 -68c-28 0 -48 15 -48 43c0 26 21 68 71 68c33 0 49 -15 49 -43zM291 360
c0 23 -10 39 -36 39c-39 0 -56 -30 -56 -60c0 -24 17 -39 38 -39c36 0 54 34 54 60z" />
    <glyph glyph-name="uhungarumlaut" unicode="&#x171;" horiz-adv-x="257" 
d="M355 120c-45 -65 -127 -150 -188 -150c-26 0 -36 15 -36 35c0 12 3 30 11 48c-16 -20 -40 -54 -77 -54c-14 0 -25 8 -25 27c0 20 16 60 85 179c3 6 7 10 9 10c9 0 22 -16 22 -20c0 -2 -2 -6 -6 -12c-42 -64 -78 -131 -78 -156c0 -10 3 -15 11 -15c13 0 37 19 69 68
c23 42 54 97 66 117c3 4 5 7 8 7c5 0 14 -13 14 -29c0 -5 -1 -9 -4 -14c-46 -71 -78 -118 -78 -159c0 -12 4 -22 21 -22c36 0 110 59 170 145c3 1 6 -1 6 -5zM321 366c0 -4 -2 -6 -6 -11c-20 -21 -48 -50 -74 -73c-6 -5 -4 2 -3 3c11 18 47 64 68 92c2 2 4 3 6 3
c7 0 9 -8 9 -14zM260 368c0 -5 -2 -8 -7 -13c-20 -21 -49 -50 -74 -75c-3 -3 -6 0 -3 3c21 34 48 64 72 96c1 2 3 3 5 3c6 0 7 -10 7 -14z" />
    <glyph glyph-name="uogonek" unicode="&#x173;" horiz-adv-x="257" 
d="M355 120c-45 -65 -127 -150 -188 -150c-26 0 -36 15 -36 35c0 12 3 30 11 48c-16 -20 -40 -54 -77 -54c-14 0 -25 8 -25 27c0 20 16 60 85 179c3 6 7 10 9 10c9 0 22 -16 22 -20c0 -2 -2 -6 -6 -12c-42 -64 -78 -131 -78 -156c0 -10 3 -15 11 -15c13 0 37 19 69 68
c23 42 54 97 66 117c3 4 5 7 8 7c5 0 14 -13 14 -29c0 -5 -1 -9 -4 -14c-46 -71 -78 -118 -78 -159c0 -12 4 -22 21 -22c36 0 110 59 170 145c3 1 6 -1 6 -5zM176 -26c0 -1 -1 -2 -4 -3c-41 -15 -70 -44 -70 -68c0 -18 16 -30 34 -30c4 0 8 2 12 2s2 -5 -2 -6
c-10 -3 -18 -5 -33 -5c-26 0 -43 12 -43 29c0 10 6 22 20 35c21 19 73 48 83 48c2 0 3 -1 3 -2z" />
    <glyph glyph-name="wcircumflex" unicode="&#x175;" horiz-adv-x="377" 
d="M511 209c-36 -10 -111 -20 -141 -22c-7 -1 -8 -8 -8 -14c0 -73 -44 -156 -80 -188c-22 -20 -42 -31 -73 -31c-34 0 -56 24 -56 58c0 9 1 16 2 21c-25 -15 -58 -33 -87 -33c-16 0 -27 10 -27 30c0 47 66 135 85 160c4 5 10 13 18 15c10 2 26 7 34 8c2 0 4 -1 4 -3
c0 -3 -8 -3 -20 -15c-40 -44 -82 -131 -82 -164c0 -8 6 -16 15 -16c7 0 28 5 62 27c12 52 39 104 72 144c7 8 24 28 45 28c10 0 11 -10 11 -14c0 -14 -15 -77 -99 -145c0 -37 9 -78 52 -78c64 0 95 97 95 170c0 32 0 54 -21 56c-2 2 -1 5 1 6c8 0 23 9 28 9
c6 0 5 -15 69 -15c39 0 85 8 101 13c5 1 9 -5 0 -7zM260 180c0 3 -1 14 -9 14c-13 0 -52 -42 -65 -130c53 43 74 88 74 116zM347 295c0 -9 0 -12 -4 -15s-12 -12 -16 -12c-2 0 -3 2 -3 7c0 27 -2 63 -3 90c0 4 -2 6 -4 6c-1 0 -3 -1 -5 -3c-25 -22 -55 -53 -77 -78
c-6 -7 -10 -11 -13 -11c-2 0 -4 3 -4 5c0 4 3 8 9 13c23 20 52 48 74 70c10 10 21 21 32 28c2 1 4 2 5 2c2 0 4 -2 4 -5c1 -37 5 -74 5 -97z" />
    <glyph glyph-name="yacute" unicode="&#xfd;" horiz-adv-x="227" 
d="M64 11c-18 0 -30 8 -30 24c0 27 38 82 84 153c5 6 8 10 12 12c7 1 22 4 24 4s4 -1 4 -3c-48 -84 -85 -135 -85 -164c0 -8 3 -12 11 -12c13 0 47 19 59 32c12 12 36 62 69 121c16 29 31 52 40 52c5 -3 11 -16 11 -26s-55 -85 -94 -135c-145 -222 -286 -492 -482 -492
c-39 0 -75 16 -75 63c0 11 3 24 5 30c1 4 5 6 5 1c0 -36 23 -71 91 -71c165 0 321 265 423 440c3 5 -2 2 -3 1c-15 -12 -42 -30 -69 -30zM367 393c0 -2 -1 -3 -3 -5c-47 -36 -105 -78 -160 -115c-6 -4 -9 0 -6 2c49 40 106 86 156 126c2 1 4 2 5 2c3 0 8 -6 8 -10z" />
    <glyph glyph-name="ycircumflex" unicode="&#x177;" horiz-adv-x="227" 
d="M64 11c-18 0 -30 8 -30 24c0 27 38 82 84 153c5 6 8 10 12 12c7 1 22 4 24 4s4 -1 4 -3c-48 -84 -85 -135 -85 -164c0 -8 3 -12 11 -12c13 0 47 19 59 32c12 12 36 62 69 121c16 29 31 52 40 52c5 -3 11 -16 11 -26s-55 -85 -94 -135c-145 -222 -286 -492 -482 -492
c-39 0 -75 16 -75 63c0 11 3 24 5 30c1 4 5 6 5 1c0 -36 23 -71 91 -71c165 0 321 265 423 440c3 5 -2 2 -3 1c-15 -12 -42 -30 -69 -30zM290 295c0 -9 0 -12 -4 -15s-12 -12 -16 -12c-2 0 -3 2 -3 7c0 27 -2 63 -3 90c0 4 -2 6 -4 6c-1 0 -3 -1 -5 -3
c-25 -22 -55 -53 -77 -78c-6 -7 -10 -11 -13 -11c-2 0 -4 3 -4 5c0 4 3 8 9 13c23 20 52 48 74 70c10 10 21 21 32 28c2 1 4 2 5 2c2 0 4 -2 4 -5c1 -37 5 -74 5 -97z" />
    <glyph glyph-name="ydieresis" unicode="&#xff;" horiz-adv-x="227" 
d="M64 11c-18 0 -30 8 -30 24c0 27 38 82 84 153c5 6 8 10 12 12c7 1 22 4 24 4s4 -1 4 -3c-48 -84 -85 -135 -85 -164c0 -8 3 -12 11 -12c13 0 47 19 59 32c12 12 36 62 69 121c16 29 31 52 40 52c5 -3 11 -16 11 -26s-55 -85 -94 -135c-145 -222 -286 -492 -482 -492
c-39 0 -75 16 -75 63c0 11 3 24 5 30c1 4 5 6 5 1c0 -36 23 -71 91 -71c165 0 321 265 423 440c3 5 -2 2 -3 1c-15 -12 -42 -30 -69 -30zM295 348c0 -16 -17 -36 -34 -36c-9 0 -12 4 -12 12c0 17 15 37 33 37c8 0 13 -5 13 -13zM223 354c0 -16 -17 -36 -34 -36
c-9 0 -12 4 -12 12c0 17 15 37 33 37c8 0 13 -5 13 -13z" />
    <glyph glyph-name="zacute" unicode="&#x17a;" horiz-adv-x="223" 
d="M563 -42c-11 -52 -79 -104 -168 -104c-116 0 -225 69 -355 160c-5 3 -6 4 -13 0c-10 -6 -18 -11 -30 -19c-10 -7 -16 6 -6 11c122 59 225 146 225 151c0 3 -2 4 -4 4c-12 -4 -45 -13 -59 -13c-17 0 -42 11 -42 43c3 11 19 27 40 40c3 0 4 -2 4 -4c-5 -5 -9 -15 -9 -28
c0 -22 17 -36 41 -36c31 0 64 23 94 52c6 6 16 -2 10 -10c-23 -16 -51 -39 -66 -52c-32 -28 -87 -69 -150 -111c-5 -3 -8 -6 0 -11c132 -88 268 -166 340 -166c59 0 109 34 142 95c3 2 5 1 6 -2zM385 393c0 -2 -1 -3 -3 -5c-47 -36 -105 -78 -160 -115c-6 -4 -9 0 -6 2
c49 40 106 86 156 126c2 1 4 2 5 2c3 0 8 -6 8 -10z" />
    <glyph glyph-name="zcaron" unicode="&#x17e;" horiz-adv-x="223" 
d="M563 -42c-11 -52 -79 -104 -168 -104c-116 0 -225 69 -355 160c-5 3 -6 4 -13 0c-10 -6 -18 -11 -30 -19c-10 -7 -16 6 -6 11c122 59 225 146 225 151c0 3 -2 4 -4 4c-12 -4 -45 -13 -59 -13c-17 0 -42 11 -42 43c3 11 19 27 40 40c3 0 4 -2 4 -4c-5 -5 -9 -15 -9 -28
c0 -22 17 -36 41 -36c31 0 64 23 94 52c6 6 16 -2 10 -10c-23 -16 -51 -39 -66 -52c-32 -28 -87 -69 -150 -111c-5 -3 -8 -6 0 -11c132 -88 268 -166 340 -166c59 0 109 34 142 95c3 2 5 1 6 -2zM348 386c0 -4 -3 -8 -8 -12c-25 -21 -53 -48 -75 -70
c-13 -13 -32 -29 -36 -29c-3 0 -5 2 -5 5c0 16 -7 79 -7 99c0 7 1 9 5 12c3 2 15 12 18 12c2 0 3 -2 3 -7c0 -32 2 -79 2 -90c0 -4 2 -6 4 -6c1 0 3 1 5 3c25 21 57 55 76 78c5 7 10 12 13 12c2 0 5 -5 5 -7z" />
    <glyph glyph-name="zdotaccent" unicode="&#x17c;" horiz-adv-x="223" 
d="M563 -42c-11 -52 -79 -104 -168 -104c-116 0 -225 69 -355 160c-5 3 -6 4 -13 0c-10 -6 -18 -11 -30 -19c-10 -7 -16 6 -6 11c122 59 225 146 225 151c0 3 -2 4 -4 4c-12 -4 -45 -13 -59 -13c-17 0 -42 11 -42 43c3 11 19 27 40 40c3 0 4 -2 4 -4c-5 -5 -9 -15 -9 -28
c0 -22 17 -36 41 -36c31 0 64 23 94 52c6 6 16 -2 10 -10c-23 -16 -51 -39 -66 -52c-32 -28 -87 -69 -150 -111c-5 -3 -8 -6 0 -11c132 -88 268 -166 340 -166c59 0 109 34 142 95c3 2 5 1 6 -2zM275 334c0 -15 -16 -30 -31 -30c-11 0 -16 7 -16 18c0 15 11 28 28 28
c11 0 19 -3 19 -16z" />
    <glyph glyph-name="grave.cap" horiz-adv-x="230" 
d="M151 489c0 -3 -3 -4 -5 -1c-17 31 -36 67 -49 93c-2 4 -3 8 -3 11c0 5 8 15 10 15s3 -1 4 -4c11 -28 35 -82 43 -114z" />
    <glyph glyph-name="acute" unicode="&#xb4;" horiz-adv-x="230" 
d="M197 393c0 -2 -1 -3 -3 -5c-47 -36 -105 -78 -160 -115c-6 -4 -9 0 -6 2c49 40 106 86 156 126c2 1 4 2 5 2c3 0 8 -6 8 -10z" />
    <glyph glyph-name="acute.cap" horiz-adv-x="230" 
d="M197 603c0 -2 -1 -3 -3 -5c-47 -36 -105 -78 -160 -115c-6 -4 -9 0 -6 2c49 40 106 86 156 126c2 1 4 2 5 2c3 0 8 -6 8 -10z" />
    <glyph glyph-name="circumflex" unicode="&#x2c6;" horiz-adv-x="230" 
d="M180 295c0 -9 0 -12 -4 -15s-12 -12 -16 -12c-2 0 -3 2 -3 7c0 27 -2 63 -3 90c0 4 -2 6 -4 6c-1 0 -3 -1 -5 -3c-25 -22 -55 -53 -77 -78c-6 -7 -10 -11 -13 -11c-2 0 -4 3 -4 5c0 4 3 8 9 13c23 20 52 48 74 70c10 10 21 21 32 28c2 1 4 2 5 2c2 0 4 -2 4 -5
c1 -37 5 -74 5 -97z" />
    <glyph glyph-name="circumflex.cap" horiz-adv-x="230" 
d="M180 405c0 -9 0 -12 -4 -15s-12 -12 -16 -12c-2 0 -3 2 -3 7c0 27 -2 63 -3 90c0 4 -2 6 -4 6c-1 0 -3 -1 -5 -3c-25 -22 -55 -53 -77 -78c-6 -7 -10 -11 -13 -11c-2 0 -4 3 -4 5c0 4 3 8 9 13c23 20 52 48 74 70c10 10 21 21 32 28c2 1 4 2 5 2c2 0 4 -2 4 -5
c1 -37 5 -74 5 -97z" />
    <glyph glyph-name="caron" unicode="&#x2c7;" horiz-adv-x="230" 
d="M193 386c0 -4 -3 -8 -8 -12c-25 -21 -53 -48 -75 -70c-13 -13 -32 -29 -36 -29c-3 0 -5 2 -5 5c0 16 -7 79 -7 99c0 7 1 9 5 12c3 2 15 12 18 12c2 0 3 -2 3 -7c0 -32 2 -79 2 -90c0 -4 2 -6 4 -6c1 0 3 1 5 3c25 21 57 55 76 78c5 7 10 12 13 12c2 0 5 -5 5 -7z" />
    <glyph glyph-name="caron.cap" horiz-adv-x="230" 
d="M193 486c0 -4 -3 -8 -8 -12c-25 -21 -53 -48 -75 -70c-13 -13 -32 -29 -36 -29c-3 0 -5 2 -5 5c0 16 -7 79 -7 99c0 7 1 9 5 12c3 2 15 12 18 12c2 0 3 -2 3 -7c0 -32 2 -79 2 -90c0 -4 2 -6 4 -6c1 0 3 1 5 3c25 21 57 55 76 78c5 7 10 12 13 12c2 0 5 -5 5 -7z" />
    <glyph glyph-name="caron.alt" horiz-adv-x="230" 
d="M193 561c0 -46 -51 -91 -86 -112c-6 -2 -7 1 -2 5c30 18 63 53 63 87c0 26 -18 37 -18 45c0 3 -1 4 8 8s15 6 18 6c8 0 17 -16 17 -39z" />
    <glyph glyph-name="tilde" unicode="&#x2dc;" horiz-adv-x="230" 
d="M225 357c-4 -30 -29 -62 -60 -62c-38 0 -61 55 -90 55c-21 0 -47 -31 -58 -46c-6 -9 -15 -6 -6 6c11 14 33 36 52 50c9 7 18 10 26 10c30 0 53 -57 89 -57c23 0 38 23 38 44c0 6 9 13 9 0z" />
    <glyph glyph-name="tilde.cap" horiz-adv-x="230" 
d="M225 557c-4 -30 -29 -62 -60 -62c-38 0 -61 55 -90 55c-21 0 -47 -31 -58 -46c-6 -9 -15 -6 -6 6c11 14 33 36 52 50c9 7 18 10 26 10c30 0 53 -57 89 -57c23 0 38 23 38 44c0 6 9 13 9 0z" />
    <glyph glyph-name="dieresis" unicode="&#xa8;" horiz-adv-x="230" 
d="M176 348c0 -16 -17 -36 -34 -36c-9 0 -12 4 -12 12c0 17 15 37 33 37c8 0 13 -5 13 -13zM104 354c0 -16 -17 -36 -34 -36c-9 0 -12 4 -12 12c0 17 15 37 33 37c8 0 13 -5 13 -13z" />
    <glyph glyph-name="dieresis.cap" horiz-adv-x="230" 
d="M176 548c0 -16 -17 -36 -34 -36c-9 0 -12 4 -12 12c0 17 15 37 33 37c8 0 13 -5 13 -13zM104 554c0 -16 -17 -36 -34 -36c-9 0 -12 4 -12 12c0 17 15 37 33 37c8 0 13 -5 13 -13z" />
    <glyph glyph-name="macron" unicode="&#xaf;" horiz-adv-x="230" 
d="M169 335l-3 -15l-88 -2l5 15z" />
    <glyph glyph-name="macron.cap" horiz-adv-x="230" 
d="M169 535l-3 -15l-88 -2l5 15z" />
    <glyph glyph-name="uni02C9" unicode="&#x2c9;" horiz-adv-x="230" 
d="M169 335l-3 -15l-88 -2l5 15z" />
    <glyph glyph-name="breve" unicode="&#x2d8;" horiz-adv-x="230" 
d="M185 345c0 -4 -4 -7 -8 -13c-23 -29 -51 -42 -75 -42c-28 0 -49 18 -49 50c0 9 10 14 18 14c3 0 4 -1 4 -6c0 -25 12 -44 39 -44c19 0 41 12 55 35c4 6 8 12 11 12c2 0 5 -4 5 -6z" />
    <glyph glyph-name="breve.cap" horiz-adv-x="230" 
d="M185 567c0 -4 -4 -7 -8 -13c-23 -29 -51 -42 -75 -42c-28 0 -49 18 -49 50c0 9 10 14 18 14c3 0 4 -1 4 -6c0 -25 12 -44 39 -44c19 0 41 12 55 35c4 6 8 12 11 12c2 0 5 -4 5 -6z" />
    <glyph glyph-name="ring" unicode="&#x2da;" horiz-adv-x="276" 
d="M180 362c0 -33 -25 -68 -72 -68c-28 0 -48 15 -48 43c0 26 21 68 71 68c33 0 49 -15 49 -43zM166 360c0 23 -10 39 -36 39c-39 0 -56 -30 -56 -60c0 -24 17 -39 38 -39c36 0 54 34 54 60z" />
    <glyph glyph-name="ring.cap" horiz-adv-x="276" 
d="M180 562c0 -33 -25 -68 -72 -68c-28 0 -48 15 -48 43c0 26 21 68 71 68c33 0 49 -15 49 -43zM166 560c0 23 -10 39 -36 39c-39 0 -56 -30 -56 -60c0 -24 17 -39 38 -39c36 0 54 34 54 60z" />
    <glyph glyph-name="hungarumlaut" unicode="&#x2dd;" horiz-adv-x="230" 
d="M191 366c0 -4 -2 -6 -6 -11c-20 -21 -48 -50 -74 -73c-6 -5 -4 2 -3 3c11 18 47 64 68 92c2 2 4 3 6 3c7 0 9 -8 9 -14zM130 368c0 -5 -2 -8 -7 -13c-20 -21 -49 -50 -74 -75c-3 -3 -6 0 -3 3c21 34 48 64 72 96c1 2 3 3 5 3c6 0 7 -10 7 -14z" />
    <glyph glyph-name="hungarumlaut.cap" horiz-adv-x="230" 
d="M191 366c0 -4 -2 -6 -6 -11c-20 -21 -48 -50 -74 -73c-6 -5 -4 2 -3 3c11 18 47 64 68 92c2 2 4 3 6 3c7 0 9 -8 9 -14zM130 368c0 -5 -2 -8 -7 -13c-20 -21 -49 -50 -74 -75c-3 -3 -6 0 -3 3c21 34 48 64 72 96c1 2 3 3 5 3c6 0 7 -10 7 -14z" />
    <glyph glyph-name="dotaccent" unicode="&#x2d9;" horiz-adv-x="230" 
d="M136 334c0 -15 -16 -30 -31 -30c-11 0 -16 7 -16 18c0 15 11 28 28 28c11 0 19 -3 19 -16z" />
    <glyph glyph-name="dotaccent.cap" horiz-adv-x="230" 
d="M136 542c0 -15 -16 -30 -31 -30c-11 0 -16 7 -16 18c0 15 11 28 28 28c11 0 19 -3 19 -16z" />
    <glyph glyph-name="cedilla" unicode="&#xb8;" horiz-adv-x="230" 
d="M162 -10c-10 -3 -37 -16 -37 -28c0 -13 32 -13 32 -33c0 -7 -4 -14 -13 -21c-20 -17 -52 -39 -74 -50c-2 -1 -5 -2 -7 -2s-8 3 -8 6c0 2 2 3 5 4c14 4 67 25 67 44c0 17 -32 18 -32 35c0 19 50 44 64 50c4 0 10 -1 3 -5z" />
    <glyph glyph-name="ogonek" unicode="&#x2db;" horiz-adv-x="230" 
d="M172 10c0 -1 -1 -2 -4 -3c-41 -15 -70 -44 -70 -68c0 -18 16 -30 34 -30c4 0 8 2 12 2s2 -5 -2 -6c-10 -3 -18 -5 -33 -5c-26 0 -43 12 -43 29c0 10 6 22 20 35c21 19 73 48 83 48c2 0 3 -1 3 -2z" />
    <glyph glyph-name="commaaccent" horiz-adv-x="230" 
d="M152 -64c0 -46 -51 -91 -86 -112c-6 -2 -10 3 -5 7c30 18 60 50 60 84c0 22 -12 28 -12 36c0 3 3 6 10 12c6 5 13 12 16 12c8 0 17 -16 17 -39z" />
    <glyph glyph-name="commaaccent.alt" horiz-adv-x="230" 
d="M176 347c0 46 51 91 86 112c6 2 10 -3 5 -7c-30 -18 -60 -50 -60 -84c0 -22 12 -28 12 -36c0 -3 -3 -6 -10 -12c-6 -5 -13 -12 -16 -12c-8 0 -17 16 -17 39z" />
    <glyph glyph-name="ellipsis" unicode="&#x2026;" horiz-adv-x="579" 
d="M152 44c0 -14 -24 -49 -45 -49c-9 0 -18 5 -18 16c0 26 22 50 44 50c7 0 19 -4 19 -17zM326 44c0 -14 -24 -49 -45 -49c-9 0 -18 5 -18 16c0 26 22 50 44 50c7 0 19 -4 19 -17zM506 44c0 -14 -24 -49 -45 -49c-9 0 -18 5 -18 16c0 26 22 50 44 50c7 0 19 -4 19 -17z" />
    <glyph glyph-name="uni00AD" unicode="&#xad;" horiz-adv-x="316" 
d="M316 136c0 -4 -4 -8 -13 -8c-31 0 -101 -1 -153 -1c-7 0 -10 3 -10 6c0 4 4 9 12 9c15 0 38 -1 60 -1c38 0 75 2 93 2c7 0 11 -3 11 -7z" />
    <glyph glyph-name="exclamdown" unicode="&#xa1;" horiz-adv-x="220" 
d="M11 -165c-5 2 -3 8 1 8c7 0 17 3 23 8c60 49 116 171 167 287c2 5 8 3 8 -2c-40 -114 -78 -207 -114 -276c-11 -22 -26 -31 -48 -31c-11 0 -29 3 -37 6zM199 207c0 18 16 35 33 35c11 0 19 -7 19 -19c0 -19 -9 -40 -30 -40c-14 0 -22 11 -22 24z" />
    <glyph glyph-name="questiondown" unicode="&#xbf;" horiz-adv-x="260" 
d="M-19 -138c0 25 8 68 93 131c71 53 117 70 117 100c0 19 -7 31 -22 44c-5 4 -4 7 1 7c7 -1 13 -2 30 0c16 -10 18 -27 18 -44c0 -10 -8 -20 -14 -25c-11 -10 -27 -23 -54 -41c-75 -50 -133 -87 -133 -150c0 -36 16 -54 66 -69c46 -14 47 -21 39 -32
c-10 -14 -28 -35 -33 -31c9 15 12 25 -43 41c-40 12 -65 31 -65 69zM231 212c0 9 26 25 38 25c5 0 21 -12 21 -21c0 -14 -6 -28 -39 -43c-3 0 -7 3 -7 7c0 17 -13 24 -13 32z" />
    <glyph glyph-name="quoteleft" unicode="&#x2018;" horiz-adv-x="210" 
d="M275 443c-41 -40 -87 -91 -87 -150c0 -17 5 -35 16 -44c3 -2 4 -4 4 -6c0 -3 -20 -30 -27 -30c-5 0 -21 13 -21 50c0 35 25 101 107 186c4 2 8 -2 8 -6z" />
    <glyph glyph-name="quoteright" unicode="&#x2019;" horiz-adv-x="210" 
d="M268 409c0 -35 -25 -101 -107 -186c-4 -2 -8 2 -8 6c41 40 87 91 87 150c0 17 -5 35 -16 44c-3 2 -4 4 -4 6c0 3 20 30 27 30c5 0 21 -13 21 -50z" />
    <glyph glyph-name="quotedblleft" unicode="&#x201c;" horiz-adv-x="273" 
d="M348 443c-41 -40 -87 -91 -87 -150c0 -17 5 -35 16 -44c3 -2 4 -4 4 -6c0 -3 -20 -30 -27 -30c-5 0 -21 13 -21 50c0 35 25 101 107 186c4 2 8 -2 8 -6zM265 443c-41 -40 -87 -91 -87 -150c0 -17 5 -35 16 -44c3 -2 4 -4 4 -6c0 -3 -20 -30 -27 -30c-5 0 -21 13 -21 50
c0 35 25 101 107 186c4 2 8 -2 8 -6z" />
    <glyph glyph-name="quotedblright" unicode="&#x201d;" horiz-adv-x="273" 
d="M341 409c0 -35 -25 -101 -107 -186c-4 -2 -8 2 -8 6c41 40 87 91 87 150c0 17 -5 35 -16 44c-3 2 -4 4 -4 6c0 3 20 30 27 30c5 0 21 -13 21 -50zM258 409c0 -35 -25 -101 -107 -186c-4 -2 -8 2 -8 6c41 40 87 91 87 150c0 17 -5 35 -16 44c-3 2 -4 4 -4 6
c0 3 20 30 27 30c5 0 21 -13 21 -50z" />
    <glyph glyph-name="quotesinglbase" unicode="&#x201a;" horiz-adv-x="210" 
d="M151 90c0 -35 -25 -101 -107 -186c-4 -2 -8 2 -8 6c41 40 87 91 87 150c0 17 -5 35 -16 44c-3 2 -4 4 -4 6c0 3 20 30 27 30c5 0 21 -13 21 -50z" />
    <glyph glyph-name="quotedblbase" unicode="&#x201e;" horiz-adv-x="293" 
d="M234 90c0 -35 -25 -101 -107 -186c-4 -2 -8 2 -8 6c41 40 87 91 87 150c0 17 -5 35 -16 44c-3 2 -4 4 -4 6c0 3 20 30 27 30c5 0 21 -13 21 -50zM151 90c0 -35 -25 -101 -107 -186c-4 -2 -8 2 -8 6c41 40 87 91 87 150c0 17 -5 35 -16 44c-3 2 -4 4 -4 6c0 3 20 30 27 30
c5 0 21 -13 21 -50z" />
    <glyph glyph-name="guilsinglleft" unicode="&#x2039;" horiz-adv-x="275" 
d="M299 228c0 -2 -3 -5 -6 -7c-7 -4 -96 -72 -135 -104c-4 -3 -5 -7 -5 -10c0 -7 11 -45 39 -117c1 -3 2 -5 2 -6s-1 -3 -3 -3c-6 -1 -24 -6 -29 -6c-3 0 -4 3 -5 8c-18 75 -33 112 -33 116c0 3 3 6 8 10c40 30 114 89 157 124c1 1 3 3 5 3c1 0 5 -3 5 -8z" />
    <glyph glyph-name="guilsinglright" unicode="&#x203a;" horiz-adv-x="275" 
d="M257 114c0 -3 -1 -7 -4 -9c-45 -34 -103 -85 -143 -127c-3 -3 -9 -8 -16 -8c-3 0 -8 2 -8 5c0 2 2 5 6 8c38 29 88 71 127 107c5 4 8 8 8 12c0 3 -1 5 -4 9c-25 36 -66 99 -66 106s23 11 28 11c4 0 6 -2 9 -7c17 -31 39 -70 61 -101c1 -2 2 -4 2 -6z" />
    <glyph glyph-name="guillemotleft" unicode="&#xab;" horiz-adv-x="335" 
d="M299 228c0 -2 -3 -5 -6 -7c-7 -4 -96 -72 -135 -104c-4 -3 -5 -7 -5 -10c0 -7 11 -45 39 -117c1 -3 2 -5 2 -6s-1 -3 -3 -3c-6 -1 -23 -4 -29 -6c-3 0 -4 3 -5 8c-4 17 -22 80 -33 116c0 3 3 6 8 10c40 30 114 89 157 124c1 1 3 3 5 3c1 0 5 -3 5 -8zM359 219
c0 -2 0 -4 -3 -6c-41 -32 -71 -57 -109 -88c-4 -3 -6 -6 -6 -10c0 -7 18 -60 43 -116c1 -2 1 -3 1 -4c0 -2 -1 -4 -5 -5s-17 -6 -24 -10c-2 0 -3 1 -4 5c-17 49 -42 111 -42 116c0 4 2 7 6 10c41 32 111 92 134 112c1 1 3 2 4 2c3 0 5 -3 5 -6z" />
    <glyph glyph-name="guillemotright" unicode="&#xbb;" horiz-adv-x="361" 
d="M257 114c0 -3 -1 -7 -4 -9c-45 -34 -103 -85 -143 -127c-3 -3 -9 -8 -16 -8c-3 0 -8 2 -8 5c0 2 2 5 6 8c38 29 88 71 127 107c5 4 8 8 8 12c0 3 -1 5 -4 9c-25 36 -66 99 -66 106c0 3 2 5 5 6c7 1 19 5 23 5s6 -2 9 -7c17 -31 39 -70 61 -101c1 -2 2 -4 2 -6zM343 116
c0 -3 -1 -5 -3 -6c-41 -30 -102 -79 -140 -117c-3 -3 -6 -4 -8 -4c-3 0 -5 2 -5 5c0 2 2 5 5 8c40 34 78 67 117 98c1 1 2 3 2 4c0 2 -1 3 -2 5c-9 15 -57 102 -57 106c0 3 2 5 6 7s17 7 21 7s7 -3 9 -8c12 -32 32 -68 51 -94c2 -3 4 -8 4 -11z" />
    <glyph glyph-name="endash" unicode="&#x2013;" horiz-adv-x="500" 
d="M471 143c9 2 7 -15 0 -15c-11 0 -23 1 -36 1c-54 0 -248 -2 -298 -2c-6 0 -5 16 1 15c19 0 40 -1 61 -1c48 0 241 1 272 2z" />
    <glyph glyph-name="emdash" unicode="&#x2014;" horiz-adv-x="1000" 
d="M742 143c13 1 11 -16 -1 -15c-18 0 -37 1 -59 1c-72 0 -385 -2 -458 -2h-35c-10 0 -9 16 2 15c30 0 65 -1 100 -1c79 0 399 1 451 2z" />
    <glyph glyph-name="bullet" unicode="&#x2022;" horiz-adv-x="500" 
d="M260 221c0 44 34 78 78 78s78 -34 78 -78s-34 -78 -78 -78s-78 34 -78 78z" />
    <glyph glyph-name="periodcentered" unicode="&#xb7;" horiz-adv-x="220" 
d="M201 205c0 -14 -24 -49 -45 -49c-9 0 -18 5 -18 16c0 26 22 50 44 50c7 0 19 -4 19 -17z" />
    <glyph glyph-name="uni2219" unicode="&#x2219;" horiz-adv-x="220" 
d="M201 205c0 -14 -24 -49 -45 -49c-9 0 -18 5 -18 16c0 26 22 50 44 50c7 0 19 -4 19 -17z" />
    <glyph glyph-name="dagger" unicode="&#x2020;" horiz-adv-x="265" 
d="M92 276c19 -8 67 -13 82 -13h10c43 80 78 164 82 172c3 6 13 15 18 15c7 0 17 -4 17 -19c0 -5 -6 -19 -10 -24c-23 -34 -56 -83 -92 -144c25 1 88 6 85 6c8 0 19 -3 19 -12c0 -5 -5 -27 -16 -27c-2 0 -4 0 -6 1c-24 11 -51 17 -89 20c-39 -70 -92 -175 -126 -258
c-4 -10 -9 -20 -18 -25c-7 -4 -17 -9 -23 -9c-5 0 -15 20 -15 29c0 6 3 13 8 20c48 75 105 147 159 243c-28 0 -65 -5 -85 -12c-6 -2 -13 -3 -18 -3c-3 0 -18 1 -18 13c0 9 12 28 28 28c3 0 5 0 8 -1z" />
    <glyph glyph-name="daggerdbl" unicode="&#x2021;" horiz-adv-x="265" 
d="M226 251c-27 0 -60 -2 -84 -9c-6 -2 -13 -3 -18 -3c-3 0 -18 2 -18 10c0 9 12 28 28 28c3 0 5 0 8 -1c19 -8 67 -13 82 -13h10c43 80 78 164 82 172c3 6 13 15 18 15c7 0 17 -4 17 -19c0 -5 -6 -19 -10 -24c-23 -34 -56 -83 -92 -144c25 1 88 6 85 6c8 0 19 -3 19 -12
c0 -5 -5 -27 -16 -27c-2 0 -4 0 -6 1c-24 11 -51 17 -91 19c-19 -27 -33 -53 -48 -80c29 1 61 5 86 7c5 0 9 1 14 1c6 0 11 -1 15 -3s5 -6 5 -11c0 -3 0 -6 -2 -10c-3 -7 -3 -6 -5 -10s-6 -7 -12 -7c-3 0 -6 1 -9 2c-34 12 -65 18 -99 18c-4 -7 -8 -14 -11 -21
c-24 -48 -41 -97 -59 -143c-4 -10 -11 -21 -19 -25c-5 -2 -12 -6 -18 -8c-2 -1 -3 -1 -4 -1c-4 0 -6 3 -8 7c-3 6 -6 13 -7 20v2c0 6 3 13 8 20c30 45 61 82 95 135l9 14c-21 0 -67 -7 -74 -10c-6 -2 -12 -3 -18 -3c-11 0 -23 3 -23 10c0 6 13 27 29 27c4 0 8 -1 11 -1
c13 -2 31 -4 43 -6c11 -2 28 -3 40 -4c16 26 32 52 47 81z" />
    <glyph glyph-name="section" unicode="&#xa7;" horiz-adv-x="301" 
d="M364 411c0 -8 -3 -16 -16 -37c-3 -5 -8 -5 -8 -1c1 4 1 8 1 10c0 15 -22 31 -49 31c-55 0 -77 -47 -77 -74c0 -26 10 -48 34 -82c13 -19 39 -52 39 -92c0 -16 -2 -47 -42 -87c0 -64 -62 -140 -174 -140c-44 0 -89 26 -89 83c0 22 6 52 11 63c1 3 6 10 6 -2
c-2 -10 -5 -22 -5 -33c0 -55 48 -89 116 -89c59 0 112 34 112 89c0 6 -1 12 -2 17c-12 51 -65 83 -87 129c-5 10 -7 20 -7 30c0 21 13 67 68 94c0 43 49 117 124 117c20 0 45 -7 45 -26zM237 226c-36 47 -39 62 -42 84c-12 -5 -39 -23 -39 -50c0 -19 1 -31 34 -75
c20 -23 48 -56 55 -96c19 17 27 37 27 58c0 28 -5 40 -35 79z" />
    <glyph glyph-name="paragraph" unicode="&#xb6;" horiz-adv-x="500" 
d="M236 -234c5 0 5 -6 0 -6l-13 -1c-9 0 -21 9 -22 25c-12 -11 -41 -23 -61 -23c-4 0 -7 2 -6 6c41 0 69 20 152 159l48 80l-83 -6c-50 0 -99 28 -99 84c0 125 138 185 279 185h57c14 27 29 57 32 74c8 4 15 11 22 20c3 -1 3 -2 3 -5c0 -9 6 -22 17 -48c2 -6 3 -13 3 -17
c0 -21 -24 -30 -73 -33l-261 -446c-6 -12 -10 -24 -10 -34c0 -7 6 -14 15 -14zM483 260c-37 -4 -76 -40 -124 -129c-14 3 -23 16 -38 47c-12 -12 -18 -16 -51 -34c8 -9 17 -20 28 -48c17 12 41 29 58 30c-29 -45 -39 -74 -39 -94c0 -7 7 -15 19 -20zM496 269
c29 0 45 6 45 21c0 10 -8 27 -15 39c-9 -20 -21 -44 -30 -60z" />
    <glyph glyph-name="brokenbar" unicode="&#xa6;" horiz-adv-x="222" 
d="M208 325v350h20v-350h-20zM208 -174v349h20v-349h-20z" />
    <glyph glyph-name="copyright" unicode="&#xa9;" horiz-adv-x="600" 
d="M243 -31c19 -5 16 -7 -2 -5c-82 10 -166 66 -166 177s87 291 295 291c114 0 220 -72 220 -215c0 -114 -106 -255 -241 -255c-74 0 -106 33 -118 51c-7 9 -2 11 8 0c20 -26 50 -44 116 -44c81 0 214 76 214 248c0 87 -47 207 -205 207c-196 0 -270 -167 -270 -263
c0 -153 96 -185 149 -192zM233 185c0 -75 50 -110 105 -110c46 0 88 36 96 48c4 6 18 2 8 -6c-23 -21 -68 -58 -134 -58c-48 0 -110 31 -110 112c0 93 96 174 170 174c60 0 95 -25 105 -39c9 -12 9 -17 0 -23c-10 -5 -42 -42 -47 -52c-4 -9 -13 -7 -7 -2c5 7 21 33 21 49
c0 21 -23 58 -81 58c-93 0 -126 -103 -126 -151z" />
    <glyph glyph-name="registered" unicode="&#xae;" horiz-adv-x="400" 
d="M473 351c0 -89 -67 -185 -195 -185c-75 0 -128 39 -128 117c0 72 55 186 193 186c88 0 130 -41 130 -118zM456 347c0 74 -29 116 -112 116c-119 0 -176 -84 -176 -178c0 -78 51 -113 121 -113c114 0 167 94 167 175zM380 230h-34c-19 31 -42 65 -68 98
c-19 -37 -36 -77 -44 -98h-28c36 69 80 165 92 195h35c49 0 66 -5 66 -38c0 -50 -61 -60 -90 -61c21 -30 51 -74 71 -96zM281 333c55 0 92 15 92 55c0 20 -10 29 -39 29h-10c-16 -29 -30 -56 -43 -84z" />
    <glyph glyph-name="trademark" unicode="&#x2122;" horiz-adv-x="500" 
d="M385 402c-40 -50 -113 -148 -126 -172h-23c34 41 109 136 153 193l24 6c-6 -35 -13 -128 -14 -166c35 38 112 128 139 163l23 5c-14 -42 -38 -162 -43 -201h-30c11 35 28 113 39 165c-19 -21 -106 -123 -133 -158l-21 -7c3 12 10 140 12 172zM175 427c19 -1 54 -1 82 -1
c22 0 54 0 81 2l-7 -15c-17 3 -38 3 -64 3c-28 -47 -68 -131 -92 -186h-33c15 24 76 138 98 185c-18 0 -47 -1 -74 -4z" />
    <glyph glyph-name="currency" unicode="&#xa4;" horiz-adv-x="500" 
d="M76 49l-10 13c6 8 52 42 89 70c-7 16 -13 42 -13 58c0 41 6 91 51 140c-2 9 -66 59 -77 67l11 12c10 -13 64 -61 74 -72c34 32 84 52 140 52c53 0 87 -19 109 -42c10 7 61 47 84 63l6 -13c-7 -1 -63 -46 -83 -58c15 -22 24 -49 24 -88c0 -41 -18 -81 -42 -117
c10 -7 67 -58 79 -68l-13 -8c-7 8 -56 52 -76 69c-16 -22 -71 -66 -141 -66c-73 0 -108 32 -127 61c-25 -18 -78 -63 -85 -73zM337 381c-108 0 -178 -93 -178 -176c0 -74 36 -134 126 -134c109 0 180 91 180 176c0 77 -50 134 -128 134z" />
    <glyph glyph-name="Euro" unicode="&#x20ac;" horiz-adv-x="487" 
d="M597 382l-32 -39h-4c-6 59 -39 96 -95 96c-81 0 -164 -65 -223 -169c98 0 167 7 196 7c5 0 7 -3 7 -4s-12 -11 -18 -11c-36 0 -170 -1 -191 -1c-10 -16 -19 -34 -25 -49c98 0 168 7 197 7c5 0 7 -3 7 -4s-12 -11 -18 -11c-36 0 -170 -1 -190 -1c-16 -37 -25 -78 -25 -109
c0 -72 47 -89 100 -89c81 0 137 40 178 83c3 0 5 -1 5 -5c0 -3 -2 -11 -4 -14c-42 -39 -113 -73 -186 -73c-75 0 -140 12 -140 105c0 28 7 65 21 101c-29 0 -83 -5 -87 -5c-5 0 -6 1 -6 2c0 5 12 11 18 11c36 0 60 0 79 1c6 14 18 38 25 50c-30 0 -83 -5 -87 -5
c-5 0 -8 1 -8 2s12 11 18 11c36 0 60 0 82 1c63 100 167 177 276 177c52 0 114 -13 130 -65z" />
    <glyph glyph-name="cent" unicode="&#xa2;" horiz-adv-x="367" 
d="M444 488c-3 -12 -10 -24 -19 -36c-17 -21 -33 -44 -51 -69c19 -5 41 -18 44 -42c0 -5 -1 -7 -4 -8c-9 -4 -17 -14 -21 -21c-2 -3 -4 -4 -5 -4c-2 0 -3 3 -3 7c-1 20 -16 36 -29 39c-52 -82 -111 -183 -158 -271c36 0 97 14 192 120c4 4 8 3 6 -3
c-49 -73 -154 -129 -207 -136c-60 -117 -87 -186 -87 -215c0 -4 2 -10 3 -13c0 -3 -3 -5 -6 -1c-5 7 -13 21 -13 30s26 68 93 197c-4 -1 -9 -1 -13 -1c-27 0 -60 6 -60 47c0 96 130 276 257 276c29 48 64 98 74 109c5 3 7 0 7 -5zM345 357c-9 2 -19 3 -30 3
c-87 0 -161 -168 -161 -234c0 -26 9 -40 35 -42c49 92 103 187 156 273z" />
    <glyph glyph-name="sterling" unicode="&#xa3;" horiz-adv-x="480" 
d="M466 427c0 -3 0 -7 -2 -10c-4 -7 -7 -18 -9 -27c-1 -6 -5 -8 -7 0c-3 11 -25 32 -65 32c-53 0 -88 -33 -125 -97c-14 -24 -30 -52 -47 -81c33 0 108 4 138 6c3 0 13 -6 13 -12c0 -2 -2 -3 -10 -3c-20 0 -61 2 -145 2c-24 -39 -59 -84 -103 -125c-1 -1 -2 -4 2 -4
c16 3 28 4 41 4c51 0 92 -19 141 -58c31 -24 59 -35 81 -35c29 0 67 22 88 61c0 3 7 6 7 -2c-9 -21 -71 -92 -120 -92c-26 0 -48 6 -106 57c-26 22 -61 61 -117 61c-23 0 -48 -10 -74 -46c-25 -33 -39 -52 -47 -52c-5 0 -10 5 -10 13c0 5 2 11 6 15c23 23 51 41 86 68
c26 20 58 48 105 134c-38 -1 -56 -3 -67 -6c-5 0 -12 9 -12 10c0 3 3 3 7 3c16 0 45 0 76 1c18 32 36 63 52 85c51 71 105 117 182 117c17 0 41 -3 41 -19z" />
    </font>
</defs>
</svg>
