<svg id="Livello_1" data-name="Livello 1" xmlns="http://www.w3.org/2000/svg" viewBox="0 0 174.03 23.79"><defs><style>.cls-1{fill:#fff;}</style></defs><title>chiara_and_filippo</title><path class="cls-1" d="M11.2,8.87A3.29,3.29,0,0,1,8.65,7.75a4.49,4.49,0,0,1-1-3.13,4.4,4.4,0,0,1,1-3.11A3.35,3.35,0,0,1,11.26.37a2.68,2.68,0,0,1,1.32.31,3.43,3.43,0,0,1,.93.7L13,2.06a2.54,2.54,0,0,0-.74-.56,2,2,0,0,0-.93-.22,2.25,2.25,0,0,0-1.87.9A3.79,3.79,0,0,0,8.7,4.6a3.94,3.94,0,0,0,.69,2.45A2.19,2.19,0,0,0,11.24,8a2.26,2.26,0,0,0,1-.24A3,3,0,0,0,13.14,7l.57.65a3.62,3.62,0,0,1-1.09.88A3.06,3.06,0,0,1,11.2,8.87Z"/><path class="cls-1" d="M17.74,8.72V.52h1V4h3.81V.52h1.05v8.2H22.59V4.86H18.78V8.72Z"/><path class="cls-1" d="M28.39,8.72V.52h1v8.2Z"/><path class="cls-1" d="M38.7,8.72l-.77-2.5h-3l-.79,2.5H33.09L35.86.52H37l2.77,8.2ZM35.59,4.13,35.2,5.38h2.46l-.38-1.25c-.15-.45-.29-.91-.43-1.36s-.27-.92-.4-1.4H36.4c-.12.48-.25.94-.39,1.4S35.74,3.68,35.59,4.13Z"/><path class="cls-1" d="M44.51,8.72h-1V.52H46A3.83,3.83,0,0,1,48.11,1a2,2,0,0,1,.81,1.79,2.24,2.24,0,0,1-.51,1.54,2.63,2.63,0,0,1-1.34.79l2.08,3.57H48L46,5.26H44.51Zm0-4.31h1.38c1.32,0,2-.53,2-1.59a1.25,1.25,0,0,0-.51-1.13,2.77,2.77,0,0,0-1.48-.33H44.51Z"/><path class="cls-1" d="M57.56,8.72l-.77-2.5h-3L53,8.72H52L54.73.52H55.9l2.78,8.2ZM54.45,4.13l-.39,1.25h2.47l-.39-1.25c-.15-.45-.29-.91-.43-1.36s-.26-.92-.4-1.4h-.05c-.12.48-.25.94-.38,1.4S54.6,3.68,54.45,4.13Z"/><path class="cls-1" d="M.17,23.72v-8.2H2.61a4,4,0,0,1,2,.46,1.65,1.65,0,0,1,.78,1.54,2,2,0,0,1-.31,1.11,1.64,1.64,0,0,1-.89.68v.05A2.23,2.23,0,0,1,5.43,20a1.89,1.89,0,0,1,.47,1.34A2,2,0,0,1,5,23.13a4,4,0,0,1-2.25.59Zm1-4.71H2.42a2.46,2.46,0,0,0,1.51-.36,1.19,1.19,0,0,0,.47-1,1.1,1.1,0,0,0-.49-1,2.81,2.81,0,0,0-1.44-.3H1.21Zm0,3.89H2.63a2.88,2.88,0,0,0,1.65-.4,1.37,1.37,0,0,0,.59-1.22,1.2,1.2,0,0,0-.58-1.11,3.17,3.17,0,0,0-1.66-.36H1.21Z"/><path class="cls-1" d="M13.05,23.87a3.15,3.15,0,0,1-2.53-1.15,4.74,4.74,0,0,1-1-3.14,4.55,4.55,0,0,1,1-3.08,3.19,3.19,0,0,1,2.53-1.13,3.22,3.22,0,0,1,2.53,1.13,4.55,4.55,0,0,1,1,3.08,4.74,4.74,0,0,1-1,3.14A3.17,3.17,0,0,1,13.05,23.87Zm0-.91A2.07,2.07,0,0,0,14.81,22a4.12,4.12,0,0,0,.66-2.46,4,4,0,0,0-.66-2.41,2.2,2.2,0,0,0-3.53,0,4,4,0,0,0-.66,2.41A4.12,4.12,0,0,0,11.28,22,2.08,2.08,0,0,0,13.05,23Z"/><path class="cls-1" d="M20.82,23.72v-8.2H21.9l3,5.15.89,1.7h0c0-.41-.05-.85-.08-1.29s0-.89,0-1.32V15.52h1v8.2H25.58l-3-5.16-.89-1.69h0l.09,1.27c0,.43,0,.86,0,1.29v4.29Z"/><path class="cls-1" d="M35.93,23.72l-.77-2.5h-3l-.79,2.5H30.32l2.78-8.2h1.17l2.78,8.2Zm-3.11-4.59-.39,1.25H34.9l-.39-1.25c-.15-.45-.29-.91-.43-1.36s-.26-.92-.4-1.4h0c-.12.48-.25.94-.38,1.4S33,18.68,32.82,19.13Z"/><path class="cls-1" d="M40.71,23.72v-8.2h1v7.31h3.58v.89Z"/><path class="cls-1" d="M49.28,23.72v-8.2h2a3.75,3.75,0,0,1,2.89,1.06,4.21,4.21,0,0,1,1,3,4.36,4.36,0,0,1-1,3.05,3.62,3.62,0,0,1-2.84,1.09Zm1-.85h.94A2.63,2.63,0,0,0,53.41,22a3.69,3.69,0,0,0,.72-2.43,3.54,3.54,0,0,0-.72-2.38,2.68,2.68,0,0,0-2.15-.83h-.94Z"/><path class="cls-1" d="M62.5,23.87A3.15,3.15,0,0,1,60,22.72a4.74,4.74,0,0,1-1-3.14,4.55,4.55,0,0,1,1-3.08,3.4,3.4,0,0,1,5.06,0,4.55,4.55,0,0,1,1,3.08,4.74,4.74,0,0,1-1,3.14A3.17,3.17,0,0,1,62.5,23.87Zm0-.91A2.07,2.07,0,0,0,64.26,22a4.12,4.12,0,0,0,.66-2.46,4,4,0,0,0-.66-2.41,2.2,2.2,0,0,0-3.53,0,4,4,0,0,0-.66,2.41A4.12,4.12,0,0,0,60.73,22,2.08,2.08,0,0,0,62.5,23Z"/><path class="cls-1" d="M119.44,8.72V.52h4.73V1.4h-3.69V4.17h3.12v.88h-3.12V8.72Z"/><path class="cls-1" d="M128.12,8.72V.52h1v8.2Z"/><path class="cls-1" d="M133.9,8.72V.52h1V7.83h3.59v.89Z"/><path class="cls-1" d="M142.48,8.72V.52h1v8.2Z"/><path class="cls-1" d="M148.27,8.72V.52h2.33a4.21,4.21,0,0,1,2.23.53,2.07,2.07,0,0,1,.85,1.89,2.24,2.24,0,0,1-.84,1.91,3.62,3.62,0,0,1-2.19.62H149.3V8.72Zm1-4.1h1.23c1.41,0,2.11-.56,2.11-1.68a1.35,1.35,0,0,0-.54-1.24,3.1,3.1,0,0,0-1.62-.34H149.3Z"/><path class="cls-1" d="M157.84,8.72V.52h2.34a4.17,4.17,0,0,1,2.22.53,2,2,0,0,1,.85,1.89,2.26,2.26,0,0,1-.83,1.91,3.62,3.62,0,0,1-2.19.62h-1.35V8.72Zm1-4.1h1.22c1.41,0,2.12-.56,2.12-1.68a1.36,1.36,0,0,0-.55-1.24,3.05,3.05,0,0,0-1.62-.34h-1.17Z"/><path class="cls-1" d="M170.44,8.87a3.14,3.14,0,0,1-2.52-1.15,4.74,4.74,0,0,1-1-3.14,4.55,4.55,0,0,1,1-3.08,3.39,3.39,0,0,1,5.05,0,4.5,4.5,0,0,1,1,3.08,4.69,4.69,0,0,1-1,3.14A3.16,3.16,0,0,1,170.44,8.87Zm0-.91A2.07,2.07,0,0,0,172.2,7a4.05,4.05,0,0,0,.67-2.46,3.9,3.9,0,0,0-.67-2.41,2.19,2.19,0,0,0-3.52,0A4,4,0,0,0,168,4.58,4.12,4.12,0,0,0,168.68,7,2.07,2.07,0,0,0,170.44,8Z"/><path class="cls-1" d="M122.27,23.72v-8.2h2a3.74,3.74,0,0,1,2.88,1.06,4.21,4.21,0,0,1,1,3,4.36,4.36,0,0,1-1,3.05,3.61,3.61,0,0,1-2.83,1.09Zm1-.85h.94A2.67,2.67,0,0,0,126.4,22a3.67,3.67,0,0,0,.72-2.43,3.54,3.54,0,0,0-.72-2.38,2.72,2.72,0,0,0-2.16-.83h-.94Z"/><path class="cls-1" d="M132.45,23.72v-8.2h4.73v.88h-3.69V19h3.11v.89h-3.11v3h3.81v.89Z"/><path class="cls-1" d="M146.54,23.72v-8.2h1.08l3,5.15.88,1.7h0c0-.41,0-.85-.08-1.29s0-.89,0-1.32V15.52h1v8.2H151.3l-3-5.16-.89-1.69h-.05l.09,1.27c0,.43.05.86.05,1.3v4.28Z"/><path class="cls-1" d="M157.13,23.72v-8.2h4.72v.88h-3.68V19h3.11v.89h-3.11v3H162v.89Z"/><path class="cls-1" d="M168.49,23.87a3.88,3.88,0,0,1-1.6-.33,4,4,0,0,1-1.27-.88l.62-.72a3.66,3.66,0,0,0,1,.74,2.83,2.83,0,0,0,1.23.28,1.91,1.91,0,0,0,1.26-.37,1.19,1.19,0,0,0,.45-1,1,1,0,0,0-.38-.9,5.8,5.8,0,0,0-1-.55l-1.17-.51a4,4,0,0,1-1.13-.72,1.79,1.79,0,0,1-.54-1.39,2,2,0,0,1,.74-1.56,2.75,2.75,0,0,1,1.84-.62,3.45,3.45,0,0,1,1.36.28,3.39,3.39,0,0,1,1.06.73l-.56.68a3.07,3.07,0,0,0-.83-.57,2.43,2.43,0,0,0-1-.21,1.75,1.75,0,0,0-1.11.33,1.06,1.06,0,0,0-.42.88,1,1,0,0,0,.44.87,5.87,5.87,0,0,0,.93.49l1.16.5a4.1,4.1,0,0,1,1.2.79,1.86,1.86,0,0,1,.49,1.39,2.14,2.14,0,0,1-.75,1.66A2.86,2.86,0,0,1,168.49,23.87Z"/><path class="cls-1" d="M81.12,18a.77.77,0,0,1-.89-.86A5,5,0,0,1,81.07,15c-.86,1.12-2.33,2.62-3.26,2.62-.37,0-.52-.15-.52-.52,0-1.49,2.58-5,5.32-5,.17-.32.29-.44.42-.49l.68-.2.05,0a6.6,6.6,0,0,0-.46.68,5.62,5.62,0,0,1,.73.08c.17.07.15.19,0,.19a6.73,6.73,0,0,0-.88-.09C81.7,14.89,81,16.36,81,17.12c0,.3.12.52.56.52,1,0,3-1.64,4.58-3.63.08-.1.15,0,.15.07C84.82,16,82.61,18,81.12,18Zm1.37-5.76c-2.21,0-4.24,3.7-4.24,4.71,0,.14,0,.19.15.19a6.65,6.65,0,0,0,2.69-2.45c.52-.78,1-1.74,1.42-2.42Z"/><path class="cls-1" d="M87.68,17.76c-.39,0-.78-.07-.78-.51,0-.94,1.49-2.92,2.08-4.32.08-.17,0-.32-.15-.22a17.52,17.52,0,0,0-2.69,2.38c-.52.81-.81,1.42-1.37,2.28,0,.07-.1.15-.15.15s-.29-.52-.29-.62c0-.29.49-.83,1-1.44.51-1.06,1.12-2.31,1.52-3.21a.26.26,0,0,1,.22-.13.43.43,0,0,1,.39.4c0,.12-.61,1-1.06,2a17,17,0,0,1,3.48-2.65c.13,0,.27.19.27.32a.58.58,0,0,1-.12.29c-.73,1.06-2.25,3.53-2.25,4.44,0,.39.14.51.51.51,1.08,0,3.26-1.86,4.17-3.31.07-.09.27-.05.12.15C91.38,15.92,89.37,17.76,87.68,17.76Z"/><path class="cls-1" d="M106.43,1.86a.21.21,0,0,1-.17.17c-.22,0-.3-.25-1.06-.25a3.13,3.13,0,0,0-1.59.44,12,12,0,0,0-2.94,3c-4.39,6.3-6.62,11-6.62,12.5,0,.56.22,1,.79,1,1.76,0,3.26-2.47,4.14-4.26.07-.13.29-.1.15.12-1.15,2.38-2.75,4.36-4.34,4.36a1.17,1.17,0,0,1-1.3-1.27,6.91,6.91,0,0,1,1-2.92c-1.87,2.26-2.67,2.87-3.29,2.87-.46,0-.59-.27-.59-.66A2.88,2.88,0,0,1,91,15.65,6.84,6.84,0,0,1,95.82,12a49.05,49.05,0,0,1,4.61-6.91,13.31,13.31,0,0,1,4.24-3.85,3.35,3.35,0,0,1,1.44-.39c.39,0,.66.12.66.27S106.5,1.51,106.43,1.86ZM93.29,13.57a6.72,6.72,0,0,0-1.71,3.19c0,.14.17.22.24.22.47,0,2.63-2.11,3.8-4.59A2.73,2.73,0,0,0,93.29,13.57Z"/></svg>