<svg id="Livello_1" data-name="Livello 1" xmlns="http://www.w3.org/2000/svg" viewBox="0 0 99.72 26.05"><defs><style>.cls-1{fill:#fff;}</style></defs><title>IO_chiara</title><rect class="cls-1" x="0.22" y="0.66" width="2.77" height="24.74"/><path class="cls-1" d="M29.38,17.8a13.48,13.48,0,0,0,0-9.58A13.07,13.07,0,0,0,27,4.29a11.38,11.38,0,0,0-3.59-2.67,10.47,10.47,0,0,0-8.93,0,11.26,11.26,0,0,0-3.56,2.67A12.87,12.87,0,0,0,8.54,8.22a13.48,13.48,0,0,0,0,9.58,12.7,12.7,0,0,0,2.38,3.92,11.14,11.14,0,0,0,3.56,2.68,10.56,10.56,0,0,0,8.93,0A11.26,11.26,0,0,0,27,21.72,12.9,12.9,0,0,0,29.38,17.8ZM25,19.86a8.36,8.36,0,0,1-2.72,2,7.75,7.75,0,0,1-6.54,0,8.84,8.84,0,0,1-2.71-2,10,10,0,0,1-1.87-3.08A10.57,10.57,0,0,1,10.43,13a10.37,10.37,0,0,1,.68-3.76A9.92,9.92,0,0,1,13,6.16a8.68,8.68,0,0,1,2.71-2,7.47,7.47,0,0,1,3.25-.73,7.71,7.71,0,0,1,3.29.73,8.66,8.66,0,0,1,2.72,2A10.37,10.37,0,0,1,27.49,13a10.37,10.37,0,0,1-.69,3.79A9.88,9.88,0,0,1,25,19.86Z"/><path class="cls-1" d="M36.78,9A3.28,3.28,0,0,1,34.23,7.9a4.5,4.5,0,0,1-1-3.13,4.44,4.44,0,0,1,1-3.11A3.38,3.38,0,0,1,36.84.52a2.68,2.68,0,0,1,1.32.31,3.43,3.43,0,0,1,.93.7l-.56.68a2.5,2.5,0,0,0-.74-.56,1.88,1.88,0,0,0-.93-.22,2.25,2.25,0,0,0-1.87.9,3.78,3.78,0,0,0-.71,2.41A4,4,0,0,0,35,7.2a2.19,2.19,0,0,0,1.85.91,2.14,2.14,0,0,0,1-.25,3,3,0,0,0,.85-.68l.57.65a3.53,3.53,0,0,1-1.1.88A3,3,0,0,1,36.78,9Z"/><path class="cls-1" d="M43.32,8.87V.67h1V4.11h3.81V.67h1v8.2h-1V5H44.36V8.87Z"/><path class="cls-1" d="M54,8.87V.67h1v8.2Z"/><path class="cls-1" d="M64.28,8.87l-.77-2.5h-3l-.79,2.5H58.67L61.44.67h1.18l2.77,8.2ZM61.17,4.28l-.39,1.25h2.46l-.38-1.25c-.15-.46-.3-.91-.43-1.37S62.16,2,62,1.52H62c-.12.47-.25.94-.39,1.39S61.32,3.82,61.17,4.28Z"/><path class="cls-1" d="M70.09,8.87h-1V.67h2.56a3.83,3.83,0,0,1,2.07.51A2,2,0,0,1,74.49,3,2.25,2.25,0,0,1,74,4.51a2.61,2.61,0,0,1-1.35.78l2.09,3.58H73.56l-2-3.46H70.09Zm0-4.31h1.38c1.32,0,2-.53,2-1.59a1.23,1.23,0,0,0-.52-1.13,2.71,2.71,0,0,0-1.47-.33H70.09Z"/><path class="cls-1" d="M83.14,8.87l-.77-2.5h-3l-.79,2.5H77.53L80.31.67h1.17l2.78,8.2ZM80,4.28l-.39,1.25h2.47l-.39-1.25c-.15-.46-.29-.91-.43-1.37S81,2,80.89,1.52h0c-.12.47-.25.94-.38,1.39S80.18,3.82,80,4.28Z"/><path class="cls-1" d="M33.68,23.87v-8.2h2.44a3.94,3.94,0,0,1,2,.46,1.65,1.65,0,0,1,.78,1.54,2,2,0,0,1-.31,1.11,1.61,1.61,0,0,1-.89.68v.05a2.23,2.23,0,0,1,1.21.62,1.87,1.87,0,0,1,.47,1.34,2,2,0,0,1-.87,1.81,4,4,0,0,1-2.25.59Zm1-4.71h1.21a2.39,2.39,0,0,0,1.51-.37,1.18,1.18,0,0,0,.47-1,1.11,1.11,0,0,0-.49-1,2.78,2.78,0,0,0-1.44-.3H34.72Zm0,3.88h1.42a3,3,0,0,0,1.65-.39,1.35,1.35,0,0,0,.59-1.22,1.21,1.21,0,0,0-.58-1.12A3.28,3.28,0,0,0,36.14,20H34.72Z"/><path class="cls-1" d="M46.56,24A3.16,3.16,0,0,1,44,22.86a4.69,4.69,0,0,1-1-3.13,4.53,4.53,0,0,1,1-3.08,3.4,3.4,0,0,1,5.06,0,4.54,4.54,0,0,1,1,3.08,4.69,4.69,0,0,1-1,3.13A3.18,3.18,0,0,1,46.56,24Zm0-.91a2.07,2.07,0,0,0,1.76-.92A4.12,4.12,0,0,0,49,19.73a4,4,0,0,0-.66-2.41,2.2,2.2,0,0,0-3.53,0,4,4,0,0,0-.66,2.41,4.12,4.12,0,0,0,.66,2.46A2.09,2.09,0,0,0,46.56,23.11Z"/><path class="cls-1" d="M54.33,23.87v-8.2h1.08l3,5.15.89,1.7h.05q0-.63-.09-1.29c0-.45,0-.89,0-1.32V15.67h1v8.2H59.09l-3-5.16L55.23,17h0c0,.42.07.84.09,1.27s0,.86,0,1.29v4.29Z"/><path class="cls-1" d="M69.44,23.87l-.77-2.5h-3l-.79,2.5H63.83l2.78-8.2h1.17l2.78,8.2Zm-3.11-4.59-.39,1.25h2.47L68,19.28c-.15-.46-.29-.91-.43-1.37s-.26-.92-.4-1.39h0c-.12.47-.25.94-.38,1.39S66.48,18.82,66.33,19.28Z"/><path class="cls-1" d="M74.22,23.87v-8.2h1V23h3.58v.89Z"/><path class="cls-1" d="M82.79,23.87v-8.2h2a3.75,3.75,0,0,1,2.89,1.06,4.21,4.21,0,0,1,1,3,4.36,4.36,0,0,1-1,3.05,3.62,3.62,0,0,1-2.84,1.09Zm1-.85h.94a2.63,2.63,0,0,0,2.15-.86,3.71,3.71,0,0,0,.72-2.43,3.53,3.53,0,0,0-.72-2.38,2.68,2.68,0,0,0-2.15-.83h-.94Z"/><path class="cls-1" d="M96,24a3.16,3.16,0,0,1-2.53-1.16,4.69,4.69,0,0,1-1-3.13,4.53,4.53,0,0,1,1-3.08,3.4,3.4,0,0,1,5.06,0,4.54,4.54,0,0,1,1,3.08,4.69,4.69,0,0,1-1,3.13A3.18,3.18,0,0,1,96,24Zm0-.91a2.07,2.07,0,0,0,1.76-.92,4.12,4.12,0,0,0,.66-2.46,4,4,0,0,0-.66-2.41,2.2,2.2,0,0,0-3.53,0,4,4,0,0,0-.66,2.41,4.12,4.12,0,0,0,.66,2.46A2.08,2.08,0,0,0,96,23.11Z"/></svg>