<svg id="Livello_1" data-name="Livello 1" xmlns="http://www.w3.org/2000/svg" viewBox="0 0 88.07 24.74"><defs><style>.cls-1,.cls-2{fill:#fff;}.cls-2{font-size:12.5px;font-family:Mada-Regular, Mada;letter-spacing:0.2em;}</style></defs><title>IO_filippo</title><rect class="cls-1" width="2.77" height="24.74"/><path class="cls-1" d="M29.16,17.14a13.48,13.48,0,0,0,0-9.58,12.7,12.7,0,0,0-2.38-3.92A11.15,11.15,0,0,0,23.19,1a10.56,10.56,0,0,0-8.93,0A11.14,11.14,0,0,0,10.7,3.64,12.7,12.7,0,0,0,8.32,7.56a13.48,13.48,0,0,0,0,9.58,12.87,12.87,0,0,0,2.38,3.93,11.26,11.26,0,0,0,3.56,2.67,10.47,10.47,0,0,0,8.93,0,11.27,11.27,0,0,0,3.59-2.67A12.87,12.87,0,0,0,29.16,17.14Zm-4.43,2.07a8.51,8.51,0,0,1-2.72,2,7.71,7.71,0,0,1-6.54,0,8.68,8.68,0,0,1-2.71-2,9.92,9.92,0,0,1-1.87-3.08,10.52,10.52,0,0,1-.68-3.78,10.43,10.43,0,0,1,.68-3.77A10.11,10.11,0,0,1,12.76,5.5a8.84,8.84,0,0,1,2.71-2,7.64,7.64,0,0,1,6.54,0,8.36,8.36,0,0,1,2.72,2,10.29,10.29,0,0,1,1.86,3.07,10.43,10.43,0,0,1,.68,3.77,10.31,10.31,0,0,1-.69,3.78A10,10,0,0,1,24.73,19.21Z"/><text class="cls-2" transform="translate(32.35 8.21)">FILIPPO<tspan x="0" y="15">DE NES</tspan></text></svg>