<svg id="Livello_1" data-name="Livello 1" xmlns="http://www.w3.org/2000/svg" viewBox="0 0 88.82 25.36"><defs><style>.cls-1{fill:#fff;}</style></defs><title>IO_filippo</title><rect class="cls-1" x="0.33" y="0.38" width="2.77" height="24.74"/><path class="cls-1" d="M29.49,17.52a13,13,0,0,0,.88-4.81A13.11,13.11,0,0,0,27.11,4a11.23,11.23,0,0,0-3.58-2.67,10.36,10.36,0,0,0-4.47-1,10.25,10.25,0,0,0-4.46,1A11.41,11.41,0,0,0,11,4a13.22,13.22,0,0,0,0,17.43,11.29,11.29,0,0,0,3.57,2.68,10.25,10.25,0,0,0,4.46,1,10.35,10.35,0,0,0,4.47-1,11.11,11.11,0,0,0,3.58-2.68A12.7,12.7,0,0,0,29.49,17.52Zm-4.43,2.06a8.32,8.32,0,0,1-2.71,2,7.75,7.75,0,0,1-6.54,0,8.88,8.88,0,0,1-2.72-2,9.94,9.94,0,0,1-1.86-3.08,10.37,10.37,0,0,1-.69-3.79A10.17,10.17,0,0,1,11.23,9a9.78,9.78,0,0,1,1.86-3.07,8.72,8.72,0,0,1,2.72-2,7.44,7.44,0,0,1,3.25-.73,7.75,7.75,0,0,1,3.29.73,8.47,8.47,0,0,1,2.71,2A10,10,0,0,1,26.92,9a10.37,10.37,0,0,1,.68,3.76,10.57,10.57,0,0,1-.68,3.79A10,10,0,0,1,25.06,19.58Z"/><path class="cls-1" d="M33.81,8.59V.39h4.73v.87H34.85V4H38v.87H34.85V8.59Z"/><path class="cls-1" d="M42.49,8.59V.39h1v8.2Z"/><path class="cls-1" d="M48.27,8.59V.39h1V7.7H52.9v.89Z"/><path class="cls-1" d="M56.85,8.59V.39h1v8.2Z"/><path class="cls-1" d="M62.64,8.59V.39H65A4.21,4.21,0,0,1,67.2.92a2,2,0,0,1,.85,1.88,2.21,2.21,0,0,1-.84,1.91A3.56,3.56,0,0,1,65,5.34H63.67V8.59Zm1-4.1H64.9C66.31,4.49,67,3.93,67,2.8a1.35,1.35,0,0,0-.54-1.23,3.05,3.05,0,0,0-1.62-.34H63.67Z"/><path class="cls-1" d="M72.21,8.59V.39h2.34a4.14,4.14,0,0,1,2.22.53,2,2,0,0,1,.85,1.88,2.23,2.23,0,0,1-.83,1.91,3.56,3.56,0,0,1-2.19.63H73.25V8.59Zm1-4.1h1.22c1.41,0,2.12-.56,2.12-1.69A1.35,1.35,0,0,0,76,1.57a3.05,3.05,0,0,0-1.62-.34H73.25Z"/><path class="cls-1" d="M84.81,8.74a3.15,3.15,0,0,1-2.52-1.16,4.69,4.69,0,0,1-1-3.13,4.56,4.56,0,0,1,1-3.09,3.41,3.41,0,0,1,5,0,4.51,4.51,0,0,1,1,3.09,4.64,4.64,0,0,1-1,3.13A3.16,3.16,0,0,1,84.81,8.74Zm0-.91a2.07,2.07,0,0,0,1.76-.92,4.07,4.07,0,0,0,.67-2.46A3.88,3.88,0,0,0,86.57,2a2.19,2.19,0,0,0-3.52,0,3.94,3.94,0,0,0-.66,2.41,4.14,4.14,0,0,0,.66,2.46A2.07,2.07,0,0,0,84.81,7.83Z"/><path class="cls-1" d="M33.81,23.59v-8.2h2a3.75,3.75,0,0,1,2.89,1.06,4.21,4.21,0,0,1,1,3,4.36,4.36,0,0,1-1,3.05,3.62,3.62,0,0,1-2.84,1.09Zm1-.85h.94a2.65,2.65,0,0,0,2.15-.86,3.71,3.71,0,0,0,.72-2.43,3.53,3.53,0,0,0-.72-2.38,2.69,2.69,0,0,0-2.15-.83h-.94Z"/><path class="cls-1" d="M44,23.59v-8.2h4.72v.87H45v2.58h3.11v.89H45v3h3.81v.89Z"/><path class="cls-1" d="M58.09,23.59v-8.2h1.07l3,5.15.89,1.7h.05c0-.42-.05-.85-.08-1.29s0-.89,0-1.32V15.39h1v8.2H62.85l-3-5.16L59,16.74h-.05L59,18c0,.43,0,.86,0,1.29v4.29Z"/><path class="cls-1" d="M68.67,23.59v-8.2H73.4v.87H69.71v2.58h3.11v.89H69.71v3h3.81v.89Z"/><path class="cls-1" d="M80,23.74a3.85,3.85,0,0,1-1.6-.33,4.17,4.17,0,0,1-1.28-.88l.63-.73a3.19,3.19,0,0,0,1,.74,2.78,2.78,0,0,0,1.23.29,2,2,0,0,0,1.26-.37,1.2,1.2,0,0,0,.45-1,1,1,0,0,0-.39-.91,5.33,5.33,0,0,0-1-.54l-1.18-.51a3.78,3.78,0,0,1-1.12-.73,1.77,1.77,0,0,1-.54-1.39,2,2,0,0,1,.73-1.55,2.78,2.78,0,0,1,1.85-.62,3.23,3.23,0,0,1,1.35.28,3.44,3.44,0,0,1,1.07.73l-.56.68a2.68,2.68,0,0,0-.83-.57,2.46,2.46,0,0,0-1-.21,1.75,1.75,0,0,0-1.11.33,1,1,0,0,0-.42.87,1,1,0,0,0,.44.88,5.36,5.36,0,0,0,.92.48l1.17.5a4.13,4.13,0,0,1,1.2.8,1.88,1.88,0,0,1,.48,1.39,2.16,2.16,0,0,1-.74,1.66A2.94,2.94,0,0,1,80,23.74Z"/></svg>