<svg id="Livello_1" data-name="Livello 1" xmlns="http://www.w3.org/2000/svg" viewBox="0 0 141.52 69.07"><defs><style>.cls-1{fill:#20244d;}</style></defs><title>IOIO_dark</title><rect class="cls-1" x="52.55" y="21.16" width="37.03" height="0.67" transform="translate(23.19 78.24) rotate(-66.67)"/><path class="cls-1" d="M68.11,55.54a6.55,6.55,0,0,0-2-1.53A6.06,6.06,0,0,0,61,54a6.63,6.63,0,0,0-2,1.53,7.58,7.58,0,0,0-1.86,5,7.58,7.58,0,0,0,1.86,5A6.56,6.56,0,0,0,61,67a6,6,0,0,0,5.09,0,6.3,6.3,0,0,0,2-1.52,7.57,7.57,0,0,0,1.35-7.7A7.2,7.2,0,0,0,68.11,55.54ZM68,62.66a5.86,5.86,0,0,1-1.06,1.76,4.9,4.9,0,0,1-1.55,1.15,4.39,4.39,0,0,1-3.73,0,5.16,5.16,0,0,1-1.54-1.17,5.52,5.52,0,0,1-1.07-1.75,6.15,6.15,0,0,1,0-4.31,5.64,5.64,0,0,1,1.07-1.75,5,5,0,0,1,1.54-1.16A4.22,4.22,0,0,1,63.52,55a4.27,4.27,0,0,1,1.87.42,4.68,4.68,0,0,1,1.55,1.16A5.69,5.69,0,0,1,68,58.35a6.15,6.15,0,0,1,0,4.31Z"/><path class="cls-1" d="M74,65.84a5.11,5.11,0,0,1,.6-1,9.32,9.32,0,0,1,.91-1c.36-.34.74-.68,1.14-1q.86-.7,1.71-1.32a14.51,14.51,0,0,0,1.56-1.31l.54-.55a3.2,3.2,0,0,0,.71-1,2.91,2.91,0,0,0,.23-1.12A3.6,3.6,0,0,0,81,55.91a4.05,4.05,0,0,0-1-1.3,4.71,4.71,0,0,0-1.44-.86,5.12,5.12,0,0,0-3.26-.09,5.2,5.2,0,0,0-1.3.62,4.2,4.2,0,0,0-1,1,3.8,3.8,0,0,0-.64,1.27l-.17.57,1.34.49.22-.59a3.13,3.13,0,0,1,.5-.87,3.71,3.71,0,0,1,.72-.66,3.35,3.35,0,0,1,.88-.4,3.54,3.54,0,0,1,2.23.07,3.28,3.28,0,0,1,1,.6,2.69,2.69,0,0,1,.63.84,2.14,2.14,0,0,1,.22,1,1.33,1.33,0,0,1-.09.51,1.8,1.8,0,0,1-.36.54,9.27,9.27,0,0,1-1.1,1c-.46.38-.95.76-1.47,1.15L75.3,62a13.25,13.25,0,0,0-1.47,1.42A7.66,7.66,0,0,0,72.72,65a4.18,4.18,0,0,0-.46,1.89v.64h9.65v-1.5h-8Z"/><path class="cls-1" d="M47,65.84a5.11,5.11,0,0,1,.6-1,8.5,8.5,0,0,1,.92-1c.36-.34.73-.68,1.13-1q.86-.7,1.71-1.32a13.59,13.59,0,0,0,1.56-1.31l.55-.55a3.16,3.16,0,0,0,.7-1,2.74,2.74,0,0,0,.23-1.12A3.6,3.6,0,0,0,54,55.91a4.17,4.17,0,0,0-1-1.3,4.76,4.76,0,0,0-1.45-.86,5.07,5.07,0,0,0-4.56.53,4.58,4.58,0,0,0-1,1,3.8,3.8,0,0,0-.64,1.27l-.17.57,1.34.49.22-.59a3.16,3.16,0,0,1,.51-.87,3.21,3.21,0,0,1,.72-.66,3.28,3.28,0,0,1,.87-.4,3.54,3.54,0,0,1,2.23.07,3.28,3.28,0,0,1,1,.6,2.72,2.72,0,0,1,.64.84,2.28,2.28,0,0,1,.21,1,1.16,1.16,0,0,1-.09.51,1.8,1.8,0,0,1-.36.54,8.56,8.56,0,0,1-1.1,1c-.46.38-.95.76-1.47,1.15L48.29,62a12.54,12.54,0,0,0-1.48,1.42A7.66,7.66,0,0,0,45.7,65a4.18,4.18,0,0,0-.46,1.89v.64h9.65v-1.5h-8C46.9,66,46.93,65.92,47,65.84Z"/><path class="cls-1" d="M95.13,55.54a6.59,6.59,0,0,0-2-1.53A6,6,0,0,0,88,54a6.51,6.51,0,0,0-2,1.53,7.23,7.23,0,0,0-1.36,2.24,7.7,7.7,0,0,0,0,5.46A7.34,7.34,0,0,0,86,65.48,6.44,6.44,0,0,0,88,67a6,6,0,0,0,5.09,0,6.52,6.52,0,0,0,2-1.52,7.57,7.57,0,0,0,1.35-7.7A7.2,7.2,0,0,0,95.13,55.54ZM95,62.66A5.86,5.86,0,0,1,94,64.42a5,5,0,0,1-1.55,1.15,4.39,4.39,0,0,1-3.73,0,5.33,5.33,0,0,1-1.55-1.17,5.69,5.69,0,0,1-1.06-1.75,6.15,6.15,0,0,1,0-4.31,5.81,5.81,0,0,1,1.06-1.75,5,5,0,0,1,1.55-1.16A4.18,4.18,0,0,1,90.53,55a4.34,4.34,0,0,1,1.88.42A4.78,4.78,0,0,1,94,56.6,5.69,5.69,0,0,1,95,58.35a6.15,6.15,0,0,1,0,4.31Z"/><rect class="cls-1" x="1.37" y="0.77" width="4.64" height="41.45"/><path class="cls-1" d="M50.23,29.5a22,22,0,0,0,1.47-8.06,21.89,21.89,0,0,0-1.47-8,21.43,21.43,0,0,0-4-6.57,19,19,0,0,0-6-4.49,17.71,17.71,0,0,0-15,0,18.79,18.79,0,0,0-6,4.49,21.45,21.45,0,0,0-4,6.57,21.85,21.85,0,0,0-1.47,8,22,22,0,0,0,1.47,8.06,21.53,21.53,0,0,0,4,6.57,18.94,18.94,0,0,0,6,4.49,17.71,17.71,0,0,0,15,0,19,19,0,0,0,6-4.49A21.5,21.5,0,0,0,50.23,29.5ZM42.81,33a14.22,14.22,0,0,1-4.55,3.4,13,13,0,0,1-11,0A14.73,14.73,0,0,1,22.75,33a16.73,16.73,0,0,1-3.13-5.16,17.59,17.59,0,0,1-1.15-6.35,17.33,17.33,0,0,1,1.15-6.31A16.75,16.75,0,0,1,22.75,10,14.73,14.73,0,0,1,27.3,6.57a12.42,12.42,0,0,1,5.44-1.22,12.9,12.9,0,0,1,5.52,1.23A14.37,14.37,0,0,1,42.81,10a17.07,17.07,0,0,1,3.11,5.15,17.33,17.33,0,0,1,1.15,6.31,17.59,17.59,0,0,1-1.15,6.35A17,17,0,0,1,42.81,33Z"/><rect class="cls-1" x="90.43" y="0.77" width="4.64" height="41.45"/><path class="cls-1" d="M135.31,6.87a18.84,18.84,0,0,0-6-4.49A17.41,17.41,0,0,0,121.81.72a17.22,17.22,0,0,0-7.47,1.66,18.83,18.83,0,0,0-6,4.49,21.65,21.65,0,0,0-4,6.57,22.67,22.67,0,0,0,0,16.06,21.53,21.53,0,0,0,4,6.57,18.86,18.86,0,0,0,6,4.49,17.22,17.22,0,0,0,7.47,1.66,17.41,17.41,0,0,0,7.49-1.66,18.84,18.84,0,0,0,6-4.49,21.31,21.31,0,0,0,4-6.57,22.52,22.52,0,0,0,0-16.06A21.43,21.43,0,0,0,135.31,6.87ZM135,27.79A17,17,0,0,1,131.87,33a14.11,14.11,0,0,1-4.55,3.4,13,13,0,0,1-11,0A14.73,14.73,0,0,1,111.81,33a16.52,16.52,0,0,1-3.12-5.16,17.37,17.37,0,0,1-1.15-6.35,17.12,17.12,0,0,1,1.15-6.31A16.53,16.53,0,0,1,111.81,10a14.73,14.73,0,0,1,4.55-3.42,12.43,12.43,0,0,1,5.45-1.22,12.86,12.86,0,0,1,5.51,1.23,14.26,14.26,0,0,1,4.55,3.4A16.87,16.87,0,0,1,135,15.13a17.33,17.33,0,0,1,1.15,6.31A17.59,17.59,0,0,1,135,27.79Z"/></svg>