<svg id="Livello_1" data-name="Livello 1" xmlns="http://www.w3.org/2000/svg" viewBox="0 0 141.68 100.14"><defs><style>.cls-1{fill:#20244d;}</style></defs><title>IOIO_CF_dark</title><rect class="cls-1" x="52.47" y="52.25" width="37.03" height="0.67" transform="translate(-5.41 96.94) rotate(-66.67)"/><path class="cls-1" d="M5.69,20.07a2.08,2.08,0,0,1-1,.25,2.2,2.2,0,0,1-1.86-.91A4,4,0,0,1,2.11,17a3.79,3.79,0,0,1,.7-2.42,2.27,2.27,0,0,1,1.87-.9,2,2,0,0,1,.94.22,2.5,2.5,0,0,1,.74.56l.56-.68A3.43,3.43,0,0,0,6,13a2.68,2.68,0,0,0-1.32-.31,3.37,3.37,0,0,0-2.6,1.14A4.44,4.44,0,0,0,1,17a4.5,4.5,0,0,0,1,3.13,3.3,3.3,0,0,0,2.56,1.12A3,3,0,0,0,6,20.92,3.65,3.65,0,0,0,7.12,20l-.58-.65A2.72,2.72,0,0,1,5.69,20.07Z"/><polygon class="cls-1" points="15.99 21.08 17.04 21.08 17.04 12.88 15.99 12.88 15.99 16.32 12.18 16.32 12.18 12.88 11.15 12.88 11.15 21.08 12.18 21.08 12.18 17.22 15.99 17.22 15.99 21.08"/><rect class="cls-1" x="21.79" y="12.88" width="1.04" height="8.2"/><path class="cls-1" d="M28.34,18.58h3l.78,2.5h1.11l-2.78-8.2H29.27l-2.77,8.2h1.06ZM29,16.49c.14-.46.29-.91.42-1.37s.26-.92.39-1.39h.05c.13.47.26.94.4,1.39s.27.91.42,1.37l.39,1.25H28.61Z"/><path class="cls-1" d="M37.92,17.62h1.49l2,3.46h1.18L40.47,17.5a2.54,2.54,0,0,0,1.34-.78,2.25,2.25,0,0,0,.51-1.54,2,2,0,0,0-.81-1.79,3.78,3.78,0,0,0-2.07-.51H36.88v8.2h1Zm0-3.9h1.37a2.73,2.73,0,0,1,1.48.33,1.25,1.25,0,0,1,.51,1.13c0,1.06-.66,1.59-2,1.59H37.92Z"/><path class="cls-1" d="M47.21,18.58h3l.78,2.5h1.11l-2.77-8.2H48.13l-2.77,8.2h1.06Zm.65-2.09c.15-.46.29-.91.42-1.37s.26-.92.39-1.39h0c.13.47.27.94.4,1.39s.27.91.42,1.37l.39,1.25H47.47Z"/><polygon class="cls-1" points="90.18 21.08 91.22 21.08 91.22 17.41 94.34 17.41 94.34 16.53 91.22 16.53 91.22 13.76 94.91 13.76 94.91 12.88 90.18 12.88 90.18 21.08"/><rect class="cls-1" x="98.23" y="12.88" width="1.04" height="8.2"/><polygon class="cls-1" points="108.02 20.19 104.43 20.19 104.43 12.88 103.39 12.88 103.39 21.08 108.02 21.08 108.02 20.19"/><rect class="cls-1" x="111.34" y="12.88" width="1.04" height="8.2"/><path class="cls-1" d="M117.54,17.83h1.35a3.62,3.62,0,0,0,2.19-.62,2.25,2.25,0,0,0,.84-1.92,2.06,2.06,0,0,0-.85-1.88,4.21,4.21,0,0,0-2.23-.53h-2.33v8.2h1Zm0-4.11h1.18a3.1,3.1,0,0,1,1.62.34,1.35,1.35,0,0,1,.54,1.23c0,1.13-.7,1.69-2.11,1.69h-1.23Z"/><path class="cls-1" d="M126.49,17.83h1.35a3.62,3.62,0,0,0,2.19-.62,2.25,2.25,0,0,0,.84-1.92,2,2,0,0,0-.85-1.88,4.21,4.21,0,0,0-2.23-.53h-2.34v8.2h1Zm0-4.11h1.18a3.1,3.1,0,0,1,1.62.34,1.35,1.35,0,0,1,.54,1.23c0,1.13-.7,1.69-2.11,1.69h-1.23Z"/><path class="cls-1" d="M137.43,21.23A3.17,3.17,0,0,0,140,20.07a4.64,4.64,0,0,0,1-3.13,4.49,4.49,0,0,0-1-3.08,3.39,3.39,0,0,0-5.05,0,4.54,4.54,0,0,0-1,3.08,4.69,4.69,0,0,0,1,3.13A3.15,3.15,0,0,0,137.43,21.23Zm-1.76-6.7a2.19,2.19,0,0,1,3.52,0,4,4,0,0,1,.66,2.41,4.12,4.12,0,0,1-.66,2.46,2.14,2.14,0,0,1-3.52,0,4.12,4.12,0,0,1-.66-2.46A4,4,0,0,1,135.67,14.53Z"/><path class="cls-1" d="M68,86.62a6.37,6.37,0,0,0-2-1.52,6,6,0,0,0-5.09,0,6.37,6.37,0,0,0-2,1.52,7.57,7.57,0,0,0-1.35,7.7,7.2,7.2,0,0,0,1.35,2.24,6.51,6.51,0,0,0,2,1.53,5.93,5.93,0,0,0,2.54.56A6,6,0,0,0,66,98.09a6.4,6.4,0,0,0,2-1.53,7.42,7.42,0,0,0,1.36-2.24,7.7,7.7,0,0,0,0-5.46A7.34,7.34,0,0,0,68,86.62Zm-.11,7.12a6,6,0,0,1-1,1.76,4.82,4.82,0,0,1-1.56,1.16,4.42,4.42,0,0,1-3.73,0A5,5,0,0,1,60,95.5,5.69,5.69,0,0,1,59,93.74a6,6,0,0,1-.39-2.16A5.81,5.81,0,0,1,59,89.44,5.52,5.52,0,0,1,60,87.69a5.16,5.16,0,0,1,1.54-1.17,4.36,4.36,0,0,1,1.86-.41,4.27,4.27,0,0,1,1.87.42,4.94,4.94,0,0,1,1.56,1.15,6,6,0,0,1,1,1.76,5.81,5.81,0,0,1,.39,2.14A6,6,0,0,1,67.91,93.74Z"/><path class="cls-1" d="M73.89,96.92a5.11,5.11,0,0,1,.6-1,8.44,8.44,0,0,1,.92-1c.36-.35.73-.68,1.13-1,.57-.47,1.14-.91,1.71-1.33a12.51,12.51,0,0,0,1.56-1.31l.55-.54a3.36,3.36,0,0,0,.7-1,2.87,2.87,0,0,0,.23-1.11A3.67,3.67,0,0,0,80.92,87a4.16,4.16,0,0,0-1-1.3,4.6,4.6,0,0,0-1.44-.86,5.12,5.12,0,0,0-3.26-.09,4.9,4.9,0,0,0-1.3.63,4.58,4.58,0,0,0-1,1,3.76,3.76,0,0,0-.64,1.26l-.17.58,1.34.48.22-.58a3.49,3.49,0,0,1,.51-.88,3.1,3.1,0,0,1,.71-.65,3.21,3.21,0,0,1,.88-.41,3.54,3.54,0,0,1,2.23.08,3.47,3.47,0,0,1,1,.59,2.93,2.93,0,0,1,.64.85,2.24,2.24,0,0,1,.21,1,1.36,1.36,0,0,1-.09.51,1.93,1.93,0,0,1-.36.54,10.18,10.18,0,0,1-1.1,1L76.8,91.85c-.53.4-1,.82-1.58,1.26a13.34,13.34,0,0,0-1.48,1.41,8.22,8.22,0,0,0-1.11,1.6,4.22,4.22,0,0,0-.46,1.9v.63h9.65V97.16h-8Z"/><path class="cls-1" d="M46.88,96.92a4.58,4.58,0,0,1,.59-1,8.44,8.44,0,0,1,.92-1c.36-.35.74-.68,1.13-1,.57-.47,1.14-.91,1.71-1.33a11.82,11.82,0,0,0,1.56-1.31l.55-.54a3.4,3.4,0,0,0,.71-1,2.85,2.85,0,0,0,.22-1.11A3.67,3.67,0,0,0,53.9,87a4.29,4.29,0,0,0-1-1.3,4.83,4.83,0,0,0-1.44-.86,5,5,0,0,0-4.57.54,4.58,4.58,0,0,0-1,1,4.16,4.16,0,0,0-.64,1.26l-.17.58,1.34.48.22-.58a3.49,3.49,0,0,1,.51-.88,3.14,3.14,0,0,1,.72-.65,3,3,0,0,1,.87-.41,3.54,3.54,0,0,1,2.23.08,3.34,3.34,0,0,1,1,.59,2.76,2.76,0,0,1,.64.85,2.25,2.25,0,0,1,.22,1,1.36,1.36,0,0,1-.09.51,2.27,2.27,0,0,1-.37.54,8.59,8.59,0,0,1-1.1,1l-1.46,1.15c-.52.4-1.05.82-1.58,1.26a14.28,14.28,0,0,0-1.48,1.41,7.75,7.75,0,0,0-1.1,1.6,4.11,4.11,0,0,0-.47,1.9v.63H54.8V97.16h-8A1.17,1.17,0,0,1,46.88,96.92Z"/><path class="cls-1" d="M95,86.62A6.3,6.3,0,0,0,93,85.1a6,6,0,0,0-5.09,0,6.33,6.33,0,0,0-2,1.52,7.61,7.61,0,0,0-1.36,7.7,7.42,7.42,0,0,0,1.36,2.24,6.47,6.47,0,0,0,2,1.53,6.06,6.06,0,0,0,5.09,0A6.44,6.44,0,0,0,95,96.56a7.42,7.42,0,0,0,1.36-2.24A7.53,7.53,0,0,0,95,86.62Zm-.11,7.12a5.86,5.86,0,0,1-1.06,1.76,4.78,4.78,0,0,1-1.55,1.16,4.42,4.42,0,0,1-3.73,0A5.12,5.12,0,0,1,87,95.5,5.86,5.86,0,0,1,86,93.74a6,6,0,0,1-.39-2.16A5.81,5.81,0,0,1,86,89.44,5.69,5.69,0,0,1,87,87.69a5.33,5.33,0,0,1,1.55-1.17,4.4,4.4,0,0,1,3.73,0,4.79,4.79,0,0,1,1.55,1.15,5.88,5.88,0,0,1,1.45,3.9A6,6,0,0,1,94.93,93.74Z"/><rect class="cls-1" x="1.28" y="31.86" width="4.64" height="41.45"/><path class="cls-1" d="M50.14,60.58a22.52,22.52,0,0,0,0-16.06,21.55,21.55,0,0,0-4-6.57,19,19,0,0,0-6-4.48,17.61,17.61,0,0,0-15,0,19,19,0,0,0-6,4.48,21.77,21.77,0,0,0-4,6.57,22.67,22.67,0,0,0,0,16.06,21.7,21.7,0,0,0,4,6.58,18.91,18.91,0,0,0,6,4.48,17.61,17.61,0,0,0,15,0,19,19,0,0,0,6-4.48A21.48,21.48,0,0,0,50.14,60.58ZM42.72,64a14.4,14.4,0,0,1-4.55,3.41,13,13,0,0,1-11,0A14.73,14.73,0,0,1,22.66,64a16.52,16.52,0,0,1-3.12-5.16,18,18,0,0,1,0-12.65,16.75,16.75,0,0,1,3.13-5.14,14.73,14.73,0,0,1,4.55-3.42,12.43,12.43,0,0,1,5.45-1.22,12.85,12.85,0,0,1,5.51,1.22,14.25,14.25,0,0,1,4.55,3.41,16.75,16.75,0,0,1,3.11,5.15A17.29,17.29,0,0,1,47,52.53a17.53,17.53,0,0,1-1.15,6.34A16.81,16.81,0,0,1,42.72,64Z"/><rect class="cls-1" x="90.35" y="31.86" width="4.64" height="41.45"/><path class="cls-1" d="M135.22,38a19,19,0,0,0-6-4.48,17.27,17.27,0,0,0-7.49-1.67,17.09,17.09,0,0,0-7.47,1.67,19.06,19.06,0,0,0-6,4.48,21.55,21.55,0,0,0-4,6.57,22.52,22.52,0,0,0,0,16.06,21.48,21.48,0,0,0,4,6.58,19.06,19.06,0,0,0,6,4.48,17.09,17.09,0,0,0,7.47,1.67,17.27,17.27,0,0,0,7.49-1.67,19,19,0,0,0,6-4.48,21.48,21.48,0,0,0,4-6.58,22.52,22.52,0,0,0,0-16.06A21.55,21.55,0,0,0,135.22,38Zm-.33,20.92A16.62,16.62,0,0,1,131.78,64a14.18,14.18,0,0,1-4.55,3.41,13,13,0,0,1-11,0A14.73,14.73,0,0,1,111.72,64a16.52,16.52,0,0,1-3.12-5.16,17.53,17.53,0,0,1-1.15-6.34,17.29,17.29,0,0,1,1.15-6.31,16.53,16.53,0,0,1,3.12-5.14,14.73,14.73,0,0,1,4.55-3.42,12.43,12.43,0,0,1,5.45-1.22,12.82,12.82,0,0,1,5.51,1.22,14.29,14.29,0,0,1,4.56,3.41A17.28,17.28,0,0,1,136,52.53,17.32,17.32,0,0,1,134.89,58.87Z"/><path class="cls-1" d="M84.2,17.17a.15.15,0,0,0-.19.09q-.39.81-.93,1.74a11.13,11.13,0,0,1-1.2,1.69A7.56,7.56,0,0,1,80.48,22a2.65,2.65,0,0,1-1.54.51.85.85,0,0,1-.74-.33,1.46,1.46,0,0,1-.22-.84,6.84,6.84,0,0,1,.51-2.06A30.49,30.49,0,0,1,80,15.88q1-2,2.53-4.49T86.08,6a16.23,16.23,0,0,1,1.78-2.16,11.35,11.35,0,0,1,1.82-1.53,3.25,3.25,0,0,1,.93-.41,4,4,0,0,1,1-.13,2.79,2.79,0,0,1,.56,0,2.12,2.12,0,0,1,.33.11l.22.1a.41.41,0,0,0,.18.05q.15,0,.21-.21a.94.94,0,0,1,.24-.51A.52.52,0,0,0,93.55,1c0-.1-.08-.18-.22-.24a1.63,1.63,0,0,0-.59-.09A4.29,4.29,0,0,0,91,1.15,9.59,9.59,0,0,0,88.35,3a28.19,28.19,0,0,0-2.57,2.85A48.13,48.13,0,0,0,82.9,9.79q-1.32,2-2.76,4.53a7.09,7.09,0,0,0-3.37,1.5,12,12,0,0,0-2.48,2.94,3.3,3.3,0,0,0-.18.32l-.58.5a11.83,11.83,0,0,1-1.43,1,2.53,2.53,0,0,1-1.2.39.71.71,0,0,1-.48-.14.64.64,0,0,1-.15-.49,3.2,3.2,0,0,1,.3-1.14c.2-.48.45-1,.73-1.52s.6-1,.92-1.54.59-.91.81-1.23a.8.8,0,0,0,.15-.36.5.5,0,0,0-.1-.26.29.29,0,0,0-.23-.13,1.56,1.56,0,0,0-.65.31c-.31.21-.67.48-1.08.8s-.84.67-1.28,1.05S69,17,68.59,17.38a14.57,14.57,0,0,1,.85-1.64,3.47,3.47,0,0,0,.44-.82.52.52,0,0,0-.48-.48.29.29,0,0,0-.27.15c-.24.56-.53,1.19-.87,1.9l-.35.72c-.36.43-.72.85-1.11,1.25a17.83,17.83,0,0,1-1.54,1.42,8.42,8.42,0,0,1-1.41,1,2.57,2.57,0,0,1-1.14.35.66.66,0,0,1-.55-.18.73.73,0,0,1-.14-.45,5.73,5.73,0,0,1,.65-2.12c.43-1,1.1-2.23,2-3.85l.54,0a2.48,2.48,0,0,1,.54.09.08.08,0,0,0,.09-.09q0-.09-.15-.15l-.45-.06-.45,0,.29-.47a1.88,1.88,0,0,1,.28-.37l-.06,0-.84.24a.94.94,0,0,0-.24.18,1.69,1.69,0,0,0-.27.42,4.64,4.64,0,0,0-2.43.7,9.76,9.76,0,0,0-2.09,1.68,9.28,9.28,0,0,0-1.45,2,4,4,0,0,0-.54,1.74.56.56,0,0,0,.63.63,2,2,0,0,0,1-.32A7.3,7.3,0,0,0,60.13,20a11.28,11.28,0,0,0,1-1q.51-.57.9-1.08a7.36,7.36,0,0,0-.76,1.51,3.33,3.33,0,0,0-.26,1.13,1.16,1.16,0,0,0,.24.75,1,1,0,0,0,.84.3,3.4,3.4,0,0,0,1.52-.42,9.6,9.6,0,0,0,1.66-1.11A19.8,19.8,0,0,0,67,18.53l.58-.63-.3.62-.83,1a1.35,1.35,0,0,0-.37.74,2.11,2.11,0,0,0,.11.42c.06.22.15.33.25.33s.1-.06.18-.18c.34-.52.62-1,.85-1.41s.51-.88.83-1.38a7.69,7.69,0,0,1,.71-.75c.28-.28.58-.56.89-.83s.62-.52.92-.76a9.2,9.2,0,0,1,.78-.57c.1-.06.17-.06.19,0a.34.34,0,0,1,0,.26,11.42,11.42,0,0,1-.71,1.38q-.42.75-.84,1.47c-.27.48-.5.93-.7,1.36a2.69,2.69,0,0,0-.3,1.07.48.48,0,0,0,.3.52,2,2,0,0,0,.66.11,3.72,3.72,0,0,0,1.6-.39,8.92,8.92,0,0,0,1.62-1l.5-.41,0,.06a2.31,2.31,0,0,0-.15.71,1,1,0,0,0,.15.58.64.64,0,0,0,.57.23,1.45,1.45,0,0,0,.61-.17,4.34,4.34,0,0,0,.83-.55A10.76,10.76,0,0,0,77,19.33q.63-.69,1.47-1.71a17.28,17.28,0,0,0-.88,2,4.53,4.53,0,0,0-.29,1.55,1.61,1.61,0,0,0,.39,1.12,1.53,1.53,0,0,0,1.2.44,2.93,2.93,0,0,0,1.46-.42,6.37,6.37,0,0,0,1.41-1.16A12.69,12.69,0,0,0,83,19.46c.41-.65.8-1.33,1.16-2.05C84.29,17.27,84.29,17.19,84.2,17.17Zm-23,1.56a10.54,10.54,0,0,1-1,.94,8.45,8.45,0,0,1-.86.65,1.22,1.22,0,0,1-.55.24q-.18,0-.18-.24a4,4,0,0,1,.44-1.41A10.72,10.72,0,0,1,60.22,17a8.53,8.53,0,0,1,1.65-1.69,3.14,3.14,0,0,1,2-.72l0,0L63,16q-.45.81-.93,1.53A8.78,8.78,0,0,1,61.19,18.73Zm16.06,0A12.62,12.62,0,0,1,76,19.93a1.78,1.78,0,0,1-.77.45.46.46,0,0,1-.18-.06.21.21,0,0,1-.12-.21,4,4,0,0,1,.48-1.49,13,13,0,0,1,1.62-2.41,4.73,4.73,0,0,1,1.09-1,3.37,3.37,0,0,1,1.76-.43,14.51,14.51,0,0,1-1.26,2.16C78.16,17.61,77.69,18.2,77.25,18.71Z"/></svg>