<?xml version="1.0" standalone="no"?>
<!DOCTYPE svg PUBLIC "-//W3C//DTD SVG 20010904//EN"
 "http://www.w3.org/TR/2001/REC-SVG-20010904/DTD/svg10.dtd">
<svg version="1.0" xmlns="http://www.w3.org/2000/svg"
 width="656.000000pt" height="656.000000pt" viewBox="0 0 656.000000 656.000000"
 preserveAspectRatio="xMidYMid meet">
<metadata>
Created by potrace 1.11, written by Peter Selinger 2001-2013
</metadata>
<g transform="translate(0.000000,656.000000) scale(0.100000,-0.100000)"
fill="#000000" stroke="none">
<path d="M778 4606 c-7 -19 -3 -1635 4 -1641 8 -9 166 -10 175 -2 4 4 7 376 7
827 1 721 -1 821 -14 824 -35 9 -169 3 -172 -8z"/>
<path d="M1910 4610 c-19 -5 -48 -11 -65 -15 -95 -21 -261 -120 -335 -202 -96
-105 -175 -244 -205 -363 -9 -36 -19 -74 -22 -85 -3 -11 -7 -72 -8 -136 -3
-112 6 -181 39 -294 15 -53 96 -215 107 -215 5 0 9 -7 9 -15 0 -29 172 -188
252 -233 42 -24 83 -45 90 -46 7 -2 20 -5 28 -8 208 -71 416 -47 603 70 94 58
145 105 210 191 48 63 117 192 130 243 4 12 7 24 8 25 0 2 9 33 19 71 28 111
23 299 -13 437 -19 72 -91 219 -139 280 -93 119 -232 226 -338 260 -17 5 -98
29 -110 32 -31 9 -227 10 -260 3z m260 -196 c196 -55 372 -250 416 -459 2 -11
7 -31 9 -45 8 -35 13 -173 7 -184 -3 -5 -6 -25 -7 -45 -5 -77 -70 -241 -115
-289 -12 -12 -17 -22 -13 -22 4 0 -22 -29 -58 -64 -60 -58 -187 -135 -238
-143 -9 -1 -36 -6 -61 -11 -150 -28 -324 30 -452 150 -49 46 -120 153 -145
219 -43 113 -48 142 -47 279 1 117 4 144 26 205 36 99 77 169 142 241 93 103
210 168 331 181 28 3 51 6 52 7 8 6 106 -7 153 -20z"/>
<path d="M3779 4597 c-3 -128 0 -1629 4 -1633 5 -5 112 -8 167 -5 13 1 15 100
15 826 0 726 -2 826 -15 829 -8 2 -50 4 -92 4 -73 1 -78 -1 -79 -21z"/>
<path d="M4939 4615 c-2 -2 -22 -6 -44 -9 -123 -19 -269 -100 -373 -206 -66
-67 -67 -69 -109 -135 -144 -230 -178 -508 -92 -760 80 -237 242 -411 459
-498 36 -14 81 -28 100 -31 19 -4 46 -9 60 -12 47 -9 138 -5 242 10 35 5 126
39 186 70 190 96 345 307 402 548 15 67 19 110 16 218 -2 74 -6 144 -9 155
-48 188 -116 318 -227 432 -58 59 -174 140 -231 162 -19 7 -43 17 -54 22 -50
21 -118 32 -216 35 -59 2 -108 1 -110 -1z m231 -202 c222 -64 401 -286 427
-529 16 -151 -7 -292 -67 -414 -58 -115 -174 -228 -290 -281 -81 -36 -219 -54
-295 -36 -22 5 -48 10 -57 12 -32 7 -107 43 -151 74 -126 86 -217 223 -256
384 -25 99 -21 316 5 359 3 4 7 17 9 28 7 36 75 169 101 196 6 7 21 25 35 41
13 15 44 44 69 63 25 19 47 38 50 41 7 9 97 49 135 61 17 5 50 12 75 14 24 3
46 6 47 8 7 7 113 -7 163 -21z"/>
<path d="M3435 4358 c-26 -62 -58 -137 -71 -166 -13 -29 -24 -55 -24 -57 0 -3
-14 -35 -31 -72 -37 -80 -44 -97 -99 -228 -24 -55 -53 -123 -66 -152 -13 -28
-24 -54 -24 -57 0 -2 -13 -33 -29 -68 -25 -54 -173 -398 -188 -435 -3 -7 1
-13 9 -13 14 0 24 18 70 130 10 25 26 59 35 75 10 17 16 31 15 33 -1 1 4 17
12 35 8 17 28 66 46 107 32 76 39 92 83 190 13 30 48 111 77 180 29 69 66 153
81 188 16 35 29 65 29 67 0 3 11 28 24 57 45 99 115 263 118 277 2 7 -2 15 -8
17 -5 3 -32 -46 -59 -108z"/>
<path d="M2325 2497 c-44 -18 -59 -29 -82 -62 -37 -53 -38 -71 -3 -83 26 -10
30 -9 30 7 0 18 41 65 70 81 27 14 104 5 132 -15 72 -53 57 -109 -50 -190
-145 -109 -211 -192 -208 -261 l1 -29 190 0 190 0 3 28 c2 15 0 27 -5 28 -4 1
-75 2 -157 2 -100 1 -151 6 -153 13 -4 13 85 107 141 150 147 108 177 167 131
253 -39 74 -146 111 -230 78z"/>
<path d="M2840 2484 c-111 -50 -174 -192 -145 -324 18 -83 82 -166 150 -194
165 -69 341 54 351 247 10 212 -175 353 -356 271z m184 -59 c96 -46 141 -196
89 -300 -106 -210 -385 -108 -360 132 7 68 42 124 102 162 51 32 109 34 169 6z"/>
<path d="M3406 2498 c-34 -12 -70 -42 -92 -76 -25 -38 -25 -58 2 -70 21 -10
25 -8 39 17 32 63 104 93 168 72 44 -15 67 -40 73 -82 6 -41 -9 -59 -111 -139
-128 -100 -181 -167 -190 -240 -3 -21 1 -30 13 -34 9 -2 96 -3 192 -3 l175 2
0 30 0 30 -150 0 c-82 0 -151 3 -152 8 -2 4 -3 12 -3 17 0 16 79 93 155 151
86 65 121 103 129 140 24 122 -119 224 -248 177z"/>
<path d="M3915 2481 c-93 -47 -145 -137 -147 -257 -3 -196 190 -335 354 -255
250 120 180 527 -92 540 -44 2 -67 -4 -115 -28z m206 -66 c86 -57 117 -200 66
-301 -98 -191 -364 -99 -353 123 8 165 162 261 287 178z"/>
</g>
</svg>
